G04*
G04 #@! TF.GenerationSoftware,Altium Limited,Altium Designer,19.1.6 (110)*
G04*
G04 Layer_Color=16777215*
%FSLAX25Y25*%
%MOIN*%
G70*
G01*
G75*
%ADD14C,0.00700*%
%ADD15C,0.01000*%
%ADD88C,0.00050*%
%ADD89C,0.00500*%
D14*
X-199300Y-504511D02*
X-196301D01*
X-195301Y-504177D01*
X-194968Y-503844D01*
X-194634Y-503178D01*
Y-502178D01*
X-194968Y-501511D01*
X-195301Y-501178D01*
X-196301Y-500845D01*
X-199300D01*
Y-507843D01*
X-193068Y-505177D02*
X-189069D01*
Y-504511D01*
X-189402Y-503844D01*
X-189735Y-503511D01*
X-190402Y-503178D01*
X-191402D01*
X-192068Y-503511D01*
X-192735Y-504177D01*
X-193068Y-505177D01*
Y-505844D01*
X-192735Y-506844D01*
X-192068Y-507510D01*
X-191402Y-507843D01*
X-190402D01*
X-189735Y-507510D01*
X-189069Y-506844D01*
X-187569Y-500845D02*
Y-507843D01*
X-185436Y-500845D02*
X-185103Y-501178D01*
X-184770Y-500845D01*
X-185103Y-500512D01*
X-185436Y-500845D01*
X-185103Y-503178D02*
Y-507843D01*
X-179538Y-504177D02*
X-180204Y-503511D01*
X-180871Y-503178D01*
X-181870D01*
X-182537Y-503511D01*
X-183203Y-504177D01*
X-183537Y-505177D01*
Y-505844D01*
X-183203Y-506844D01*
X-182537Y-507510D01*
X-181870Y-507843D01*
X-180871D01*
X-180204Y-507510D01*
X-179538Y-506844D01*
X-174039Y-503178D02*
Y-507843D01*
Y-504177D02*
X-174705Y-503511D01*
X-175372Y-503178D01*
X-176372D01*
X-177038Y-503511D01*
X-177705Y-504177D01*
X-178038Y-505177D01*
Y-505844D01*
X-177705Y-506844D01*
X-177038Y-507510D01*
X-176372Y-507843D01*
X-175372D01*
X-174705Y-507510D01*
X-174039Y-506844D01*
X-172172Y-503178D02*
Y-507843D01*
Y-504511D02*
X-171173Y-503511D01*
X-170506Y-503178D01*
X-169506D01*
X-168840Y-503511D01*
X-168507Y-504511D01*
Y-507843D01*
X-156842Y-500845D02*
X-161175D01*
Y-507843D01*
X-156842D01*
X-161175Y-504177D02*
X-158509D01*
X-155676Y-503178D02*
Y-507843D01*
Y-504511D02*
X-154676Y-503511D01*
X-154010Y-503178D01*
X-153010D01*
X-152343Y-503511D01*
X-152010Y-504511D01*
Y-507843D01*
X-146178Y-503178D02*
Y-508510D01*
X-146511Y-509510D01*
X-146845Y-509843D01*
X-147511Y-510176D01*
X-148511D01*
X-149177Y-509843D01*
X-146178Y-504177D02*
X-146845Y-503511D01*
X-147511Y-503178D01*
X-148511D01*
X-149177Y-503511D01*
X-149844Y-504177D01*
X-150177Y-505177D01*
Y-505844D01*
X-149844Y-506844D01*
X-149177Y-507510D01*
X-148511Y-507843D01*
X-147511D01*
X-146845Y-507510D01*
X-146178Y-506844D01*
X-143645Y-500845D02*
X-143312Y-501178D01*
X-142979Y-500845D01*
X-143312Y-500512D01*
X-143645Y-500845D01*
X-143312Y-503178D02*
Y-507843D01*
X-141746Y-503178D02*
Y-507843D01*
Y-504511D02*
X-140746Y-503511D01*
X-140079Y-503178D01*
X-139080D01*
X-138413Y-503511D01*
X-138080Y-504511D01*
Y-507843D01*
X-136247Y-505177D02*
X-132248D01*
Y-504511D01*
X-132581Y-503844D01*
X-132914Y-503511D01*
X-133581Y-503178D01*
X-134581D01*
X-135247Y-503511D01*
X-135914Y-504177D01*
X-136247Y-505177D01*
Y-505844D01*
X-135914Y-506844D01*
X-135247Y-507510D01*
X-134581Y-507843D01*
X-133581D01*
X-132914Y-507510D01*
X-132248Y-506844D01*
X-130748Y-505177D02*
X-126749D01*
Y-504511D01*
X-127082Y-503844D01*
X-127415Y-503511D01*
X-128082Y-503178D01*
X-129082D01*
X-129748Y-503511D01*
X-130415Y-504177D01*
X-130748Y-505177D01*
Y-505844D01*
X-130415Y-506844D01*
X-129748Y-507510D01*
X-129082Y-507843D01*
X-128082D01*
X-127415Y-507510D01*
X-126749Y-506844D01*
X-125249Y-503178D02*
Y-507843D01*
Y-505177D02*
X-124916Y-504177D01*
X-124249Y-503511D01*
X-123583Y-503178D01*
X-122583D01*
X-121283Y-500845D02*
X-120950Y-501178D01*
X-120617Y-500845D01*
X-120950Y-500512D01*
X-121283Y-500845D01*
X-120950Y-503178D02*
Y-507843D01*
X-119384Y-503178D02*
Y-507843D01*
Y-504511D02*
X-118384Y-503511D01*
X-117718Y-503178D01*
X-116718D01*
X-116051Y-503511D01*
X-115718Y-504511D01*
Y-507843D01*
X-109886Y-503178D02*
Y-508510D01*
X-110219Y-509510D01*
X-110552Y-509843D01*
X-111219Y-510176D01*
X-112219D01*
X-112885Y-509843D01*
X-109886Y-504177D02*
X-110552Y-503511D01*
X-111219Y-503178D01*
X-112219D01*
X-112885Y-503511D01*
X-113552Y-504177D01*
X-113885Y-505177D01*
Y-505844D01*
X-113552Y-506844D01*
X-112885Y-507510D01*
X-112219Y-507843D01*
X-111219D01*
X-110552Y-507510D01*
X-109886Y-506844D01*
X-199300Y-514589D02*
X-198634Y-514256D01*
X-197634Y-513256D01*
Y-520254D01*
X-193834Y-514922D02*
Y-514589D01*
X-193501Y-513922D01*
X-193168Y-513589D01*
X-192501Y-513256D01*
X-191168D01*
X-190502Y-513589D01*
X-190169Y-513922D01*
X-189835Y-514589D01*
Y-515255D01*
X-190169Y-515922D01*
X-190835Y-516922D01*
X-194168Y-520254D01*
X-189502D01*
X-185936Y-513256D02*
X-186936Y-513589D01*
X-187602Y-514589D01*
X-187936Y-516255D01*
Y-517255D01*
X-187602Y-518921D01*
X-186936Y-519921D01*
X-185936Y-520254D01*
X-185270D01*
X-184270Y-519921D01*
X-183603Y-518921D01*
X-183270Y-517255D01*
Y-516255D01*
X-183603Y-514589D01*
X-184270Y-513589D01*
X-185270Y-513256D01*
X-185936D01*
X-176205D02*
Y-520254D01*
Y-513256D02*
X-173206D01*
X-172206Y-513589D01*
X-171873Y-513922D01*
X-171539Y-514589D01*
Y-515255D01*
X-171873Y-515922D01*
X-172206Y-516255D01*
X-173206Y-516588D01*
X-176205D02*
X-173206D01*
X-172206Y-516922D01*
X-171873Y-517255D01*
X-171539Y-517921D01*
Y-518921D01*
X-171873Y-519588D01*
X-172206Y-519921D01*
X-173206Y-520254D01*
X-176205D01*
X-165974Y-515589D02*
Y-520254D01*
Y-516588D02*
X-166640Y-515922D01*
X-167307Y-515589D01*
X-168307D01*
X-168973Y-515922D01*
X-169640Y-516588D01*
X-169973Y-517588D01*
Y-518255D01*
X-169640Y-519254D01*
X-168973Y-519921D01*
X-168307Y-520254D01*
X-167307D01*
X-166640Y-519921D01*
X-165974Y-519254D01*
X-164108Y-515589D02*
Y-520254D01*
Y-516922D02*
X-163108Y-515922D01*
X-162441Y-515589D01*
X-161441D01*
X-160775Y-515922D01*
X-160442Y-516922D01*
Y-520254D01*
X-158609Y-513256D02*
Y-520254D01*
X-155276Y-515589D02*
X-158609Y-518921D01*
X-157276Y-517588D02*
X-154943Y-520254D01*
X-150177Y-516588D02*
X-150510Y-515922D01*
X-151510Y-515589D01*
X-152510D01*
X-153510Y-515922D01*
X-153843Y-516588D01*
X-153510Y-517255D01*
X-152843Y-517588D01*
X-151177Y-517921D01*
X-150510Y-518255D01*
X-150177Y-518921D01*
Y-519254D01*
X-150510Y-519921D01*
X-151510Y-520254D01*
X-152510D01*
X-153510Y-519921D01*
X-153843Y-519254D01*
X-137880Y-520254D02*
X-140546Y-513256D01*
X-143212Y-520254D01*
X-142212Y-517921D02*
X-138880D01*
X-136247Y-515589D02*
X-134247Y-520254D01*
X-132248Y-515589D02*
X-134247Y-520254D01*
X-131115Y-517588D02*
X-127115D01*
Y-516922D01*
X-127449Y-516255D01*
X-127782Y-515922D01*
X-128448Y-515589D01*
X-129448D01*
X-130115Y-515922D01*
X-130781Y-516588D01*
X-131115Y-517588D01*
Y-518255D01*
X-130781Y-519254D01*
X-130115Y-519921D01*
X-129448Y-520254D01*
X-128448D01*
X-127782Y-519921D01*
X-127115Y-519254D01*
X-125616Y-515589D02*
Y-520254D01*
Y-516922D02*
X-124616Y-515922D01*
X-123950Y-515589D01*
X-122950D01*
X-122283Y-515922D01*
X-121950Y-516922D01*
Y-520254D01*
X-120117Y-515589D02*
Y-518921D01*
X-119784Y-519921D01*
X-119117Y-520254D01*
X-118117D01*
X-117451Y-519921D01*
X-116451Y-518921D01*
Y-515589D02*
Y-520254D01*
X-114618Y-517588D02*
X-110619D01*
Y-516922D01*
X-110952Y-516255D01*
X-111285Y-515922D01*
X-111952Y-515589D01*
X-112952D01*
X-113618Y-515922D01*
X-114285Y-516588D01*
X-114618Y-517588D01*
Y-518255D01*
X-114285Y-519254D01*
X-113618Y-519921D01*
X-112952Y-520254D01*
X-111952D01*
X-111285Y-519921D01*
X-110619Y-519254D01*
X-199300Y-523334D02*
Y-530333D01*
X-195301D01*
X-190535Y-525667D02*
Y-530333D01*
Y-526667D02*
X-191202Y-526000D01*
X-191868Y-525667D01*
X-192868D01*
X-193535Y-526000D01*
X-194201Y-526667D01*
X-194534Y-527666D01*
Y-528333D01*
X-194201Y-529333D01*
X-193535Y-529999D01*
X-192868Y-530333D01*
X-191868D01*
X-191202Y-529999D01*
X-190535Y-529333D01*
X-186003Y-523334D02*
X-186669D01*
X-187336Y-523667D01*
X-187669Y-524667D01*
Y-530333D01*
X-188669Y-525667D02*
X-186336D01*
X-181004D02*
Y-530333D01*
Y-526667D02*
X-181670Y-526000D01*
X-182337Y-525667D01*
X-183337D01*
X-184003Y-526000D01*
X-184670Y-526667D01*
X-185003Y-527666D01*
Y-528333D01*
X-184670Y-529333D01*
X-184003Y-529999D01*
X-183337Y-530333D01*
X-182337D01*
X-181670Y-529999D01*
X-181004Y-529333D01*
X-178804Y-525667D02*
X-176805Y-530333D01*
X-174805Y-525667D02*
X-176805Y-530333D01*
X-177471Y-531666D01*
X-178138Y-532332D01*
X-178804Y-532665D01*
X-179138D01*
X-173639Y-527666D02*
X-169640D01*
Y-527000D01*
X-169973Y-526333D01*
X-170306Y-526000D01*
X-170973Y-525667D01*
X-171973D01*
X-172639Y-526000D01*
X-173306Y-526667D01*
X-173639Y-527666D01*
Y-528333D01*
X-173306Y-529333D01*
X-172639Y-529999D01*
X-171973Y-530333D01*
X-170973D01*
X-170306Y-529999D01*
X-169640Y-529333D01*
X-167140Y-523334D02*
Y-529000D01*
X-166807Y-529999D01*
X-166140Y-530333D01*
X-165474D01*
X-168140Y-525667D02*
X-165807D01*
X-163474Y-523334D02*
Y-529000D01*
X-163141Y-529999D01*
X-162475Y-530333D01*
X-161808D01*
X-164474Y-525667D02*
X-162141D01*
X-160808Y-527666D02*
X-156809D01*
Y-527000D01*
X-157142Y-526333D01*
X-157476Y-526000D01*
X-158142Y-525667D01*
X-159142D01*
X-159809Y-526000D01*
X-160475Y-526667D01*
X-160808Y-527666D01*
Y-528333D01*
X-160475Y-529333D01*
X-159809Y-529999D01*
X-159142Y-530333D01*
X-158142D01*
X-157476Y-529999D01*
X-156809Y-529333D01*
X-154643Y-529999D02*
X-154976Y-530333D01*
X-155309Y-529999D01*
X-154976Y-529666D01*
X-154643Y-529999D01*
Y-530666D01*
X-154976Y-531332D01*
X-155309Y-531666D01*
X-147611Y-523334D02*
Y-530333D01*
X-143612D01*
X-137513D02*
X-140179Y-523334D01*
X-142845Y-530333D01*
X-141846Y-528000D02*
X-138513D01*
X-125716Y-523334D02*
X-129048Y-530333D01*
X-130381Y-523334D02*
X-125716D01*
X-122150D02*
X-123150Y-523667D01*
X-123816Y-524667D01*
X-124149Y-526333D01*
Y-527333D01*
X-123816Y-529000D01*
X-123150Y-529999D01*
X-122150Y-530333D01*
X-121483D01*
X-120484Y-529999D01*
X-119817Y-529000D01*
X-119484Y-527333D01*
Y-526333D01*
X-119817Y-524667D01*
X-120484Y-523667D01*
X-121483Y-523334D01*
X-122150D01*
X-113918D02*
X-117251D01*
X-117584Y-526333D01*
X-117251Y-526000D01*
X-116251Y-525667D01*
X-115251D01*
X-114252Y-526000D01*
X-113585Y-526667D01*
X-113252Y-527666D01*
Y-528333D01*
X-113585Y-529333D01*
X-114252Y-529999D01*
X-115251Y-530333D01*
X-116251D01*
X-117251Y-529999D01*
X-117584Y-529666D01*
X-117917Y-529000D01*
X-109686Y-523334D02*
X-110686Y-523667D01*
X-111352Y-524667D01*
X-111685Y-526333D01*
Y-527333D01*
X-111352Y-529000D01*
X-110686Y-529999D01*
X-109686Y-530333D01*
X-109019D01*
X-108020Y-529999D01*
X-107353Y-529000D01*
X-107020Y-527333D01*
Y-526333D01*
X-107353Y-524667D01*
X-108020Y-523667D01*
X-109019Y-523334D01*
X-109686D01*
X-101454Y-524334D02*
X-101788Y-523667D01*
X-102787Y-523334D01*
X-103454D01*
X-104454Y-523667D01*
X-105120Y-524667D01*
X-105453Y-526333D01*
Y-528000D01*
X-105120Y-529333D01*
X-104454Y-529999D01*
X-103454Y-530333D01*
X-103121D01*
X-102121Y-529999D01*
X-101454Y-529333D01*
X-101121Y-528333D01*
Y-528000D01*
X-101454Y-527000D01*
X-102121Y-526333D01*
X-103121Y-526000D01*
X-103454D01*
X-104454Y-526333D01*
X-105120Y-527000D01*
X-105453Y-528000D01*
X-199300Y-535745D02*
Y-542744D01*
X-195301D01*
X-189202D02*
X-191868Y-535745D01*
X-194534Y-542744D01*
X-193535Y-540411D02*
X-190202D01*
X-177738Y-535745D02*
X-182070D01*
Y-542744D01*
X-177738D01*
X-182070Y-539078D02*
X-179404D01*
X-176572Y-535745D02*
Y-542744D01*
Y-535745D02*
X-172239D01*
X-176572Y-539078D02*
X-173905D01*
X-171106Y-542077D02*
X-171439Y-542410D01*
X-171106Y-542744D01*
X-170773Y-542410D01*
X-171106Y-542077D01*
X-167240Y-535745D02*
X-168240Y-536078D01*
X-168906Y-537078D01*
X-169240Y-538744D01*
Y-539744D01*
X-168906Y-541410D01*
X-168240Y-542410D01*
X-167240Y-542744D01*
X-166574D01*
X-165574Y-542410D01*
X-164907Y-541410D01*
X-164574Y-539744D01*
Y-538744D01*
X-164907Y-537078D01*
X-165574Y-536078D01*
X-166574Y-535745D01*
X-167240D01*
X-161008D02*
X-162008Y-536078D01*
X-162674Y-537078D01*
X-163008Y-538744D01*
Y-539744D01*
X-162674Y-541410D01*
X-162008Y-542410D01*
X-161008Y-542744D01*
X-160342D01*
X-159342Y-542410D01*
X-158675Y-541410D01*
X-158342Y-539744D01*
Y-538744D01*
X-158675Y-537078D01*
X-159342Y-536078D01*
X-160342Y-535745D01*
X-161008D01*
X-154776D02*
X-155776Y-536078D01*
X-156442Y-537078D01*
X-156776Y-538744D01*
Y-539744D01*
X-156442Y-541410D01*
X-155776Y-542410D01*
X-154776Y-542744D01*
X-154110D01*
X-153110Y-542410D01*
X-152443Y-541410D01*
X-152110Y-539744D01*
Y-538744D01*
X-152443Y-537078D01*
X-153110Y-536078D01*
X-154110Y-535745D01*
X-154776D01*
X-146545Y-536745D02*
X-146878Y-536078D01*
X-147878Y-535745D01*
X-148544D01*
X-149544Y-536078D01*
X-150210Y-537078D01*
X-150544Y-538744D01*
Y-540411D01*
X-150210Y-541744D01*
X-149544Y-542410D01*
X-148544Y-542744D01*
X-148211D01*
X-147211Y-542410D01*
X-146545Y-541744D01*
X-146211Y-540744D01*
Y-540411D01*
X-146545Y-539411D01*
X-147211Y-538744D01*
X-148211Y-538411D01*
X-148544D01*
X-149544Y-538744D01*
X-150210Y-539411D01*
X-150544Y-540411D01*
X-144345Y-537411D02*
Y-537078D01*
X-144012Y-536412D01*
X-143679Y-536078D01*
X-143012Y-535745D01*
X-141679D01*
X-141013Y-536078D01*
X-140679Y-536412D01*
X-140346Y-537078D01*
Y-537745D01*
X-140679Y-538411D01*
X-141346Y-539411D01*
X-144678Y-542744D01*
X-140013D01*
X-136447Y-535745D02*
X-137447Y-536078D01*
X-138113Y-537078D01*
X-138446Y-538744D01*
Y-539744D01*
X-138113Y-541410D01*
X-137447Y-542410D01*
X-136447Y-542744D01*
X-135780D01*
X-134781Y-542410D01*
X-134114Y-541410D01*
X-133781Y-539744D01*
Y-538744D01*
X-134114Y-537078D01*
X-134781Y-536078D01*
X-135780Y-535745D01*
X-136447D01*
X-128215D02*
X-131548D01*
X-131881Y-538744D01*
X-131548Y-538411D01*
X-130548Y-538078D01*
X-129548D01*
X-128549Y-538411D01*
X-127882Y-539078D01*
X-127549Y-540077D01*
Y-540744D01*
X-127882Y-541744D01*
X-128549Y-542410D01*
X-129548Y-542744D01*
X-130548D01*
X-131548Y-542410D01*
X-131881Y-542077D01*
X-132214Y-541410D01*
X-194301Y-547823D02*
X-194634Y-547156D01*
X-195301Y-546490D01*
X-195967Y-546157D01*
X-197300D01*
X-197967Y-546490D01*
X-198634Y-547156D01*
X-198967Y-547823D01*
X-199300Y-548823D01*
Y-550489D01*
X-198967Y-551489D01*
X-198634Y-552155D01*
X-197967Y-552822D01*
X-197300Y-553155D01*
X-195967D01*
X-195301Y-552822D01*
X-194634Y-552155D01*
X-194301Y-551489D01*
X-192335Y-548489D02*
Y-551822D01*
X-192002Y-552822D01*
X-191335Y-553155D01*
X-190335D01*
X-189669Y-552822D01*
X-188669Y-551822D01*
Y-548489D02*
Y-553155D01*
X-183170Y-549489D02*
X-183503Y-548823D01*
X-184503Y-548489D01*
X-185503D01*
X-186503Y-548823D01*
X-186836Y-549489D01*
X-186503Y-550156D01*
X-185836Y-550489D01*
X-184170Y-550822D01*
X-183503Y-551156D01*
X-183170Y-551822D01*
Y-552155D01*
X-183503Y-552822D01*
X-184503Y-553155D01*
X-185503D01*
X-186503Y-552822D01*
X-186836Y-552155D01*
X-180704Y-546157D02*
Y-551822D01*
X-180371Y-552822D01*
X-179704Y-553155D01*
X-179038D01*
X-181704Y-548489D02*
X-179371D01*
X-176372D02*
X-177038Y-548823D01*
X-177705Y-549489D01*
X-178038Y-550489D01*
Y-551156D01*
X-177705Y-552155D01*
X-177038Y-552822D01*
X-176372Y-553155D01*
X-175372D01*
X-174705Y-552822D01*
X-174039Y-552155D01*
X-173705Y-551156D01*
Y-550489D01*
X-174039Y-549489D01*
X-174705Y-548823D01*
X-175372Y-548489D01*
X-176372D01*
X-172172D02*
Y-553155D01*
Y-549822D02*
X-171173Y-548823D01*
X-170506Y-548489D01*
X-169506D01*
X-168840Y-548823D01*
X-168507Y-549822D01*
Y-553155D01*
Y-549822D02*
X-167507Y-548823D01*
X-166840Y-548489D01*
X-165840D01*
X-165174Y-548823D01*
X-164841Y-549822D01*
Y-553155D01*
X-162641Y-550489D02*
X-158642D01*
Y-549822D01*
X-158975Y-549156D01*
X-159309Y-548823D01*
X-159975Y-548489D01*
X-160975D01*
X-161641Y-548823D01*
X-162308Y-549489D01*
X-162641Y-550489D01*
Y-551156D01*
X-162308Y-552155D01*
X-161641Y-552822D01*
X-160975Y-553155D01*
X-159975D01*
X-159309Y-552822D01*
X-158642Y-552155D01*
X-157142Y-548489D02*
Y-553155D01*
Y-550489D02*
X-156809Y-549489D01*
X-156143Y-548823D01*
X-155476Y-548489D01*
X-154476D01*
X-153510D02*
X-153843Y-548823D01*
X-153510Y-549156D01*
X-153177Y-548823D01*
X-153510Y-548489D01*
Y-552489D02*
X-153843Y-552822D01*
X-153510Y-553155D01*
X-153177Y-552822D01*
X-153510Y-552489D01*
X-141146Y-547823D02*
X-141479Y-547156D01*
X-142146Y-546490D01*
X-142812Y-546157D01*
X-144145D01*
X-144812Y-546490D01*
X-145478Y-547156D01*
X-145811Y-547823D01*
X-146145Y-548823D01*
Y-550489D01*
X-145811Y-551489D01*
X-145478Y-552155D01*
X-144812Y-552822D01*
X-144145Y-553155D01*
X-142812D01*
X-142146Y-552822D01*
X-141479Y-552155D01*
X-141146Y-551489D01*
X-135180Y-548489D02*
Y-553155D01*
Y-549489D02*
X-135847Y-548823D01*
X-136513Y-548489D01*
X-137513D01*
X-138180Y-548823D01*
X-138846Y-549489D01*
X-139180Y-550489D01*
Y-551156D01*
X-138846Y-552155D01*
X-138180Y-552822D01*
X-137513Y-553155D01*
X-136513D01*
X-135847Y-552822D01*
X-135180Y-552155D01*
X-131981Y-546157D02*
X-131648Y-546490D01*
X-131315Y-546157D01*
X-131648Y-545823D01*
X-131981Y-546157D01*
X-131648Y-548489D02*
Y-554155D01*
X-131981Y-555155D01*
X-132648Y-555488D01*
X-133314D01*
X-130015Y-548489D02*
Y-551822D01*
X-129682Y-552822D01*
X-129015Y-553155D01*
X-128015D01*
X-127349Y-552822D01*
X-126349Y-551822D01*
Y-548489D02*
Y-553155D01*
X-124516Y-548489D02*
Y-553155D01*
Y-549822D02*
X-123516Y-548823D01*
X-122850Y-548489D01*
X-121850D01*
X-121183Y-548823D01*
X-120850Y-549822D01*
Y-553155D01*
X-108186D02*
X-110852Y-546157D01*
X-113518Y-553155D01*
X-112519Y-550822D02*
X-109186D01*
X-102554Y-546157D02*
Y-553155D01*
Y-549489D02*
X-103221Y-548823D01*
X-103887Y-548489D01*
X-104887D01*
X-105553Y-548823D01*
X-106220Y-549489D01*
X-106553Y-550489D01*
Y-551156D01*
X-106220Y-552155D01*
X-105553Y-552822D01*
X-104887Y-553155D01*
X-103887D01*
X-103221Y-552822D01*
X-102554Y-552155D01*
X-100688Y-548489D02*
X-98688Y-553155D01*
X-96689Y-548489D02*
X-98688Y-553155D01*
X-91557Y-548489D02*
Y-553155D01*
Y-549489D02*
X-92223Y-548823D01*
X-92889Y-548489D01*
X-93889D01*
X-94556Y-548823D01*
X-95222Y-549489D01*
X-95556Y-550489D01*
Y-551156D01*
X-95222Y-552155D01*
X-94556Y-552822D01*
X-93889Y-553155D01*
X-92889D01*
X-92223Y-552822D01*
X-91557Y-552155D01*
X-89690Y-548489D02*
Y-553155D01*
Y-549822D02*
X-88690Y-548823D01*
X-88024Y-548489D01*
X-87024D01*
X-86358Y-548823D01*
X-86024Y-549822D01*
Y-553155D01*
X-80192Y-549489D02*
X-80859Y-548823D01*
X-81525Y-548489D01*
X-82525D01*
X-83192Y-548823D01*
X-83858Y-549489D01*
X-84191Y-550489D01*
Y-551156D01*
X-83858Y-552155D01*
X-83192Y-552822D01*
X-82525Y-553155D01*
X-81525D01*
X-80859Y-552822D01*
X-80192Y-552155D01*
X-78693Y-550489D02*
X-74693D01*
Y-549822D01*
X-75027Y-549156D01*
X-75360Y-548823D01*
X-76026Y-548489D01*
X-77026D01*
X-77693Y-548823D01*
X-78359Y-549489D01*
X-78693Y-550489D01*
Y-551156D01*
X-78359Y-552155D01*
X-77693Y-552822D01*
X-77026Y-553155D01*
X-76026D01*
X-75360Y-552822D01*
X-74693Y-552155D01*
X-69195Y-546157D02*
Y-553155D01*
Y-549489D02*
X-69861Y-548823D01*
X-70528Y-548489D01*
X-71527D01*
X-72194Y-548823D01*
X-72860Y-549489D01*
X-73194Y-550489D01*
Y-551156D01*
X-72860Y-552155D01*
X-72194Y-552822D01*
X-71527Y-553155D01*
X-70528D01*
X-69861Y-552822D01*
X-69195Y-552155D01*
X-199300Y-562567D02*
X-196301D01*
X-195301Y-562233D01*
X-194968Y-561900D01*
X-194634Y-561234D01*
Y-560234D01*
X-194968Y-559567D01*
X-195301Y-559234D01*
X-196301Y-558901D01*
X-199300D01*
Y-565899D01*
X-192402Y-558901D02*
X-192068Y-559234D01*
X-191735Y-558901D01*
X-192068Y-558568D01*
X-192402Y-558901D01*
X-192068Y-561234D02*
Y-565899D01*
X-186503Y-562233D02*
X-187169Y-561567D01*
X-187836Y-561234D01*
X-188836D01*
X-189502Y-561567D01*
X-190169Y-562233D01*
X-190502Y-563233D01*
Y-563900D01*
X-190169Y-564899D01*
X-189502Y-565566D01*
X-188836Y-565899D01*
X-187836D01*
X-187169Y-565566D01*
X-186503Y-564899D01*
X-183337Y-561234D02*
X-184003Y-561567D01*
X-184670Y-562233D01*
X-185003Y-563233D01*
Y-563900D01*
X-184670Y-564899D01*
X-184003Y-565566D01*
X-183337Y-565899D01*
X-182337D01*
X-181670Y-565566D01*
X-181004Y-564899D01*
X-180671Y-563900D01*
Y-563233D01*
X-181004Y-562233D01*
X-181670Y-561567D01*
X-182337Y-561234D01*
X-183337D01*
X-175472Y-562233D02*
X-175805Y-561567D01*
X-176805Y-561234D01*
X-177805D01*
X-178804Y-561567D01*
X-179138Y-562233D01*
X-178804Y-562900D01*
X-178138Y-563233D01*
X-176472Y-563566D01*
X-175805Y-563900D01*
X-175472Y-564566D01*
Y-564899D01*
X-175805Y-565566D01*
X-176805Y-565899D01*
X-177805D01*
X-178804Y-565566D01*
X-179138Y-564899D01*
X-170006Y-561234D02*
Y-565899D01*
Y-562233D02*
X-170673Y-561567D01*
X-171339Y-561234D01*
X-172339D01*
X-173006Y-561567D01*
X-173672Y-562233D01*
X-174005Y-563233D01*
Y-563900D01*
X-173672Y-564899D01*
X-173006Y-565566D01*
X-172339Y-565899D01*
X-171339D01*
X-170673Y-565566D01*
X-170006Y-564899D01*
X-167140Y-558901D02*
Y-564566D01*
X-166807Y-565566D01*
X-166140Y-565899D01*
X-165474D01*
X-168140Y-561234D02*
X-165807D01*
X-164474Y-563233D02*
X-160475D01*
Y-562567D01*
X-160808Y-561900D01*
X-161142Y-561567D01*
X-161808Y-561234D01*
X-162808D01*
X-163474Y-561567D01*
X-164141Y-562233D01*
X-164474Y-563233D01*
Y-563900D01*
X-164141Y-564899D01*
X-163474Y-565566D01*
X-162808Y-565899D01*
X-161808D01*
X-161142Y-565566D01*
X-160475Y-564899D01*
X-158975Y-558901D02*
Y-565899D01*
X-157509Y-558901D02*
Y-565899D01*
X-155376Y-558901D02*
X-155043Y-559234D01*
X-154710Y-558901D01*
X-155043Y-558568D01*
X-155376Y-558901D01*
X-155043Y-561234D02*
Y-565899D01*
X-152477Y-558901D02*
Y-564566D01*
X-152143Y-565566D01*
X-151477Y-565899D01*
X-150810D01*
X-153477Y-561234D02*
X-151144D01*
X-149811Y-563233D02*
X-145811D01*
Y-562567D01*
X-146145Y-561900D01*
X-146478Y-561567D01*
X-147144Y-561234D01*
X-148144D01*
X-148811Y-561567D01*
X-149477Y-562233D01*
X-149811Y-563233D01*
Y-563900D01*
X-149477Y-564899D01*
X-148811Y-565566D01*
X-148144Y-565899D01*
X-147144D01*
X-146478Y-565566D01*
X-145811Y-564899D01*
X-134481Y-558901D02*
X-138813D01*
Y-565899D01*
X-134481D01*
X-138813Y-562233D02*
X-136147D01*
X-133314Y-561234D02*
X-129648Y-565899D01*
Y-561234D02*
X-133314Y-565899D01*
X-128182Y-561234D02*
Y-568232D01*
Y-562233D02*
X-127515Y-561567D01*
X-126849Y-561234D01*
X-125849D01*
X-125183Y-561567D01*
X-124516Y-562233D01*
X-124183Y-563233D01*
Y-563900D01*
X-124516Y-564899D01*
X-125183Y-565566D01*
X-125849Y-565899D01*
X-126849D01*
X-127515Y-565566D01*
X-128182Y-564899D01*
X-122683Y-563233D02*
X-118684D01*
Y-562567D01*
X-119017Y-561900D01*
X-119351Y-561567D01*
X-120017Y-561234D01*
X-121017D01*
X-121683Y-561567D01*
X-122350Y-562233D01*
X-122683Y-563233D01*
Y-563900D01*
X-122350Y-564899D01*
X-121683Y-565566D01*
X-121017Y-565899D01*
X-120017D01*
X-119351Y-565566D01*
X-118684Y-564899D01*
X-117184Y-561234D02*
Y-565899D01*
Y-563233D02*
X-116851Y-562233D01*
X-116184Y-561567D01*
X-115518Y-561234D01*
X-114518D01*
X-113218Y-558901D02*
X-112885Y-559234D01*
X-112552Y-558901D01*
X-112885Y-558568D01*
X-113218Y-558901D01*
X-112885Y-561234D02*
Y-565899D01*
X-111319Y-561234D02*
Y-565899D01*
Y-562567D02*
X-110319Y-561567D01*
X-109653Y-561234D01*
X-108653D01*
X-107986Y-561567D01*
X-107653Y-562567D01*
Y-565899D01*
Y-562567D02*
X-106653Y-561567D01*
X-105987Y-561234D01*
X-104987D01*
X-104320Y-561567D01*
X-103987Y-562567D01*
Y-565899D01*
X-101788Y-563233D02*
X-97788D01*
Y-562567D01*
X-98122Y-561900D01*
X-98455Y-561567D01*
X-99121Y-561234D01*
X-100121D01*
X-100788Y-561567D01*
X-101454Y-562233D01*
X-101788Y-563233D01*
Y-563900D01*
X-101454Y-564899D01*
X-100788Y-565566D01*
X-100121Y-565899D01*
X-99121D01*
X-98455Y-565566D01*
X-97788Y-564899D01*
X-96289Y-561234D02*
Y-565899D01*
Y-562567D02*
X-95289Y-561567D01*
X-94622Y-561234D01*
X-93623D01*
X-92956Y-561567D01*
X-92623Y-562567D01*
Y-565899D01*
X-89790Y-558901D02*
Y-564566D01*
X-89457Y-565566D01*
X-88790Y-565899D01*
X-88124D01*
X-90790Y-561234D02*
X-88457D01*
X254200Y-535195D02*
Y-542194D01*
Y-535195D02*
X258866Y-542194D01*
Y-535195D02*
Y-542194D01*
X262465Y-537528D02*
X261798Y-537861D01*
X261132Y-538528D01*
X260799Y-539528D01*
Y-540194D01*
X261132Y-541194D01*
X261798Y-541860D01*
X262465Y-542194D01*
X263465D01*
X264131Y-541860D01*
X264798Y-541194D01*
X265131Y-540194D01*
Y-539528D01*
X264798Y-538528D01*
X264131Y-537861D01*
X263465Y-537528D01*
X262465D01*
X266664Y-535195D02*
Y-542194D01*
X272130Y-537528D02*
Y-542194D01*
Y-538528D02*
X271463Y-537861D01*
X270796Y-537528D01*
X269797D01*
X269130Y-537861D01*
X268464Y-538528D01*
X268130Y-539528D01*
Y-540194D01*
X268464Y-541194D01*
X269130Y-541860D01*
X269797Y-542194D01*
X270796D01*
X271463Y-541860D01*
X272130Y-541194D01*
X273996Y-537528D02*
Y-542194D01*
Y-538861D02*
X274996Y-537861D01*
X275662Y-537528D01*
X276662D01*
X277328Y-537861D01*
X277662Y-538861D01*
Y-542194D01*
X289326Y-535195D02*
X284993D01*
Y-542194D01*
X289326D01*
X284993Y-538528D02*
X287660D01*
X294491Y-535195D02*
Y-542194D01*
Y-538528D02*
X293825Y-537861D01*
X293158Y-537528D01*
X292159D01*
X291492Y-537861D01*
X290826Y-538528D01*
X290492Y-539528D01*
Y-540194D01*
X290826Y-541194D01*
X291492Y-541860D01*
X292159Y-542194D01*
X293158D01*
X293825Y-541860D01*
X294491Y-541194D01*
X296358Y-537528D02*
X297691Y-542194D01*
X299024Y-537528D02*
X297691Y-542194D01*
X299024Y-537528D02*
X300357Y-542194D01*
X301690Y-537528D02*
X300357Y-542194D01*
X307322Y-537528D02*
Y-542194D01*
Y-538528D02*
X306655Y-537861D01*
X305989Y-537528D01*
X304989D01*
X304323Y-537861D01*
X303656Y-538528D01*
X303323Y-539528D01*
Y-540194D01*
X303656Y-541194D01*
X304323Y-541860D01*
X304989Y-542194D01*
X305989D01*
X306655Y-541860D01*
X307322Y-541194D01*
X309188Y-537528D02*
Y-542194D01*
Y-539528D02*
X309522Y-538528D01*
X310188Y-537861D01*
X310855Y-537528D01*
X311854D01*
X316487Y-535195D02*
Y-542194D01*
Y-538528D02*
X315820Y-537861D01*
X315154Y-537528D01*
X314154D01*
X313487Y-537861D01*
X312821Y-538528D01*
X312488Y-539528D01*
Y-540194D01*
X312821Y-541194D01*
X313487Y-541860D01*
X314154Y-542194D01*
X315154D01*
X315820Y-541860D01*
X316487Y-541194D01*
X322019Y-538528D02*
X321686Y-537861D01*
X320686Y-537528D01*
X319686D01*
X318686Y-537861D01*
X318353Y-538528D01*
X318686Y-539194D01*
X319353Y-539528D01*
X321019Y-539861D01*
X321686Y-540194D01*
X322019Y-540861D01*
Y-541194D01*
X321686Y-541860D01*
X320686Y-542194D01*
X319686D01*
X318686Y-541860D01*
X318353Y-541194D01*
X254200Y-545273D02*
Y-552272D01*
X258199D01*
X264298D02*
X261632Y-545273D01*
X258966Y-552272D01*
X259965Y-549939D02*
X263298D01*
X275762Y-545273D02*
X271430D01*
Y-552272D01*
X275762D01*
X271430Y-548606D02*
X274096D01*
X276928Y-545273D02*
Y-552272D01*
X278728Y-551605D02*
X278395Y-551939D01*
X278728Y-552272D01*
X279061Y-551939D01*
X278728Y-551605D01*
X282594Y-545273D02*
X281594Y-545607D01*
X280928Y-546606D01*
X280594Y-548273D01*
Y-549273D01*
X280928Y-550939D01*
X281594Y-551939D01*
X282594Y-552272D01*
X283260D01*
X284260Y-551939D01*
X284927Y-550939D01*
X285260Y-549273D01*
Y-548273D01*
X284927Y-546606D01*
X284260Y-545607D01*
X283260Y-545273D01*
X282594D01*
X288826D02*
X287826Y-545607D01*
X287160Y-546606D01*
X286826Y-548273D01*
Y-549273D01*
X287160Y-550939D01*
X287826Y-551939D01*
X288826Y-552272D01*
X289492D01*
X290492Y-551939D01*
X291159Y-550939D01*
X291492Y-549273D01*
Y-548273D01*
X291159Y-546606D01*
X290492Y-545607D01*
X289492Y-545273D01*
X288826D01*
X293725D02*
X297391D01*
X295391Y-547939D01*
X296391D01*
X297058Y-548273D01*
X297391Y-548606D01*
X297724Y-549606D01*
Y-550272D01*
X297391Y-551272D01*
X296724Y-551939D01*
X295724Y-552272D01*
X294725D01*
X293725Y-551939D01*
X293392Y-551605D01*
X293058Y-550939D01*
X299957Y-545273D02*
X303623D01*
X301623Y-547939D01*
X302623D01*
X303290Y-548273D01*
X303623Y-548606D01*
X303956Y-549606D01*
Y-550272D01*
X303623Y-551272D01*
X302956Y-551939D01*
X301956Y-552272D01*
X300957D01*
X299957Y-551939D01*
X299624Y-551605D01*
X299290Y-550939D01*
X308855Y-545273D02*
X305522Y-549939D01*
X310521D01*
X308855Y-545273D02*
Y-552272D01*
X312421Y-545273D02*
X316087D01*
X314087Y-547939D01*
X315087D01*
X315754Y-548273D01*
X316087Y-548606D01*
X316420Y-549606D01*
Y-550272D01*
X316087Y-551272D01*
X315420Y-551939D01*
X314420Y-552272D01*
X313421D01*
X312421Y-551939D01*
X312088Y-551605D01*
X311754Y-550939D01*
X321986Y-546273D02*
X321652Y-545607D01*
X320652Y-545273D01*
X319986D01*
X318986Y-545607D01*
X318320Y-546606D01*
X317986Y-548273D01*
Y-549939D01*
X318320Y-551272D01*
X318986Y-551939D01*
X319986Y-552272D01*
X320319D01*
X321319Y-551939D01*
X321986Y-551272D01*
X322319Y-550272D01*
Y-549939D01*
X321986Y-548939D01*
X321319Y-548273D01*
X320319Y-547939D01*
X319986D01*
X318986Y-548273D01*
X318320Y-548939D01*
X317986Y-549939D01*
X238200Y-504695D02*
Y-511694D01*
Y-504695D02*
X242866Y-511694D01*
Y-504695D02*
Y-511694D01*
X246465Y-507028D02*
X245798Y-507361D01*
X245132Y-508028D01*
X244799Y-509028D01*
Y-509694D01*
X245132Y-510694D01*
X245798Y-511361D01*
X246465Y-511694D01*
X247465D01*
X248131Y-511361D01*
X248798Y-510694D01*
X249131Y-509694D01*
Y-509028D01*
X248798Y-508028D01*
X248131Y-507361D01*
X247465Y-507028D01*
X246465D01*
X250664Y-504695D02*
Y-511694D01*
X256130Y-507028D02*
Y-511694D01*
Y-508028D02*
X255463Y-507361D01*
X254797Y-507028D01*
X253797D01*
X253130Y-507361D01*
X252464Y-508028D01*
X252130Y-509028D01*
Y-509694D01*
X252464Y-510694D01*
X253130Y-511361D01*
X253797Y-511694D01*
X254797D01*
X255463Y-511361D01*
X256130Y-510694D01*
X257996Y-507028D02*
Y-511694D01*
Y-508361D02*
X258996Y-507361D01*
X259662Y-507028D01*
X260662D01*
X261328Y-507361D01*
X261662Y-508361D01*
Y-511694D01*
X273326Y-504695D02*
X268993D01*
Y-511694D01*
X273326D01*
X268993Y-508028D02*
X271659D01*
X278491Y-504695D02*
Y-511694D01*
Y-508028D02*
X277825Y-507361D01*
X277158Y-507028D01*
X276158D01*
X275492Y-507361D01*
X274826Y-508028D01*
X274492Y-509028D01*
Y-509694D01*
X274826Y-510694D01*
X275492Y-511361D01*
X276158Y-511694D01*
X277158D01*
X277825Y-511361D01*
X278491Y-510694D01*
X280358Y-507028D02*
X281691Y-511694D01*
X283024Y-507028D02*
X281691Y-511694D01*
X283024Y-507028D02*
X284357Y-511694D01*
X285690Y-507028D02*
X284357Y-511694D01*
X291322Y-507028D02*
Y-511694D01*
Y-508028D02*
X290655Y-507361D01*
X289989Y-507028D01*
X288989D01*
X288323Y-507361D01*
X287656Y-508028D01*
X287323Y-509028D01*
Y-509694D01*
X287656Y-510694D01*
X288323Y-511361D01*
X288989Y-511694D01*
X289989D01*
X290655Y-511361D01*
X291322Y-510694D01*
X293188Y-507028D02*
Y-511694D01*
Y-509028D02*
X293521Y-508028D01*
X294188Y-507361D01*
X294854Y-507028D01*
X295854D01*
X300487Y-504695D02*
Y-511694D01*
Y-508028D02*
X299820Y-507361D01*
X299154Y-507028D01*
X298154D01*
X297487Y-507361D01*
X296821Y-508028D01*
X296487Y-509028D01*
Y-509694D01*
X296821Y-510694D01*
X297487Y-511361D01*
X298154Y-511694D01*
X299154D01*
X299820Y-511361D01*
X300487Y-510694D01*
X306019Y-508028D02*
X305685Y-507361D01*
X304686Y-507028D01*
X303686D01*
X302686Y-507361D01*
X302353Y-508028D01*
X302686Y-508694D01*
X303353Y-509028D01*
X305019Y-509361D01*
X305685Y-509694D01*
X306019Y-510361D01*
Y-510694D01*
X305685Y-511361D01*
X304686Y-511694D01*
X303686D01*
X302686Y-511361D01*
X302353Y-510694D01*
X238200Y-514773D02*
Y-521772D01*
X242199D01*
X248298D02*
X245632Y-514773D01*
X242966Y-521772D01*
X243965Y-519439D02*
X247298D01*
X259762Y-514773D02*
X255430D01*
Y-521772D01*
X259762D01*
X255430Y-518106D02*
X258096D01*
X260929Y-514773D02*
Y-521772D01*
X262728Y-521105D02*
X262395Y-521439D01*
X262728Y-521772D01*
X263061Y-521439D01*
X262728Y-521105D01*
X266594Y-514773D02*
X265594Y-515107D01*
X264928Y-516107D01*
X264594Y-517773D01*
Y-518773D01*
X264928Y-520439D01*
X265594Y-521439D01*
X266594Y-521772D01*
X267260D01*
X268260Y-521439D01*
X268927Y-520439D01*
X269260Y-518773D01*
Y-517773D01*
X268927Y-516107D01*
X268260Y-515107D01*
X267260Y-514773D01*
X266594D01*
X272826D02*
X271826Y-515107D01*
X271160Y-516107D01*
X270826Y-517773D01*
Y-518773D01*
X271160Y-520439D01*
X271826Y-521439D01*
X272826Y-521772D01*
X273492D01*
X274492Y-521439D01*
X275159Y-520439D01*
X275492Y-518773D01*
Y-517773D01*
X275159Y-516107D01*
X274492Y-515107D01*
X273492Y-514773D01*
X272826D01*
X277725D02*
X281391D01*
X279391Y-517440D01*
X280391D01*
X281058Y-517773D01*
X281391Y-518106D01*
X281724Y-519106D01*
Y-519772D01*
X281391Y-520772D01*
X280724Y-521439D01*
X279724Y-521772D01*
X278725D01*
X277725Y-521439D01*
X277392Y-521105D01*
X277058Y-520439D01*
X283957Y-514773D02*
X287623D01*
X285623Y-517440D01*
X286623D01*
X287290Y-517773D01*
X287623Y-518106D01*
X287956Y-519106D01*
Y-519772D01*
X287623Y-520772D01*
X286956Y-521439D01*
X285956Y-521772D01*
X284957D01*
X283957Y-521439D01*
X283624Y-521105D01*
X283290Y-520439D01*
X292855Y-514773D02*
X289522Y-519439D01*
X294521D01*
X292855Y-514773D02*
Y-521772D01*
X296421Y-514773D02*
X300087D01*
X298087Y-517440D01*
X299087D01*
X299753Y-517773D01*
X300087Y-518106D01*
X300420Y-519106D01*
Y-519772D01*
X300087Y-520772D01*
X299420Y-521439D01*
X298420Y-521772D01*
X297421D01*
X296421Y-521439D01*
X296088Y-521105D01*
X295754Y-520439D01*
X305985Y-515773D02*
X305652Y-515107D01*
X304652Y-514773D01*
X303986D01*
X302986Y-515107D01*
X302320Y-516107D01*
X301986Y-517773D01*
Y-519439D01*
X302320Y-520772D01*
X302986Y-521439D01*
X303986Y-521772D01*
X304319D01*
X305319Y-521439D01*
X305985Y-520772D01*
X306319Y-519772D01*
Y-519439D01*
X305985Y-518439D01*
X305319Y-517773D01*
X304319Y-517440D01*
X303986D01*
X302986Y-517773D01*
X302320Y-518439D01*
X301986Y-519439D01*
X659953Y-601002D02*
X658953Y-601335D01*
X658287Y-602335D01*
X657954Y-604001D01*
Y-605001D01*
X658287Y-606667D01*
X658953Y-607667D01*
X659953Y-608000D01*
X660620D01*
X661619Y-607667D01*
X662286Y-606667D01*
X662619Y-605001D01*
Y-604001D01*
X662286Y-602335D01*
X661619Y-601335D01*
X660620Y-601002D01*
X659953D01*
X638453Y-570835D02*
X639120Y-570501D01*
X640120Y-569501D01*
Y-576500D01*
X422452Y-523368D02*
X422119Y-522701D01*
X421453Y-522035D01*
X420786Y-521701D01*
X419453D01*
X418787Y-522035D01*
X418120Y-522701D01*
X417787Y-523368D01*
X417453Y-524368D01*
Y-526034D01*
X417787Y-527034D01*
X418120Y-527700D01*
X418787Y-528367D01*
X419453Y-528700D01*
X420786D01*
X421453Y-528367D01*
X422119Y-527700D01*
X422452Y-527034D01*
X429751Y-528700D02*
X427085Y-521701D01*
X424419Y-528700D01*
X425419Y-526367D02*
X428751D01*
X431384Y-525367D02*
X434383D01*
X435383Y-525034D01*
X435716Y-524701D01*
X436050Y-524034D01*
Y-523035D01*
X435716Y-522368D01*
X435383Y-522035D01*
X434383Y-521701D01*
X431384D01*
Y-528700D01*
X441948Y-521701D02*
X437616D01*
Y-528700D01*
X441948D01*
X437616Y-525034D02*
X440282D01*
X443115Y-525701D02*
X449113D01*
X451846Y-521701D02*
X455512D01*
X453512Y-524368D01*
X454512D01*
X455179Y-524701D01*
X455512Y-525034D01*
X455845Y-526034D01*
Y-526700D01*
X455512Y-527700D01*
X454846Y-528367D01*
X453846Y-528700D01*
X452846D01*
X451846Y-528367D01*
X451513Y-528033D01*
X451180Y-527367D01*
X468243Y-528700D02*
X465577Y-521701D01*
X462911Y-528700D01*
X463910Y-526367D02*
X467243D01*
X469876Y-521701D02*
X474541Y-528700D01*
Y-521701D02*
X469876Y-528700D01*
X480107Y-521701D02*
X476774D01*
X476441Y-524701D01*
X476774Y-524368D01*
X477774Y-524034D01*
X478774D01*
X479774Y-524368D01*
X480440Y-525034D01*
X480773Y-526034D01*
Y-526700D01*
X480440Y-527700D01*
X479774Y-528367D01*
X478774Y-528700D01*
X477774D01*
X476774Y-528367D01*
X476441Y-528033D01*
X476108Y-527367D01*
X484339Y-521701D02*
X483339Y-522035D01*
X482673Y-523035D01*
X482340Y-524701D01*
Y-525701D01*
X482673Y-527367D01*
X483339Y-528367D01*
X484339Y-528700D01*
X485006D01*
X486005Y-528367D01*
X486672Y-527367D01*
X487005Y-525701D01*
Y-524701D01*
X486672Y-523035D01*
X486005Y-522035D01*
X485006Y-521701D01*
X484339D01*
X491904D02*
X488572Y-526367D01*
X493571D01*
X491904Y-521701D02*
Y-528700D01*
X495470Y-521701D02*
X499136D01*
X497136Y-524368D01*
X498136D01*
X498803Y-524701D01*
X499136Y-525034D01*
X499469Y-526034D01*
Y-526700D01*
X499136Y-527700D01*
X498469Y-528367D01*
X497470Y-528700D01*
X496470D01*
X495470Y-528367D01*
X495137Y-528033D01*
X494804Y-527367D01*
X506534Y-521701D02*
Y-528700D01*
Y-521701D02*
X511200Y-528700D01*
Y-521701D02*
Y-528700D01*
X513133Y-524034D02*
Y-527367D01*
X513466Y-528367D01*
X514133Y-528700D01*
X515133D01*
X515799Y-528367D01*
X516799Y-527367D01*
Y-524034D02*
Y-528700D01*
X522631Y-525034D02*
X521965Y-524368D01*
X521298Y-524034D01*
X520298D01*
X519632Y-524368D01*
X518965Y-525034D01*
X518632Y-526034D01*
Y-526700D01*
X518965Y-527700D01*
X519632Y-528367D01*
X520298Y-528700D01*
X521298D01*
X521965Y-528367D01*
X522631Y-527700D01*
X524131Y-521701D02*
Y-528700D01*
X525597Y-526034D02*
X529596D01*
Y-525367D01*
X529263Y-524701D01*
X528930Y-524368D01*
X528263Y-524034D01*
X527263D01*
X526597Y-524368D01*
X525930Y-525034D01*
X525597Y-526034D01*
Y-526700D01*
X525930Y-527700D01*
X526597Y-528367D01*
X527263Y-528700D01*
X528263D01*
X528930Y-528367D01*
X529596Y-527700D01*
X532762Y-524034D02*
X532096Y-524368D01*
X531429Y-525034D01*
X531096Y-526034D01*
Y-526700D01*
X531429Y-527700D01*
X532096Y-528367D01*
X532762Y-528700D01*
X533762D01*
X534429Y-528367D01*
X535095Y-527700D01*
X535428Y-526700D01*
Y-526034D01*
X535095Y-525034D01*
X534429Y-524368D01*
X533762Y-524034D01*
X532762D01*
X542460Y-521701D02*
Y-528700D01*
X543926Y-524034D02*
Y-528700D01*
Y-525367D02*
X544926Y-524368D01*
X545593Y-524034D01*
X546593D01*
X547259Y-524368D01*
X547592Y-525367D01*
Y-528700D01*
X550425Y-521701D02*
Y-527367D01*
X550758Y-528367D01*
X551425Y-528700D01*
X552091D01*
X549425Y-524034D02*
X551758D01*
X553091Y-526034D02*
X557090D01*
Y-525367D01*
X556757Y-524701D01*
X556424Y-524368D01*
X555757Y-524034D01*
X554757D01*
X554091Y-524368D01*
X553424Y-525034D01*
X553091Y-526034D01*
Y-526700D01*
X553424Y-527700D01*
X554091Y-528367D01*
X554757Y-528700D01*
X555757D01*
X556424Y-528367D01*
X557090Y-527700D01*
X558590Y-524034D02*
Y-528700D01*
Y-526034D02*
X558923Y-525034D01*
X559590Y-524368D01*
X560256Y-524034D01*
X561256D01*
X564555Y-521701D02*
X563889D01*
X563222Y-522035D01*
X562889Y-523035D01*
Y-528700D01*
X561889Y-524034D02*
X564222D01*
X569554D02*
Y-528700D01*
Y-525034D02*
X568888Y-524368D01*
X568221Y-524034D01*
X567221D01*
X566555Y-524368D01*
X565888Y-525034D01*
X565555Y-526034D01*
Y-526700D01*
X565888Y-527700D01*
X566555Y-528367D01*
X567221Y-528700D01*
X568221D01*
X568888Y-528367D01*
X569554Y-527700D01*
X575420Y-525034D02*
X574753Y-524368D01*
X574087Y-524034D01*
X573087D01*
X572420Y-524368D01*
X571754Y-525034D01*
X571420Y-526034D01*
Y-526700D01*
X571754Y-527700D01*
X572420Y-528367D01*
X573087Y-528700D01*
X574087D01*
X574753Y-528367D01*
X575420Y-527700D01*
X576919Y-526034D02*
X580919D01*
Y-525367D01*
X580585Y-524701D01*
X580252Y-524368D01*
X579586Y-524034D01*
X578586D01*
X577919Y-524368D01*
X577253Y-525034D01*
X576919Y-526034D01*
Y-526700D01*
X577253Y-527700D01*
X577919Y-528367D01*
X578586Y-528700D01*
X579586D01*
X580252Y-528367D01*
X580919Y-527700D01*
X587917Y-521701D02*
Y-528700D01*
Y-521701D02*
X590916D01*
X591916Y-522035D01*
X592249Y-522368D01*
X592583Y-523035D01*
Y-523701D01*
X592249Y-524368D01*
X591916Y-524701D01*
X590916Y-525034D01*
X587917D02*
X590916D01*
X591916Y-525367D01*
X592249Y-525701D01*
X592583Y-526367D01*
Y-527367D01*
X592249Y-528033D01*
X591916Y-528367D01*
X590916Y-528700D01*
X587917D01*
X595815Y-524034D02*
X595149Y-524368D01*
X594482Y-525034D01*
X594149Y-526034D01*
Y-526700D01*
X594482Y-527700D01*
X595149Y-528367D01*
X595815Y-528700D01*
X596815D01*
X597482Y-528367D01*
X598148Y-527700D01*
X598481Y-526700D01*
Y-526034D01*
X598148Y-525034D01*
X597482Y-524368D01*
X596815Y-524034D01*
X595815D01*
X604014D02*
Y-528700D01*
Y-525034D02*
X603347Y-524368D01*
X602680Y-524034D01*
X601681D01*
X601014Y-524368D01*
X600348Y-525034D01*
X600014Y-526034D01*
Y-526700D01*
X600348Y-527700D01*
X601014Y-528367D01*
X601681Y-528700D01*
X602680D01*
X603347Y-528367D01*
X604014Y-527700D01*
X605880Y-524034D02*
Y-528700D01*
Y-526034D02*
X606213Y-525034D01*
X606880Y-524368D01*
X607546Y-524034D01*
X608546D01*
X613178Y-521701D02*
Y-528700D01*
Y-525034D02*
X612512Y-524368D01*
X611845Y-524034D01*
X610845D01*
X610179Y-524368D01*
X609512Y-525034D01*
X609179Y-526034D01*
Y-526700D01*
X609512Y-527700D01*
X610179Y-528367D01*
X610845Y-528700D01*
X611845D01*
X612512Y-528367D01*
X613178Y-527700D01*
X620543Y-521701D02*
X623209Y-528700D01*
X625876Y-521701D02*
X623209Y-528700D01*
X626775Y-523035D02*
X627442Y-522701D01*
X628442Y-521701D01*
Y-528700D01*
X631908Y-521701D02*
Y-528700D01*
Y-521701D02*
X634907D01*
X635907Y-522035D01*
X636240Y-522368D01*
X636573Y-523035D01*
Y-523701D01*
X636240Y-524368D01*
X635907Y-524701D01*
X634907Y-525034D01*
X631908D01*
X634240D02*
X636573Y-528700D01*
X640139Y-521701D02*
X639139Y-522035D01*
X638473Y-523035D01*
X638140Y-524701D01*
Y-525701D01*
X638473Y-527367D01*
X639139Y-528367D01*
X640139Y-528700D01*
X640806D01*
X641806Y-528367D01*
X642472Y-527367D01*
X642805Y-525701D01*
Y-524701D01*
X642472Y-523035D01*
X641806Y-522035D01*
X640806Y-521701D01*
X640139D01*
X201453Y-606767D02*
X204453D01*
X205453Y-606434D01*
X205786Y-606101D01*
X206119Y-605434D01*
Y-604435D01*
X205786Y-603768D01*
X205453Y-603435D01*
X204453Y-603101D01*
X201453D01*
Y-610100D01*
X212684Y-604768D02*
X212351Y-604101D01*
X211685Y-603435D01*
X211018Y-603101D01*
X209685D01*
X209019Y-603435D01*
X208352Y-604101D01*
X208019Y-604768D01*
X207686Y-605768D01*
Y-607434D01*
X208019Y-608434D01*
X208352Y-609100D01*
X209019Y-609767D01*
X209685Y-610100D01*
X211018D01*
X211685Y-609767D01*
X212351Y-609100D01*
X212684Y-608434D01*
X214651Y-603101D02*
Y-610100D01*
Y-603101D02*
X217650D01*
X218650Y-603435D01*
X218983Y-603768D01*
X219316Y-604435D01*
Y-605101D01*
X218983Y-605768D01*
X218650Y-606101D01*
X217650Y-606434D01*
X214651D02*
X217650D01*
X218650Y-606767D01*
X218983Y-607101D01*
X219316Y-607767D01*
Y-608767D01*
X218983Y-609434D01*
X218650Y-609767D01*
X217650Y-610100D01*
X214651D01*
X220883Y-607101D02*
X226881D01*
X233947Y-604768D02*
X233613Y-604101D01*
X232947Y-603435D01*
X232280Y-603101D01*
X230947D01*
X230281Y-603435D01*
X229614Y-604101D01*
X229281Y-604768D01*
X228948Y-605768D01*
Y-607434D01*
X229281Y-608434D01*
X229614Y-609100D01*
X230281Y-609767D01*
X230947Y-610100D01*
X232280D01*
X232947Y-609767D01*
X233613Y-609100D01*
X233947Y-608434D01*
X241245Y-610100D02*
X238579Y-603101D01*
X235913Y-610100D01*
X236913Y-607767D02*
X240245D01*
X242878Y-606767D02*
X245877D01*
X246877Y-606434D01*
X247210Y-606101D01*
X247544Y-605434D01*
Y-604435D01*
X247210Y-603768D01*
X246877Y-603435D01*
X245877Y-603101D01*
X242878D01*
Y-610100D01*
X253442Y-603101D02*
X249110D01*
Y-610100D01*
X253442D01*
X249110Y-606434D02*
X251776D01*
X254609Y-607101D02*
X260608D01*
X262674Y-603101D02*
Y-610100D01*
Y-603101D02*
X267339Y-610100D01*
Y-603101D02*
Y-610100D01*
X269272Y-605434D02*
Y-608767D01*
X269606Y-609767D01*
X270272Y-610100D01*
X271272D01*
X271938Y-609767D01*
X272938Y-608767D01*
Y-605434D02*
Y-610100D01*
X278770Y-606434D02*
X278104Y-605768D01*
X277437Y-605434D01*
X276437D01*
X275771Y-605768D01*
X275104Y-606434D01*
X274771Y-607434D01*
Y-608100D01*
X275104Y-609100D01*
X275771Y-609767D01*
X276437Y-610100D01*
X277437D01*
X278104Y-609767D01*
X278770Y-609100D01*
X280270Y-603101D02*
Y-610100D01*
X281736Y-607434D02*
X285736D01*
Y-606767D01*
X285402Y-606101D01*
X285069Y-605768D01*
X284402Y-605434D01*
X283403D01*
X282736Y-605768D01*
X282070Y-606434D01*
X281736Y-607434D01*
Y-608100D01*
X282070Y-609100D01*
X282736Y-609767D01*
X283403Y-610100D01*
X284402D01*
X285069Y-609767D01*
X285736Y-609100D01*
X288901Y-605434D02*
X288235Y-605768D01*
X287568Y-606434D01*
X287235Y-607434D01*
Y-608100D01*
X287568Y-609100D01*
X288235Y-609767D01*
X288901Y-610100D01*
X289901D01*
X290568Y-609767D01*
X291234Y-609100D01*
X291568Y-608100D01*
Y-607434D01*
X291234Y-606434D01*
X290568Y-605768D01*
X289901Y-605434D01*
X288901D01*
X293101Y-612433D02*
X298433D01*
X299333Y-603101D02*
Y-610100D01*
X300799Y-605434D02*
Y-610100D01*
Y-606767D02*
X301799Y-605768D01*
X302465Y-605434D01*
X303465D01*
X304132Y-605768D01*
X304465Y-606767D01*
Y-610100D01*
X307297Y-603101D02*
Y-608767D01*
X307631Y-609767D01*
X308297Y-610100D01*
X308964D01*
X306298Y-605434D02*
X308631D01*
X309964Y-607434D02*
X313963D01*
Y-606767D01*
X313630Y-606101D01*
X313296Y-605768D01*
X312630Y-605434D01*
X311630D01*
X310963Y-605768D01*
X310297Y-606434D01*
X309964Y-607434D01*
Y-608100D01*
X310297Y-609100D01*
X310963Y-609767D01*
X311630Y-610100D01*
X312630D01*
X313296Y-609767D01*
X313963Y-609100D01*
X315462Y-605434D02*
Y-610100D01*
Y-607434D02*
X315796Y-606434D01*
X316462Y-605768D01*
X317129Y-605434D01*
X318128D01*
X321428Y-603101D02*
X320761D01*
X320095Y-603435D01*
X319761Y-604435D01*
Y-610100D01*
X318762Y-605434D02*
X321095D01*
X326427D02*
Y-610100D01*
Y-606434D02*
X325760Y-605768D01*
X325094Y-605434D01*
X324094D01*
X323427Y-605768D01*
X322761Y-606434D01*
X322428Y-607434D01*
Y-608100D01*
X322761Y-609100D01*
X323427Y-609767D01*
X324094Y-610100D01*
X325094D01*
X325760Y-609767D01*
X326427Y-609100D01*
X332292Y-606434D02*
X331626Y-605768D01*
X330959Y-605434D01*
X329959D01*
X329293Y-605768D01*
X328626Y-606434D01*
X328293Y-607434D01*
Y-608100D01*
X328626Y-609100D01*
X329293Y-609767D01*
X329959Y-610100D01*
X330959D01*
X331626Y-609767D01*
X332292Y-609100D01*
X333792Y-607434D02*
X337791D01*
Y-606767D01*
X337458Y-606101D01*
X337124Y-605768D01*
X336458Y-605434D01*
X335458D01*
X334792Y-605768D01*
X334125Y-606434D01*
X333792Y-607434D01*
Y-608100D01*
X334125Y-609100D01*
X334792Y-609767D01*
X335458Y-610100D01*
X336458D01*
X337124Y-609767D01*
X337791Y-609100D01*
X339291Y-612433D02*
X344623D01*
X345523Y-603101D02*
X348189Y-610100D01*
X350855Y-603101D02*
X348189Y-610100D01*
X351755Y-604435D02*
X352421Y-604101D01*
X353421Y-603101D01*
Y-610100D01*
X356887Y-603101D02*
Y-610100D01*
Y-603101D02*
X359886D01*
X360886Y-603435D01*
X361219Y-603768D01*
X361553Y-604435D01*
Y-605101D01*
X361219Y-605768D01*
X360886Y-606101D01*
X359886Y-606434D01*
X356887D01*
X359220D02*
X361553Y-610100D01*
X365119Y-603101D02*
X364119Y-603435D01*
X363452Y-604435D01*
X363119Y-606101D01*
Y-607101D01*
X363452Y-608767D01*
X364119Y-609767D01*
X365119Y-610100D01*
X365785D01*
X366785Y-609767D01*
X367451Y-608767D01*
X367785Y-607101D01*
Y-606101D01*
X367451Y-604435D01*
X366785Y-603435D01*
X365785Y-603101D01*
X365119D01*
X369684Y-609434D02*
X369351Y-609767D01*
X369684Y-610100D01*
X370017Y-609767D01*
X369684Y-609434D01*
X371550Y-606767D02*
X374550D01*
X375550Y-606434D01*
X375883Y-606101D01*
X376216Y-605434D01*
Y-604435D01*
X375883Y-603768D01*
X375550Y-603435D01*
X374550Y-603101D01*
X371550D01*
Y-610100D01*
X381782Y-606434D02*
X381115Y-605768D01*
X380449Y-605434D01*
X379449D01*
X378782Y-605768D01*
X378116Y-606434D01*
X377782Y-607434D01*
Y-608100D01*
X378116Y-609100D01*
X378782Y-609767D01*
X379449Y-610100D01*
X380449D01*
X381115Y-609767D01*
X381782Y-609100D01*
X383281Y-603101D02*
Y-610100D01*
Y-606434D02*
X383948Y-605768D01*
X384614Y-605434D01*
X385614D01*
X386281Y-605768D01*
X386947Y-606434D01*
X387280Y-607434D01*
Y-608100D01*
X386947Y-609100D01*
X386281Y-609767D01*
X385614Y-610100D01*
X384614D01*
X383948Y-609767D01*
X383281Y-609100D01*
X388780Y-603101D02*
Y-610100D01*
Y-603101D02*
X391113D01*
X392113Y-603435D01*
X392779Y-604101D01*
X393112Y-604768D01*
X393446Y-605768D01*
Y-607434D01*
X393112Y-608434D01*
X392779Y-609100D01*
X392113Y-609767D01*
X391113Y-610100D01*
X388780D01*
X396678Y-605434D02*
X396012Y-605768D01*
X395345Y-606434D01*
X395012Y-607434D01*
Y-608100D01*
X395345Y-609100D01*
X396012Y-609767D01*
X396678Y-610100D01*
X397678D01*
X398345Y-609767D01*
X399011Y-609100D01*
X399344Y-608100D01*
Y-607434D01*
X399011Y-606434D01*
X398345Y-605768D01*
X397678Y-605434D01*
X396678D01*
X404877Y-606434D02*
X404210Y-605768D01*
X403544Y-605434D01*
X402544D01*
X401877Y-605768D01*
X401211Y-606434D01*
X400878Y-607434D01*
Y-608100D01*
X401211Y-609100D01*
X401877Y-609767D01*
X402544Y-610100D01*
X403544D01*
X404210Y-609767D01*
X404877Y-609100D01*
X207453Y-572101D02*
X206453Y-572435D01*
X205787Y-573435D01*
X205453Y-575101D01*
Y-576101D01*
X205787Y-577767D01*
X206453Y-578767D01*
X207453Y-579100D01*
X208120D01*
X209119Y-578767D01*
X209786Y-577767D01*
X210119Y-576101D01*
Y-575101D01*
X209786Y-573435D01*
X209119Y-572435D01*
X208120Y-572101D01*
X207453D01*
X216018Y-574434D02*
X215685Y-575434D01*
X215018Y-576101D01*
X214018Y-576434D01*
X213685D01*
X212685Y-576101D01*
X212019Y-575434D01*
X211686Y-574434D01*
Y-574101D01*
X212019Y-573101D01*
X212685Y-572435D01*
X213685Y-572101D01*
X214018D01*
X215018Y-572435D01*
X215685Y-573101D01*
X216018Y-574434D01*
Y-576101D01*
X215685Y-577767D01*
X215018Y-578767D01*
X214018Y-579100D01*
X213352D01*
X212352Y-578767D01*
X212019Y-578100D01*
X217917Y-580100D02*
X222583Y-572101D01*
X225049D02*
X224050Y-572435D01*
X223383Y-573435D01*
X223050Y-575101D01*
Y-576101D01*
X223383Y-577767D01*
X224050Y-578767D01*
X225049Y-579100D01*
X225716D01*
X226716Y-578767D01*
X227382Y-577767D01*
X227715Y-576101D01*
Y-575101D01*
X227382Y-573435D01*
X226716Y-572435D01*
X225716Y-572101D01*
X225049D01*
X233947D02*
X230615Y-579100D01*
X229282Y-572101D02*
X233947D01*
X235514Y-580100D02*
X240179Y-572101D01*
X240979Y-573768D02*
Y-573435D01*
X241313Y-572768D01*
X241646Y-572435D01*
X242312Y-572101D01*
X243645D01*
X244312Y-572435D01*
X244645Y-572768D01*
X244978Y-573435D01*
Y-574101D01*
X244645Y-574768D01*
X243979Y-575767D01*
X240646Y-579100D01*
X245312D01*
X248878Y-572101D02*
X247878Y-572435D01*
X247211Y-573435D01*
X246878Y-575101D01*
Y-576101D01*
X247211Y-577767D01*
X247878Y-578767D01*
X248878Y-579100D01*
X249544D01*
X250544Y-578767D01*
X251210Y-577767D01*
X251544Y-576101D01*
Y-575101D01*
X251210Y-573435D01*
X250544Y-572435D01*
X249544Y-572101D01*
X248878D01*
X253110Y-573435D02*
X253777Y-573101D01*
X254776Y-572101D01*
Y-579100D01*
X262575Y-574434D02*
X262241Y-575434D01*
X261575Y-576101D01*
X260575Y-576434D01*
X260242D01*
X259242Y-576101D01*
X258576Y-575434D01*
X258242Y-574434D01*
Y-574101D01*
X258576Y-573101D01*
X259242Y-572435D01*
X260242Y-572101D01*
X260575D01*
X261575Y-572435D01*
X262241Y-573101D01*
X262575Y-574434D01*
Y-576101D01*
X262241Y-577767D01*
X261575Y-578767D01*
X260575Y-579100D01*
X259909D01*
X258909Y-578767D01*
X258576Y-578100D01*
D15*
X54453Y-618000D02*
Y-498100D01*
D88*
X-391201Y-622500D02*
X708799D01*
Y227500D01*
X-391201D02*
X708799D01*
X-391201Y-622500D02*
Y227500D01*
D89*
X406953Y-618100D02*
Y-558100D01*
X616954Y-618100D02*
Y-558100D01*
X193500Y-618100D02*
Y-498100D01*
X706953Y-618100D02*
Y-498100D01*
X406953D02*
X706953D01*
X406953Y-558100D02*
Y-498100D01*
X194000Y-558100D02*
X706953Y-558100D01*
X193500Y-588100D02*
X706953Y-588100D01*
X193500Y-618100D02*
X706953D01*
X193500Y-528100D02*
X406953Y-528100D01*
X-203246Y-498100D02*
X256954D01*
X-203246Y-618100D02*
Y-498100D01*
Y-618100D02*
X256954D01*
X-203046D02*
X706953D01*
X193500Y-498100D02*
X406953D01*
X621953Y-593601D02*
Y-598100D01*
Y-593601D02*
X623882D01*
X624524Y-593815D01*
X624739Y-594029D01*
X624953Y-594458D01*
Y-594886D01*
X624739Y-595315D01*
X624524Y-595529D01*
X623882Y-595743D01*
X621953D01*
X623453D02*
X624953Y-598100D01*
X625960Y-596386D02*
X628531D01*
Y-595958D01*
X628316Y-595529D01*
X628102Y-595315D01*
X627674Y-595101D01*
X627031D01*
X626603Y-595315D01*
X626174Y-595743D01*
X625960Y-596386D01*
Y-596815D01*
X626174Y-597457D01*
X626603Y-597886D01*
X627031Y-598100D01*
X627674D01*
X628102Y-597886D01*
X628531Y-597457D01*
X629495Y-595101D02*
X630780Y-598100D01*
X632066Y-595101D02*
X630780Y-598100D01*
X633223Y-593601D02*
X633437Y-593815D01*
X633651Y-593601D01*
X633437Y-593387D01*
X633223Y-593601D01*
X633437Y-595101D02*
Y-598100D01*
X636800Y-595743D02*
X636586Y-595315D01*
X635943Y-595101D01*
X635301D01*
X634658Y-595315D01*
X634444Y-595743D01*
X634658Y-596172D01*
X635086Y-596386D01*
X636158Y-596600D01*
X636586Y-596815D01*
X636800Y-597243D01*
Y-597457D01*
X636586Y-597886D01*
X635943Y-598100D01*
X635301D01*
X634658Y-597886D01*
X634444Y-597457D01*
X638171Y-593601D02*
X638386Y-593815D01*
X638600Y-593601D01*
X638386Y-593387D01*
X638171Y-593601D01*
X638386Y-595101D02*
Y-598100D01*
X640464Y-595101D02*
X640035Y-595315D01*
X639607Y-595743D01*
X639393Y-596386D01*
Y-596815D01*
X639607Y-597457D01*
X640035Y-597886D01*
X640464Y-598100D01*
X641107D01*
X641535Y-597886D01*
X641964Y-597457D01*
X642178Y-596815D01*
Y-596386D01*
X641964Y-595743D01*
X641535Y-595315D01*
X641107Y-595101D01*
X640464D01*
X643163D02*
Y-598100D01*
Y-595958D02*
X643806Y-595315D01*
X644235Y-595101D01*
X644877D01*
X645306Y-595315D01*
X645520Y-595958D01*
Y-598100D01*
X646912Y-595101D02*
X646698Y-595315D01*
X646912Y-595529D01*
X647127Y-595315D01*
X646912Y-595101D01*
Y-597672D02*
X646698Y-597886D01*
X646912Y-598100D01*
X647127Y-597886D01*
X646912Y-597672D01*
X196453Y-593601D02*
Y-598100D01*
Y-593601D02*
X197953D01*
X198596Y-593815D01*
X199024Y-594244D01*
X199239Y-594672D01*
X199453Y-595315D01*
Y-596386D01*
X199239Y-597029D01*
X199024Y-597457D01*
X198596Y-597886D01*
X197953Y-598100D01*
X196453D01*
X201531Y-595101D02*
X201102Y-595315D01*
X200674Y-595743D01*
X200460Y-596386D01*
Y-596815D01*
X200674Y-597457D01*
X201102Y-597886D01*
X201531Y-598100D01*
X202174D01*
X202602Y-597886D01*
X203031Y-597457D01*
X203245Y-596815D01*
Y-596386D01*
X203031Y-595743D01*
X202602Y-595315D01*
X202174Y-595101D01*
X201531D01*
X206801Y-595743D02*
X206373Y-595315D01*
X205944Y-595101D01*
X205302D01*
X204873Y-595315D01*
X204445Y-595743D01*
X204230Y-596386D01*
Y-596815D01*
X204445Y-597457D01*
X204873Y-597886D01*
X205302Y-598100D01*
X205944D01*
X206373Y-597886D01*
X206801Y-597457D01*
X207765Y-595101D02*
Y-597243D01*
X207980Y-597886D01*
X208408Y-598100D01*
X209051D01*
X209479Y-597886D01*
X210122Y-597243D01*
Y-595101D02*
Y-598100D01*
X211300Y-595101D02*
Y-598100D01*
Y-595958D02*
X211943Y-595315D01*
X212372Y-595101D01*
X213014D01*
X213443Y-595315D01*
X213657Y-595958D01*
Y-598100D01*
Y-595958D02*
X214300Y-595315D01*
X214728Y-595101D01*
X215371D01*
X215799Y-595315D01*
X216014Y-595958D01*
Y-598100D01*
X217428Y-596386D02*
X219999D01*
Y-595958D01*
X219784Y-595529D01*
X219570Y-595315D01*
X219142Y-595101D01*
X218499D01*
X218070Y-595315D01*
X217642Y-595743D01*
X217428Y-596386D01*
Y-596815D01*
X217642Y-597457D01*
X218070Y-597886D01*
X218499Y-598100D01*
X219142D01*
X219570Y-597886D01*
X219999Y-597457D01*
X220963Y-595101D02*
Y-598100D01*
Y-595958D02*
X221605Y-595315D01*
X222034Y-595101D01*
X222676D01*
X223105Y-595315D01*
X223319Y-595958D01*
Y-598100D01*
X225140Y-593601D02*
Y-597243D01*
X225355Y-597886D01*
X225783Y-598100D01*
X226212D01*
X224498Y-595101D02*
X225997D01*
X230389Y-593601D02*
Y-598100D01*
Y-593601D02*
X233388Y-598100D01*
Y-593601D02*
Y-598100D01*
X234631Y-595101D02*
Y-597243D01*
X234845Y-597886D01*
X235274Y-598100D01*
X235916D01*
X236345Y-597886D01*
X236988Y-597243D01*
Y-595101D02*
Y-598100D01*
X238166Y-595101D02*
Y-598100D01*
Y-595958D02*
X238809Y-595315D01*
X239237Y-595101D01*
X239880D01*
X240308Y-595315D01*
X240523Y-595958D01*
Y-598100D01*
Y-595958D02*
X241165Y-595315D01*
X241594Y-595101D01*
X242237D01*
X242665Y-595315D01*
X242879Y-595958D01*
Y-598100D01*
X244293Y-593601D02*
Y-598100D01*
Y-595743D02*
X244722Y-595315D01*
X245150Y-595101D01*
X245793D01*
X246221Y-595315D01*
X246650Y-595743D01*
X246864Y-596386D01*
Y-596815D01*
X246650Y-597457D01*
X246221Y-597886D01*
X245793Y-598100D01*
X245150D01*
X244722Y-597886D01*
X244293Y-597457D01*
X247828Y-596386D02*
X250399D01*
Y-595958D01*
X250185Y-595529D01*
X249971Y-595315D01*
X249542Y-595101D01*
X248900D01*
X248471Y-595315D01*
X248042Y-595743D01*
X247828Y-596386D01*
Y-596815D01*
X248042Y-597457D01*
X248471Y-597886D01*
X248900Y-598100D01*
X249542D01*
X249971Y-597886D01*
X250399Y-597457D01*
X251363Y-595101D02*
Y-598100D01*
Y-596386D02*
X251577Y-595743D01*
X252006Y-595315D01*
X252434Y-595101D01*
X253077D01*
X253698D02*
X253484Y-595315D01*
X253698Y-595529D01*
X253913Y-595315D01*
X253698Y-595101D01*
Y-597672D02*
X253484Y-597886D01*
X253698Y-598100D01*
X253913Y-597886D01*
X253698Y-597672D01*
X201453Y-534458D02*
X203382D01*
X204024Y-534243D01*
X204239Y-534029D01*
X204453Y-533601D01*
Y-532958D01*
X204239Y-532529D01*
X204024Y-532315D01*
X203382Y-532101D01*
X201453D01*
Y-536600D01*
X208673Y-533172D02*
X208459Y-532744D01*
X208031Y-532315D01*
X207602Y-532101D01*
X206745D01*
X206317Y-532315D01*
X205888Y-532744D01*
X205674Y-533172D01*
X205460Y-533815D01*
Y-534886D01*
X205674Y-535529D01*
X205888Y-535957D01*
X206317Y-536386D01*
X206745Y-536600D01*
X207602D01*
X208031Y-536386D01*
X208459Y-535957D01*
X208673Y-535529D01*
X209937Y-532101D02*
Y-536600D01*
Y-532101D02*
X211866D01*
X212508Y-532315D01*
X212723Y-532529D01*
X212937Y-532958D01*
Y-533386D01*
X212723Y-533815D01*
X212508Y-534029D01*
X211866Y-534243D01*
X209937D02*
X211866D01*
X212508Y-534458D01*
X212723Y-534672D01*
X212937Y-535100D01*
Y-535743D01*
X212723Y-536171D01*
X212508Y-536386D01*
X211866Y-536600D01*
X209937D01*
X217479Y-532101D02*
Y-536600D01*
Y-532101D02*
X218978D01*
X219621Y-532315D01*
X220050Y-532744D01*
X220264Y-533172D01*
X220478Y-533815D01*
Y-534886D01*
X220264Y-535529D01*
X220050Y-535957D01*
X219621Y-536386D01*
X218978Y-536600D01*
X217479D01*
X224270Y-532101D02*
X221485D01*
Y-536600D01*
X224270D01*
X221485Y-534243D02*
X223199D01*
X228019Y-532744D02*
X227591Y-532315D01*
X226948Y-532101D01*
X226091D01*
X225448Y-532315D01*
X225020Y-532744D01*
Y-533172D01*
X225234Y-533601D01*
X225448Y-533815D01*
X225877Y-534029D01*
X227162Y-534458D01*
X227591Y-534672D01*
X227805Y-534886D01*
X228019Y-535315D01*
Y-535957D01*
X227591Y-536386D01*
X226948Y-536600D01*
X226091D01*
X225448Y-536386D01*
X225020Y-535957D01*
X229026Y-532101D02*
Y-536600D01*
X233183Y-533172D02*
X232968Y-532744D01*
X232540Y-532315D01*
X232111Y-532101D01*
X231254D01*
X230826Y-532315D01*
X230397Y-532744D01*
X230183Y-533172D01*
X229969Y-533815D01*
Y-534886D01*
X230183Y-535529D01*
X230397Y-535957D01*
X230826Y-536386D01*
X231254Y-536600D01*
X232111D01*
X232540Y-536386D01*
X232968Y-535957D01*
X233183Y-535529D01*
Y-534886D01*
X232111D02*
X233183D01*
X234211Y-532101D02*
Y-536600D01*
Y-532101D02*
X237210Y-536600D01*
Y-532101D02*
Y-536600D01*
X241238Y-532101D02*
X238453D01*
Y-536600D01*
X241238D01*
X238453Y-534243D02*
X240167D01*
X241988Y-532101D02*
Y-536600D01*
Y-532101D02*
X243916D01*
X244559Y-532315D01*
X244773Y-532529D01*
X244987Y-532958D01*
Y-533386D01*
X244773Y-533815D01*
X244559Y-534029D01*
X243916Y-534243D01*
X241988D01*
X243487D02*
X244987Y-536600D01*
X246208Y-533601D02*
X245994Y-533815D01*
X246208Y-534029D01*
X246423Y-533815D01*
X246208Y-533601D01*
Y-536171D02*
X245994Y-536386D01*
X246208Y-536600D01*
X246423Y-536386D01*
X246208Y-536171D01*
X621953Y-563601D02*
X623667Y-568100D01*
X625381Y-563601D02*
X623667Y-568100D01*
X625960Y-566386D02*
X628531D01*
Y-565958D01*
X628316Y-565529D01*
X628102Y-565315D01*
X627674Y-565101D01*
X627031D01*
X626603Y-565315D01*
X626174Y-565743D01*
X625960Y-566386D01*
Y-566815D01*
X626174Y-567457D01*
X626603Y-567886D01*
X627031Y-568100D01*
X627674D01*
X628102Y-567886D01*
X628531Y-567457D01*
X629495Y-565101D02*
Y-568100D01*
Y-566386D02*
X629709Y-565743D01*
X630137Y-565315D01*
X630566Y-565101D01*
X631209D01*
X633972Y-565743D02*
X633758Y-565315D01*
X633115Y-565101D01*
X632473D01*
X631830Y-565315D01*
X631616Y-565743D01*
X631830Y-566172D01*
X632259Y-566386D01*
X633330Y-566600D01*
X633758Y-566815D01*
X633972Y-567243D01*
Y-567457D01*
X633758Y-567886D01*
X633115Y-568100D01*
X632473D01*
X631830Y-567886D01*
X631616Y-567457D01*
X635344Y-563601D02*
X635558Y-563815D01*
X635772Y-563601D01*
X635558Y-563387D01*
X635344Y-563601D01*
X635558Y-565101D02*
Y-568100D01*
X637636Y-565101D02*
X637207Y-565315D01*
X636779Y-565743D01*
X636565Y-566386D01*
Y-566815D01*
X636779Y-567457D01*
X637207Y-567886D01*
X637636Y-568100D01*
X638279D01*
X638707Y-567886D01*
X639136Y-567457D01*
X639350Y-566815D01*
Y-566386D01*
X639136Y-565743D01*
X638707Y-565315D01*
X638279Y-565101D01*
X637636D01*
X640335D02*
Y-568100D01*
Y-565958D02*
X640978Y-565315D01*
X641406Y-565101D01*
X642049D01*
X642478Y-565315D01*
X642692Y-565958D01*
Y-568100D01*
X644085Y-565101D02*
X643870Y-565315D01*
X644085Y-565529D01*
X644299Y-565315D01*
X644085Y-565101D01*
Y-567671D02*
X643870Y-567886D01*
X644085Y-568100D01*
X644299Y-567886D01*
X644085Y-567671D01*
X200453Y-562601D02*
Y-567100D01*
Y-562601D02*
X201953D01*
X202596Y-562815D01*
X203024Y-563244D01*
X203239Y-563672D01*
X203453Y-564315D01*
Y-565386D01*
X203239Y-566029D01*
X203024Y-566457D01*
X202596Y-566886D01*
X201953Y-567100D01*
X200453D01*
X207888D02*
X206174Y-562601D01*
X204460Y-567100D01*
X205103Y-565600D02*
X207245D01*
X210437Y-562601D02*
Y-567100D01*
X208937Y-562601D02*
X211937D01*
X215258D02*
X212472D01*
Y-567100D01*
X215258D01*
X212472Y-564743D02*
X214186D01*
X216222Y-564101D02*
X216007Y-564315D01*
X216222Y-564529D01*
X216436Y-564315D01*
X216222Y-564101D01*
Y-566672D02*
X216007Y-566886D01*
X216222Y-567100D01*
X216436Y-566886D01*
X216222Y-566672D01*
X413453Y-503601D02*
Y-508100D01*
X411953Y-503601D02*
X414953D01*
X415488D02*
Y-508100D01*
X417931Y-503601D02*
Y-508100D01*
X416431Y-503601D02*
X419430D01*
X419966D02*
Y-508100D01*
X422537D01*
X425815Y-503601D02*
X423030D01*
Y-508100D01*
X425815D01*
X423030Y-505743D02*
X424744D01*
X426779Y-505101D02*
X426565Y-505315D01*
X426779Y-505529D01*
X426993Y-505315D01*
X426779Y-505101D01*
Y-507671D02*
X426565Y-507886D01*
X426779Y-508100D01*
X426993Y-507886D01*
X426779Y-507671D01*
X205239Y-504101D02*
X202453D01*
Y-508600D01*
X205239D01*
X202453Y-506243D02*
X204168D01*
X205989Y-504101D02*
Y-508600D01*
Y-504101D02*
X208988Y-508600D01*
Y-504101D02*
Y-508600D01*
X213444Y-505172D02*
X213230Y-504744D01*
X212801Y-504315D01*
X212373Y-504101D01*
X211516D01*
X211087Y-504315D01*
X210659Y-504744D01*
X210445Y-505172D01*
X210230Y-505815D01*
Y-506886D01*
X210445Y-507529D01*
X210659Y-507957D01*
X211087Y-508386D01*
X211516Y-508600D01*
X212373D01*
X212801Y-508386D01*
X213230Y-507957D01*
X213444Y-507529D01*
Y-506886D01*
X212373D02*
X213444D01*
X214472Y-504101D02*
Y-508600D01*
X215415Y-504101D02*
Y-508600D01*
Y-504101D02*
X218414Y-508600D01*
Y-504101D02*
Y-508600D01*
X222442Y-504101D02*
X219657D01*
Y-508600D01*
X222442D01*
X219657Y-506243D02*
X221371D01*
X225977Y-504101D02*
X223192D01*
Y-508600D01*
X225977D01*
X223192Y-506243D02*
X224906D01*
X226727Y-504101D02*
Y-508600D01*
Y-504101D02*
X228655D01*
X229298Y-504315D01*
X229512Y-504529D01*
X229726Y-504958D01*
Y-505386D01*
X229512Y-505815D01*
X229298Y-506029D01*
X228655Y-506243D01*
X226727D01*
X228227D02*
X229726Y-508600D01*
X230947Y-505601D02*
X230733Y-505815D01*
X230947Y-506029D01*
X231162Y-505815D01*
X230947Y-505601D01*
Y-508172D02*
X230733Y-508386D01*
X230947Y-508600D01*
X231162Y-508386D01*
X230947Y-508172D01*
M02*
