G04*
G04 #@! TF.GenerationSoftware,Altium Limited,Altium Designer,19.1.6 (110)*
G04*
G04 Layer_Physical_Order=3*
G04 Layer_Color=16440176*
%FSLAX25Y25*%
%MOIN*%
G70*
G01*
G75*
%ADD15C,0.01000*%
%ADD74C,0.05906*%
%ADD75R,0.05906X0.05906*%
%ADD77C,0.03543*%
%ADD83C,0.04000*%
G36*
X260547Y-61953D02*
Y-61953D01*
X268981D01*
Y-65474D01*
X268480Y-65574D01*
X268453Y-65507D01*
X267819Y-64681D01*
X266993Y-64047D01*
X266032Y-63649D01*
X265500Y-63579D01*
Y-67500D01*
X265000D01*
D01*
X265500D01*
Y-71421D01*
X266032Y-71351D01*
X266993Y-70953D01*
X267819Y-70319D01*
X268453Y-69493D01*
X268480Y-69427D01*
X268981Y-69526D01*
Y-74552D01*
X268480Y-74721D01*
X268176Y-74324D01*
X267246Y-73611D01*
X266162Y-73162D01*
X265000Y-73009D01*
X263838Y-73162D01*
X262754Y-73611D01*
X261824Y-74324D01*
X261110Y-75254D01*
X260662Y-76338D01*
X260509Y-77500D01*
X260662Y-78662D01*
X261110Y-79746D01*
X261824Y-80676D01*
X262754Y-81389D01*
X263838Y-81838D01*
X265000Y-81991D01*
X266162Y-81838D01*
X267246Y-81389D01*
X268176Y-80676D01*
X268480Y-80279D01*
X268981Y-80448D01*
Y-84552D01*
X268480Y-84721D01*
X268176Y-84324D01*
X267246Y-83610D01*
X266162Y-83162D01*
X265000Y-83009D01*
X263838Y-83162D01*
X262754Y-83610D01*
X261824Y-84324D01*
X261110Y-85254D01*
X260662Y-86338D01*
X260509Y-87500D01*
X260662Y-88662D01*
X261110Y-89746D01*
X261824Y-90676D01*
X262754Y-91390D01*
X263838Y-91838D01*
X265000Y-91991D01*
X266162Y-91838D01*
X267246Y-91390D01*
X268176Y-90676D01*
X268480Y-90279D01*
X268981Y-90448D01*
Y-94552D01*
X268480Y-94721D01*
X268176Y-94324D01*
X267246Y-93611D01*
X266162Y-93162D01*
X265000Y-93009D01*
X263838Y-93162D01*
X262754Y-93611D01*
X261824Y-94324D01*
X261110Y-95254D01*
X260662Y-96338D01*
X260509Y-97500D01*
X260662Y-98662D01*
X261110Y-99746D01*
X261824Y-100676D01*
X262754Y-101390D01*
X262961Y-101475D01*
Y-124924D01*
X262499Y-125115D01*
X258039Y-120655D01*
Y-63845D01*
X260111Y-61772D01*
X260547Y-61953D01*
D02*
G37*
G36*
X268981Y-53047D02*
X260547D01*
Y-55944D01*
X260353Y-55983D01*
X259691Y-56425D01*
X254558Y-61558D01*
X254116Y-62220D01*
X253961Y-63000D01*
Y-121500D01*
X254116Y-122280D01*
X254558Y-122942D01*
X263861Y-132245D01*
Y-149325D01*
X263530Y-149546D01*
X263361Y-149583D01*
X262500Y-149470D01*
X261586Y-149590D01*
X260735Y-149943D01*
X260004Y-150504D01*
X259443Y-151235D01*
X259090Y-152086D01*
X258970Y-153000D01*
X259090Y-153914D01*
X259443Y-154765D01*
X260004Y-155496D01*
X260735Y-156057D01*
X261586Y-156410D01*
X262500Y-156530D01*
X263361Y-156417D01*
X263530Y-156454D01*
X263861Y-156675D01*
Y-349255D01*
X247655Y-365461D01*
X81345D01*
X70942Y-355058D01*
X70280Y-354616D01*
X69500Y-354461D01*
X65025D01*
X64910Y-353586D01*
X64557Y-352735D01*
X63996Y-352004D01*
X63265Y-351443D01*
X62414Y-351090D01*
X61500Y-350970D01*
X60586Y-351090D01*
X59735Y-351443D01*
X59004Y-352004D01*
X58443Y-352735D01*
X58090Y-353586D01*
X57970Y-354500D01*
X58090Y-355414D01*
X58443Y-356265D01*
X59004Y-356996D01*
X59735Y-357557D01*
X60171Y-357738D01*
X60288Y-358328D01*
X45155Y-373461D01*
X-20655D01*
X-53545Y-340571D01*
X-53470Y-340000D01*
X-53590Y-339086D01*
X-53943Y-338235D01*
X-54504Y-337504D01*
X-55235Y-336943D01*
X-56086Y-336590D01*
X-57000Y-336470D01*
X-57914Y-336590D01*
X-58765Y-336943D01*
X-59496Y-337504D01*
X-60057Y-338235D01*
X-60410Y-339086D01*
X-60530Y-340000D01*
X-60410Y-340914D01*
X-60057Y-341765D01*
X-59496Y-342496D01*
X-58765Y-343057D01*
X-57914Y-343410D01*
X-57000Y-343530D01*
X-56429Y-343455D01*
X-45757Y-354127D01*
X-45761Y-354139D01*
X-45975Y-354616D01*
X-46765Y-354943D01*
X-47496Y-355504D01*
X-48057Y-356235D01*
X-48410Y-357086D01*
X-48530Y-358000D01*
X-48410Y-358914D01*
X-48057Y-359765D01*
X-47496Y-360496D01*
X-46765Y-361057D01*
X-45914Y-361410D01*
X-45000Y-361530D01*
X-44086Y-361410D01*
X-43235Y-361057D01*
X-42504Y-360496D01*
X-41943Y-359765D01*
X-41616Y-358975D01*
X-41139Y-358760D01*
X-41127Y-358757D01*
X-23865Y-376019D01*
X-24057Y-376481D01*
X-122681D01*
Y15181D01*
X268981D01*
Y-53047D01*
D02*
G37*
%LPC*%
G36*
X264500Y-63579D02*
X263968Y-63649D01*
X263007Y-64047D01*
X262181Y-64681D01*
X261547Y-65507D01*
X261149Y-66468D01*
X261079Y-67000D01*
X264500D01*
Y-63579D01*
D02*
G37*
G36*
Y-68000D02*
X261079D01*
X261149Y-68532D01*
X261547Y-69493D01*
X262181Y-70319D01*
X263007Y-70953D01*
X263968Y-71351D01*
X264500Y-71421D01*
Y-68000D01*
D02*
G37*
G36*
X154453Y14453D02*
X145547D01*
Y5547D01*
X154453D01*
Y14453D01*
D02*
G37*
G36*
X140000Y14491D02*
X138838Y14338D01*
X137754Y13890D01*
X136824Y13176D01*
X136110Y12246D01*
X135662Y11162D01*
X135509Y10000D01*
X135662Y8838D01*
X136110Y7754D01*
X136824Y6824D01*
X137754Y6111D01*
X138838Y5662D01*
X140000Y5509D01*
X141162Y5662D01*
X142246Y6111D01*
X143176Y6824D01*
X143889Y7754D01*
X144338Y8838D01*
X144491Y10000D01*
X144338Y11162D01*
X143889Y12246D01*
X143176Y13176D01*
X142246Y13890D01*
X141162Y14338D01*
X140000Y14491D01*
D02*
G37*
G36*
X130000D02*
X128838Y14338D01*
X127754Y13890D01*
X126824Y13176D01*
X126110Y12246D01*
X125662Y11162D01*
X125509Y10000D01*
X125662Y8838D01*
X126110Y7754D01*
X126824Y6824D01*
X127754Y6111D01*
X128838Y5662D01*
X130000Y5509D01*
X131162Y5662D01*
X132246Y6111D01*
X133176Y6824D01*
X133889Y7754D01*
X134338Y8838D01*
X134491Y10000D01*
X134338Y11162D01*
X133889Y12246D01*
X133176Y13176D01*
X132246Y13890D01*
X131162Y14338D01*
X130000Y14491D01*
D02*
G37*
G36*
X100000D02*
X98838Y14338D01*
X97754Y13890D01*
X96824Y13176D01*
X96110Y12246D01*
X95662Y11162D01*
X95509Y10000D01*
X95662Y8838D01*
X96110Y7754D01*
X96824Y6824D01*
X97754Y6111D01*
X98838Y5662D01*
X100000Y5509D01*
X101162Y5662D01*
X102246Y6111D01*
X103176Y6824D01*
X103890Y7754D01*
X104338Y8838D01*
X104491Y10000D01*
X104338Y11162D01*
X103890Y12246D01*
X103176Y13176D01*
X102246Y13890D01*
X101162Y14338D01*
X100000Y14491D01*
D02*
G37*
G36*
X90000D02*
X88838Y14338D01*
X87754Y13890D01*
X86824Y13176D01*
X86111Y12246D01*
X85662Y11162D01*
X85509Y10000D01*
X85662Y8838D01*
X86111Y7754D01*
X86824Y6824D01*
X87754Y6111D01*
X88838Y5662D01*
X90000Y5509D01*
X91162Y5662D01*
X92246Y6111D01*
X93176Y6824D01*
X93889Y7754D01*
X94338Y8838D01*
X94491Y10000D01*
X94338Y11162D01*
X93889Y12246D01*
X93176Y13176D01*
X92246Y13890D01*
X91162Y14338D01*
X90000Y14491D01*
D02*
G37*
G36*
X80000D02*
X78838Y14338D01*
X77754Y13890D01*
X76824Y13176D01*
X76111Y12246D01*
X75662Y11162D01*
X75509Y10000D01*
X75662Y8838D01*
X76111Y7754D01*
X76824Y6824D01*
X77754Y6111D01*
X78838Y5662D01*
X80000Y5509D01*
X81162Y5662D01*
X82246Y6111D01*
X83176Y6824D01*
X83890Y7754D01*
X84338Y8838D01*
X84491Y10000D01*
X84338Y11162D01*
X83890Y12246D01*
X83176Y13176D01*
X82246Y13890D01*
X81162Y14338D01*
X80000Y14491D01*
D02*
G37*
G36*
X70000D02*
X68838Y14338D01*
X67754Y13890D01*
X66824Y13176D01*
X66110Y12246D01*
X65662Y11162D01*
X65509Y10000D01*
X65662Y8838D01*
X66110Y7754D01*
X66824Y6824D01*
X67754Y6111D01*
X68838Y5662D01*
X70000Y5509D01*
X71162Y5662D01*
X72246Y6111D01*
X73176Y6824D01*
X73889Y7754D01*
X74338Y8838D01*
X74491Y10000D01*
X74338Y11162D01*
X73889Y12246D01*
X73176Y13176D01*
X72246Y13890D01*
X71162Y14338D01*
X70000Y14491D01*
D02*
G37*
G36*
X60000D02*
X58838Y14338D01*
X57754Y13890D01*
X56824Y13176D01*
X56111Y12246D01*
X55662Y11162D01*
X55509Y10000D01*
X55662Y8838D01*
X55747Y8631D01*
X53558Y6442D01*
X53116Y5780D01*
X52961Y5000D01*
Y3906D01*
X52512Y3685D01*
X52246Y3889D01*
X51162Y4338D01*
X50000Y4491D01*
X48838Y4338D01*
X47754Y3889D01*
X46824Y3176D01*
X46110Y2246D01*
X45662Y1162D01*
X45509Y-0D01*
X45662Y-1162D01*
X46110Y-2246D01*
X46824Y-3176D01*
X47754Y-3889D01*
X48838Y-4338D01*
X50000Y-4491D01*
X51162Y-4338D01*
X52246Y-3889D01*
X52512Y-3685D01*
X52961Y-3906D01*
Y-117655D01*
X42408Y-128208D01*
X41947Y-127962D01*
X42039Y-127500D01*
X42039Y-127500D01*
Y-3975D01*
X42246Y-3889D01*
X43176Y-3176D01*
X43889Y-2246D01*
X44338Y-1162D01*
X44491Y0D01*
X44338Y1162D01*
X43889Y2246D01*
X43176Y3176D01*
X42246Y3889D01*
X41162Y4338D01*
X40000Y4491D01*
X38838Y4338D01*
X37754Y3889D01*
X36824Y3176D01*
X36110Y2246D01*
X35662Y1162D01*
X35509Y0D01*
X35662Y-1162D01*
X36110Y-2246D01*
X36824Y-3176D01*
X37754Y-3889D01*
X37961Y-3975D01*
Y-126655D01*
X-15942Y-180558D01*
X-16384Y-181220D01*
X-16539Y-182000D01*
Y-227655D01*
X-23961Y-235077D01*
X-24461Y-234870D01*
Y-224544D01*
X-23961Y-224391D01*
X-23496Y-224996D01*
X-22765Y-225557D01*
X-21914Y-225910D01*
X-21000Y-226030D01*
X-20086Y-225910D01*
X-19235Y-225557D01*
X-18504Y-224996D01*
X-17943Y-224265D01*
X-17590Y-223414D01*
X-17470Y-222500D01*
X-17590Y-221586D01*
X-17943Y-220735D01*
X-18504Y-220004D01*
X-19235Y-219443D01*
X-20086Y-219090D01*
X-21000Y-218970D01*
X-21914Y-219090D01*
X-22765Y-219443D01*
X-23496Y-220004D01*
X-23961Y-220609D01*
X-24461Y-220456D01*
Y-186345D01*
X31442Y-130442D01*
X31884Y-129780D01*
X32039Y-129000D01*
Y-3975D01*
X32246Y-3889D01*
X33176Y-3176D01*
X33889Y-2246D01*
X34338Y-1162D01*
X34491Y0D01*
X34338Y1162D01*
X33889Y2246D01*
X33176Y3176D01*
X32246Y3889D01*
X31162Y4338D01*
X30000Y4491D01*
X28838Y4338D01*
X27754Y3889D01*
X26824Y3176D01*
X26111Y2246D01*
X25662Y1162D01*
X25509Y0D01*
X25662Y-1162D01*
X26111Y-2246D01*
X26824Y-3176D01*
X27754Y-3889D01*
X27961Y-3975D01*
Y-128155D01*
X22501Y-133615D01*
X22039Y-133424D01*
Y-3975D01*
X22246Y-3889D01*
X23176Y-3176D01*
X23889Y-2246D01*
X24338Y-1162D01*
X24491Y-0D01*
X24338Y1162D01*
X23889Y2246D01*
X23176Y3176D01*
X22246Y3889D01*
X21162Y4338D01*
X20000Y4491D01*
X18838Y4338D01*
X17754Y3889D01*
X16824Y3176D01*
X16111Y2246D01*
X15662Y1162D01*
X15509Y-0D01*
X15662Y-1162D01*
X16111Y-2246D01*
X16824Y-3176D01*
X17754Y-3889D01*
X17961Y-3975D01*
Y-134655D01*
X-29942Y-182558D01*
X-30384Y-183220D01*
X-30539Y-184000D01*
Y-232655D01*
X-87845Y-289961D01*
X-102000D01*
X-102780Y-290116D01*
X-103442Y-290558D01*
X-109442Y-296558D01*
X-109884Y-297220D01*
X-110039Y-298000D01*
Y-313201D01*
X-109884Y-313981D01*
X-109442Y-314643D01*
X-102953Y-321131D01*
X-103039Y-321338D01*
X-103192Y-322500D01*
X-103039Y-323662D01*
X-102590Y-324746D01*
X-101876Y-325676D01*
X-100946Y-326390D01*
X-99863Y-326838D01*
X-98701Y-326991D01*
X-97538Y-326838D01*
X-96455Y-326390D01*
X-95525Y-325676D01*
X-94811Y-324746D01*
X-94363Y-323662D01*
X-94210Y-322500D01*
X-94363Y-321338D01*
X-94811Y-320254D01*
X-95525Y-319324D01*
X-96455Y-318611D01*
X-97538Y-318162D01*
X-98701Y-318009D01*
X-99863Y-318162D01*
X-100070Y-318247D01*
X-105961Y-312356D01*
Y-308777D01*
X-105499Y-308586D01*
X-102953Y-311131D01*
X-103039Y-311338D01*
X-103192Y-312500D01*
X-103039Y-313662D01*
X-102590Y-314746D01*
X-101876Y-315676D01*
X-100946Y-316389D01*
X-99863Y-316838D01*
X-98701Y-316991D01*
X-97538Y-316838D01*
X-96455Y-316389D01*
X-95525Y-315676D01*
X-94811Y-314746D01*
X-94363Y-313662D01*
X-94210Y-312500D01*
X-94363Y-311338D01*
X-94811Y-310254D01*
X-95525Y-309324D01*
X-96455Y-308611D01*
X-97538Y-308162D01*
X-98701Y-308009D01*
X-99863Y-308162D01*
X-100070Y-308247D01*
X-100902Y-307415D01*
X-100711Y-306953D01*
X-94248D01*
Y-304539D01*
X-88500D01*
X-87720Y-304384D01*
X-87058Y-303942D01*
X-13058Y-229942D01*
X-13039Y-229914D01*
X-12539Y-230065D01*
Y-253455D01*
X-97332Y-338247D01*
X-97538Y-338162D01*
X-98701Y-338009D01*
X-99863Y-338162D01*
X-100946Y-338611D01*
X-101876Y-339324D01*
X-102590Y-340254D01*
X-103039Y-341338D01*
X-103192Y-342500D01*
X-103039Y-343662D01*
X-102590Y-344746D01*
X-101876Y-345676D01*
X-100946Y-346390D01*
X-99863Y-346838D01*
X-98701Y-346991D01*
X-97538Y-346838D01*
X-96455Y-346390D01*
X-95525Y-345676D01*
X-94811Y-344746D01*
X-94363Y-343662D01*
X-94210Y-342500D01*
X-94363Y-341338D01*
X-94448Y-341131D01*
X-9058Y-255741D01*
X-8616Y-255080D01*
X-8461Y-254299D01*
Y-184845D01*
X56442Y-119942D01*
X56884Y-119280D01*
X57039Y-118500D01*
Y-3906D01*
X57488Y-3685D01*
X57754Y-3889D01*
X58838Y-4338D01*
X60000Y-4491D01*
X61162Y-4338D01*
X62246Y-3889D01*
X63176Y-3176D01*
X63889Y-2246D01*
X64338Y-1162D01*
X64491Y-0D01*
X64338Y1162D01*
X63889Y2246D01*
X63176Y3176D01*
X62246Y3889D01*
X61162Y4338D01*
X60000Y4491D01*
X58838Y4338D01*
X57802Y3909D01*
X57704Y3916D01*
X57267Y4146D01*
X57240Y4356D01*
X58631Y5747D01*
X58838Y5662D01*
X60000Y5509D01*
X61162Y5662D01*
X62246Y6111D01*
X63176Y6824D01*
X63889Y7754D01*
X64338Y8838D01*
X64491Y10000D01*
X64338Y11162D01*
X63889Y12246D01*
X63176Y13176D01*
X62246Y13890D01*
X61162Y14338D01*
X60000Y14491D01*
D02*
G37*
G36*
X50000D02*
X48838Y14338D01*
X47754Y13890D01*
X46824Y13176D01*
X46110Y12246D01*
X45662Y11162D01*
X45509Y10000D01*
X45662Y8838D01*
X46110Y7754D01*
X46824Y6824D01*
X47754Y6111D01*
X48838Y5662D01*
X50000Y5509D01*
X51162Y5662D01*
X52246Y6111D01*
X53176Y6824D01*
X53890Y7754D01*
X54338Y8838D01*
X54491Y10000D01*
X54338Y11162D01*
X53890Y12246D01*
X53176Y13176D01*
X52246Y13890D01*
X51162Y14338D01*
X50000Y14491D01*
D02*
G37*
G36*
X40000D02*
X38838Y14338D01*
X37754Y13890D01*
X36824Y13176D01*
X36110Y12246D01*
X35662Y11162D01*
X35509Y10000D01*
X35662Y8838D01*
X36110Y7754D01*
X36824Y6824D01*
X37754Y6111D01*
X38838Y5662D01*
X40000Y5509D01*
X41162Y5662D01*
X42246Y6111D01*
X43176Y6824D01*
X43889Y7754D01*
X44338Y8838D01*
X44491Y10000D01*
X44338Y11162D01*
X43889Y12246D01*
X43176Y13176D01*
X42246Y13890D01*
X41162Y14338D01*
X40000Y14491D01*
D02*
G37*
G36*
X30000D02*
X28838Y14338D01*
X27754Y13890D01*
X26824Y13176D01*
X26111Y12246D01*
X25662Y11162D01*
X25509Y10000D01*
X25662Y8838D01*
X26111Y7754D01*
X26824Y6824D01*
X27754Y6111D01*
X28838Y5662D01*
X30000Y5509D01*
X31162Y5662D01*
X32246Y6111D01*
X33176Y6824D01*
X33889Y7754D01*
X34338Y8838D01*
X34491Y10000D01*
X34338Y11162D01*
X33889Y12246D01*
X33176Y13176D01*
X32246Y13890D01*
X31162Y14338D01*
X30000Y14491D01*
D02*
G37*
G36*
X20000D02*
X18838Y14338D01*
X17754Y13890D01*
X16824Y13176D01*
X16111Y12246D01*
X15662Y11162D01*
X15509Y10000D01*
X15662Y8838D01*
X16111Y7754D01*
X16824Y6824D01*
X17754Y6111D01*
X18838Y5662D01*
X20000Y5509D01*
X21162Y5662D01*
X22246Y6111D01*
X23176Y6824D01*
X23889Y7754D01*
X24338Y8838D01*
X24491Y10000D01*
X24338Y11162D01*
X23889Y12246D01*
X23176Y13176D01*
X22246Y13890D01*
X21162Y14338D01*
X20000Y14491D01*
D02*
G37*
G36*
X10000D02*
X8838Y14338D01*
X7754Y13890D01*
X6824Y13176D01*
X6111Y12246D01*
X5662Y11162D01*
X5509Y10000D01*
X5662Y8838D01*
X6111Y7754D01*
X6824Y6824D01*
X7754Y6111D01*
X8838Y5662D01*
X10000Y5509D01*
X11162Y5662D01*
X12246Y6111D01*
X13176Y6824D01*
X13890Y7754D01*
X14338Y8838D01*
X14491Y10000D01*
X14338Y11162D01*
X13890Y12246D01*
X13176Y13176D01*
X12246Y13890D01*
X11162Y14338D01*
X10000Y14491D01*
D02*
G37*
G36*
X0D02*
X-1162Y14338D01*
X-2246Y13890D01*
X-3176Y13176D01*
X-3889Y12246D01*
X-4338Y11162D01*
X-4491Y10000D01*
X-4338Y8838D01*
X-3889Y7754D01*
X-3176Y6824D01*
X-2246Y6111D01*
X-1162Y5662D01*
X0Y5509D01*
X1162Y5662D01*
X2246Y6111D01*
X3176Y6824D01*
X3889Y7754D01*
X4338Y8838D01*
X4491Y10000D01*
X4338Y11162D01*
X3889Y12246D01*
X3176Y13176D01*
X2246Y13890D01*
X1162Y14338D01*
X0Y14491D01*
D02*
G37*
G36*
X120000D02*
X118838Y14338D01*
X117754Y13890D01*
X116824Y13176D01*
X116111Y12246D01*
X115662Y11162D01*
X115509Y10000D01*
X115662Y8838D01*
X116111Y7754D01*
X116824Y6824D01*
X117754Y6111D01*
X118838Y5662D01*
X120000Y5509D01*
X121162Y5662D01*
X121369Y5747D01*
X122760Y4356D01*
X122733Y4146D01*
X122296Y3916D01*
X122198Y3909D01*
X121162Y4338D01*
X120000Y4491D01*
X118838Y4338D01*
X117754Y3889D01*
X117488Y3685D01*
X117039Y3906D01*
Y5000D01*
X116884Y5780D01*
X116442Y6442D01*
X114253Y8631D01*
X114338Y8838D01*
X114491Y10000D01*
X114338Y11162D01*
X113890Y12246D01*
X113176Y13176D01*
X112246Y13890D01*
X111162Y14338D01*
X110000Y14491D01*
X108838Y14338D01*
X107754Y13890D01*
X106824Y13176D01*
X106111Y12246D01*
X105662Y11162D01*
X105509Y10000D01*
X105662Y8838D01*
X106111Y7754D01*
X106824Y6824D01*
X107754Y6111D01*
X108838Y5662D01*
X110000Y5509D01*
X111162Y5662D01*
X111369Y5747D01*
X112760Y4356D01*
X112733Y4146D01*
X112296Y3916D01*
X112198Y3909D01*
X111162Y4338D01*
X110000Y4491D01*
X108838Y4338D01*
X107754Y3889D01*
X106824Y3176D01*
X106111Y2246D01*
X105662Y1162D01*
X105509Y-0D01*
X105662Y-1162D01*
X106111Y-2246D01*
X106824Y-3176D01*
X107754Y-3889D01*
X107961Y-3975D01*
Y-46155D01*
X89558Y-64558D01*
X89116Y-65220D01*
X88961Y-66000D01*
Y-74653D01*
X88504Y-75004D01*
X87943Y-75735D01*
X87590Y-76586D01*
X87470Y-77500D01*
X87590Y-78414D01*
X87943Y-79265D01*
X88504Y-79996D01*
X89235Y-80557D01*
X90086Y-80910D01*
X91000Y-81030D01*
X91914Y-80910D01*
X92765Y-80557D01*
X93496Y-79996D01*
X94057Y-79265D01*
X94410Y-78414D01*
X94530Y-77500D01*
X94410Y-76586D01*
X94057Y-75735D01*
X93496Y-75004D01*
X93039Y-74653D01*
Y-66845D01*
X111442Y-48442D01*
X111884Y-47780D01*
X112039Y-47000D01*
Y-3975D01*
X112246Y-3889D01*
X112512Y-3685D01*
X112961Y-3906D01*
Y-53155D01*
X107058Y-59058D01*
X106616Y-59720D01*
X106461Y-60500D01*
Y-111155D01*
X17558Y-200058D01*
X17116Y-200720D01*
X16961Y-201500D01*
Y-206370D01*
X17116Y-207151D01*
X17558Y-207812D01*
X21079Y-211333D01*
X21031Y-211701D01*
X21143Y-212555D01*
X21473Y-213351D01*
X21997Y-214034D01*
X22681Y-214559D01*
X23477Y-214888D01*
X24331Y-215001D01*
X25185Y-214888D01*
X25981Y-214559D01*
X26664Y-214034D01*
X27189Y-213351D01*
X27518Y-212555D01*
X27631Y-211701D01*
X27518Y-210847D01*
X27189Y-210051D01*
X26664Y-209367D01*
X25981Y-208843D01*
X25185Y-208513D01*
X24331Y-208401D01*
X23963Y-208449D01*
X22781Y-207267D01*
X23064Y-206843D01*
X23477Y-207014D01*
X24331Y-207127D01*
X25185Y-207014D01*
X25981Y-206684D01*
X26664Y-206160D01*
X27189Y-205477D01*
X27518Y-204681D01*
X27631Y-203827D01*
X27582Y-203459D01*
X28471Y-202570D01*
X28933Y-202762D01*
Y-207098D01*
X35476D01*
Y-200555D01*
X31139D01*
X30948Y-200093D01*
X126442Y-104599D01*
X126884Y-103938D01*
X127039Y-103157D01*
Y-3906D01*
X127488Y-3685D01*
X127754Y-3889D01*
X127961Y-3975D01*
Y-112440D01*
X127461Y-112473D01*
X127410Y-112086D01*
X127057Y-111235D01*
X126496Y-110504D01*
X125765Y-109943D01*
X124914Y-109590D01*
X124000Y-109470D01*
X123086Y-109590D01*
X122235Y-109943D01*
X121504Y-110504D01*
X120943Y-111235D01*
X120590Y-112086D01*
X120470Y-113000D01*
X120585Y-113875D01*
X120461Y-114500D01*
Y-254000D01*
X120616Y-254780D01*
X121058Y-255442D01*
X146461Y-280845D01*
Y-309153D01*
X146004Y-309504D01*
X145443Y-310235D01*
X145090Y-311086D01*
X144970Y-312000D01*
X145090Y-312914D01*
X145443Y-313765D01*
X146004Y-314496D01*
X146735Y-315057D01*
X147586Y-315410D01*
X148500Y-315530D01*
X149414Y-315410D01*
X150265Y-315057D01*
X150961Y-314523D01*
X151213Y-314570D01*
X151461Y-314654D01*
Y-330653D01*
X151004Y-331004D01*
X150443Y-331735D01*
X150090Y-332586D01*
X149970Y-333500D01*
X150090Y-334414D01*
X150443Y-335265D01*
X151004Y-335996D01*
X151735Y-336557D01*
X152586Y-336910D01*
X153500Y-337030D01*
X154414Y-336910D01*
X155265Y-336557D01*
X155996Y-335996D01*
X156557Y-335265D01*
X156910Y-334414D01*
X157030Y-333500D01*
X156910Y-332586D01*
X156557Y-331735D01*
X155996Y-331004D01*
X155539Y-330653D01*
Y-130560D01*
X156039Y-130527D01*
X156090Y-130914D01*
X156443Y-131765D01*
X157004Y-132496D01*
X157735Y-133057D01*
X158586Y-133410D01*
X159500Y-133530D01*
X160414Y-133410D01*
X161265Y-133057D01*
X161996Y-132496D01*
X162557Y-131765D01*
X162910Y-130914D01*
X163030Y-130000D01*
X162910Y-129086D01*
X162557Y-128235D01*
X161996Y-127504D01*
X161265Y-126943D01*
X160414Y-126590D01*
X159500Y-126470D01*
X158586Y-126590D01*
X157735Y-126943D01*
X157004Y-127504D01*
X156443Y-128235D01*
X156090Y-129086D01*
X156039Y-129473D01*
X155539Y-129440D01*
Y-123500D01*
X155384Y-122720D01*
X154942Y-122058D01*
X142039Y-109155D01*
Y-3975D01*
X142246Y-3889D01*
X143176Y-3176D01*
X143889Y-2246D01*
X144338Y-1162D01*
X144491Y-0D01*
X144338Y1162D01*
X143889Y2246D01*
X143176Y3176D01*
X142246Y3889D01*
X141162Y4338D01*
X140000Y4491D01*
X138838Y4338D01*
X137754Y3889D01*
X136824Y3176D01*
X136110Y2246D01*
X135662Y1162D01*
X135509Y-0D01*
X135662Y-1162D01*
X136110Y-2246D01*
X136824Y-3176D01*
X137754Y-3889D01*
X137961Y-3975D01*
Y-66440D01*
X137461Y-66473D01*
X137410Y-66086D01*
X137057Y-65235D01*
X136496Y-64504D01*
X135765Y-63943D01*
X134914Y-63590D01*
X134000Y-63470D01*
X133086Y-63590D01*
X132539Y-63817D01*
X132039Y-63485D01*
Y-3975D01*
X132246Y-3889D01*
X133176Y-3176D01*
X133889Y-2246D01*
X134338Y-1162D01*
X134491Y-0D01*
X134338Y1162D01*
X133889Y2246D01*
X133176Y3176D01*
X132246Y3889D01*
X131162Y4338D01*
X130000Y4491D01*
X128838Y4338D01*
X127754Y3889D01*
X127488Y3685D01*
X127039Y3906D01*
Y5000D01*
X126884Y5780D01*
X126442Y6442D01*
X124253Y8631D01*
X124338Y8838D01*
X124491Y10000D01*
X124338Y11162D01*
X123890Y12246D01*
X123176Y13176D01*
X122246Y13890D01*
X121162Y14338D01*
X120000Y14491D01*
D02*
G37*
G36*
X90000Y4491D02*
X88838Y4338D01*
X87754Y3889D01*
X86824Y3176D01*
X86111Y2246D01*
X85662Y1162D01*
X85509Y0D01*
X85662Y-1162D01*
X86111Y-2246D01*
X86824Y-3176D01*
X87754Y-3889D01*
X88838Y-4338D01*
X90000Y-4491D01*
X91162Y-4338D01*
X92246Y-3889D01*
X93176Y-3176D01*
X93889Y-2246D01*
X94338Y-1162D01*
X94491Y0D01*
X94338Y1162D01*
X93889Y2246D01*
X93176Y3176D01*
X92246Y3889D01*
X91162Y4338D01*
X90000Y4491D01*
D02*
G37*
G36*
X0D02*
X-1162Y4338D01*
X-2246Y3889D01*
X-3176Y3176D01*
X-3889Y2246D01*
X-4338Y1162D01*
X-4491Y0D01*
X-4338Y-1162D01*
X-3889Y-2246D01*
X-3176Y-3176D01*
X-2246Y-3889D01*
X-1162Y-4338D01*
X0Y-4491D01*
X1162Y-4338D01*
X2246Y-3889D01*
X3176Y-3176D01*
X3889Y-2246D01*
X4338Y-1162D01*
X4491Y0D01*
X4338Y1162D01*
X3889Y2246D01*
X3176Y3176D01*
X2246Y3889D01*
X1162Y4338D01*
X0Y4491D01*
D02*
G37*
G36*
X150000Y4491D02*
X148838Y4338D01*
X147754Y3889D01*
X146824Y3176D01*
X146110Y2246D01*
X145662Y1162D01*
X145509Y-0D01*
X145662Y-1162D01*
X146110Y-2246D01*
X146824Y-3176D01*
X147754Y-3889D01*
X148838Y-4338D01*
X150000Y-4491D01*
X151162Y-4338D01*
X152246Y-3889D01*
X153176Y-3176D01*
X153890Y-2246D01*
X154338Y-1162D01*
X154491Y-0D01*
X154338Y1162D01*
X153890Y2246D01*
X153176Y3176D01*
X152246Y3889D01*
X151162Y4338D01*
X150000Y4491D01*
D02*
G37*
G36*
X100000D02*
X98838Y4338D01*
X97754Y3889D01*
X96824Y3176D01*
X96110Y2246D01*
X95662Y1162D01*
X95509Y-0D01*
X95662Y-1162D01*
X96110Y-2246D01*
X96824Y-3176D01*
X97754Y-3889D01*
X98838Y-4338D01*
X100000Y-4491D01*
X101162Y-4338D01*
X102246Y-3889D01*
X103176Y-3176D01*
X103890Y-2246D01*
X104338Y-1162D01*
X104491Y-0D01*
X104338Y1162D01*
X103890Y2246D01*
X103176Y3176D01*
X102246Y3889D01*
X101162Y4338D01*
X100000Y4491D01*
D02*
G37*
G36*
X80000D02*
X78838Y4338D01*
X77754Y3889D01*
X76824Y3176D01*
X76111Y2246D01*
X75662Y1162D01*
X75509Y-0D01*
X75662Y-1162D01*
X76111Y-2246D01*
X76824Y-3176D01*
X77754Y-3889D01*
X78838Y-4338D01*
X80000Y-4491D01*
X81162Y-4338D01*
X82246Y-3889D01*
X83176Y-3176D01*
X83890Y-2246D01*
X84338Y-1162D01*
X84491Y-0D01*
X84338Y1162D01*
X83890Y2246D01*
X83176Y3176D01*
X82246Y3889D01*
X81162Y4338D01*
X80000Y4491D01*
D02*
G37*
G36*
X70000D02*
X68838Y4338D01*
X67754Y3889D01*
X66824Y3176D01*
X66110Y2246D01*
X65662Y1162D01*
X65509Y-0D01*
X65662Y-1162D01*
X66110Y-2246D01*
X66824Y-3176D01*
X67754Y-3889D01*
X68838Y-4338D01*
X70000Y-4491D01*
X71162Y-4338D01*
X72246Y-3889D01*
X73176Y-3176D01*
X73889Y-2246D01*
X74338Y-1162D01*
X74491Y-0D01*
X74338Y1162D01*
X73889Y2246D01*
X73176Y3176D01*
X72246Y3889D01*
X71162Y4338D01*
X70000Y4491D01*
D02*
G37*
G36*
X10000D02*
X8838Y4338D01*
X7754Y3889D01*
X6824Y3176D01*
X6111Y2246D01*
X5662Y1162D01*
X5509Y-0D01*
X5662Y-1162D01*
X6111Y-2246D01*
X6824Y-3176D01*
X7754Y-3889D01*
X8838Y-4338D01*
X10000Y-4491D01*
X11162Y-4338D01*
X12246Y-3889D01*
X13176Y-3176D01*
X13890Y-2246D01*
X14338Y-1162D01*
X14491Y-0D01*
X14338Y1162D01*
X13890Y2246D01*
X13176Y3176D01*
X12246Y3889D01*
X11162Y4338D01*
X10000Y4491D01*
D02*
G37*
G36*
X-77000Y-16707D02*
X-78111Y-16854D01*
X-79146Y-17282D01*
X-80035Y-17965D01*
X-80717Y-18854D01*
X-81146Y-19889D01*
X-81293Y-21000D01*
X-81146Y-22111D01*
X-80717Y-23146D01*
X-80035Y-24035D01*
X-79146Y-24717D01*
X-78111Y-25146D01*
X-77000Y-25293D01*
X-75889Y-25146D01*
X-74854Y-24717D01*
X-73965Y-24035D01*
X-73282Y-23146D01*
X-72854Y-22111D01*
X-72707Y-21000D01*
X-72854Y-19889D01*
X-73282Y-18854D01*
X-73965Y-17965D01*
X-74854Y-17282D01*
X-75889Y-16854D01*
X-77000Y-16707D01*
D02*
G37*
G36*
X-98654D02*
X-99765Y-16854D01*
X-100800Y-17282D01*
X-101689Y-17965D01*
X-102371Y-18854D01*
X-102800Y-19889D01*
X-102946Y-21000D01*
X-102800Y-22111D01*
X-102371Y-23146D01*
X-101689Y-24035D01*
X-100800Y-24717D01*
X-99765Y-25146D01*
X-98654Y-25293D01*
X-97543Y-25146D01*
X-96507Y-24717D01*
X-95618Y-24035D01*
X-94936Y-23146D01*
X-94507Y-22111D01*
X-94361Y-21000D01*
X-94507Y-19889D01*
X-94936Y-18854D01*
X-95618Y-17965D01*
X-96507Y-17282D01*
X-97543Y-16854D01*
X-98654Y-16707D01*
D02*
G37*
G36*
X-38500Y-31970D02*
X-39414Y-32090D01*
X-40265Y-32443D01*
X-40996Y-33004D01*
X-41557Y-33735D01*
X-41910Y-34586D01*
X-42030Y-35500D01*
X-41910Y-36414D01*
X-41557Y-37265D01*
X-40996Y-37996D01*
X-40265Y-38557D01*
X-39414Y-38910D01*
X-38500Y-39030D01*
X-37586Y-38910D01*
X-36735Y-38557D01*
X-36004Y-37996D01*
X-35443Y-37265D01*
X-35090Y-36414D01*
X-34970Y-35500D01*
X-35090Y-34586D01*
X-35443Y-33735D01*
X-36004Y-33004D01*
X-36735Y-32443D01*
X-37586Y-32090D01*
X-38500Y-31970D01*
D02*
G37*
G36*
X-47500Y-36970D02*
X-48414Y-37090D01*
X-49265Y-37443D01*
X-49996Y-38004D01*
X-50557Y-38735D01*
X-50910Y-39586D01*
X-51030Y-40500D01*
X-50910Y-41414D01*
X-50557Y-42265D01*
X-49996Y-42996D01*
X-49265Y-43557D01*
X-48414Y-43910D01*
X-47500Y-44030D01*
X-46586Y-43910D01*
X-45735Y-43557D01*
X-45004Y-42996D01*
X-44443Y-42265D01*
X-44090Y-41414D01*
X-43970Y-40500D01*
X-44090Y-39586D01*
X-44443Y-38735D01*
X-45004Y-38004D01*
X-45735Y-37443D01*
X-46586Y-37090D01*
X-47500Y-36970D01*
D02*
G37*
G36*
X5500Y-49470D02*
X4586Y-49590D01*
X3735Y-49943D01*
X3004Y-50504D01*
X2443Y-51235D01*
X2090Y-52086D01*
X1970Y-53000D01*
X2090Y-53914D01*
X2443Y-54765D01*
X3004Y-55496D01*
X3735Y-56057D01*
X4586Y-56410D01*
X5500Y-56530D01*
X6414Y-56410D01*
X7265Y-56057D01*
X7996Y-55496D01*
X8557Y-54765D01*
X8910Y-53914D01*
X9030Y-53000D01*
X8910Y-52086D01*
X8557Y-51235D01*
X7996Y-50504D01*
X7265Y-49943D01*
X6414Y-49590D01*
X5500Y-49470D01*
D02*
G37*
G36*
X-2500Y-53470D02*
X-3414Y-53590D01*
X-4265Y-53943D01*
X-4996Y-54504D01*
X-5557Y-55235D01*
X-5910Y-56086D01*
X-6030Y-57000D01*
X-5910Y-57914D01*
X-5557Y-58765D01*
X-4996Y-59496D01*
X-4265Y-60057D01*
X-3414Y-60410D01*
X-2500Y-60530D01*
X-1586Y-60410D01*
X-735Y-60057D01*
X-4Y-59496D01*
X557Y-58765D01*
X910Y-57914D01*
X1030Y-57000D01*
X910Y-56086D01*
X557Y-55235D01*
X-4Y-54504D01*
X-735Y-53943D01*
X-1586Y-53590D01*
X-2500Y-53470D01*
D02*
G37*
G36*
X46500Y-58470D02*
X45586Y-58590D01*
X44735Y-58943D01*
X44004Y-59504D01*
X43443Y-60235D01*
X43090Y-61086D01*
X42970Y-62000D01*
X43090Y-62914D01*
X43443Y-63765D01*
X44004Y-64496D01*
X44735Y-65057D01*
X45586Y-65410D01*
X46500Y-65530D01*
X47414Y-65410D01*
X48265Y-65057D01*
X48996Y-64496D01*
X49557Y-63765D01*
X49910Y-62914D01*
X50030Y-62000D01*
X49910Y-61086D01*
X49557Y-60235D01*
X48996Y-59504D01*
X48265Y-58943D01*
X47414Y-58590D01*
X46500Y-58470D01*
D02*
G37*
G36*
X170000Y-106970D02*
X169086Y-107090D01*
X168235Y-107443D01*
X167504Y-108004D01*
X166943Y-108735D01*
X166590Y-109586D01*
X166470Y-110500D01*
X166590Y-111414D01*
X166943Y-112265D01*
X167504Y-112996D01*
X168235Y-113557D01*
X169086Y-113910D01*
X170000Y-114030D01*
X170914Y-113910D01*
X171765Y-113557D01*
X172496Y-112996D01*
X173057Y-112265D01*
X173410Y-111414D01*
X173530Y-110500D01*
X173410Y-109586D01*
X173057Y-108735D01*
X172496Y-108004D01*
X171765Y-107443D01*
X170914Y-107090D01*
X170000Y-106970D01*
D02*
G37*
G36*
X205585Y-112953D02*
X200123Y-118415D01*
X205585Y-123877D01*
X211047Y-118415D01*
X205585Y-112953D01*
D02*
G37*
G36*
X-6500Y-120470D02*
X-7414Y-120590D01*
X-8265Y-120943D01*
X-8996Y-121504D01*
X-9557Y-122235D01*
X-9910Y-123086D01*
X-10030Y-124000D01*
X-9910Y-124914D01*
X-9557Y-125765D01*
X-8996Y-126496D01*
X-8265Y-127057D01*
X-7414Y-127410D01*
X-6500Y-127530D01*
X-5586Y-127410D01*
X-4735Y-127057D01*
X-4004Y-126496D01*
X-3443Y-125765D01*
X-3090Y-124914D01*
X-2970Y-124000D01*
X-3090Y-123086D01*
X-3443Y-122235D01*
X-4004Y-121504D01*
X-4735Y-120943D01*
X-5586Y-120590D01*
X-6500Y-120470D01*
D02*
G37*
G36*
X198793Y-121312D02*
X197784Y-121444D01*
X196845Y-121834D01*
X196038Y-122453D01*
X195419Y-123260D01*
X195030Y-124199D01*
X194897Y-125207D01*
X195030Y-126216D01*
X195419Y-127155D01*
X196038Y-127962D01*
X196845Y-128581D01*
X197784Y-128970D01*
X198793Y-129103D01*
X199801Y-128970D01*
X200740Y-128581D01*
X201547Y-127962D01*
X202166Y-127155D01*
X202555Y-126216D01*
X202688Y-125207D01*
X202555Y-124199D01*
X202166Y-123260D01*
X201547Y-122453D01*
X200740Y-121834D01*
X199801Y-121444D01*
X198793Y-121312D01*
D02*
G37*
G36*
X-52500Y-125470D02*
X-53414Y-125590D01*
X-54265Y-125943D01*
X-54996Y-126504D01*
X-55557Y-127235D01*
X-55910Y-128086D01*
X-56030Y-129000D01*
X-55910Y-129914D01*
X-55557Y-130765D01*
X-54996Y-131496D01*
X-54265Y-132057D01*
X-53414Y-132410D01*
X-52500Y-132530D01*
X-51586Y-132410D01*
X-50735Y-132057D01*
X-50004Y-131496D01*
X-49443Y-130765D01*
X-49090Y-129914D01*
X-48970Y-129000D01*
X-49090Y-128086D01*
X-49443Y-127235D01*
X-50004Y-126504D01*
X-50735Y-125943D01*
X-51586Y-125590D01*
X-52500Y-125470D01*
D02*
G37*
G36*
X192000Y-128104D02*
X190992Y-128237D01*
X190052Y-128626D01*
X189245Y-129245D01*
X188626Y-130052D01*
X188237Y-130992D01*
X188104Y-132000D01*
X188237Y-133008D01*
X188626Y-133948D01*
X189245Y-134755D01*
X190052Y-135374D01*
X190992Y-135763D01*
X192000Y-135896D01*
X193008Y-135763D01*
X193948Y-135374D01*
X194755Y-134755D01*
X195374Y-133948D01*
X195763Y-133008D01*
X195896Y-132000D01*
X195763Y-130992D01*
X195374Y-130052D01*
X194755Y-129245D01*
X193948Y-128626D01*
X193008Y-128237D01*
X192000Y-128104D01*
D02*
G37*
G36*
X-36500Y-128970D02*
X-37414Y-129090D01*
X-38265Y-129443D01*
X-38996Y-130004D01*
X-39557Y-130735D01*
X-39910Y-131586D01*
X-40030Y-132500D01*
X-39910Y-133414D01*
X-39557Y-134265D01*
X-38996Y-134996D01*
X-38265Y-135557D01*
X-37414Y-135910D01*
X-36500Y-136030D01*
X-35586Y-135910D01*
X-34735Y-135557D01*
X-34004Y-134996D01*
X-33443Y-134265D01*
X-33090Y-133414D01*
X-32970Y-132500D01*
X-33090Y-131586D01*
X-33443Y-130735D01*
X-34004Y-130004D01*
X-34735Y-129443D01*
X-35586Y-129090D01*
X-36500Y-128970D01*
D02*
G37*
G36*
X173000Y-134970D02*
X172086Y-135090D01*
X171235Y-135443D01*
X170504Y-136004D01*
X169943Y-136735D01*
X169590Y-137586D01*
X169470Y-138500D01*
X169541Y-139038D01*
X169501Y-139097D01*
X169079Y-139366D01*
X168414Y-139090D01*
X167500Y-138970D01*
X166586Y-139090D01*
X165735Y-139443D01*
X165004Y-140004D01*
X164443Y-140735D01*
X164090Y-141586D01*
X163970Y-142500D01*
X164090Y-143414D01*
X164443Y-144265D01*
X165004Y-144996D01*
X165735Y-145557D01*
X166586Y-145910D01*
X167500Y-146030D01*
X168414Y-145910D01*
X169265Y-145557D01*
X169996Y-144996D01*
X170557Y-144265D01*
X170910Y-143414D01*
X171030Y-142500D01*
X170959Y-141962D01*
X171000Y-141903D01*
X171421Y-141634D01*
X172086Y-141910D01*
X173000Y-142030D01*
X173914Y-141910D01*
X174765Y-141557D01*
X175496Y-140996D01*
X176057Y-140265D01*
X176410Y-139414D01*
X176530Y-138500D01*
X176410Y-137586D01*
X176057Y-136735D01*
X175496Y-136004D01*
X174765Y-135443D01*
X173914Y-135090D01*
X173000Y-134970D01*
D02*
G37*
G36*
X109000Y-133970D02*
X108086Y-134090D01*
X107235Y-134443D01*
X106504Y-135004D01*
X105943Y-135735D01*
X105590Y-136586D01*
X105470Y-137500D01*
X105590Y-138414D01*
X105943Y-139265D01*
X106504Y-139996D01*
X107235Y-140557D01*
X108086Y-140910D01*
X109000Y-141030D01*
X109914Y-140910D01*
X110765Y-140557D01*
X111496Y-139996D01*
X112057Y-139265D01*
X112410Y-138414D01*
X112530Y-137500D01*
X112410Y-136586D01*
X112057Y-135735D01*
X111496Y-135004D01*
X110765Y-134443D01*
X109914Y-134090D01*
X109000Y-133970D01*
D02*
G37*
G36*
X207000Y-142970D02*
X206086Y-143090D01*
X205235Y-143443D01*
X204504Y-144004D01*
X203943Y-144735D01*
X203590Y-145586D01*
X203470Y-146500D01*
X203590Y-147414D01*
X203943Y-148265D01*
X204504Y-148996D01*
X205235Y-149557D01*
X206086Y-149910D01*
X207000Y-150030D01*
X207914Y-149910D01*
X208765Y-149557D01*
X209496Y-148996D01*
X210057Y-148265D01*
X210410Y-147414D01*
X210530Y-146500D01*
X210410Y-145586D01*
X210057Y-144735D01*
X209496Y-144004D01*
X208765Y-143443D01*
X207914Y-143090D01*
X207000Y-142970D01*
D02*
G37*
G36*
X255000Y-149970D02*
X254086Y-150090D01*
X253235Y-150443D01*
X252504Y-151004D01*
X251943Y-151735D01*
X251590Y-152586D01*
X251470Y-153500D01*
X251590Y-154414D01*
X251943Y-155265D01*
X252504Y-155996D01*
X253235Y-156557D01*
X254086Y-156910D01*
X255000Y-157030D01*
X255914Y-156910D01*
X256765Y-156557D01*
X257496Y-155996D01*
X258057Y-155265D01*
X258410Y-154414D01*
X258530Y-153500D01*
X258410Y-152586D01*
X258057Y-151735D01*
X257496Y-151004D01*
X256765Y-150443D01*
X255914Y-150090D01*
X255000Y-149970D01*
D02*
G37*
G36*
X95752Y-172047D02*
X86847D01*
Y-180953D01*
X95752D01*
Y-172047D01*
D02*
G37*
G36*
X91299Y-182009D02*
X90137Y-182162D01*
X89054Y-182610D01*
X88124Y-183324D01*
X87410Y-184254D01*
X86961Y-185338D01*
X86808Y-186500D01*
X86961Y-187662D01*
X87410Y-188746D01*
X88124Y-189676D01*
X89054Y-190390D01*
X90137Y-190838D01*
X91299Y-190991D01*
X92462Y-190838D01*
X93545Y-190390D01*
X94475Y-189676D01*
X95189Y-188746D01*
X95637Y-187662D01*
X95790Y-186500D01*
X95637Y-185338D01*
X95189Y-184254D01*
X94475Y-183324D01*
X93545Y-182610D01*
X92462Y-182162D01*
X91299Y-182009D01*
D02*
G37*
G36*
X203500Y-185470D02*
X202586Y-185590D01*
X201735Y-185943D01*
X201004Y-186504D01*
X200443Y-187235D01*
X200090Y-188086D01*
X199970Y-189000D01*
X200090Y-189914D01*
X200443Y-190765D01*
X201004Y-191496D01*
X201735Y-192057D01*
X202586Y-192410D01*
X203500Y-192530D01*
X204414Y-192410D01*
X205265Y-192057D01*
X205996Y-191496D01*
X206557Y-190765D01*
X206910Y-189914D01*
X207030Y-189000D01*
X206910Y-188086D01*
X206557Y-187235D01*
X205996Y-186504D01*
X205265Y-185943D01*
X204414Y-185590D01*
X203500Y-185470D01*
D02*
G37*
G36*
X-52000Y-187970D02*
X-52914Y-188090D01*
X-53765Y-188443D01*
X-54496Y-189004D01*
X-55057Y-189735D01*
X-55410Y-190586D01*
X-55530Y-191500D01*
X-55410Y-192414D01*
X-55057Y-193265D01*
X-54496Y-193996D01*
X-53765Y-194557D01*
X-52914Y-194910D01*
X-52000Y-195030D01*
X-51086Y-194910D01*
X-50235Y-194557D01*
X-49504Y-193996D01*
X-48943Y-193265D01*
X-48590Y-192414D01*
X-48470Y-191500D01*
X-48590Y-190586D01*
X-48943Y-189735D01*
X-49504Y-189004D01*
X-50235Y-188443D01*
X-51086Y-188090D01*
X-52000Y-187970D01*
D02*
G37*
G36*
X91799Y-192579D02*
Y-196000D01*
X95220D01*
X95150Y-195468D01*
X94752Y-194507D01*
X94118Y-193681D01*
X93293Y-193047D01*
X92331Y-192649D01*
X91799Y-192579D01*
D02*
G37*
G36*
X90799D02*
X90267Y-192649D01*
X89306Y-193047D01*
X88480Y-193681D01*
X87846Y-194507D01*
X87448Y-195468D01*
X87378Y-196000D01*
X90799D01*
Y-192579D01*
D02*
G37*
G36*
Y-197000D02*
X87378D01*
X87448Y-197532D01*
X87846Y-198494D01*
X88480Y-199319D01*
X89306Y-199953D01*
X90267Y-200351D01*
X90799Y-200421D01*
Y-197000D01*
D02*
G37*
G36*
X95220D02*
X91799D01*
Y-200421D01*
X92331Y-200351D01*
X93293Y-199953D01*
X94118Y-199319D01*
X94752Y-198494D01*
X95150Y-197532D01*
X95220Y-197000D01*
D02*
G37*
G36*
X91299Y-202009D02*
X90137Y-202162D01*
X89054Y-202610D01*
X88124Y-203324D01*
X87410Y-204254D01*
X86961Y-205338D01*
X86808Y-206500D01*
X86961Y-207662D01*
X87410Y-208746D01*
X88124Y-209676D01*
X89054Y-210389D01*
X90137Y-210838D01*
X91299Y-210991D01*
X92462Y-210838D01*
X93545Y-210389D01*
X94475Y-209676D01*
X95189Y-208746D01*
X95637Y-207662D01*
X95790Y-206500D01*
X95637Y-205338D01*
X95189Y-204254D01*
X94475Y-203324D01*
X93545Y-202610D01*
X92462Y-202162D01*
X91299Y-202009D01*
D02*
G37*
G36*
X32705Y-208971D02*
Y-211201D01*
X34934D01*
X34905Y-210977D01*
X34626Y-210303D01*
X34181Y-209724D01*
X33602Y-209280D01*
X32928Y-209000D01*
X32705Y-208971D01*
D02*
G37*
G36*
X31705D02*
X31481Y-209000D01*
X30807Y-209280D01*
X30228Y-209724D01*
X29784Y-210303D01*
X29504Y-210977D01*
X29475Y-211201D01*
X31705D01*
Y-208971D01*
D02*
G37*
G36*
X34934Y-212201D02*
X32705D01*
Y-214430D01*
X32928Y-214401D01*
X33602Y-214122D01*
X34181Y-213678D01*
X34626Y-213099D01*
X34905Y-212424D01*
X34934Y-212201D01*
D02*
G37*
G36*
X31705D02*
X29475D01*
X29504Y-212424D01*
X29784Y-213099D01*
X30228Y-213678D01*
X30807Y-214122D01*
X31481Y-214401D01*
X31705Y-214430D01*
Y-212201D01*
D02*
G37*
G36*
X-94248Y-208047D02*
X-103154D01*
Y-216953D01*
X-94248D01*
Y-208047D01*
D02*
G37*
G36*
X91299Y-212009D02*
X90137Y-212162D01*
X89054Y-212611D01*
X88124Y-213324D01*
X87410Y-214254D01*
X86961Y-215338D01*
X86808Y-216500D01*
X86961Y-217662D01*
X87410Y-218746D01*
X88124Y-219676D01*
X89054Y-220390D01*
X90137Y-220838D01*
X91299Y-220991D01*
X92462Y-220838D01*
X93545Y-220390D01*
X94475Y-219676D01*
X95189Y-218746D01*
X95637Y-217662D01*
X95790Y-216500D01*
X95637Y-215338D01*
X95189Y-214254D01*
X94475Y-213324D01*
X93545Y-212611D01*
X92462Y-212162D01*
X91299Y-212009D01*
D02*
G37*
G36*
X101500Y-138970D02*
X100586Y-139090D01*
X99735Y-139443D01*
X99004Y-140004D01*
X98443Y-140735D01*
X98090Y-141586D01*
X97970Y-142500D01*
X98090Y-143414D01*
X98443Y-144265D01*
X99004Y-144996D01*
X99461Y-145347D01*
Y-215455D01*
X92668Y-222247D01*
X92462Y-222162D01*
X91299Y-222009D01*
X90137Y-222162D01*
X89054Y-222610D01*
X88124Y-223324D01*
X87410Y-224254D01*
X86961Y-225338D01*
X86808Y-226500D01*
X86961Y-227662D01*
X87410Y-228746D01*
X88124Y-229676D01*
X89054Y-230389D01*
X90137Y-230838D01*
X91299Y-230991D01*
X92462Y-230838D01*
X93545Y-230389D01*
X94475Y-229676D01*
X95189Y-228746D01*
X95637Y-227662D01*
X95790Y-226500D01*
X95637Y-225338D01*
X95552Y-225131D01*
X102942Y-217741D01*
X103384Y-217080D01*
X103539Y-216299D01*
Y-145347D01*
X103996Y-144996D01*
X104557Y-144265D01*
X104910Y-143414D01*
X105030Y-142500D01*
X104910Y-141586D01*
X104557Y-140735D01*
X103996Y-140004D01*
X103265Y-139443D01*
X102414Y-139090D01*
X101500Y-138970D01*
D02*
G37*
G36*
X24331Y-216275D02*
X23477Y-216387D01*
X22681Y-216717D01*
X21997Y-217241D01*
X21473Y-217925D01*
X21143Y-218721D01*
X21031Y-219575D01*
X21143Y-220429D01*
X21473Y-221225D01*
X21997Y-221908D01*
X22681Y-222433D01*
X23477Y-222762D01*
X24331Y-222875D01*
X25185Y-222762D01*
X25981Y-222433D01*
X26664Y-221908D01*
X27189Y-221225D01*
X27518Y-220429D01*
X27631Y-219575D01*
X27518Y-218721D01*
X27189Y-217925D01*
X26664Y-217241D01*
X25981Y-216717D01*
X25185Y-216387D01*
X24331Y-216275D01*
D02*
G37*
G36*
X32205Y-216275D02*
X31351Y-216387D01*
X30555Y-216717D01*
X29871Y-217241D01*
X29347Y-217925D01*
X29017Y-218721D01*
X28905Y-219575D01*
X29017Y-220429D01*
X29347Y-221225D01*
X29871Y-221908D01*
X30555Y-222433D01*
X31351Y-222762D01*
X32205Y-222875D01*
X33059Y-222762D01*
X33855Y-222433D01*
X34538Y-221908D01*
X35063Y-221225D01*
X35392Y-220429D01*
X35505Y-219575D01*
X35392Y-218721D01*
X35063Y-217925D01*
X34538Y-217241D01*
X33855Y-216717D01*
X33059Y-216387D01*
X32205Y-216275D01*
D02*
G37*
G36*
X-98701Y-218009D02*
X-99863Y-218162D01*
X-100946Y-218611D01*
X-101876Y-219324D01*
X-102590Y-220254D01*
X-103039Y-221338D01*
X-103192Y-222500D01*
X-103039Y-223662D01*
X-102590Y-224746D01*
X-101876Y-225676D01*
X-100946Y-226390D01*
X-99863Y-226838D01*
X-98701Y-226991D01*
X-97538Y-226838D01*
X-96455Y-226390D01*
X-95525Y-225676D01*
X-94811Y-224746D01*
X-94363Y-223662D01*
X-94210Y-222500D01*
X-94363Y-221338D01*
X-94811Y-220254D01*
X-95525Y-219324D01*
X-96455Y-218611D01*
X-97538Y-218162D01*
X-98701Y-218009D01*
D02*
G37*
G36*
X61000Y-219970D02*
X60086Y-220090D01*
X59235Y-220443D01*
X58504Y-221004D01*
X57943Y-221735D01*
X57590Y-222586D01*
X57470Y-223500D01*
X57590Y-224414D01*
X57943Y-225265D01*
X58504Y-225996D01*
X59235Y-226557D01*
X60086Y-226910D01*
X61000Y-227030D01*
X61914Y-226910D01*
X62765Y-226557D01*
X63496Y-225996D01*
X64057Y-225265D01*
X64410Y-224414D01*
X64530Y-223500D01*
X64410Y-222586D01*
X64057Y-221735D01*
X63496Y-221004D01*
X62765Y-220443D01*
X61914Y-220090D01*
X61000Y-219970D01*
D02*
G37*
G36*
X32205Y-224149D02*
X31351Y-224261D01*
X30555Y-224591D01*
X29871Y-225115D01*
X29347Y-225799D01*
X29017Y-226595D01*
X28905Y-227449D01*
X29017Y-228303D01*
X29347Y-229099D01*
X29871Y-229782D01*
X30555Y-230307D01*
X31351Y-230636D01*
X32205Y-230749D01*
X33059Y-230636D01*
X33855Y-230307D01*
X34538Y-229782D01*
X35063Y-229099D01*
X35392Y-228303D01*
X35505Y-227449D01*
X35392Y-226595D01*
X35063Y-225799D01*
X34538Y-225115D01*
X33855Y-224591D01*
X33059Y-224261D01*
X32205Y-224149D01*
D02*
G37*
G36*
X24331D02*
X23477Y-224261D01*
X22681Y-224591D01*
X21997Y-225115D01*
X21473Y-225799D01*
X21143Y-226595D01*
X21031Y-227449D01*
X21143Y-228303D01*
X21473Y-229099D01*
X21997Y-229782D01*
X22681Y-230307D01*
X23477Y-230636D01*
X24331Y-230749D01*
X25185Y-230636D01*
X25981Y-230307D01*
X26664Y-229782D01*
X27189Y-229099D01*
X27518Y-228303D01*
X27631Y-227449D01*
X27518Y-226595D01*
X27189Y-225799D01*
X26664Y-225115D01*
X25981Y-224591D01*
X25185Y-224261D01*
X24331Y-224149D01*
D02*
G37*
G36*
X108500Y-228470D02*
X107586Y-228590D01*
X106735Y-228943D01*
X106004Y-229504D01*
X105443Y-230235D01*
X105090Y-231086D01*
X104970Y-232000D01*
X105090Y-232914D01*
X105443Y-233765D01*
X106004Y-234496D01*
X106735Y-235057D01*
X107586Y-235410D01*
X108500Y-235530D01*
X109414Y-235410D01*
X110265Y-235057D01*
X110996Y-234496D01*
X111557Y-233765D01*
X111910Y-232914D01*
X112030Y-232000D01*
X111910Y-231086D01*
X111557Y-230235D01*
X110996Y-229504D01*
X110265Y-228943D01*
X109414Y-228590D01*
X108500Y-228470D01*
D02*
G37*
G36*
X-98701Y-228009D02*
X-99863Y-228162D01*
X-100946Y-228611D01*
X-101876Y-229324D01*
X-102590Y-230254D01*
X-103039Y-231338D01*
X-103192Y-232500D01*
X-103039Y-233662D01*
X-102590Y-234746D01*
X-101876Y-235676D01*
X-100946Y-236389D01*
X-99863Y-236838D01*
X-98701Y-236991D01*
X-97538Y-236838D01*
X-96455Y-236389D01*
X-95525Y-235676D01*
X-94811Y-234746D01*
X-94363Y-233662D01*
X-94210Y-232500D01*
X-94363Y-231338D01*
X-94811Y-230254D01*
X-95525Y-229324D01*
X-96455Y-228611D01*
X-97538Y-228162D01*
X-98701Y-228009D01*
D02*
G37*
G36*
X164500Y-229970D02*
X163586Y-230090D01*
X162735Y-230443D01*
X162004Y-231004D01*
X161443Y-231735D01*
X161090Y-232586D01*
X160970Y-233500D01*
X161090Y-234414D01*
X161443Y-235265D01*
X162004Y-235996D01*
X162735Y-236557D01*
X163586Y-236910D01*
X164500Y-237030D01*
X165414Y-236910D01*
X166265Y-236557D01*
X166996Y-235996D01*
X167557Y-235265D01*
X167910Y-234414D01*
X168030Y-233500D01*
X167910Y-232586D01*
X167557Y-231735D01*
X166996Y-231004D01*
X166265Y-230443D01*
X165414Y-230090D01*
X164500Y-229970D01*
D02*
G37*
G36*
X69000Y-231470D02*
X68086Y-231590D01*
X67235Y-231943D01*
X66504Y-232504D01*
X65943Y-233235D01*
X65590Y-234086D01*
X65470Y-235000D01*
X65590Y-235914D01*
X65943Y-236765D01*
X66504Y-237496D01*
X67235Y-238057D01*
X68086Y-238410D01*
X69000Y-238530D01*
X69914Y-238410D01*
X70765Y-238057D01*
X71496Y-237496D01*
X72057Y-236765D01*
X72410Y-235914D01*
X72530Y-235000D01*
X72410Y-234086D01*
X72057Y-233235D01*
X71496Y-232504D01*
X70765Y-231943D01*
X69914Y-231590D01*
X69000Y-231470D01*
D02*
G37*
G36*
X32205Y-232023D02*
X31351Y-232135D01*
X30555Y-232465D01*
X29871Y-232990D01*
X29347Y-233673D01*
X29017Y-234469D01*
X28905Y-235323D01*
X29017Y-236177D01*
X29347Y-236973D01*
X29871Y-237656D01*
X30555Y-238181D01*
X31351Y-238510D01*
X32205Y-238623D01*
X33059Y-238510D01*
X33855Y-238181D01*
X34538Y-237656D01*
X35063Y-236973D01*
X35392Y-236177D01*
X35505Y-235323D01*
X35392Y-234469D01*
X35063Y-233673D01*
X34538Y-232990D01*
X33855Y-232465D01*
X33059Y-232135D01*
X32205Y-232023D01*
D02*
G37*
G36*
X24331D02*
X23477Y-232135D01*
X22681Y-232465D01*
X21997Y-232990D01*
X21473Y-233673D01*
X21143Y-234469D01*
X21031Y-235323D01*
X21143Y-236177D01*
X21473Y-236973D01*
X21997Y-237656D01*
X22681Y-238181D01*
X23477Y-238510D01*
X24331Y-238623D01*
X25185Y-238510D01*
X25981Y-238181D01*
X26664Y-237656D01*
X27189Y-236973D01*
X27518Y-236177D01*
X27631Y-235323D01*
X27518Y-234469D01*
X27189Y-233673D01*
X26664Y-232990D01*
X25981Y-232465D01*
X25185Y-232135D01*
X24331Y-232023D01*
D02*
G37*
G36*
X245500Y-233470D02*
X244586Y-233590D01*
X243735Y-233943D01*
X243004Y-234504D01*
X242443Y-235235D01*
X242090Y-236086D01*
X241970Y-237000D01*
X242090Y-237914D01*
X242443Y-238765D01*
X243004Y-239496D01*
X243735Y-240057D01*
X244586Y-240410D01*
X245500Y-240530D01*
X246414Y-240410D01*
X247265Y-240057D01*
X247996Y-239496D01*
X248557Y-238765D01*
X248910Y-237914D01*
X249030Y-237000D01*
X248910Y-236086D01*
X248557Y-235235D01*
X247996Y-234504D01*
X247265Y-233943D01*
X246414Y-233590D01*
X245500Y-233470D01*
D02*
G37*
G36*
X91299Y-232009D02*
X90137Y-232162D01*
X89054Y-232611D01*
X88124Y-233324D01*
X87410Y-234254D01*
X86961Y-235338D01*
X86808Y-236500D01*
X86961Y-237662D01*
X87410Y-238746D01*
X88124Y-239676D01*
X89054Y-240389D01*
X90137Y-240838D01*
X91299Y-240991D01*
X92462Y-240838D01*
X93545Y-240389D01*
X94475Y-239676D01*
X95189Y-238746D01*
X95637Y-237662D01*
X95790Y-236500D01*
X95637Y-235338D01*
X95189Y-234254D01*
X94475Y-233324D01*
X93545Y-232611D01*
X92462Y-232162D01*
X91299Y-232009D01*
D02*
G37*
G36*
X-98201Y-238579D02*
Y-242000D01*
X-94780D01*
X-94850Y-241468D01*
X-95248Y-240507D01*
X-95882Y-239681D01*
X-96707Y-239047D01*
X-97669Y-238649D01*
X-98201Y-238579D01*
D02*
G37*
G36*
X-99201D02*
X-99733Y-238649D01*
X-100694Y-239047D01*
X-101520Y-239681D01*
X-102154Y-240507D01*
X-102552Y-241468D01*
X-102622Y-242000D01*
X-99201D01*
Y-238579D01*
D02*
G37*
G36*
Y-243000D02*
X-102622D01*
X-102552Y-243532D01*
X-102154Y-244493D01*
X-101520Y-245319D01*
X-100694Y-245953D01*
X-99733Y-246351D01*
X-99201Y-246421D01*
Y-243000D01*
D02*
G37*
G36*
X-94780D02*
X-98201D01*
Y-246421D01*
X-97669Y-246351D01*
X-96707Y-245953D01*
X-95882Y-245319D01*
X-95248Y-244493D01*
X-94850Y-243532D01*
X-94780Y-243000D01*
D02*
G37*
G36*
X32205Y-239897D02*
X31351Y-240009D01*
X30555Y-240339D01*
X29871Y-240863D01*
X29347Y-241547D01*
X29017Y-242343D01*
X28905Y-243197D01*
X29017Y-244051D01*
X29347Y-244847D01*
X29871Y-245530D01*
X30555Y-246055D01*
X31351Y-246384D01*
X32205Y-246497D01*
X33059Y-246384D01*
X33855Y-246055D01*
X34538Y-245530D01*
X35063Y-244847D01*
X35392Y-244051D01*
X35505Y-243197D01*
X35392Y-242343D01*
X35063Y-241547D01*
X34538Y-240863D01*
X33855Y-240339D01*
X33059Y-240009D01*
X32205Y-239897D01*
D02*
G37*
G36*
X24331D02*
X23477Y-240009D01*
X22681Y-240339D01*
X21997Y-240863D01*
X21473Y-241547D01*
X21143Y-242343D01*
X21031Y-243197D01*
X21143Y-244051D01*
X21473Y-244847D01*
X21997Y-245530D01*
X22681Y-246055D01*
X23477Y-246384D01*
X24331Y-246497D01*
X25185Y-246384D01*
X25981Y-246055D01*
X26664Y-245530D01*
X27189Y-244847D01*
X27518Y-244051D01*
X27631Y-243197D01*
X27518Y-242343D01*
X27189Y-241547D01*
X26664Y-240863D01*
X25981Y-240339D01*
X25185Y-240009D01*
X24331Y-239897D01*
D02*
G37*
G36*
X209500Y-240470D02*
X208586Y-240590D01*
X207735Y-240943D01*
X207004Y-241504D01*
X206443Y-242235D01*
X206090Y-243086D01*
X205970Y-244000D01*
X206090Y-244914D01*
X206443Y-245765D01*
X207004Y-246496D01*
X207735Y-247057D01*
X208586Y-247410D01*
X209500Y-247530D01*
X210414Y-247410D01*
X211265Y-247057D01*
X211996Y-246496D01*
X212557Y-245765D01*
X212910Y-244914D01*
X213030Y-244000D01*
X212910Y-243086D01*
X212557Y-242235D01*
X211996Y-241504D01*
X211265Y-240943D01*
X210414Y-240590D01*
X209500Y-240470D01*
D02*
G37*
G36*
X77000Y-242970D02*
X76086Y-243090D01*
X75235Y-243443D01*
X74504Y-244004D01*
X73943Y-244735D01*
X73590Y-245586D01*
X73470Y-246500D01*
X73590Y-247414D01*
X73943Y-248265D01*
X74504Y-248996D01*
X75235Y-249557D01*
X76086Y-249910D01*
X77000Y-250030D01*
X77914Y-249910D01*
X78765Y-249557D01*
X79496Y-248996D01*
X80057Y-248265D01*
X80410Y-247414D01*
X80530Y-246500D01*
X80410Y-245586D01*
X80057Y-244735D01*
X79496Y-244004D01*
X78765Y-243443D01*
X77914Y-243090D01*
X77000Y-242970D01*
D02*
G37*
G36*
X91299Y-242009D02*
X90137Y-242162D01*
X89054Y-242611D01*
X88124Y-243324D01*
X87410Y-244254D01*
X86961Y-245338D01*
X86808Y-246500D01*
X86961Y-247662D01*
X87410Y-248746D01*
X88124Y-249676D01*
X89054Y-250390D01*
X90137Y-250838D01*
X91299Y-250991D01*
X92462Y-250838D01*
X93545Y-250390D01*
X94475Y-249676D01*
X95189Y-248746D01*
X95637Y-247662D01*
X95790Y-246500D01*
X95637Y-245338D01*
X95189Y-244254D01*
X94475Y-243324D01*
X93545Y-242611D01*
X92462Y-242162D01*
X91299Y-242009D01*
D02*
G37*
G36*
X229909Y-252907D02*
X229205Y-252999D01*
X228548Y-253272D01*
X227984Y-253704D01*
X227504D01*
X226940Y-253272D01*
X226284Y-252999D01*
X225579Y-252907D01*
X224874Y-252999D01*
X224217Y-253272D01*
X223653Y-253704D01*
X223174D01*
X222610Y-253272D01*
X221953Y-252999D01*
X221248Y-252907D01*
X220543Y-252999D01*
X219886Y-253272D01*
X219322Y-253704D01*
X218890Y-254268D01*
X218618Y-254925D01*
X218525Y-255630D01*
X218618Y-256335D01*
X218890Y-256992D01*
X219322Y-257556D01*
Y-258035D01*
X218890Y-258599D01*
X218618Y-259256D01*
X218525Y-259961D01*
X218618Y-260665D01*
X218890Y-261322D01*
X219322Y-261886D01*
Y-262366D01*
X218890Y-262930D01*
X218618Y-263586D01*
X218525Y-264291D01*
X218618Y-264996D01*
X218890Y-265653D01*
X219322Y-266217D01*
X219886Y-266650D01*
X220543Y-266922D01*
X221248Y-267015D01*
X221953Y-266922D01*
X222610Y-266650D01*
X223174Y-266217D01*
X223653D01*
X224217Y-266650D01*
X224874Y-266922D01*
X225579Y-267015D01*
X226284Y-266922D01*
X226940Y-266650D01*
X227504Y-266217D01*
X227984D01*
X228548Y-266650D01*
X229205Y-266922D01*
X229909Y-267015D01*
X230614Y-266922D01*
X231271Y-266650D01*
X231835Y-266217D01*
X232268Y-265653D01*
X232540Y-264996D01*
X232633Y-264291D01*
X232540Y-263586D01*
X232268Y-262930D01*
X231835Y-262366D01*
Y-261886D01*
X232268Y-261322D01*
X232540Y-260665D01*
X232633Y-259961D01*
X232540Y-259256D01*
X232268Y-258599D01*
X231835Y-258035D01*
Y-257556D01*
X232268Y-256992D01*
X232540Y-256335D01*
X232633Y-255630D01*
X232540Y-254925D01*
X232268Y-254268D01*
X231835Y-253704D01*
X231271Y-253272D01*
X230614Y-252999D01*
X229909Y-252907D01*
D02*
G37*
G36*
X32205Y-247771D02*
X31351Y-247883D01*
X30555Y-248213D01*
X29871Y-248738D01*
X29347Y-249421D01*
X29017Y-250217D01*
X28905Y-251071D01*
X29017Y-251925D01*
X29347Y-252721D01*
X29871Y-253404D01*
X30555Y-253929D01*
X31351Y-254258D01*
X32205Y-254371D01*
X33059Y-254258D01*
X33855Y-253929D01*
X34538Y-253404D01*
X35063Y-252721D01*
X35392Y-251925D01*
X35505Y-251071D01*
X35392Y-250217D01*
X35063Y-249421D01*
X34538Y-248738D01*
X33855Y-248213D01*
X33059Y-247883D01*
X32205Y-247771D01*
D02*
G37*
G36*
X24331Y-247771D02*
X23477Y-247883D01*
X22681Y-248213D01*
X21997Y-248738D01*
X21473Y-249421D01*
X21143Y-250217D01*
X21031Y-251071D01*
X21143Y-251925D01*
X21473Y-252721D01*
X21997Y-253404D01*
X22681Y-253929D01*
X23477Y-254258D01*
X24331Y-254371D01*
X25185Y-254258D01*
X25981Y-253929D01*
X26664Y-253404D01*
X27189Y-252721D01*
X27518Y-251925D01*
X27631Y-251071D01*
X27518Y-250217D01*
X27189Y-249421D01*
X26664Y-248738D01*
X25981Y-248213D01*
X25185Y-247883D01*
X24331Y-247771D01*
D02*
G37*
G36*
X-98701Y-248009D02*
X-99863Y-248162D01*
X-100946Y-248611D01*
X-101876Y-249324D01*
X-102590Y-250254D01*
X-103039Y-251338D01*
X-103192Y-252500D01*
X-103039Y-253662D01*
X-102590Y-254746D01*
X-101876Y-255676D01*
X-100946Y-256389D01*
X-99863Y-256838D01*
X-98701Y-256991D01*
X-97538Y-256838D01*
X-96455Y-256389D01*
X-95525Y-255676D01*
X-94811Y-254746D01*
X-94363Y-253662D01*
X-94210Y-252500D01*
X-94363Y-251338D01*
X-94811Y-250254D01*
X-95525Y-249324D01*
X-96455Y-248611D01*
X-97538Y-248162D01*
X-98701Y-248009D01*
D02*
G37*
G36*
X91299Y-252009D02*
X90137Y-252162D01*
X89054Y-252610D01*
X88124Y-253324D01*
X87410Y-254254D01*
X86961Y-255338D01*
X86808Y-256500D01*
X86961Y-257662D01*
X87410Y-258746D01*
X88124Y-259676D01*
X89054Y-260389D01*
X90137Y-260838D01*
X91299Y-260991D01*
X92462Y-260838D01*
X93545Y-260389D01*
X94475Y-259676D01*
X95189Y-258746D01*
X95637Y-257662D01*
X95790Y-256500D01*
X95637Y-255338D01*
X95189Y-254254D01*
X94475Y-253324D01*
X93545Y-252610D01*
X92462Y-252162D01*
X91299Y-252009D01*
D02*
G37*
G36*
X24331Y-255645D02*
X23477Y-255757D01*
X22681Y-256087D01*
X21997Y-256611D01*
X21473Y-257295D01*
X21143Y-258091D01*
X21031Y-258945D01*
X21143Y-259799D01*
X21473Y-260595D01*
X21997Y-261278D01*
X22681Y-261803D01*
X23477Y-262132D01*
X24331Y-262245D01*
X25185Y-262132D01*
X25981Y-261803D01*
X26664Y-261278D01*
X27189Y-260595D01*
X27518Y-259799D01*
X27631Y-258945D01*
X27518Y-258091D01*
X27189Y-257295D01*
X26664Y-256611D01*
X25981Y-256087D01*
X25185Y-255757D01*
X24331Y-255645D01*
D02*
G37*
G36*
X32205Y-255645D02*
X31351Y-255757D01*
X30555Y-256087D01*
X29871Y-256611D01*
X29347Y-257295D01*
X29017Y-258091D01*
X28905Y-258945D01*
X29017Y-259799D01*
X29347Y-260595D01*
X29871Y-261278D01*
X30555Y-261803D01*
X31351Y-262132D01*
X32205Y-262245D01*
X33059Y-262132D01*
X33855Y-261803D01*
X34538Y-261278D01*
X35063Y-260595D01*
X35392Y-259799D01*
X35505Y-258945D01*
X35392Y-258091D01*
X35063Y-257295D01*
X34538Y-256611D01*
X33855Y-256087D01*
X33059Y-255757D01*
X32205Y-255645D01*
D02*
G37*
G36*
X32705Y-264089D02*
Y-266319D01*
X34934D01*
X34905Y-266095D01*
X34626Y-265421D01*
X34181Y-264842D01*
X33602Y-264398D01*
X32928Y-264119D01*
X32705Y-264089D01*
D02*
G37*
G36*
X31705D02*
X31481Y-264119D01*
X30807Y-264398D01*
X30228Y-264842D01*
X29784Y-265421D01*
X29504Y-266095D01*
X29475Y-266319D01*
X31705D01*
Y-264089D01*
D02*
G37*
G36*
X-98701Y-258009D02*
X-99863Y-258162D01*
X-100946Y-258611D01*
X-101876Y-259324D01*
X-102590Y-260254D01*
X-103039Y-261338D01*
X-103192Y-262500D01*
X-103039Y-263662D01*
X-102590Y-264746D01*
X-101876Y-265676D01*
X-100946Y-266389D01*
X-99863Y-266838D01*
X-98701Y-266991D01*
X-97538Y-266838D01*
X-96455Y-266389D01*
X-95525Y-265676D01*
X-94811Y-264746D01*
X-94363Y-263662D01*
X-94210Y-262500D01*
X-94363Y-261338D01*
X-94811Y-260254D01*
X-95525Y-259324D01*
X-96455Y-258611D01*
X-97538Y-258162D01*
X-98701Y-258009D01*
D02*
G37*
G36*
X31705Y-267319D02*
X29475D01*
X29504Y-267543D01*
X29784Y-268217D01*
X30228Y-268796D01*
X30807Y-269240D01*
X31481Y-269519D01*
X31705Y-269549D01*
Y-267319D01*
D02*
G37*
G36*
X34934D02*
X32705D01*
Y-269549D01*
X32928Y-269519D01*
X33602Y-269240D01*
X34181Y-268796D01*
X34626Y-268217D01*
X34905Y-267543D01*
X34934Y-267319D01*
D02*
G37*
G36*
X24331Y-263519D02*
X23477Y-263632D01*
X22681Y-263961D01*
X21997Y-264486D01*
X21473Y-265169D01*
X21143Y-265965D01*
X21031Y-266819D01*
X21143Y-267673D01*
X21473Y-268469D01*
X21997Y-269152D01*
X22681Y-269677D01*
X23477Y-270006D01*
X24331Y-270119D01*
X25185Y-270006D01*
X25981Y-269677D01*
X26664Y-269152D01*
X27189Y-268469D01*
X27518Y-267673D01*
X27631Y-266819D01*
X27518Y-265965D01*
X27189Y-265169D01*
X26664Y-264486D01*
X25981Y-263961D01*
X25185Y-263632D01*
X24331Y-263519D01*
D02*
G37*
G36*
X91299Y-262009D02*
X90137Y-262162D01*
X89054Y-262611D01*
X88124Y-263324D01*
X87410Y-264254D01*
X86961Y-265338D01*
X86808Y-266500D01*
X86961Y-267662D01*
X87410Y-268746D01*
X88124Y-269676D01*
X89054Y-270390D01*
X90137Y-270838D01*
X91299Y-270991D01*
X92462Y-270838D01*
X93545Y-270390D01*
X94475Y-269676D01*
X95189Y-268746D01*
X95637Y-267662D01*
X95790Y-266500D01*
X95637Y-265338D01*
X95189Y-264254D01*
X94475Y-263324D01*
X93545Y-262611D01*
X92462Y-262162D01*
X91299Y-262009D01*
D02*
G37*
G36*
X-98701Y-268009D02*
X-99863Y-268162D01*
X-100946Y-268611D01*
X-101876Y-269324D01*
X-102590Y-270254D01*
X-103039Y-271338D01*
X-103192Y-272500D01*
X-103039Y-273662D01*
X-102590Y-274746D01*
X-101876Y-275676D01*
X-100946Y-276390D01*
X-99863Y-276838D01*
X-98701Y-276991D01*
X-97538Y-276838D01*
X-96455Y-276390D01*
X-95525Y-275676D01*
X-94811Y-274746D01*
X-94363Y-273662D01*
X-94210Y-272500D01*
X-94363Y-271338D01*
X-94811Y-270254D01*
X-95525Y-269324D01*
X-96455Y-268611D01*
X-97538Y-268162D01*
X-98701Y-268009D01*
D02*
G37*
G36*
X71000Y-270470D02*
X70086Y-270590D01*
X69235Y-270943D01*
X68504Y-271504D01*
X67943Y-272235D01*
X67590Y-273086D01*
X67470Y-274000D01*
X67590Y-274914D01*
X67943Y-275765D01*
X68504Y-276496D01*
X69235Y-277057D01*
X70086Y-277410D01*
X71000Y-277530D01*
X71914Y-277410D01*
X72765Y-277057D01*
X73496Y-276496D01*
X74057Y-275765D01*
X74410Y-274914D01*
X74530Y-274000D01*
X74410Y-273086D01*
X74057Y-272235D01*
X73496Y-271504D01*
X72765Y-270943D01*
X71914Y-270590D01*
X71000Y-270470D01*
D02*
G37*
G36*
X65000Y-171470D02*
X64086Y-171590D01*
X63235Y-171943D01*
X62504Y-172504D01*
X61943Y-173235D01*
X61590Y-174086D01*
X61470Y-175000D01*
X61590Y-175914D01*
X61943Y-176765D01*
X62504Y-177496D01*
X63235Y-178057D01*
X64086Y-178410D01*
X65000Y-178530D01*
X65571Y-178455D01*
X70961Y-183845D01*
Y-220155D01*
X59058Y-232058D01*
X58616Y-232720D01*
X58461Y-233500D01*
Y-251701D01*
X58616Y-252481D01*
X59058Y-253143D01*
X86847Y-280931D01*
Y-286953D01*
X95752D01*
Y-278047D01*
X89730D01*
X62539Y-250856D01*
Y-234345D01*
X74442Y-222442D01*
X74884Y-221780D01*
X75039Y-221000D01*
Y-183000D01*
X74884Y-182220D01*
X74442Y-181558D01*
X68455Y-175571D01*
X68530Y-175000D01*
X68410Y-174086D01*
X68057Y-173235D01*
X67496Y-172504D01*
X66765Y-171943D01*
X65914Y-171590D01*
X65000Y-171470D01*
D02*
G37*
G36*
X-98701Y-278009D02*
X-99863Y-278162D01*
X-100946Y-278610D01*
X-101876Y-279324D01*
X-102590Y-280254D01*
X-103039Y-281338D01*
X-103192Y-282500D01*
X-103039Y-283662D01*
X-102590Y-284746D01*
X-101876Y-285676D01*
X-100946Y-286389D01*
X-99863Y-286838D01*
X-98701Y-286991D01*
X-97538Y-286838D01*
X-96455Y-286389D01*
X-95525Y-285676D01*
X-94811Y-284746D01*
X-94363Y-283662D01*
X-94210Y-282500D01*
X-94363Y-281338D01*
X-94811Y-280254D01*
X-95525Y-279324D01*
X-96455Y-278610D01*
X-97538Y-278162D01*
X-98701Y-278009D01*
D02*
G37*
G36*
X63000Y-184470D02*
X62086Y-184590D01*
X61235Y-184943D01*
X60504Y-185504D01*
X59943Y-186235D01*
X59590Y-187086D01*
X59470Y-188000D01*
X59590Y-188914D01*
X59943Y-189765D01*
X60504Y-190496D01*
X60961Y-190847D01*
Y-193155D01*
X52558Y-201558D01*
X52116Y-202220D01*
X51961Y-203000D01*
Y-272000D01*
X52116Y-272780D01*
X52558Y-273442D01*
X73058Y-293942D01*
X73720Y-294384D01*
X74500Y-294539D01*
X87324D01*
X87410Y-294746D01*
X88124Y-295676D01*
X89054Y-296390D01*
X90137Y-296838D01*
X91299Y-296991D01*
X92462Y-296838D01*
X93545Y-296390D01*
X94475Y-295676D01*
X95189Y-294746D01*
X95637Y-293662D01*
X95790Y-292500D01*
X95637Y-291338D01*
X95189Y-290254D01*
X94475Y-289324D01*
X93545Y-288611D01*
X92462Y-288162D01*
X91299Y-288009D01*
X90137Y-288162D01*
X89054Y-288611D01*
X88124Y-289324D01*
X87410Y-290254D01*
X87324Y-290461D01*
X75345D01*
X56039Y-271155D01*
Y-203845D01*
X64442Y-195442D01*
X64884Y-194780D01*
X65039Y-194000D01*
Y-190847D01*
X65496Y-190496D01*
X66057Y-189765D01*
X66410Y-188914D01*
X66530Y-188000D01*
X66410Y-187086D01*
X66057Y-186235D01*
X65496Y-185504D01*
X64765Y-184943D01*
X63914Y-184590D01*
X63000Y-184470D01*
D02*
G37*
G36*
X-18000Y-290470D02*
X-18914Y-290590D01*
X-19765Y-290943D01*
X-20496Y-291504D01*
X-21057Y-292235D01*
X-21410Y-293086D01*
X-21530Y-294000D01*
X-21410Y-294914D01*
X-21057Y-295765D01*
X-20496Y-296496D01*
X-19765Y-297057D01*
X-18914Y-297410D01*
X-18000Y-297530D01*
X-17086Y-297410D01*
X-16235Y-297057D01*
X-15504Y-296496D01*
X-14943Y-295765D01*
X-14590Y-294914D01*
X-14470Y-294000D01*
X-14590Y-293086D01*
X-14943Y-292235D01*
X-15504Y-291504D01*
X-16235Y-290943D01*
X-17086Y-290590D01*
X-18000Y-290470D01*
D02*
G37*
G36*
X167000Y-293470D02*
X166086Y-293590D01*
X165235Y-293943D01*
X164504Y-294504D01*
X163943Y-295235D01*
X163590Y-296086D01*
X163470Y-297000D01*
X163590Y-297914D01*
X163943Y-298765D01*
X164504Y-299496D01*
X165235Y-300057D01*
X166086Y-300410D01*
X167000Y-300530D01*
X167914Y-300410D01*
X168765Y-300057D01*
X169496Y-299496D01*
X170057Y-298765D01*
X170410Y-297914D01*
X170530Y-297000D01*
X170410Y-296086D01*
X170057Y-295235D01*
X169496Y-294504D01*
X168765Y-293943D01*
X167914Y-293590D01*
X167000Y-293470D01*
D02*
G37*
G36*
X91299Y-298009D02*
X90137Y-298162D01*
X89054Y-298610D01*
X88124Y-299324D01*
X87410Y-300254D01*
X86961Y-301338D01*
X86808Y-302500D01*
X86961Y-303662D01*
X87410Y-304746D01*
X88124Y-305676D01*
X89054Y-306389D01*
X90137Y-306838D01*
X91299Y-306991D01*
X92462Y-306838D01*
X93545Y-306389D01*
X94475Y-305676D01*
X95189Y-304746D01*
X95637Y-303662D01*
X95790Y-302500D01*
X95637Y-301338D01*
X95189Y-300254D01*
X94475Y-299324D01*
X93545Y-298610D01*
X92462Y-298162D01*
X91299Y-298009D01*
D02*
G37*
G36*
X227500Y-300970D02*
X226586Y-301090D01*
X225735Y-301443D01*
X225004Y-302004D01*
X224443Y-302735D01*
X224090Y-303586D01*
X223970Y-304500D01*
X224090Y-305414D01*
X224443Y-306265D01*
X225004Y-306996D01*
X225735Y-307557D01*
X226586Y-307910D01*
X227500Y-308030D01*
X228414Y-307910D01*
X229265Y-307557D01*
X229996Y-306996D01*
X230557Y-306265D01*
X230910Y-305414D01*
X231030Y-304500D01*
X230910Y-303586D01*
X230557Y-302735D01*
X229996Y-302004D01*
X229265Y-301443D01*
X228414Y-301090D01*
X227500Y-300970D01*
D02*
G37*
G36*
X203000Y-303470D02*
X202086Y-303590D01*
X201235Y-303943D01*
X200504Y-304504D01*
X199943Y-305235D01*
X199590Y-306086D01*
X199470Y-307000D01*
X199590Y-307914D01*
X199943Y-308765D01*
X200504Y-309496D01*
X201235Y-310057D01*
X202086Y-310410D01*
X203000Y-310530D01*
X203914Y-310410D01*
X204765Y-310057D01*
X205496Y-309496D01*
X206057Y-308765D01*
X206410Y-307914D01*
X206530Y-307000D01*
X206410Y-306086D01*
X206057Y-305235D01*
X205496Y-304504D01*
X204765Y-303943D01*
X203914Y-303590D01*
X203000Y-303470D01*
D02*
G37*
G36*
X91299Y-308009D02*
X90137Y-308162D01*
X89054Y-308611D01*
X88124Y-309324D01*
X87410Y-310254D01*
X86961Y-311338D01*
X86808Y-312500D01*
X86961Y-313662D01*
X87410Y-314746D01*
X88124Y-315676D01*
X89054Y-316389D01*
X90137Y-316838D01*
X91299Y-316991D01*
X92462Y-316838D01*
X93545Y-316389D01*
X94475Y-315676D01*
X95189Y-314746D01*
X95637Y-313662D01*
X95790Y-312500D01*
X95637Y-311338D01*
X95189Y-310254D01*
X94475Y-309324D01*
X93545Y-308611D01*
X92462Y-308162D01*
X91299Y-308009D01*
D02*
G37*
G36*
X-18000Y-310470D02*
X-18914Y-310590D01*
X-19765Y-310943D01*
X-20496Y-311504D01*
X-21057Y-312235D01*
X-21410Y-313086D01*
X-21530Y-314000D01*
X-21410Y-314914D01*
X-21057Y-315765D01*
X-20496Y-316496D01*
X-19765Y-317057D01*
X-18914Y-317410D01*
X-18000Y-317530D01*
X-17086Y-317410D01*
X-16235Y-317057D01*
X-15504Y-316496D01*
X-14943Y-315765D01*
X-14590Y-314914D01*
X-14470Y-314000D01*
X-14590Y-313086D01*
X-14943Y-312235D01*
X-15504Y-311504D01*
X-16235Y-310943D01*
X-17086Y-310590D01*
X-18000Y-310470D01*
D02*
G37*
G36*
X-3000Y-318970D02*
X-3914Y-319090D01*
X-4765Y-319443D01*
X-5496Y-320004D01*
X-6057Y-320735D01*
X-6410Y-321586D01*
X-6530Y-322500D01*
X-6410Y-323414D01*
X-6057Y-324265D01*
X-5496Y-324996D01*
X-4765Y-325557D01*
X-3914Y-325910D01*
X-3000Y-326030D01*
X-2086Y-325910D01*
X-1235Y-325557D01*
X-504Y-324996D01*
X57Y-324265D01*
X410Y-323414D01*
X530Y-322500D01*
X410Y-321586D01*
X57Y-320735D01*
X-504Y-320004D01*
X-1235Y-319443D01*
X-2086Y-319090D01*
X-3000Y-318970D01*
D02*
G37*
G36*
X91299Y-318009D02*
X90137Y-318162D01*
X89054Y-318611D01*
X88124Y-319324D01*
X87410Y-320254D01*
X86961Y-321338D01*
X86808Y-322500D01*
X86961Y-323662D01*
X87410Y-324746D01*
X88124Y-325676D01*
X89054Y-326390D01*
X90137Y-326838D01*
X91299Y-326991D01*
X92462Y-326838D01*
X93545Y-326390D01*
X94475Y-325676D01*
X95189Y-324746D01*
X95637Y-323662D01*
X95790Y-322500D01*
X95637Y-321338D01*
X95189Y-320254D01*
X94475Y-319324D01*
X93545Y-318611D01*
X92462Y-318162D01*
X91299Y-318009D01*
D02*
G37*
G36*
X-46000Y-322470D02*
X-46914Y-322590D01*
X-47765Y-322943D01*
X-48496Y-323504D01*
X-49057Y-324235D01*
X-49410Y-325086D01*
X-49530Y-326000D01*
X-49410Y-326914D01*
X-49057Y-327765D01*
X-48496Y-328496D01*
X-47765Y-329057D01*
X-46914Y-329410D01*
X-46000Y-329530D01*
X-45086Y-329410D01*
X-44235Y-329057D01*
X-43504Y-328496D01*
X-42943Y-327765D01*
X-42590Y-326914D01*
X-42470Y-326000D01*
X-42590Y-325086D01*
X-42943Y-324235D01*
X-43504Y-323504D01*
X-44235Y-322943D01*
X-45086Y-322590D01*
X-46000Y-322470D01*
D02*
G37*
G36*
X70000Y-328470D02*
X69086Y-328590D01*
X68235Y-328943D01*
X67504Y-329504D01*
X66943Y-330235D01*
X66590Y-331086D01*
X66470Y-332000D01*
X66590Y-332914D01*
X66943Y-333765D01*
X67504Y-334496D01*
X68235Y-335057D01*
X69086Y-335410D01*
X70000Y-335530D01*
X70914Y-335410D01*
X71765Y-335057D01*
X72496Y-334496D01*
X73057Y-333765D01*
X73410Y-332914D01*
X73530Y-332000D01*
X73410Y-331086D01*
X73057Y-330235D01*
X72496Y-329504D01*
X71765Y-328943D01*
X70914Y-328590D01*
X70000Y-328470D01*
D02*
G37*
G36*
X91299Y-328009D02*
X90137Y-328162D01*
X89054Y-328610D01*
X88124Y-329324D01*
X87410Y-330254D01*
X86961Y-331338D01*
X86808Y-332500D01*
X86961Y-333662D01*
X87410Y-334746D01*
X88124Y-335676D01*
X89054Y-336389D01*
X90137Y-336838D01*
X91299Y-336991D01*
X92462Y-336838D01*
X93545Y-336389D01*
X94475Y-335676D01*
X95189Y-334746D01*
X95637Y-333662D01*
X95790Y-332500D01*
X95637Y-331338D01*
X95189Y-330254D01*
X94475Y-329324D01*
X93545Y-328610D01*
X92462Y-328162D01*
X91299Y-328009D01*
D02*
G37*
G36*
X-98701Y-328009D02*
X-99863Y-328162D01*
X-100946Y-328610D01*
X-101876Y-329324D01*
X-102590Y-330254D01*
X-103039Y-331338D01*
X-103192Y-332500D01*
X-103039Y-333662D01*
X-102590Y-334746D01*
X-101876Y-335676D01*
X-100946Y-336389D01*
X-99863Y-336838D01*
X-98701Y-336991D01*
X-97538Y-336838D01*
X-96455Y-336389D01*
X-95525Y-335676D01*
X-94811Y-334746D01*
X-94363Y-333662D01*
X-94210Y-332500D01*
X-94363Y-331338D01*
X-94811Y-330254D01*
X-95525Y-329324D01*
X-96455Y-328610D01*
X-97538Y-328162D01*
X-98701Y-328009D01*
D02*
G37*
G36*
X32000Y-335970D02*
X31086Y-336090D01*
X30235Y-336443D01*
X29504Y-337004D01*
X28943Y-337735D01*
X28590Y-338586D01*
X28470Y-339500D01*
X28590Y-340414D01*
X28943Y-341265D01*
X29504Y-341996D01*
X30235Y-342557D01*
X31086Y-342910D01*
X32000Y-343030D01*
X32914Y-342910D01*
X33765Y-342557D01*
X34496Y-341996D01*
X35057Y-341265D01*
X35410Y-340414D01*
X35530Y-339500D01*
X35410Y-338586D01*
X35057Y-337735D01*
X34496Y-337004D01*
X33765Y-336443D01*
X32914Y-336090D01*
X32000Y-335970D01*
D02*
G37*
G36*
X245500Y-341896D02*
Y-344126D01*
X247730D01*
X247700Y-343902D01*
X247421Y-343228D01*
X246977Y-342649D01*
X246398Y-342205D01*
X245724Y-341926D01*
X245500Y-341896D01*
D02*
G37*
G36*
X244500D02*
X244276Y-341926D01*
X243602Y-342205D01*
X243023Y-342649D01*
X242579Y-343228D01*
X242300Y-343902D01*
X242270Y-344126D01*
X244500D01*
Y-341896D01*
D02*
G37*
G36*
X-29000Y-337970D02*
X-29914Y-338090D01*
X-30765Y-338443D01*
X-31496Y-339004D01*
X-32057Y-339735D01*
X-32410Y-340586D01*
X-32530Y-341500D01*
X-32410Y-342414D01*
X-32057Y-343265D01*
X-31496Y-343996D01*
X-30765Y-344557D01*
X-29914Y-344910D01*
X-29000Y-345030D01*
X-28086Y-344910D01*
X-27235Y-344557D01*
X-26504Y-343996D01*
X-25943Y-343265D01*
X-25590Y-342414D01*
X-25470Y-341500D01*
X-25590Y-340586D01*
X-25943Y-339735D01*
X-26504Y-339004D01*
X-27235Y-338443D01*
X-28086Y-338090D01*
X-29000Y-337970D01*
D02*
G37*
G36*
X153500Y-338970D02*
X152586Y-339090D01*
X151735Y-339443D01*
X151004Y-340004D01*
X150443Y-340735D01*
X150090Y-341586D01*
X149970Y-342500D01*
X150090Y-343414D01*
X150443Y-344265D01*
X151004Y-344996D01*
X151735Y-345557D01*
X152586Y-345910D01*
X153500Y-346030D01*
X154414Y-345910D01*
X155265Y-345557D01*
X155996Y-344996D01*
X156557Y-344265D01*
X156910Y-343414D01*
X157030Y-342500D01*
X156910Y-341586D01*
X156557Y-340735D01*
X155996Y-340004D01*
X155265Y-339443D01*
X154414Y-339090D01*
X153500Y-338970D01*
D02*
G37*
G36*
X91299Y-338009D02*
X90137Y-338162D01*
X89054Y-338611D01*
X88124Y-339324D01*
X87410Y-340254D01*
X86961Y-341338D01*
X86808Y-342500D01*
X86961Y-343662D01*
X87410Y-344746D01*
X88124Y-345676D01*
X89054Y-346390D01*
X90137Y-346838D01*
X91299Y-346991D01*
X92462Y-346838D01*
X93545Y-346390D01*
X94475Y-345676D01*
X95189Y-344746D01*
X95637Y-343662D01*
X95790Y-342500D01*
X95637Y-341338D01*
X95189Y-340254D01*
X94475Y-339324D01*
X93545Y-338611D01*
X92462Y-338162D01*
X91299Y-338009D01*
D02*
G37*
G36*
X247730Y-345126D02*
X245500D01*
Y-347356D01*
X245724Y-347326D01*
X246398Y-347047D01*
X246977Y-346603D01*
X247421Y-346024D01*
X247700Y-345350D01*
X247730Y-345126D01*
D02*
G37*
G36*
X244500D02*
X242270D01*
X242300Y-345350D01*
X242579Y-346024D01*
X243023Y-346603D01*
X243602Y-347047D01*
X244276Y-347326D01*
X244500Y-347356D01*
Y-345126D01*
D02*
G37*
G36*
X237126Y-341326D02*
X236272Y-341439D01*
X235476Y-341768D01*
X234793Y-342293D01*
X234268Y-342976D01*
X233939Y-343772D01*
X233826Y-344626D01*
X233939Y-345480D01*
X234268Y-346276D01*
X234793Y-346959D01*
X235476Y-347484D01*
X236272Y-347813D01*
X237126Y-347926D01*
X237980Y-347813D01*
X238776Y-347484D01*
X239459Y-346959D01*
X239984Y-346276D01*
X240313Y-345480D01*
X240426Y-344626D01*
X240313Y-343772D01*
X239984Y-342976D01*
X239459Y-342293D01*
X238776Y-341768D01*
X237980Y-341439D01*
X237126Y-341326D01*
D02*
G37*
G36*
X229252D02*
X228398Y-341439D01*
X227602Y-341768D01*
X226919Y-342293D01*
X226394Y-342976D01*
X226064Y-343772D01*
X225952Y-344626D01*
X226064Y-345480D01*
X226394Y-346276D01*
X226919Y-346959D01*
X227602Y-347484D01*
X228398Y-347813D01*
X229252Y-347926D01*
X230106Y-347813D01*
X230902Y-347484D01*
X231585Y-346959D01*
X232110Y-346276D01*
X232439Y-345480D01*
X232552Y-344626D01*
X232439Y-343772D01*
X232110Y-342976D01*
X231585Y-342293D01*
X230902Y-341768D01*
X230106Y-341439D01*
X229252Y-341326D01*
D02*
G37*
G36*
X221378D02*
X220524Y-341439D01*
X219728Y-341768D01*
X219045Y-342293D01*
X218520Y-342976D01*
X218191Y-343772D01*
X218078Y-344626D01*
X218191Y-345480D01*
X218520Y-346276D01*
X219045Y-346959D01*
X219728Y-347484D01*
X220524Y-347813D01*
X221378Y-347926D01*
X222232Y-347813D01*
X223028Y-347484D01*
X223711Y-346959D01*
X224236Y-346276D01*
X224565Y-345480D01*
X224678Y-344626D01*
X224565Y-343772D01*
X224236Y-342976D01*
X223711Y-342293D01*
X223028Y-341768D01*
X222232Y-341439D01*
X221378Y-341326D01*
D02*
G37*
G36*
X213504D02*
X212650Y-341439D01*
X211854Y-341768D01*
X211171Y-342293D01*
X210646Y-342976D01*
X210316Y-343772D01*
X210204Y-344626D01*
X210316Y-345480D01*
X210646Y-346276D01*
X211171Y-346959D01*
X211854Y-347484D01*
X212650Y-347813D01*
X213504Y-347926D01*
X214358Y-347813D01*
X215154Y-347484D01*
X215837Y-346959D01*
X216362Y-346276D01*
X216691Y-345480D01*
X216804Y-344626D01*
X216691Y-343772D01*
X216362Y-342976D01*
X215837Y-342293D01*
X215154Y-341768D01*
X214358Y-341439D01*
X213504Y-341326D01*
D02*
G37*
G36*
X205630D02*
X204776Y-341439D01*
X203980Y-341768D01*
X203296Y-342293D01*
X202772Y-342976D01*
X202443Y-343772D01*
X202330Y-344626D01*
X202443Y-345480D01*
X202772Y-346276D01*
X203296Y-346959D01*
X203980Y-347484D01*
X204776Y-347813D01*
X205630Y-347926D01*
X206484Y-347813D01*
X207280Y-347484D01*
X207963Y-346959D01*
X208488Y-346276D01*
X208817Y-345480D01*
X208930Y-344626D01*
X208817Y-343772D01*
X208488Y-342976D01*
X207963Y-342293D01*
X207280Y-341768D01*
X206484Y-341439D01*
X205630Y-341326D01*
D02*
G37*
G36*
X197756D02*
X196902Y-341439D01*
X196106Y-341768D01*
X195422Y-342293D01*
X194898Y-342976D01*
X194568Y-343772D01*
X194456Y-344626D01*
X194568Y-345480D01*
X194898Y-346276D01*
X195422Y-346959D01*
X196106Y-347484D01*
X196902Y-347813D01*
X197756Y-347926D01*
X198610Y-347813D01*
X199406Y-347484D01*
X200089Y-346959D01*
X200614Y-346276D01*
X200943Y-345480D01*
X201056Y-344626D01*
X200943Y-343772D01*
X200614Y-342976D01*
X200089Y-342293D01*
X199406Y-341768D01*
X198610Y-341439D01*
X197756Y-341326D01*
D02*
G37*
G36*
X189882D02*
X189028Y-341439D01*
X188232Y-341768D01*
X187548Y-342293D01*
X187024Y-342976D01*
X186695Y-343772D01*
X186582Y-344626D01*
X186695Y-345480D01*
X187024Y-346276D01*
X187548Y-346959D01*
X188232Y-347484D01*
X189028Y-347813D01*
X189882Y-347926D01*
X190736Y-347813D01*
X191532Y-347484D01*
X192215Y-346959D01*
X192740Y-346276D01*
X193069Y-345480D01*
X193182Y-344626D01*
X193069Y-343772D01*
X192740Y-342976D01*
X192215Y-342293D01*
X191532Y-341768D01*
X190736Y-341439D01*
X189882Y-341326D01*
D02*
G37*
G36*
X182008D02*
X181154Y-341439D01*
X180358Y-341768D01*
X179674Y-342293D01*
X179150Y-342976D01*
X178820Y-343772D01*
X178708Y-344626D01*
X178820Y-345480D01*
X179150Y-346276D01*
X179674Y-346959D01*
X180358Y-347484D01*
X181154Y-347813D01*
X182008Y-347926D01*
X182862Y-347813D01*
X183658Y-347484D01*
X184341Y-346959D01*
X184866Y-346276D01*
X185195Y-345480D01*
X185308Y-344626D01*
X185195Y-343772D01*
X184866Y-342976D01*
X184341Y-342293D01*
X183658Y-341768D01*
X182862Y-341439D01*
X182008Y-341326D01*
D02*
G37*
G36*
X237626Y-349770D02*
Y-352000D01*
X239856D01*
X239826Y-351777D01*
X239547Y-351102D01*
X239103Y-350523D01*
X238524Y-350079D01*
X237849Y-349800D01*
X237626Y-349770D01*
D02*
G37*
G36*
X236626D02*
X236402Y-349800D01*
X235728Y-350079D01*
X235149Y-350523D01*
X234705Y-351102D01*
X234426Y-351777D01*
X234396Y-352000D01*
X236626D01*
Y-349770D01*
D02*
G37*
G36*
X54500Y-344970D02*
X53586Y-345090D01*
X52735Y-345443D01*
X52004Y-346004D01*
X51443Y-346735D01*
X51090Y-347586D01*
X50970Y-348500D01*
X51090Y-349414D01*
X51443Y-350265D01*
X52004Y-350996D01*
X52735Y-351557D01*
X53586Y-351910D01*
X54500Y-352030D01*
X55414Y-351910D01*
X56265Y-351557D01*
X56996Y-350996D01*
X57557Y-350265D01*
X57910Y-349414D01*
X58030Y-348500D01*
X57910Y-347586D01*
X57557Y-346735D01*
X56996Y-346004D01*
X56265Y-345443D01*
X55414Y-345090D01*
X54500Y-344970D01*
D02*
G37*
G36*
X236626Y-353000D02*
X234396D01*
X234426Y-353224D01*
X234705Y-353898D01*
X235149Y-354477D01*
X235728Y-354921D01*
X236402Y-355200D01*
X236626Y-355230D01*
Y-353000D01*
D02*
G37*
G36*
X239856D02*
X237626D01*
Y-355230D01*
X237849Y-355200D01*
X238524Y-354921D01*
X239103Y-354477D01*
X239547Y-353898D01*
X239826Y-353224D01*
X239856Y-353000D01*
D02*
G37*
G36*
X248272Y-349228D02*
X241728D01*
Y-355772D01*
X248272D01*
Y-349228D01*
D02*
G37*
G36*
X229252Y-349200D02*
X228398Y-349313D01*
X227602Y-349642D01*
X226919Y-350167D01*
X226394Y-350850D01*
X226064Y-351646D01*
X225952Y-352500D01*
X226064Y-353354D01*
X226394Y-354150D01*
X226919Y-354833D01*
X227602Y-355358D01*
X228398Y-355687D01*
X229252Y-355800D01*
X230106Y-355687D01*
X230902Y-355358D01*
X231585Y-354833D01*
X232110Y-354150D01*
X232439Y-353354D01*
X232552Y-352500D01*
X232439Y-351646D01*
X232110Y-350850D01*
X231585Y-350167D01*
X230902Y-349642D01*
X230106Y-349313D01*
X229252Y-349200D01*
D02*
G37*
G36*
X221378D02*
X220524Y-349313D01*
X219728Y-349642D01*
X219045Y-350167D01*
X218520Y-350850D01*
X218191Y-351646D01*
X218078Y-352500D01*
X218191Y-353354D01*
X218520Y-354150D01*
X219045Y-354833D01*
X219728Y-355358D01*
X220524Y-355687D01*
X221378Y-355800D01*
X222232Y-355687D01*
X223028Y-355358D01*
X223711Y-354833D01*
X224236Y-354150D01*
X224565Y-353354D01*
X224678Y-352500D01*
X224565Y-351646D01*
X224236Y-350850D01*
X223711Y-350167D01*
X223028Y-349642D01*
X222232Y-349313D01*
X221378Y-349200D01*
D02*
G37*
G36*
X213504D02*
X212650Y-349313D01*
X211854Y-349642D01*
X211171Y-350167D01*
X210646Y-350850D01*
X210316Y-351646D01*
X210204Y-352500D01*
X210316Y-353354D01*
X210646Y-354150D01*
X211171Y-354833D01*
X211854Y-355358D01*
X212650Y-355687D01*
X213504Y-355800D01*
X214358Y-355687D01*
X215154Y-355358D01*
X215837Y-354833D01*
X216362Y-354150D01*
X216691Y-353354D01*
X216804Y-352500D01*
X216691Y-351646D01*
X216362Y-350850D01*
X215837Y-350167D01*
X215154Y-349642D01*
X214358Y-349313D01*
X213504Y-349200D01*
D02*
G37*
G36*
X205630D02*
X204776Y-349313D01*
X203980Y-349642D01*
X203296Y-350167D01*
X202772Y-350850D01*
X202443Y-351646D01*
X202330Y-352500D01*
X202443Y-353354D01*
X202772Y-354150D01*
X203296Y-354833D01*
X203980Y-355358D01*
X204776Y-355687D01*
X205630Y-355800D01*
X206484Y-355687D01*
X207280Y-355358D01*
X207963Y-354833D01*
X208488Y-354150D01*
X208817Y-353354D01*
X208930Y-352500D01*
X208817Y-351646D01*
X208488Y-350850D01*
X207963Y-350167D01*
X207280Y-349642D01*
X206484Y-349313D01*
X205630Y-349200D01*
D02*
G37*
G36*
X197756D02*
X196902Y-349313D01*
X196106Y-349642D01*
X195422Y-350167D01*
X194898Y-350850D01*
X194569Y-351646D01*
X194456Y-352500D01*
X194569Y-353354D01*
X194898Y-354150D01*
X195422Y-354833D01*
X196106Y-355358D01*
X196902Y-355687D01*
X197756Y-355800D01*
X198610Y-355687D01*
X199406Y-355358D01*
X200089Y-354833D01*
X200614Y-354150D01*
X200943Y-353354D01*
X201056Y-352500D01*
X200943Y-351646D01*
X200614Y-350850D01*
X200089Y-350167D01*
X199406Y-349642D01*
X198610Y-349313D01*
X197756Y-349200D01*
D02*
G37*
G36*
X189882D02*
X189028Y-349313D01*
X188232Y-349642D01*
X187548Y-350167D01*
X187024Y-350850D01*
X186694Y-351646D01*
X186582Y-352500D01*
X186694Y-353354D01*
X187024Y-354150D01*
X187548Y-354833D01*
X188232Y-355358D01*
X189028Y-355687D01*
X189882Y-355800D01*
X190736Y-355687D01*
X191532Y-355358D01*
X192215Y-354833D01*
X192740Y-354150D01*
X193069Y-353354D01*
X193182Y-352500D01*
X193069Y-351646D01*
X192740Y-350850D01*
X192215Y-350167D01*
X191532Y-349642D01*
X190736Y-349313D01*
X189882Y-349200D01*
D02*
G37*
G36*
X182008D02*
X181154Y-349313D01*
X180358Y-349642D01*
X179674Y-350167D01*
X179150Y-350850D01*
X178820Y-351646D01*
X178708Y-352500D01*
X178820Y-353354D01*
X179150Y-354150D01*
X179674Y-354833D01*
X180358Y-355358D01*
X181154Y-355687D01*
X182008Y-355800D01*
X182862Y-355687D01*
X183658Y-355358D01*
X184341Y-354833D01*
X184866Y-354150D01*
X185195Y-353354D01*
X185308Y-352500D01*
X185195Y-351646D01*
X184866Y-350850D01*
X184341Y-350167D01*
X183658Y-349642D01*
X182862Y-349313D01*
X182008Y-349200D01*
D02*
G37*
G36*
X91299Y-348009D02*
X90137Y-348162D01*
X89054Y-348610D01*
X88124Y-349324D01*
X87410Y-350254D01*
X86961Y-351338D01*
X86808Y-352500D01*
X86961Y-353662D01*
X87410Y-354746D01*
X88124Y-355676D01*
X89054Y-356389D01*
X90137Y-356838D01*
X91299Y-356991D01*
X92462Y-356838D01*
X93545Y-356389D01*
X94475Y-355676D01*
X95189Y-354746D01*
X95637Y-353662D01*
X95790Y-352500D01*
X95637Y-351338D01*
X95189Y-350254D01*
X94475Y-349324D01*
X93545Y-348610D01*
X92462Y-348162D01*
X91299Y-348009D01*
D02*
G37*
G36*
X-98701D02*
X-99863Y-348162D01*
X-100946Y-348610D01*
X-101876Y-349324D01*
X-102590Y-350254D01*
X-103039Y-351338D01*
X-103192Y-352500D01*
X-103039Y-353662D01*
X-102590Y-354746D01*
X-101876Y-355676D01*
X-100946Y-356389D01*
X-99863Y-356838D01*
X-98701Y-356991D01*
X-97538Y-356838D01*
X-96455Y-356389D01*
X-95525Y-355676D01*
X-94811Y-354746D01*
X-94363Y-353662D01*
X-94210Y-352500D01*
X-94363Y-351338D01*
X-94811Y-350254D01*
X-95525Y-349324D01*
X-96455Y-348610D01*
X-97538Y-348162D01*
X-98701Y-348009D01*
D02*
G37*
G36*
X-5500Y-350970D02*
X-6414Y-351090D01*
X-7265Y-351443D01*
X-7996Y-352004D01*
X-8557Y-352735D01*
X-8910Y-353586D01*
X-9030Y-354500D01*
X-8910Y-355414D01*
X-8557Y-356265D01*
X-7996Y-356996D01*
X-7265Y-357557D01*
X-6414Y-357910D01*
X-5500Y-358030D01*
X-4586Y-357910D01*
X-3735Y-357557D01*
X-3004Y-356996D01*
X-2443Y-356265D01*
X-2090Y-355414D01*
X-1970Y-354500D01*
X-2090Y-353586D01*
X-2443Y-352735D01*
X-3004Y-352004D01*
X-3735Y-351443D01*
X-4586Y-351090D01*
X-5500Y-350970D01*
D02*
G37*
G36*
X-10500Y-356970D02*
X-11414Y-357090D01*
X-12265Y-357443D01*
X-12996Y-358004D01*
X-13557Y-358735D01*
X-13910Y-359586D01*
X-14030Y-360500D01*
X-13910Y-361414D01*
X-13557Y-362265D01*
X-12996Y-362996D01*
X-12265Y-363557D01*
X-11414Y-363910D01*
X-10500Y-364030D01*
X-9586Y-363910D01*
X-8735Y-363557D01*
X-8004Y-362996D01*
X-7443Y-362265D01*
X-7090Y-361414D01*
X-6970Y-360500D01*
X-7090Y-359586D01*
X-7443Y-358735D01*
X-8004Y-358004D01*
X-8735Y-357443D01*
X-9586Y-357090D01*
X-10500Y-356970D01*
D02*
G37*
%LPD*%
G36*
X137961Y-67560D02*
Y-110000D01*
X138116Y-110780D01*
X138558Y-111442D01*
X151461Y-124345D01*
Y-201867D01*
X151045Y-202145D01*
X150914Y-202090D01*
X150000Y-201970D01*
X149086Y-202090D01*
X148235Y-202443D01*
X147504Y-203004D01*
X146943Y-203735D01*
X146590Y-204586D01*
X146470Y-205500D01*
X146590Y-206414D01*
X146943Y-207265D01*
X147504Y-207996D01*
X148235Y-208557D01*
X149086Y-208910D01*
X150000Y-209030D01*
X150914Y-208910D01*
X151045Y-208856D01*
X151461Y-209133D01*
Y-309346D01*
X151213Y-309430D01*
X150961Y-309477D01*
X150539Y-309153D01*
Y-280000D01*
X150384Y-279220D01*
X149942Y-278558D01*
X124539Y-253155D01*
Y-116459D01*
X124914Y-116410D01*
X125765Y-116057D01*
X126496Y-115496D01*
X127057Y-114765D01*
X127410Y-113914D01*
X127461Y-113527D01*
X127961Y-113560D01*
Y-164500D01*
X128116Y-165280D01*
X128558Y-165942D01*
X141461Y-178845D01*
Y-264000D01*
X141616Y-264780D01*
X142058Y-265442D01*
X143545Y-266929D01*
X143470Y-267500D01*
X143590Y-268414D01*
X143943Y-269265D01*
X144504Y-269996D01*
X145235Y-270557D01*
X146086Y-270910D01*
X147000Y-271030D01*
X147914Y-270910D01*
X148765Y-270557D01*
X149496Y-269996D01*
X150057Y-269265D01*
X150410Y-268414D01*
X150530Y-267500D01*
X150410Y-266586D01*
X150057Y-265735D01*
X149496Y-265004D01*
X148765Y-264443D01*
X147914Y-264090D01*
X147000Y-263970D01*
X146429Y-264045D01*
X145539Y-263155D01*
Y-178000D01*
X145384Y-177220D01*
X144942Y-176558D01*
X132039Y-163655D01*
Y-70515D01*
X132539Y-70183D01*
X133086Y-70410D01*
X134000Y-70530D01*
X134914Y-70410D01*
X135765Y-70057D01*
X136496Y-69496D01*
X137057Y-68765D01*
X137410Y-67914D01*
X137461Y-67527D01*
X137961Y-67560D01*
D02*
G37*
%LPC*%
G36*
X137716Y-143253D02*
X136803Y-143374D01*
X135951Y-143726D01*
X135220Y-144287D01*
X134659Y-145018D01*
X134307Y-145870D01*
X134186Y-146783D01*
X134307Y-147697D01*
X134659Y-148549D01*
X135220Y-149280D01*
X135951Y-149841D01*
X136803Y-150193D01*
X137716Y-150314D01*
X138630Y-150193D01*
X139482Y-149841D01*
X140213Y-149280D01*
X140774Y-148549D01*
X141126Y-147697D01*
X141247Y-146783D01*
X141126Y-145870D01*
X140774Y-145018D01*
X140213Y-144287D01*
X139482Y-143726D01*
X138630Y-143374D01*
X137716Y-143253D01*
D02*
G37*
G36*
X144000Y-150970D02*
X143086Y-151090D01*
X142235Y-151443D01*
X141504Y-152004D01*
X140943Y-152735D01*
X140590Y-153586D01*
X140470Y-154500D01*
X140590Y-155414D01*
X140943Y-156265D01*
X141504Y-156996D01*
X142235Y-157557D01*
X143086Y-157910D01*
X144000Y-158030D01*
X144914Y-157910D01*
X145765Y-157557D01*
X146496Y-156996D01*
X147057Y-156265D01*
X147410Y-155414D01*
X147530Y-154500D01*
X147410Y-153586D01*
X147057Y-152735D01*
X146496Y-152004D01*
X145765Y-151443D01*
X144914Y-151090D01*
X144000Y-150970D01*
D02*
G37*
G36*
X134500Y-236470D02*
X133586Y-236590D01*
X132735Y-236943D01*
X132004Y-237504D01*
X131443Y-238235D01*
X131090Y-239086D01*
X130970Y-240000D01*
X131090Y-240914D01*
X131443Y-241765D01*
X132004Y-242496D01*
X132735Y-243057D01*
X133586Y-243410D01*
X134500Y-243530D01*
X135414Y-243410D01*
X136265Y-243057D01*
X136996Y-242496D01*
X137557Y-241765D01*
X137910Y-240914D01*
X138030Y-240000D01*
X137910Y-239086D01*
X137557Y-238235D01*
X136996Y-237504D01*
X136265Y-236943D01*
X135414Y-236590D01*
X134500Y-236470D01*
D02*
G37*
%LPD*%
D15*
X65000Y-175000D02*
X73000Y-183000D01*
Y-221000D02*
Y-183000D01*
X60500Y-233500D02*
X73000Y-221000D01*
X60500Y-251701D02*
Y-233500D01*
Y-251701D02*
X91299Y-282500D01*
X63000Y-194000D02*
Y-188000D01*
X54000Y-203000D02*
X63000Y-194000D01*
X118500Y-97500D02*
X120000Y-96000D01*
Y0D01*
X122500Y-114500D02*
X124000Y-113000D01*
X122500Y-254000D02*
Y-114500D01*
Y-254000D02*
X148500Y-280000D01*
Y-312000D02*
Y-280000D01*
X91000Y-66000D02*
X110000Y-47000D01*
Y-0D01*
X91000Y-77500D02*
Y-66000D01*
X101500Y-216299D02*
Y-142500D01*
X91299Y-226500D02*
X101500Y-216299D01*
X140000Y-110000D02*
Y-0D01*
Y-110000D02*
X153500Y-123500D01*
Y-333500D02*
Y-123500D01*
X130000Y-164500D02*
Y-0D01*
Y-164500D02*
X143500Y-178000D01*
Y-264000D02*
Y-178000D01*
Y-264000D02*
X147000Y-267500D01*
X256000Y-63000D02*
X261133Y-57867D01*
X264633D01*
X265000Y-57500D01*
X256000Y-121500D02*
Y-63000D01*
Y-121500D02*
X265900Y-131400D01*
Y-350100D02*
Y-131400D01*
X248500Y-367500D02*
X265900Y-350100D01*
X80500Y-367500D02*
X248500D01*
X69500Y-356500D02*
X80500Y-367500D01*
X65000Y-356500D02*
X69500D01*
X46000Y-375500D02*
X65000Y-356500D01*
X-21500Y-375500D02*
X46000D01*
X-57000Y-340000D02*
X-21500Y-375500D01*
X265000Y-127500D02*
Y-97500D01*
Y-127500D02*
X267500Y-130000D01*
Y-351500D02*
Y-130000D01*
X248500Y-370500D02*
X267500Y-351500D01*
X76500Y-370500D02*
X248500D01*
X66000Y-360000D02*
X76500Y-370500D01*
X54000Y-272000D02*
Y-203000D01*
Y-272000D02*
X74500Y-292500D01*
X91299D01*
X110000Y10000D02*
X115000Y5000D01*
Y-54000D02*
Y5000D01*
X108500Y-60500D02*
X115000Y-54000D01*
X108500Y-112000D02*
Y-60500D01*
X19000Y-201500D02*
X108500Y-112000D01*
X19000Y-206370D02*
Y-201500D01*
Y-206370D02*
X24331Y-211701D01*
X55000Y-118500D02*
Y5000D01*
X60000Y10000D01*
X-10500Y-184000D02*
X55000Y-118500D01*
X-10500Y-254299D02*
Y-184000D01*
X-98701Y-342500D02*
X-10500Y-254299D01*
X120000Y10000D02*
X125000Y5000D01*
Y-103157D02*
Y5000D01*
X24331Y-203827D02*
X125000Y-103157D01*
X-28500Y-184000D02*
X20000Y-135500D01*
Y-0D01*
X-28500Y-233500D02*
Y-184000D01*
X-87000Y-292000D02*
X-28500Y-233500D01*
X-102000Y-292000D02*
X-87000D01*
X-108000Y-298000D02*
X-102000Y-292000D01*
X-108000Y-313201D02*
Y-298000D01*
Y-313201D02*
X-98701Y-322500D01*
X-26500Y-185500D02*
X30000Y-129000D01*
Y0D01*
X-26500Y-235500D02*
Y-185500D01*
X-86000Y-295000D02*
X-26500Y-235500D01*
X-101500Y-295000D02*
X-86000D01*
X-105500Y-299000D02*
X-101500Y-295000D01*
X-105500Y-305701D02*
Y-299000D01*
Y-305701D02*
X-98701Y-312500D01*
X-14500Y-182000D02*
X40000Y-127500D01*
Y0D01*
X-14500Y-228500D02*
Y-182000D01*
X-88500Y-302500D02*
X-14500Y-228500D01*
X-98701Y-302500D02*
X-88500D01*
D74*
X91299Y-196500D02*
D03*
Y-226500D02*
D03*
Y-292500D02*
D03*
X-98701Y-242500D02*
D03*
Y-312500D02*
D03*
Y-322500D02*
D03*
Y-342500D02*
D03*
X265000Y-97500D02*
D03*
Y-67500D02*
D03*
X140000Y-0D02*
D03*
X130000D02*
D03*
X120000Y10000D02*
D03*
Y0D02*
D03*
X110000Y10000D02*
D03*
Y-0D02*
D03*
X60000Y10000D02*
D03*
X40000Y0D02*
D03*
X30000D02*
D03*
X20000Y-0D02*
D03*
D75*
X91299Y-282500D02*
D03*
X-98701Y-302500D02*
D03*
X265000Y-57500D02*
D03*
D77*
X237126Y-352500D02*
D03*
X245000Y-344626D02*
D03*
X32205Y-211701D02*
D03*
Y-266819D02*
D03*
X24331Y-203827D02*
D03*
Y-211701D02*
D03*
D83*
X138500Y-206000D02*
D03*
X90000Y-160500D02*
D03*
X107000Y-207000D02*
D03*
X14500Y-109500D02*
D03*
X-50500Y-94500D02*
D03*
X214000Y-63500D02*
D03*
X157000Y-277000D02*
D03*
X171000Y-227500D02*
D03*
X165500Y-187000D02*
D03*
X245000Y-118000D02*
D03*
X235209Y-230209D02*
D03*
X216000Y-304500D02*
D03*
X247500Y-304000D02*
D03*
X500Y-331000D02*
D03*
X-32500Y-305000D02*
D03*
X18500Y-293500D02*
D03*
X-9000Y-27000D02*
D03*
X-69500Y3000D02*
D03*
X65000Y-175000D02*
D03*
X63000Y-188000D02*
D03*
X118500Y-97500D02*
D03*
X124000Y-113000D02*
D03*
X148500Y-312000D02*
D03*
X91000Y-77500D02*
D03*
X101500Y-142500D02*
D03*
X153500Y-333500D02*
D03*
X147000Y-267500D02*
D03*
X-57000Y-340000D02*
D03*
X66000Y-360000D02*
D03*
M02*
