G04*
G04 #@! TF.GenerationSoftware,Altium Limited,Altium Designer,19.1.6 (110)*
G04*
G04 Layer_Color=8421504*
%FSLAX25Y25*%
%MOIN*%
G70*
G01*
G75*
%ADD18O,0.07874X0.01575*%
%ADD19R,0.07480X0.05906*%
%ADD20R,0.05906X0.07480*%
G04:AMPARAMS|DCode=21|XSize=59.06mil|YSize=74.8mil|CornerRadius=0mil|HoleSize=0mil|Usage=FLASHONLY|Rotation=45.000|XOffset=0mil|YOffset=0mil|HoleType=Round|Shape=Rectangle|*
%AMROTATEDRECTD21*
4,1,4,0.00557,-0.04733,-0.04733,0.00557,-0.00557,0.04733,0.04733,-0.00557,0.00557,-0.04733,0.0*
%
%ADD21ROTATEDRECTD21*%

G04:AMPARAMS|DCode=22|XSize=17.72mil|YSize=49.21mil|CornerRadius=1.95mil|HoleSize=0mil|Usage=FLASHONLY|Rotation=0.000|XOffset=0mil|YOffset=0mil|HoleType=Round|Shape=RoundedRectangle|*
%AMROUNDEDRECTD22*
21,1,0.01772,0.04532,0,0,0.0*
21,1,0.01382,0.04921,0,0,0.0*
1,1,0.00390,0.00691,-0.02266*
1,1,0.00390,-0.00691,-0.02266*
1,1,0.00390,-0.00691,0.02266*
1,1,0.00390,0.00691,0.02266*
%
%ADD22ROUNDEDRECTD22*%
%ADD23R,0.05906X0.06890*%
G04:AMPARAMS|DCode=24|XSize=25.59mil|YSize=47.24mil|CornerRadius=1.92mil|HoleSize=0mil|Usage=FLASHONLY|Rotation=180.000|XOffset=0mil|YOffset=0mil|HoleType=Round|Shape=RoundedRectangle|*
%AMROUNDEDRECTD24*
21,1,0.02559,0.04341,0,0,180.0*
21,1,0.02175,0.04724,0,0,180.0*
1,1,0.00384,-0.01088,0.02170*
1,1,0.00384,0.01088,0.02170*
1,1,0.00384,0.01088,-0.02170*
1,1,0.00384,-0.01088,-0.02170*
%
%ADD24ROUNDEDRECTD24*%
G04:AMPARAMS|DCode=25|XSize=25.59mil|YSize=82.68mil|CornerRadius=1.92mil|HoleSize=0mil|Usage=FLASHONLY|Rotation=90.000|XOffset=0mil|YOffset=0mil|HoleType=Round|Shape=RoundedRectangle|*
%AMROUNDEDRECTD25*
21,1,0.02559,0.07884,0,0,90.0*
21,1,0.02175,0.08268,0,0,90.0*
1,1,0.00384,0.03942,0.01088*
1,1,0.00384,0.03942,-0.01088*
1,1,0.00384,-0.03942,-0.01088*
1,1,0.00384,-0.03942,0.01088*
%
%ADD25ROUNDEDRECTD25*%
%ADD26R,0.07795X0.02087*%
%ADD27O,0.09449X0.01772*%
%ADD28O,0.07480X0.02362*%
%ADD29O,0.07874X0.01378*%
%ADD30R,0.04724X0.07087*%
%ADD31O,0.03150X0.00787*%
%ADD32O,0.00787X0.03150*%
%ADD33R,0.12205X0.12205*%
%ADD34R,0.07992X0.14961*%
%ADD35R,0.04724X0.06299*%
%ADD36R,0.15000X0.11000*%
%ADD37R,0.02756X0.11811*%
%ADD38R,0.13386X0.23779*%
D18*
X241130Y-165250D02*
D03*
Y-162750D02*
D03*
Y-160250D02*
D03*
Y-157750D02*
D03*
Y-155250D02*
D03*
Y-152750D02*
D03*
Y-150250D02*
D03*
Y-147750D02*
D03*
Y-145250D02*
D03*
Y-142750D02*
D03*
Y-140250D02*
D03*
Y-137750D02*
D03*
X219870Y-165250D02*
D03*
Y-162750D02*
D03*
Y-160250D02*
D03*
Y-157750D02*
D03*
Y-155250D02*
D03*
Y-152750D02*
D03*
Y-150250D02*
D03*
Y-147750D02*
D03*
Y-145250D02*
D03*
Y-142750D02*
D03*
Y-140250D02*
D03*
Y-137750D02*
D03*
D19*
X227500Y-295917D02*
D03*
Y-284500D02*
D03*
X236500Y-295917D02*
D03*
Y-284500D02*
D03*
X38000Y-117291D02*
D03*
Y-128709D02*
D03*
X25500Y-340000D02*
D03*
Y-351417D02*
D03*
X114000Y-114791D02*
D03*
Y-126209D02*
D03*
X254000Y-160083D02*
D03*
Y-171500D02*
D03*
X201000Y-163417D02*
D03*
Y-152000D02*
D03*
X-11500Y-46709D02*
D03*
Y-35291D02*
D03*
X135000Y-221291D02*
D03*
Y-232709D02*
D03*
X117299Y-151083D02*
D03*
Y-162500D02*
D03*
Y-208917D02*
D03*
Y-197500D02*
D03*
X128299D02*
D03*
Y-208917D02*
D03*
Y-162500D02*
D03*
Y-151083D02*
D03*
X220000Y-36417D02*
D03*
Y-25000D02*
D03*
X260000Y-36417D02*
D03*
Y-25000D02*
D03*
X210000Y-36417D02*
D03*
Y-25000D02*
D03*
X250000Y-36417D02*
D03*
Y-25000D02*
D03*
X-29000Y-26917D02*
D03*
Y-15500D02*
D03*
X-19500Y-26917D02*
D03*
Y-15500D02*
D03*
X200000Y-36417D02*
D03*
Y-25000D02*
D03*
X240000Y-36417D02*
D03*
Y-25000D02*
D03*
X-50500Y-117709D02*
D03*
Y-106291D02*
D03*
X230000Y-36417D02*
D03*
Y-25000D02*
D03*
X254000Y-128583D02*
D03*
Y-140000D02*
D03*
X28000Y-308000D02*
D03*
Y-296583D02*
D03*
X-47500Y-15500D02*
D03*
Y-26917D02*
D03*
X-35000Y-326000D02*
D03*
Y-314583D02*
D03*
X190500Y-163417D02*
D03*
Y-152000D02*
D03*
X37000Y-296583D02*
D03*
Y-308000D02*
D03*
X-38500Y-26917D02*
D03*
Y-15500D02*
D03*
X104500Y-114791D02*
D03*
X104500Y-126209D02*
D03*
X219000Y-295917D02*
D03*
Y-284500D02*
D03*
X245500Y-295917D02*
D03*
Y-284500D02*
D03*
X210000D02*
D03*
Y-295917D02*
D03*
X254500Y-284500D02*
D03*
Y-295917D02*
D03*
D20*
X223791Y-241000D02*
D03*
X235209D02*
D03*
X178083Y-292000D02*
D03*
X189500D02*
D03*
X178083Y-261500D02*
D03*
X189500D02*
D03*
X178083Y-210000D02*
D03*
X189500D02*
D03*
X178083Y-199500D02*
D03*
X189500D02*
D03*
X36000Y-316500D02*
D03*
X47417D02*
D03*
X45500Y-351500D02*
D03*
X34083D02*
D03*
X6709Y-294000D02*
D03*
X-4709D02*
D03*
X226083Y-126500D02*
D03*
X237500D02*
D03*
X55791Y-101500D02*
D03*
X67209D02*
D03*
X226583Y-185500D02*
D03*
X238000D02*
D03*
X83500Y-133500D02*
D03*
X94917D02*
D03*
X212209Y-52500D02*
D03*
X200791D02*
D03*
X-21083Y-100000D02*
D03*
X-32500D02*
D03*
X137716Y-176500D02*
D03*
X126299D02*
D03*
X117717D02*
D03*
X106299D02*
D03*
X137716Y-186500D02*
D03*
X126299D02*
D03*
X117717D02*
D03*
X106299D02*
D03*
X137716Y-342500D02*
D03*
X126299D02*
D03*
X117717Y-332500D02*
D03*
X106299D02*
D03*
X137716Y-312500D02*
D03*
X126299D02*
D03*
X117717D02*
D03*
X106299D02*
D03*
X137716Y-282500D02*
D03*
X126299D02*
D03*
X117717Y-292500D02*
D03*
X106299D02*
D03*
X117717Y-272500D02*
D03*
X106299D02*
D03*
X117717Y-302500D02*
D03*
X106299D02*
D03*
X117717Y-352500D02*
D03*
X106299D02*
D03*
X117717Y-282500D02*
D03*
X106299D02*
D03*
X117717Y-322500D02*
D03*
X106299D02*
D03*
X117717Y-342500D02*
D03*
X106299D02*
D03*
X167583Y-152000D02*
D03*
X179000D02*
D03*
X15209Y-355000D02*
D03*
X3791D02*
D03*
X94917Y-124500D02*
D03*
X83500D02*
D03*
X226500Y-176000D02*
D03*
X237917D02*
D03*
X94917Y-115500D02*
D03*
X83500D02*
D03*
X67209Y-92500D02*
D03*
X55791D02*
D03*
X238000Y-195500D02*
D03*
X226583D02*
D03*
X178083Y-272000D02*
D03*
X189500D02*
D03*
X178083Y-241500D02*
D03*
X189500Y-241500D02*
D03*
X178083Y-230000D02*
D03*
X189500D02*
D03*
X178083Y-181000D02*
D03*
X189500D02*
D03*
X-95000Y-63000D02*
D03*
X-83583Y-63000D02*
D03*
X-95000Y-72000D02*
D03*
X-83583D02*
D03*
X189500Y-282000D02*
D03*
X178083D02*
D03*
X189500Y-251500D02*
D03*
X178083Y-251500D02*
D03*
X189500Y-220000D02*
D03*
X178083D02*
D03*
X189500Y-190000D02*
D03*
X178083D02*
D03*
D21*
X180000Y-120500D02*
D03*
X171927Y-128573D02*
D03*
X194500Y-106500D02*
D03*
X202573Y-98427D02*
D03*
D22*
X125839Y-222831D02*
D03*
X123280D02*
D03*
X120721D02*
D03*
X118161D02*
D03*
X125839Y-239169D02*
D03*
X123280D02*
D03*
X120721D02*
D03*
X118161D02*
D03*
D23*
X220000Y0D02*
D03*
Y-14764D02*
D03*
X260000Y0D02*
D03*
Y-14764D02*
D03*
X210000Y0D02*
D03*
Y-14764D02*
D03*
X250000Y0D02*
D03*
Y-14764D02*
D03*
X-29000Y9882D02*
D03*
Y-4882D02*
D03*
X-19500Y9882D02*
D03*
Y-4882D02*
D03*
X200000Y0D02*
D03*
Y-14764D02*
D03*
X240000Y0D02*
D03*
Y-14764D02*
D03*
X230000Y0D02*
D03*
Y-14764D02*
D03*
X-38500Y9882D02*
D03*
Y-4882D02*
D03*
X-47500Y-4882D02*
D03*
Y9882D02*
D03*
D24*
X-1740Y-46307D02*
D03*
X2000D02*
D03*
X5740D02*
D03*
Y-34693D02*
D03*
X2000Y-34693D02*
D03*
X-1740Y-34693D02*
D03*
D25*
X146906Y-52500D02*
D03*
Y-57500D02*
D03*
Y-62500D02*
D03*
Y-67500D02*
D03*
Y-72500D02*
D03*
Y-77500D02*
D03*
Y-82500D02*
D03*
Y-87500D02*
D03*
X185094Y-52500D02*
D03*
Y-57500D02*
D03*
Y-62500D02*
D03*
Y-67500D02*
D03*
Y-72500D02*
D03*
Y-77500D02*
D03*
Y-82500D02*
D03*
Y-87500D02*
D03*
D26*
X-36205Y-109000D02*
D03*
Y-114000D02*
D03*
Y-119000D02*
D03*
Y-124000D02*
D03*
X-16795Y-109000D02*
D03*
Y-114000D02*
D03*
Y-119000D02*
D03*
Y-124000D02*
D03*
D27*
X14279Y-344016D02*
D03*
Y-341457D02*
D03*
Y-338898D02*
D03*
Y-336339D02*
D03*
Y-333780D02*
D03*
Y-331221D02*
D03*
Y-328661D02*
D03*
Y-326102D02*
D03*
Y-323543D02*
D03*
Y-320984D02*
D03*
X-13280Y-344016D02*
D03*
Y-341457D02*
D03*
Y-338898D02*
D03*
Y-336339D02*
D03*
Y-333780D02*
D03*
Y-331221D02*
D03*
Y-328661D02*
D03*
Y-326102D02*
D03*
Y-323543D02*
D03*
Y-320984D02*
D03*
D28*
X52248Y-110500D02*
D03*
Y-115500D02*
D03*
Y-120500D02*
D03*
Y-125500D02*
D03*
X70752Y-110500D02*
D03*
Y-115500D02*
D03*
Y-120500D02*
D03*
Y-125500D02*
D03*
D29*
X11917Y-309839D02*
D03*
Y-307279D02*
D03*
Y-304720D02*
D03*
Y-302161D02*
D03*
X-10917Y-309839D02*
D03*
Y-307279D02*
D03*
Y-304720D02*
D03*
Y-302161D02*
D03*
D30*
X45724Y-341374D02*
D03*
Y-325626D02*
D03*
X36276D02*
D03*
Y-341374D02*
D03*
D31*
X215539Y-253071D02*
D03*
Y-255039D02*
D03*
Y-257008D02*
D03*
Y-258976D02*
D03*
Y-260945D02*
D03*
Y-262913D02*
D03*
Y-264882D02*
D03*
Y-266850D02*
D03*
X235618D02*
D03*
Y-264882D02*
D03*
Y-262913D02*
D03*
Y-260945D02*
D03*
Y-258976D02*
D03*
Y-257008D02*
D03*
Y-255039D02*
D03*
Y-253071D02*
D03*
D32*
X218689Y-270000D02*
D03*
X220657D02*
D03*
X222626D02*
D03*
X224594D02*
D03*
X226563D02*
D03*
X228532D02*
D03*
X230500D02*
D03*
X232469D02*
D03*
Y-249921D02*
D03*
X230500D02*
D03*
X228532D02*
D03*
X226563D02*
D03*
X224594D02*
D03*
X222626D02*
D03*
X220657D02*
D03*
X218689D02*
D03*
D33*
X225579Y-259961D02*
D03*
D34*
X-115000Y-95000D02*
D03*
X-117500Y-197500D02*
D03*
X-115000Y-69000D02*
D03*
D35*
X-95000Y-81000D02*
D03*
Y-95173D02*
D03*
D36*
Y-121000D02*
D03*
Y-149098D02*
D03*
D37*
X-95189Y-48559D02*
D03*
X-90268Y-48559D02*
D03*
X-85386D02*
D03*
X-80465D02*
D03*
D38*
X-60583Y-23283D02*
D03*
X-115071Y-23283D02*
D03*
M02*
