G04*
G04 #@! TF.GenerationSoftware,Altium Limited,Altium Designer,19.1.6 (110)*
G04*
G04 Layer_Color=8388736*
%FSLAX25Y25*%
%MOIN*%
G70*
G01*
G75*
%ADD39O,0.08674X0.02375*%
%ADD40R,0.08280X0.06706*%
%ADD41R,0.06706X0.08280*%
G04:AMPARAMS|DCode=42|XSize=67.06mil|YSize=82.8mil|CornerRadius=0mil|HoleSize=0mil|Usage=FLASHONLY|Rotation=45.000|XOffset=0mil|YOffset=0mil|HoleType=Round|Shape=Rectangle|*
%AMROTATEDRECTD42*
4,1,4,0.00557,-0.05298,-0.05298,0.00557,-0.00557,0.05298,0.05298,-0.00557,0.00557,-0.05298,0.0*
%
%ADD42ROTATEDRECTD42*%

G04:AMPARAMS|DCode=43|XSize=25.72mil|YSize=57.21mil|CornerRadius=5.95mil|HoleSize=0mil|Usage=FLASHONLY|Rotation=0.000|XOffset=0mil|YOffset=0mil|HoleType=Round|Shape=RoundedRectangle|*
%AMROUNDEDRECTD43*
21,1,0.02572,0.04532,0,0,0.0*
21,1,0.01382,0.05721,0,0,0.0*
1,1,0.01190,0.00691,-0.02266*
1,1,0.01190,-0.00691,-0.02266*
1,1,0.01190,-0.00691,0.02266*
1,1,0.01190,0.00691,0.02266*
%
%ADD43ROUNDEDRECTD43*%
%ADD44R,0.06706X0.07690*%
G04:AMPARAMS|DCode=45|XSize=33.59mil|YSize=55.24mil|CornerRadius=5.92mil|HoleSize=0mil|Usage=FLASHONLY|Rotation=180.000|XOffset=0mil|YOffset=0mil|HoleType=Round|Shape=RoundedRectangle|*
%AMROUNDEDRECTD45*
21,1,0.03359,0.04341,0,0,180.0*
21,1,0.02175,0.05524,0,0,180.0*
1,1,0.01184,-0.01088,0.02170*
1,1,0.01184,0.01088,0.02170*
1,1,0.01184,0.01088,-0.02170*
1,1,0.01184,-0.01088,-0.02170*
%
%ADD45ROUNDEDRECTD45*%
G04:AMPARAMS|DCode=46|XSize=33.59mil|YSize=90.68mil|CornerRadius=5.92mil|HoleSize=0mil|Usage=FLASHONLY|Rotation=90.000|XOffset=0mil|YOffset=0mil|HoleType=Round|Shape=RoundedRectangle|*
%AMROUNDEDRECTD46*
21,1,0.03359,0.07884,0,0,90.0*
21,1,0.02175,0.09068,0,0,90.0*
1,1,0.01184,0.03942,0.01088*
1,1,0.01184,0.03942,-0.01088*
1,1,0.01184,-0.03942,-0.01088*
1,1,0.01184,-0.03942,0.01088*
%
%ADD46ROUNDEDRECTD46*%
%ADD47R,0.08595X0.02887*%
%ADD48O,0.10249X0.02572*%
%ADD49O,0.08280X0.03162*%
%ADD50O,0.08674X0.02178*%
%ADD51R,0.05524X0.07887*%
%ADD52O,0.03950X0.01587*%
%ADD53O,0.01587X0.03950*%
%ADD54R,0.13005X0.13005*%
%ADD55R,0.08792X0.15761*%
%ADD56R,0.05524X0.07099*%
%ADD57R,0.15800X0.11800*%
%ADD58R,0.03556X0.12611*%
%ADD59R,0.14186X0.24580*%
%ADD60C,0.06706*%
%ADD61R,0.06706X0.06706*%
%ADD62R,0.04343X0.04343*%
%ADD63C,0.04343*%
%ADD64R,0.04343X0.04343*%
%ADD65P,0.07813X4X90.0*%
%ADD66C,0.05524*%
%ADD67R,0.06706X0.06706*%
%ADD68C,0.03162*%
%ADD69C,0.03200*%
D39*
X241130Y-165250D02*
D03*
Y-162750D02*
D03*
Y-160250D02*
D03*
Y-157750D02*
D03*
Y-155250D02*
D03*
Y-152750D02*
D03*
Y-150250D02*
D03*
Y-147750D02*
D03*
Y-145250D02*
D03*
Y-142750D02*
D03*
Y-140250D02*
D03*
Y-137750D02*
D03*
X219870Y-165250D02*
D03*
Y-162750D02*
D03*
Y-160250D02*
D03*
Y-157750D02*
D03*
Y-155250D02*
D03*
Y-152750D02*
D03*
Y-150250D02*
D03*
Y-147750D02*
D03*
Y-145250D02*
D03*
Y-142750D02*
D03*
Y-140250D02*
D03*
Y-137750D02*
D03*
D40*
X227500Y-295917D02*
D03*
Y-284500D02*
D03*
X236500Y-295917D02*
D03*
Y-284500D02*
D03*
X38000Y-117291D02*
D03*
Y-128709D02*
D03*
X25500Y-340000D02*
D03*
Y-351417D02*
D03*
X114000Y-114791D02*
D03*
Y-126209D02*
D03*
X254000Y-160083D02*
D03*
Y-171500D02*
D03*
X201000Y-163417D02*
D03*
Y-152000D02*
D03*
X-11500Y-46709D02*
D03*
Y-35291D02*
D03*
X135000Y-221291D02*
D03*
Y-232709D02*
D03*
X117299Y-151083D02*
D03*
Y-162500D02*
D03*
Y-208917D02*
D03*
Y-197500D02*
D03*
X128299D02*
D03*
Y-208917D02*
D03*
Y-162500D02*
D03*
Y-151083D02*
D03*
X220000Y-36417D02*
D03*
Y-25000D02*
D03*
X260000Y-36417D02*
D03*
Y-25000D02*
D03*
X210000Y-36417D02*
D03*
Y-25000D02*
D03*
X250000Y-36417D02*
D03*
Y-25000D02*
D03*
X-29000Y-26917D02*
D03*
Y-15500D02*
D03*
X-19500Y-26917D02*
D03*
Y-15500D02*
D03*
X200000Y-36417D02*
D03*
Y-25000D02*
D03*
X240000Y-36417D02*
D03*
Y-25000D02*
D03*
X-50500Y-117709D02*
D03*
Y-106291D02*
D03*
X230000Y-36417D02*
D03*
Y-25000D02*
D03*
X254000Y-128583D02*
D03*
Y-140000D02*
D03*
X28000Y-308000D02*
D03*
Y-296583D02*
D03*
X-47500Y-15500D02*
D03*
Y-26917D02*
D03*
X-35000Y-326000D02*
D03*
Y-314583D02*
D03*
X190500Y-163417D02*
D03*
Y-152000D02*
D03*
X37000Y-296583D02*
D03*
Y-308000D02*
D03*
X-38500Y-26917D02*
D03*
Y-15500D02*
D03*
X104500Y-114791D02*
D03*
X104500Y-126209D02*
D03*
X219000Y-295917D02*
D03*
Y-284500D02*
D03*
X245500Y-295917D02*
D03*
Y-284500D02*
D03*
X210000D02*
D03*
Y-295917D02*
D03*
X254500Y-284500D02*
D03*
Y-295917D02*
D03*
D41*
X223791Y-241000D02*
D03*
X235209D02*
D03*
X178083Y-292000D02*
D03*
X189500D02*
D03*
X178083Y-261500D02*
D03*
X189500D02*
D03*
X178083Y-210000D02*
D03*
X189500D02*
D03*
X178083Y-199500D02*
D03*
X189500D02*
D03*
X36000Y-316500D02*
D03*
X47417D02*
D03*
X45500Y-351500D02*
D03*
X34083D02*
D03*
X6709Y-294000D02*
D03*
X-4709D02*
D03*
X226083Y-126500D02*
D03*
X237500D02*
D03*
X55791Y-101500D02*
D03*
X67209D02*
D03*
X226583Y-185500D02*
D03*
X238000D02*
D03*
X83500Y-133500D02*
D03*
X94917D02*
D03*
X212209Y-52500D02*
D03*
X200791D02*
D03*
X-21083Y-100000D02*
D03*
X-32500D02*
D03*
X137716Y-176500D02*
D03*
X126299D02*
D03*
X117717D02*
D03*
X106299D02*
D03*
X137716Y-186500D02*
D03*
X126299D02*
D03*
X117717D02*
D03*
X106299D02*
D03*
X137716Y-342500D02*
D03*
X126299D02*
D03*
X117717Y-332500D02*
D03*
X106299D02*
D03*
X137716Y-312500D02*
D03*
X126299D02*
D03*
X117717D02*
D03*
X106299D02*
D03*
X137716Y-282500D02*
D03*
X126299D02*
D03*
X117717Y-292500D02*
D03*
X106299D02*
D03*
X117717Y-272500D02*
D03*
X106299D02*
D03*
X117717Y-302500D02*
D03*
X106299D02*
D03*
X117717Y-352500D02*
D03*
X106299D02*
D03*
X117717Y-282500D02*
D03*
X106299D02*
D03*
X117717Y-322500D02*
D03*
X106299D02*
D03*
X117717Y-342500D02*
D03*
X106299D02*
D03*
X167583Y-152000D02*
D03*
X179000D02*
D03*
X15209Y-355000D02*
D03*
X3791D02*
D03*
X94917Y-124500D02*
D03*
X83500D02*
D03*
X226500Y-176000D02*
D03*
X237917D02*
D03*
X94917Y-115500D02*
D03*
X83500D02*
D03*
X67209Y-92500D02*
D03*
X55791D02*
D03*
X238000Y-195500D02*
D03*
X226583D02*
D03*
X178083Y-272000D02*
D03*
X189500D02*
D03*
X178083Y-241500D02*
D03*
X189500Y-241500D02*
D03*
X178083Y-230000D02*
D03*
X189500D02*
D03*
X178083Y-181000D02*
D03*
X189500D02*
D03*
X-95000Y-63000D02*
D03*
X-83583Y-63000D02*
D03*
X-95000Y-72000D02*
D03*
X-83583D02*
D03*
X189500Y-282000D02*
D03*
X178083D02*
D03*
X189500Y-251500D02*
D03*
X178083Y-251500D02*
D03*
X189500Y-220000D02*
D03*
X178083D02*
D03*
X189500Y-190000D02*
D03*
X178083D02*
D03*
D42*
X180000Y-120500D02*
D03*
X171927Y-128573D02*
D03*
X194500Y-106500D02*
D03*
X202573Y-98427D02*
D03*
D43*
X125839Y-222831D02*
D03*
X123280D02*
D03*
X120721D02*
D03*
X118161D02*
D03*
X125839Y-239169D02*
D03*
X123280D02*
D03*
X120721D02*
D03*
X118161D02*
D03*
D44*
X220000Y0D02*
D03*
Y-14764D02*
D03*
X260000Y0D02*
D03*
Y-14764D02*
D03*
X210000Y0D02*
D03*
Y-14764D02*
D03*
X250000Y0D02*
D03*
Y-14764D02*
D03*
X-29000Y9882D02*
D03*
Y-4882D02*
D03*
X-19500Y9882D02*
D03*
Y-4882D02*
D03*
X200000Y0D02*
D03*
Y-14764D02*
D03*
X240000Y0D02*
D03*
Y-14764D02*
D03*
X230000Y0D02*
D03*
Y-14764D02*
D03*
X-38500Y9882D02*
D03*
Y-4882D02*
D03*
X-47500Y-4882D02*
D03*
Y9882D02*
D03*
D45*
X-1740Y-46307D02*
D03*
X2000D02*
D03*
X5740D02*
D03*
Y-34693D02*
D03*
X2000Y-34693D02*
D03*
X-1740Y-34693D02*
D03*
D46*
X146906Y-52500D02*
D03*
Y-57500D02*
D03*
Y-62500D02*
D03*
Y-67500D02*
D03*
Y-72500D02*
D03*
Y-77500D02*
D03*
Y-82500D02*
D03*
Y-87500D02*
D03*
X185094Y-52500D02*
D03*
Y-57500D02*
D03*
Y-62500D02*
D03*
Y-67500D02*
D03*
Y-72500D02*
D03*
Y-77500D02*
D03*
Y-82500D02*
D03*
Y-87500D02*
D03*
D47*
X-36205Y-109000D02*
D03*
Y-114000D02*
D03*
Y-119000D02*
D03*
Y-124000D02*
D03*
X-16795Y-109000D02*
D03*
Y-114000D02*
D03*
Y-119000D02*
D03*
Y-124000D02*
D03*
D48*
X14279Y-344016D02*
D03*
Y-341457D02*
D03*
Y-338898D02*
D03*
Y-336339D02*
D03*
Y-333780D02*
D03*
Y-331221D02*
D03*
Y-328661D02*
D03*
Y-326102D02*
D03*
Y-323543D02*
D03*
Y-320984D02*
D03*
X-13280Y-344016D02*
D03*
Y-341457D02*
D03*
Y-338898D02*
D03*
Y-336339D02*
D03*
Y-333780D02*
D03*
Y-331221D02*
D03*
Y-328661D02*
D03*
Y-326102D02*
D03*
Y-323543D02*
D03*
Y-320984D02*
D03*
D49*
X52248Y-110500D02*
D03*
Y-115500D02*
D03*
Y-120500D02*
D03*
Y-125500D02*
D03*
X70752Y-110500D02*
D03*
Y-115500D02*
D03*
Y-120500D02*
D03*
Y-125500D02*
D03*
D50*
X11917Y-309839D02*
D03*
Y-307279D02*
D03*
Y-304720D02*
D03*
Y-302161D02*
D03*
X-10917Y-309839D02*
D03*
Y-307279D02*
D03*
Y-304720D02*
D03*
Y-302161D02*
D03*
D51*
X45724Y-341374D02*
D03*
Y-325626D02*
D03*
X36276D02*
D03*
Y-341374D02*
D03*
D52*
X215539Y-253071D02*
D03*
Y-255039D02*
D03*
Y-257008D02*
D03*
Y-258976D02*
D03*
Y-260945D02*
D03*
Y-262913D02*
D03*
Y-264882D02*
D03*
Y-266850D02*
D03*
X235618D02*
D03*
Y-264882D02*
D03*
Y-262913D02*
D03*
Y-260945D02*
D03*
Y-258976D02*
D03*
Y-257008D02*
D03*
Y-255039D02*
D03*
Y-253071D02*
D03*
D53*
X218689Y-270000D02*
D03*
X220657D02*
D03*
X222626D02*
D03*
X224594D02*
D03*
X226563D02*
D03*
X228532D02*
D03*
X230500D02*
D03*
X232469D02*
D03*
Y-249921D02*
D03*
X230500D02*
D03*
X228532D02*
D03*
X226563D02*
D03*
X224594D02*
D03*
X222626D02*
D03*
X220657D02*
D03*
X218689D02*
D03*
D54*
X225579Y-259961D02*
D03*
D55*
X-115000Y-95000D02*
D03*
X-117500Y-197500D02*
D03*
X-115000Y-69000D02*
D03*
D56*
X-95000Y-81000D02*
D03*
Y-95173D02*
D03*
D57*
Y-121000D02*
D03*
Y-149098D02*
D03*
D58*
X-95189Y-48559D02*
D03*
X-90268Y-48559D02*
D03*
X-85386D02*
D03*
X-80465D02*
D03*
D59*
X-60583Y-23283D02*
D03*
X-115071Y-23283D02*
D03*
D60*
X91299Y-196500D02*
D03*
Y-266500D02*
D03*
Y-256500D02*
D03*
Y-246500D02*
D03*
Y-236500D02*
D03*
Y-226500D02*
D03*
Y-216500D02*
D03*
Y-206500D02*
D03*
Y-186500D02*
D03*
Y-292500D02*
D03*
Y-302500D02*
D03*
Y-312500D02*
D03*
Y-322500D02*
D03*
Y-332500D02*
D03*
Y-342500D02*
D03*
Y-352500D02*
D03*
X-98701Y-222500D02*
D03*
Y-232500D02*
D03*
Y-242500D02*
D03*
Y-252500D02*
D03*
Y-262500D02*
D03*
Y-272500D02*
D03*
Y-282500D02*
D03*
Y-312500D02*
D03*
Y-322500D02*
D03*
Y-332500D02*
D03*
Y-342500D02*
D03*
Y-352500D02*
D03*
X265000Y-97500D02*
D03*
Y-87500D02*
D03*
Y-77500D02*
D03*
Y-67500D02*
D03*
X150000Y-0D02*
D03*
X140000Y10000D02*
D03*
Y-0D02*
D03*
X130000Y10000D02*
D03*
Y-0D02*
D03*
X120000Y10000D02*
D03*
Y0D02*
D03*
X110000Y10000D02*
D03*
Y-0D02*
D03*
X100000Y10000D02*
D03*
Y-0D02*
D03*
X90000Y10000D02*
D03*
Y0D02*
D03*
X80000Y10000D02*
D03*
X80000Y-0D02*
D03*
X70000Y10000D02*
D03*
Y-0D02*
D03*
X60000Y10000D02*
D03*
Y-0D02*
D03*
X50000Y10000D02*
D03*
Y-0D02*
D03*
X40000Y10000D02*
D03*
X40000Y0D02*
D03*
X30000Y10000D02*
D03*
X30000Y0D02*
D03*
X20000Y10000D02*
D03*
Y-0D02*
D03*
X10000Y10000D02*
D03*
Y-0D02*
D03*
X0Y10000D02*
D03*
Y0D02*
D03*
D61*
X91299Y-176500D02*
D03*
Y-282500D02*
D03*
X-98701Y-212500D02*
D03*
Y-302500D02*
D03*
X265000Y-57500D02*
D03*
D62*
X245000Y-352500D02*
D03*
D63*
X237126D02*
D03*
X229252D02*
D03*
X221378D02*
D03*
X213504D02*
D03*
X205630D02*
D03*
X197756D02*
D03*
X189882D02*
D03*
X182008D02*
D03*
X245000Y-344626D02*
D03*
X237126D02*
D03*
X229252D02*
D03*
X221378D02*
D03*
X213504D02*
D03*
X205630D02*
D03*
X197756D02*
D03*
X189882D02*
D03*
X182008D02*
D03*
X32205Y-211701D02*
D03*
Y-219575D02*
D03*
Y-227449D02*
D03*
Y-235323D02*
D03*
Y-243197D02*
D03*
Y-251071D02*
D03*
Y-258945D02*
D03*
Y-266819D02*
D03*
X24331Y-203827D02*
D03*
Y-211701D02*
D03*
Y-219575D02*
D03*
Y-227449D02*
D03*
Y-235323D02*
D03*
Y-243197D02*
D03*
Y-251071D02*
D03*
Y-258945D02*
D03*
Y-266819D02*
D03*
D64*
X32205Y-203827D02*
D03*
D65*
X205585Y-118415D02*
D03*
D66*
X198793Y-125207D02*
D03*
X192000Y-132000D02*
D03*
D67*
X150000Y10000D02*
D03*
D68*
X-98654Y-21000D02*
D03*
X-77000D02*
D03*
D69*
X221248Y-255630D02*
D03*
X225579D02*
D03*
X229909D02*
D03*
X221248Y-259961D02*
D03*
X225579D02*
D03*
X229909D02*
D03*
X221248Y-264291D02*
D03*
X225579D02*
D03*
X229909D02*
D03*
M02*
