G04*
G04 #@! TF.GenerationSoftware,Altium Limited,Altium Designer,19.1.6 (110)*
G04*
G04 Layer_Color=65535*
%FSLAX25Y25*%
%MOIN*%
G70*
G01*
G75*
%ADD10C,0.02362*%
%ADD11C,0.00984*%
%ADD12C,0.01575*%
%ADD13C,0.00787*%
%ADD14C,0.00700*%
%ADD15C,0.01000*%
%ADD16C,0.01200*%
%ADD17C,0.00800*%
D10*
X230303Y-138114D02*
G03*
X230303Y-138114I-1181J0D01*
G01*
X157732Y-53268D02*
G03*
X157732Y-53268I-1181J0D01*
G01*
X-1862Y-321673D02*
G03*
X-1862Y-321673I-1181J0D01*
G01*
X-287Y-303835D02*
G03*
X-287Y-303835I-1181J0D01*
G01*
D11*
X220362Y-134797D02*
G03*
X220362Y-134797I-492J0D01*
G01*
X129382Y-222831D02*
G03*
X129382Y-222831I-492J0D01*
G01*
X-4693Y-46307D02*
G03*
X-4693Y-46307I-492J0D01*
G01*
X147398Y-49055D02*
G03*
X147398Y-49055I-492J0D01*
G01*
X-35713Y-105791D02*
G03*
X-35713Y-105791I-492J0D01*
G01*
X-12787Y-317933D02*
G03*
X-12787Y-317933I-492J0D01*
G01*
X71244Y-128847D02*
G03*
X71244Y-128847I-492J0D01*
G01*
X-10425Y-299307D02*
G03*
X-10425Y-299307I-492J0D01*
G01*
X46216Y-347083D02*
G03*
X46216Y-347083I-492J0D01*
G01*
X213079Y-250118D02*
G03*
X213079Y-250118I-492J0D01*
G01*
X-94508Y-156764D02*
G03*
X-94508Y-156764I-492J0D01*
G01*
X-94453Y-56630D02*
G03*
X-94453Y-56630I-492J0D01*
G01*
X252246Y-59728D02*
Y-52841D01*
X254542Y-55137D01*
X256838Y-52841D01*
Y-59728D01*
X252246Y-64616D02*
X253394Y-63468D01*
X255690D01*
X256838Y-64616D01*
Y-65764D01*
X255690Y-66912D01*
X254542D01*
X255690D01*
X256838Y-68060D01*
Y-69208D01*
X255690Y-70355D01*
X253394D01*
X252246Y-69208D01*
Y-75243D02*
X253394Y-74095D01*
X255690D01*
X256838Y-75243D01*
Y-79835D01*
X255690Y-80983D01*
X253394D01*
X252246Y-79835D01*
Y-75243D01*
Y-84722D02*
Y-91610D01*
X255690D01*
X256838Y-90462D01*
Y-85870D01*
X255690Y-84722D01*
X252246D01*
X256838Y-96497D02*
X255690Y-95350D01*
X253394D01*
X252246Y-96497D01*
Y-101089D01*
X253394Y-102237D01*
X255690D01*
X256838Y-101089D01*
D12*
X126787Y-229500D02*
G03*
X126787Y-229500I-787J0D01*
G01*
X-26795Y-109807D02*
G03*
X-26795Y-109807I-787J0D01*
G01*
X63075Y-124693D02*
G03*
X63075Y-124693I-787J0D01*
G01*
X217047Y-20177D02*
X222953D01*
X257047Y-20177D02*
X262953D01*
X207047Y-20177D02*
X212953D01*
X247047Y-20177D02*
X252953D01*
X-31953Y-10295D02*
X-26047D01*
X-22453D02*
X-16547D01*
X197047Y-20177D02*
X202953D01*
X237047D02*
X242953D01*
X227047D02*
X232953D01*
X-41453Y-10295D02*
X-35547D01*
X-50453Y15295D02*
X-44547D01*
X201425Y6554D02*
X196177D01*
Y7866D01*
X201425Y13113D01*
Y14425D01*
X207178Y6054D02*
X209801Y7366D01*
X212425Y9990D01*
Y12613D01*
X211113Y13925D01*
X208489D01*
X207178Y12613D01*
Y11301D01*
X208489Y9990D01*
X212425D01*
X217178Y6554D02*
X222425D01*
Y10490D01*
X219801Y9178D01*
X218490D01*
X217178Y10490D01*
Y13113D01*
X218490Y14425D01*
X221113D01*
X222425Y13113D01*
X228489Y14425D02*
Y6554D01*
X232425Y10490D01*
X227178D01*
X262925Y6398D02*
Y12957D01*
X261613Y14269D01*
X258990D01*
X257678Y12957D01*
Y6398D01*
X242425Y6554D02*
X237178D01*
X239801D01*
Y14425D01*
X252425Y7054D02*
Y12301D01*
X249801Y14925D01*
X247178Y12301D01*
Y7054D01*
D13*
X219254Y-118665D02*
G03*
X219254Y-114072I-2297J2297D01*
G01*
X209928Y-104746D02*
G03*
X205335Y-104746I-2297J-2297D01*
G01*
X178331Y-131749D02*
G03*
X178331Y-136343I2297J-2297D01*
G01*
X187657Y-145669D02*
G03*
X192251Y-145669I2297J2297D01*
G01*
X225185Y-168823D02*
X235815D01*
X225185Y-134177D02*
X235815D01*
Y-168823D02*
Y-134177D01*
X225185Y-168823D02*
Y-134177D01*
X178268Y-356437D02*
X248740D01*
X178268Y-340689D02*
X248740D01*
X178268Y-356437D02*
Y-340689D01*
X248740Y-356437D02*
Y-340689D01*
X36142Y-270559D02*
Y-200087D01*
X20394Y-270559D02*
Y-200087D01*
Y-270559D02*
X36142D01*
X20394Y-200087D02*
X36142D01*
X115701Y-226866D02*
X128299D01*
X115701Y-235134D02*
X128299D01*
Y-226866D01*
X115701Y-235134D02*
Y-226866D01*
X216850Y-9744D02*
Y-5020D01*
X223150Y-9744D02*
Y-5020D01*
X256850Y-9744D02*
Y-5020D01*
X263150Y-9744D02*
Y-5020D01*
X206850Y-9744D02*
Y-5020D01*
X213150Y-9744D02*
Y-5020D01*
X246850Y-9744D02*
Y-5020D01*
X253150Y-9744D02*
Y-5020D01*
X-32150Y138D02*
Y4862D01*
X-25850Y138D02*
Y4862D01*
X-4102Y-42469D02*
Y-38532D01*
X8102Y-42469D02*
Y-38532D01*
X-4102Y-42469D02*
X8102D01*
X-4102Y-38532D02*
X8102D01*
X152614Y-90669D02*
Y-49331D01*
X179386Y-90669D02*
Y-49331D01*
X152614D02*
X179386D01*
X152614Y-90669D02*
X179386D01*
X-22650Y138D02*
Y4862D01*
X-16350Y138D02*
Y4862D01*
X-30732Y-126342D02*
Y-106658D01*
X-22268Y-126342D02*
Y-106658D01*
X-30732D02*
X-22268D01*
X-30732Y-126342D02*
X-22268D01*
X196850Y-9744D02*
Y-5020D01*
X203150Y-9744D02*
Y-5020D01*
X236850Y-9744D02*
Y-5020D01*
X243150Y-9744D02*
Y-5020D01*
X226850Y-9744D02*
Y-5020D01*
X233150Y-9744D02*
Y-5020D01*
X260000Y-52500D02*
X270000D01*
Y-102500D02*
Y-52500D01*
X260000Y-102500D02*
Y-52500D01*
Y-102500D02*
X270000D01*
X-6980Y-347264D02*
X7980D01*
X-6980Y-317736D02*
X7980D01*
Y-347264D02*
Y-317736D01*
X-6980Y-347264D02*
Y-317736D01*
X-41650Y138D02*
Y4862D01*
X-35350Y138D02*
Y4862D01*
X57563Y-108158D02*
X65437D01*
X57563Y-127842D02*
X65437D01*
X57563D02*
Y-108158D01*
X65437Y-127842D02*
Y-108158D01*
X-44350Y138D02*
Y4862D01*
X-50650Y138D02*
Y4862D01*
X-5406Y-312102D02*
X6406D01*
X-5406Y-299898D02*
X6406D01*
Y-312102D02*
Y-299898D01*
X-5406Y-312102D02*
Y-299898D01*
X40213Y-343342D02*
X41787D01*
X40213Y-323657D02*
X41787D01*
X209928Y-104746D02*
X219254Y-114072D01*
X192251Y-145669D02*
X219254Y-118665D01*
X178331Y-131749D02*
X205335Y-104746D01*
X178331Y-136343D02*
X187657Y-145669D01*
X215146Y-251102D02*
Y-249528D01*
X216721D01*
X234437D02*
X236012D01*
Y-251102D02*
Y-249528D01*
Y-270394D02*
Y-268819D01*
X234437Y-270394D02*
X236012D01*
X215146D02*
Y-268819D01*
Y-270394D02*
X216721D01*
X155000Y15000D02*
X155000Y20000D01*
X-5000Y20000D02*
X155000Y20000D01*
X-5000Y20000D02*
X-5000Y15000D01*
X152500D02*
X155000Y17500D01*
X151667Y20000D02*
Y33333D01*
X150000Y35000D02*
X151667Y33333D01*
X148333D02*
X150000Y35000D01*
X148333Y20000D02*
Y33333D01*
X141667Y20000D02*
Y33333D01*
X140000Y35000D02*
X141667Y33333D01*
X138333D02*
X140000Y35000D01*
X138333Y33333D02*
X138333Y20000D01*
X131667D02*
X131667Y33333D01*
X130000Y35000D02*
X131667Y33333D01*
X128333D02*
X130000Y35000D01*
X128333Y20000D02*
X128333Y33333D01*
X121667Y20000D02*
Y33333D01*
X120000Y35000D02*
X121667Y33333D01*
X118333D02*
X120000Y35000D01*
X118333Y20000D02*
Y33333D01*
X111667Y20000D02*
Y33333D01*
X110000Y35000D02*
X111667Y33333D01*
X108333Y33333D02*
X110000Y35000D01*
X108333Y20000D02*
Y33333D01*
X101667Y20000D02*
Y33333D01*
X100000Y35000D02*
X101667Y33333D01*
X98333D02*
X100000Y35000D01*
X98333Y20000D02*
Y33333D01*
X91667D02*
X91667Y20000D01*
X90000Y35000D02*
X91667Y33333D01*
X88333D02*
X90000Y35000D01*
X88333Y20000D02*
Y33333D01*
X81667Y20000D02*
X81667Y33333D01*
X80000Y35000D02*
X81667Y33333D01*
X78333D02*
X80000Y35000D01*
X78333Y20000D02*
Y33333D01*
X71667Y20000D02*
Y33333D01*
X70000Y35000D02*
X71667Y33333D01*
X68333Y33333D02*
X70000Y35000D01*
X68333Y20000D02*
Y33333D01*
X61667Y20000D02*
Y33333D01*
X60000Y35000D02*
X61667Y33333D01*
X58333D02*
X60000Y35000D01*
X58333Y20000D02*
Y33333D01*
X51667Y20000D02*
Y33333D01*
X50000Y35000D02*
X51667Y33333D01*
X48333D02*
X50000Y35000D01*
X48333Y20000D02*
Y33333D01*
X41667Y20000D02*
X41667Y33333D01*
X40000Y35000D02*
X41667Y33333D01*
X38333D02*
X40000Y35000D01*
X38333Y20000D02*
X38333Y33333D01*
X31667Y20000D02*
Y33333D01*
X30000Y35000D02*
X31667Y33333D01*
X28333D02*
X30000Y35000D01*
X28333Y20000D02*
Y33333D01*
X21667Y20000D02*
Y33333D01*
X20000Y35000D02*
X21667Y33333D01*
X18333Y33333D02*
X20000Y35000D01*
X18333Y20000D02*
Y33333D01*
X11667Y20000D02*
Y33333D01*
X10000Y35000D02*
X11667Y33333D01*
X8333D02*
X10000Y35000D01*
X8333Y20000D02*
Y33333D01*
X1667Y20000D02*
Y33333D01*
X0Y35000D02*
X1667Y33333D01*
X-1667D02*
X0Y35000D01*
X-1667Y20000D02*
X-1667Y33333D01*
X-5000Y15000D02*
X155000Y15000D01*
X-106496Y-148553D02*
Y-121545D01*
X-104075D01*
X-106496Y-148553D02*
X-104075D01*
X-83504D02*
Y-121545D01*
X-85925Y-148553D02*
X-83504D01*
X-85925Y-121545D02*
X-83504D01*
X-111724Y14433D02*
X-63929Y14433D01*
X-111724Y-48559D02*
X-98142D01*
X-111724D02*
Y-36748D01*
Y-9819D02*
Y14433D01*
X-63929Y-9819D02*
Y14433D01*
Y-48559D02*
Y-36748D01*
X-77512Y-48559D02*
X-63929Y-48559D01*
X211500Y-332564D02*
Y-335188D01*
X212812Y-336500D01*
X214124Y-335188D01*
Y-332564D01*
X215436D02*
Y-336500D01*
Y-334532D01*
X218059D01*
Y-332564D01*
Y-336500D01*
X221995Y-332564D02*
X219372D01*
Y-334532D01*
X220683D01*
X219372D01*
Y-336500D01*
X225931Y-333220D02*
X225275Y-332564D01*
X223963D01*
X223307Y-333220D01*
Y-335844D01*
X223963Y-336500D01*
X225275D01*
X225931Y-335844D01*
X42936Y-201500D02*
X39656D01*
X39000Y-202156D01*
Y-203468D01*
X39656Y-204124D01*
X42936D01*
Y-205436D02*
X39000D01*
X40968D01*
Y-208060D01*
X42936D01*
X39000D01*
X42936Y-211995D02*
Y-209371D01*
X40968D01*
Y-210683D01*
Y-209371D01*
X39000D01*
X42280Y-215931D02*
X42936Y-215275D01*
Y-213963D01*
X42280Y-213307D01*
X39656D01*
X39000Y-213963D01*
Y-215275D01*
X39656Y-215931D01*
X212000Y-132064D02*
Y-135344D01*
X212656Y-136000D01*
X213968D01*
X214624Y-135344D01*
Y-132064D01*
X218560D02*
X215936D01*
Y-134032D01*
X217248Y-133376D01*
X217904D01*
X218560Y-134032D01*
Y-135344D01*
X217904Y-136000D01*
X216592D01*
X215936Y-135344D01*
X218283Y-101717D02*
X217819Y-102181D01*
Y-104036D01*
X219674D01*
X220138Y-103572D01*
X217819Y-104036D02*
X216428Y-105428D01*
X220138Y-109138D02*
X218283Y-107283D01*
X221994D01*
X222458Y-106819D01*
X222458Y-105892D01*
X221530Y-104964D01*
X220602D01*
X53936Y-337000D02*
X53280D01*
X51968Y-338312D01*
X53280Y-339624D01*
X53936D01*
X51968Y-338312D02*
X50000D01*
Y-340936D02*
Y-342248D01*
Y-341592D01*
X53936D01*
X53280Y-340936D01*
X22436Y-6500D02*
X19812D01*
X18500Y-7812D01*
X19812Y-9124D01*
X22436D01*
Y-10436D02*
X18500D01*
X20468D01*
Y-13060D01*
X22436D01*
X18500D01*
X22436Y-16995D02*
Y-14371D01*
X20468D01*
Y-15683D01*
Y-14371D01*
X18500D01*
X-104064Y-60500D02*
X-106688D01*
X-108000Y-61812D01*
X-106688Y-63124D01*
X-104064D01*
Y-64436D02*
X-108000D01*
Y-66404D01*
X-107344Y-67060D01*
X-106688D01*
X-106032D01*
X-105376Y-66404D01*
Y-64436D01*
Y-68371D02*
X-107344D01*
X-108000Y-69027D01*
Y-70995D01*
X-105376D01*
X-108000Y-72307D02*
Y-74275D01*
X-107344Y-74931D01*
X-106688Y-74275D01*
Y-72963D01*
X-106032Y-72307D01*
X-105376Y-72963D01*
Y-74931D01*
X-114064Y-105500D02*
X-116688D01*
X-118000Y-106812D01*
X-116688Y-108124D01*
X-114064D01*
Y-109436D02*
X-118000D01*
Y-111404D01*
X-117344Y-112060D01*
X-116688D01*
X-116032D01*
X-115376Y-111404D01*
Y-109436D01*
Y-113372D02*
X-117344D01*
X-118000Y-114027D01*
Y-115995D01*
X-115376D01*
X-118000Y-117307D02*
Y-119275D01*
X-117344Y-119931D01*
X-116688Y-119275D01*
Y-117963D01*
X-116032Y-117307D01*
X-115376Y-117963D01*
Y-119931D01*
X-118656Y-121243D02*
Y-123867D01*
X-118000Y-125835D02*
X-114720D01*
X-116032D01*
Y-125179D01*
Y-126491D01*
Y-125835D01*
X-114720D01*
X-114064Y-126491D01*
X-64000Y-55564D02*
Y-58844D01*
X-63344Y-59500D01*
X-62032D01*
X-61376Y-58844D01*
Y-55564D01*
X-57440Y-56220D02*
X-58096Y-55564D01*
X-59408D01*
X-60064Y-56220D01*
Y-56876D01*
X-59408Y-57532D01*
X-58096D01*
X-57440Y-58188D01*
Y-58844D01*
X-58096Y-59500D01*
X-59408D01*
X-60064Y-58844D01*
X-56129Y-55564D02*
Y-59500D01*
X-54161D01*
X-53505Y-58844D01*
Y-58188D01*
X-54161Y-57532D01*
X-56129D01*
X-54161D01*
X-53505Y-56876D01*
Y-56220D01*
X-54161Y-55564D01*
X-56129D01*
X-52193Y-59500D02*
X-50881D01*
X-51537D01*
Y-55564D01*
X-52193Y-56220D01*
X13936Y-7000D02*
X10656D01*
X10000Y-7656D01*
Y-8968D01*
X10656Y-9624D01*
X13936D01*
Y-10936D02*
X10000D01*
X11968D01*
Y-13560D01*
X13936D01*
X10000D01*
X13936Y-17495D02*
Y-14872D01*
X11968D01*
Y-16183D01*
Y-14872D01*
X10000D01*
X204000Y-249064D02*
Y-252344D01*
X204656Y-253000D01*
X205968D01*
X206624Y-252344D01*
Y-249064D01*
X207936Y-252344D02*
X208592Y-253000D01*
X209904D01*
X210560Y-252344D01*
Y-249720D01*
X209904Y-249064D01*
X208592D01*
X207936Y-249720D01*
Y-250376D01*
X208592Y-251032D01*
X210560D01*
X-22000Y-298064D02*
Y-301344D01*
X-21344Y-302000D01*
X-20032D01*
X-19376Y-301344D01*
Y-298064D01*
X-18064Y-298720D02*
X-17408Y-298064D01*
X-16096D01*
X-15440Y-298720D01*
Y-299376D01*
X-16096Y-300032D01*
X-15440Y-300688D01*
Y-301344D01*
X-16096Y-302000D01*
X-17408D01*
X-18064Y-301344D01*
Y-300688D01*
X-17408Y-300032D01*
X-18064Y-299376D01*
Y-298720D01*
X-17408Y-300032D02*
X-16096D01*
X61500Y-131064D02*
Y-134344D01*
X62156Y-135000D01*
X63468D01*
X64124Y-134344D01*
Y-131064D01*
X65436D02*
X68060D01*
Y-131720D01*
X65436Y-134344D01*
Y-135000D01*
X-26500Y-317064D02*
Y-320344D01*
X-25844Y-321000D01*
X-24532D01*
X-23876Y-320344D01*
Y-317064D01*
X-19940D02*
X-21252Y-317720D01*
X-22564Y-319032D01*
Y-320344D01*
X-21908Y-321000D01*
X-20596D01*
X-19940Y-320344D01*
Y-319688D01*
X-20596Y-319032D01*
X-22564D01*
X-43500Y-101064D02*
Y-104344D01*
X-42844Y-105000D01*
X-41532D01*
X-40876Y-104344D01*
Y-101064D01*
X-37596Y-105000D02*
Y-101064D01*
X-39564Y-103032D01*
X-36940D01*
X142500Y-42064D02*
Y-45344D01*
X143156Y-46000D01*
X144468D01*
X145124Y-45344D01*
Y-42064D01*
X146436Y-42720D02*
X147092Y-42064D01*
X148404D01*
X149060Y-42720D01*
Y-43376D01*
X148404Y-44032D01*
X147748D01*
X148404D01*
X149060Y-44688D01*
Y-45344D01*
X148404Y-46000D01*
X147092D01*
X146436Y-45344D01*
X-12500Y-52564D02*
Y-55844D01*
X-11844Y-56500D01*
X-10532D01*
X-9876Y-55844D01*
Y-52564D01*
X-5940Y-56500D02*
X-8564D01*
X-5940Y-53876D01*
Y-53220D01*
X-6596Y-52564D01*
X-7908D01*
X-8564Y-53220D01*
X124000Y-214564D02*
Y-217844D01*
X124656Y-218500D01*
X125968D01*
X126624Y-217844D01*
Y-214564D01*
X127936Y-218500D02*
X129248D01*
X128592D01*
Y-214564D01*
X127936Y-215220D01*
X-564Y-4500D02*
Y-7124D01*
Y-5812D01*
X-4500D01*
Y-8436D02*
X-564D01*
X-4500Y-11060D01*
X-564D01*
X-1220Y-14995D02*
X-564Y-14339D01*
Y-13027D01*
X-1220Y-12371D01*
X-3844D01*
X-4500Y-13027D01*
Y-14339D01*
X-3844Y-14995D01*
X-5156Y-16307D02*
Y-18931D01*
X-4500Y-20243D02*
X-564D01*
Y-22211D01*
X-1220Y-22867D01*
X-2532D01*
X-3188Y-22211D01*
Y-20243D01*
X-564Y-24179D02*
Y-26803D01*
Y-25491D01*
X-4500D01*
X-564Y-28114D02*
Y-30738D01*
Y-29426D01*
X-4500D01*
X219500Y-56564D02*
X222124D01*
X220812D01*
Y-60500D01*
X223436D02*
Y-56564D01*
X226060Y-60500D01*
Y-56564D01*
X229995Y-57220D02*
X229339Y-56564D01*
X228027D01*
X227372Y-57220D01*
Y-59844D01*
X228027Y-60500D01*
X229339D01*
X229995Y-59844D01*
X231307Y-61156D02*
X233931D01*
X235243Y-60500D02*
Y-56564D01*
X237211D01*
X237867Y-57220D01*
Y-58532D01*
X237211Y-59188D01*
X235243D01*
X239179Y-60500D02*
Y-56564D01*
X241147D01*
X241803Y-57220D01*
Y-58532D01*
X241147Y-59188D01*
X239179D01*
X240491D02*
X241803Y-60500D01*
X245082Y-56564D02*
X243770D01*
X243114Y-57220D01*
Y-59844D01*
X243770Y-60500D01*
X245082D01*
X245738Y-59844D01*
Y-57220D01*
X245082Y-56564D01*
X249674Y-57220D02*
X249018Y-56564D01*
X247706D01*
X247050Y-57220D01*
Y-59844D01*
X247706Y-60500D01*
X249018D01*
X249674Y-59844D01*
Y-58532D01*
X248362D01*
X6436Y-5500D02*
Y-8124D01*
Y-6812D01*
X2500D01*
Y-9436D02*
X6436D01*
X2500Y-12060D01*
X6436D01*
X5780Y-15995D02*
X6436Y-15339D01*
Y-14027D01*
X5780Y-13372D01*
X3156D01*
X2500Y-14027D01*
Y-15339D01*
X3156Y-15995D01*
X1844Y-17307D02*
Y-19931D01*
X6436Y-23867D02*
Y-21243D01*
X2500D01*
Y-23867D01*
X4468Y-21243D02*
Y-22555D01*
X5780Y-27803D02*
X6436Y-27147D01*
Y-25835D01*
X5780Y-25179D01*
X3156D01*
X2500Y-25835D01*
Y-27147D01*
X3156Y-27803D01*
X4468D01*
Y-26491D01*
X6436Y-29114D02*
X5780D01*
X4468Y-30426D01*
X5780Y-31738D01*
X6436D01*
X4468Y-30426D02*
X2500D01*
X204000Y-295500D02*
X200064D01*
Y-293532D01*
X200720Y-292876D01*
X202032D01*
X202688Y-293532D01*
Y-295500D01*
Y-294188D02*
X204000Y-292876D01*
X200064Y-288940D02*
Y-291564D01*
X202032D01*
X201376Y-290252D01*
Y-289596D01*
X202032Y-288940D01*
X203344D01*
X204000Y-289596D01*
Y-290908D01*
X203344Y-291564D01*
X204000Y-287629D02*
Y-286317D01*
Y-286973D01*
X200064D01*
X200720Y-287629D01*
X258000Y-313500D02*
X254064D01*
Y-311532D01*
X254720Y-310876D01*
X256032D01*
X256688Y-311532D01*
Y-313500D01*
Y-312188D02*
X258000Y-310876D01*
X254064Y-306940D02*
Y-309564D01*
X256032D01*
X255376Y-308252D01*
Y-307596D01*
X256032Y-306940D01*
X257344D01*
X258000Y-307596D01*
Y-308908D01*
X257344Y-309564D01*
X254720Y-305628D02*
X254064Y-304973D01*
Y-303661D01*
X254720Y-303005D01*
X257344D01*
X258000Y-303661D01*
Y-304973D01*
X257344Y-305628D01*
X254720D01*
X162500Y-284500D02*
Y-280564D01*
X164468D01*
X165124Y-281220D01*
Y-282532D01*
X164468Y-283188D01*
X162500D01*
X163812D02*
X165124Y-284500D01*
X168404D02*
Y-280564D01*
X166436Y-282532D01*
X169060D01*
X170371Y-283844D02*
X171027Y-284500D01*
X172339D01*
X172995Y-283844D01*
Y-281220D01*
X172339Y-280564D01*
X171027D01*
X170371Y-281220D01*
Y-281876D01*
X171027Y-282532D01*
X172995D01*
X161000Y-253500D02*
Y-249564D01*
X162968D01*
X163624Y-250220D01*
Y-251532D01*
X162968Y-252188D01*
X161000D01*
X162312D02*
X163624Y-253500D01*
X166904D02*
Y-249564D01*
X164936Y-251532D01*
X167560D01*
X168871Y-250220D02*
X169527Y-249564D01*
X170839D01*
X171495Y-250220D01*
Y-250876D01*
X170839Y-251532D01*
X171495Y-252188D01*
Y-252844D01*
X170839Y-253500D01*
X169527D01*
X168871Y-252844D01*
Y-252188D01*
X169527Y-251532D01*
X168871Y-250876D01*
Y-250220D01*
X169527Y-251532D02*
X170839D01*
X163500Y-222000D02*
Y-218064D01*
X165468D01*
X166124Y-218720D01*
Y-220032D01*
X165468Y-220688D01*
X163500D01*
X164812D02*
X166124Y-222000D01*
X169404D02*
Y-218064D01*
X167436Y-220032D01*
X170060D01*
X171371Y-218064D02*
X173995D01*
Y-218720D01*
X171371Y-221344D01*
Y-222000D01*
X162500Y-194000D02*
Y-190064D01*
X164468D01*
X165124Y-190720D01*
Y-192032D01*
X164468Y-192688D01*
X162500D01*
X163812D02*
X165124Y-194000D01*
X168404D02*
Y-190064D01*
X166436Y-192032D01*
X169060D01*
X172995Y-190064D02*
X171683Y-190720D01*
X170371Y-192032D01*
Y-193344D01*
X171027Y-194000D01*
X172339D01*
X172995Y-193344D01*
Y-192688D01*
X172339Y-192032D01*
X170371D01*
X223000Y-312500D02*
X219064D01*
Y-310532D01*
X219720Y-309876D01*
X221032D01*
X221688Y-310532D01*
Y-312500D01*
Y-311188D02*
X223000Y-309876D01*
Y-306596D02*
X219064D01*
X221032Y-308564D01*
Y-305940D01*
X219064Y-302005D02*
Y-304628D01*
X221032D01*
X220376Y-303317D01*
Y-302661D01*
X221032Y-302005D01*
X222344D01*
X223000Y-302661D01*
Y-303973D01*
X222344Y-304628D01*
X245500Y-316000D02*
X241564D01*
Y-314032D01*
X242220Y-313376D01*
X243532D01*
X244188Y-314032D01*
Y-316000D01*
Y-314688D02*
X245500Y-313376D01*
Y-310096D02*
X241564D01*
X243532Y-312064D01*
Y-309440D01*
X245500Y-306161D02*
X241564D01*
X243532Y-308128D01*
Y-305505D01*
X162500Y-274000D02*
Y-270064D01*
X164468D01*
X165124Y-270720D01*
Y-272032D01*
X164468Y-272688D01*
X162500D01*
X163812D02*
X165124Y-274000D01*
X168404D02*
Y-270064D01*
X166436Y-272032D01*
X169060D01*
X170371Y-270720D02*
X171027Y-270064D01*
X172339D01*
X172995Y-270720D01*
Y-271376D01*
X172339Y-272032D01*
X171683D01*
X172339D01*
X172995Y-272688D01*
Y-273344D01*
X172339Y-274000D01*
X171027D01*
X170371Y-273344D01*
X160500Y-243500D02*
Y-239564D01*
X162468D01*
X163124Y-240220D01*
Y-241532D01*
X162468Y-242188D01*
X160500D01*
X161812D02*
X163124Y-243500D01*
X166404D02*
Y-239564D01*
X164436Y-241532D01*
X167060D01*
X170995Y-243500D02*
X168371D01*
X170995Y-240876D01*
Y-240220D01*
X170339Y-239564D01*
X169027D01*
X168371Y-240220D01*
X194500Y-232000D02*
Y-228064D01*
X196468D01*
X197124Y-228720D01*
Y-230032D01*
X196468Y-230688D01*
X194500D01*
X195812D02*
X197124Y-232000D01*
X200404D02*
Y-228064D01*
X198436Y-230032D01*
X201060D01*
X202372Y-232000D02*
X203683D01*
X203027D01*
Y-228064D01*
X202372Y-228720D01*
X195000Y-183000D02*
Y-179064D01*
X196968D01*
X197624Y-179720D01*
Y-181032D01*
X196968Y-181688D01*
X195000D01*
X196312D02*
X197624Y-183000D01*
X200904D02*
Y-179064D01*
X198936Y-181032D01*
X201560D01*
X202871Y-179720D02*
X203527Y-179064D01*
X204839D01*
X205495Y-179720D01*
Y-182344D01*
X204839Y-183000D01*
X203527D01*
X202871Y-182344D01*
Y-179720D01*
X211500Y-198000D02*
Y-194064D01*
X213468D01*
X214124Y-194720D01*
Y-196032D01*
X213468Y-196688D01*
X211500D01*
X212812D02*
X214124Y-198000D01*
X215436Y-194720D02*
X216092Y-194064D01*
X217404D01*
X218060Y-194720D01*
Y-195376D01*
X217404Y-196032D01*
X216748D01*
X217404D01*
X218060Y-196688D01*
Y-197344D01*
X217404Y-198000D01*
X216092D01*
X215436Y-197344D01*
X219372D02*
X220027Y-198000D01*
X221339D01*
X221995Y-197344D01*
Y-194720D01*
X221339Y-194064D01*
X220027D01*
X219372Y-194720D01*
Y-195376D01*
X220027Y-196032D01*
X221995D01*
X56000Y-87000D02*
Y-83064D01*
X57968D01*
X58624Y-83720D01*
Y-85032D01*
X57968Y-85688D01*
X56000D01*
X57312D02*
X58624Y-87000D01*
X59936Y-83720D02*
X60592Y-83064D01*
X61904D01*
X62560Y-83720D01*
Y-84376D01*
X61904Y-85032D01*
X61248D01*
X61904D01*
X62560Y-85688D01*
Y-86344D01*
X61904Y-87000D01*
X60592D01*
X59936Y-86344D01*
X63872Y-83720D02*
X64527Y-83064D01*
X65839D01*
X66495Y-83720D01*
Y-84376D01*
X65839Y-85032D01*
X66495Y-85688D01*
Y-86344D01*
X65839Y-87000D01*
X64527D01*
X63872Y-86344D01*
Y-85688D01*
X64527Y-85032D01*
X63872Y-84376D01*
Y-83720D01*
X64527Y-85032D02*
X65839D01*
X211000Y-178000D02*
Y-174064D01*
X212968D01*
X213624Y-174720D01*
Y-176032D01*
X212968Y-176688D01*
X211000D01*
X212312D02*
X213624Y-178000D01*
X214936Y-174720D02*
X215592Y-174064D01*
X216904D01*
X217560Y-174720D01*
Y-175376D01*
X216904Y-176032D01*
X216248D01*
X216904D01*
X217560Y-176688D01*
Y-177344D01*
X216904Y-178000D01*
X215592D01*
X214936Y-177344D01*
X218871Y-174064D02*
X221495D01*
Y-174720D01*
X218871Y-177344D01*
Y-178000D01*
X83500Y-109500D02*
Y-105564D01*
X85468D01*
X86124Y-106220D01*
Y-107532D01*
X85468Y-108188D01*
X83500D01*
X84812D02*
X86124Y-109500D01*
X87436Y-106220D02*
X88092Y-105564D01*
X89404D01*
X90060Y-106220D01*
Y-106876D01*
X89404Y-107532D01*
X88748D01*
X89404D01*
X90060Y-108188D01*
Y-108844D01*
X89404Y-109500D01*
X88092D01*
X87436Y-108844D01*
X93995Y-105564D02*
X92683Y-106220D01*
X91372Y-107532D01*
Y-108844D01*
X92027Y-109500D01*
X93339D01*
X93995Y-108844D01*
Y-108188D01*
X93339Y-107532D01*
X91372D01*
X103000Y-99500D02*
X106936D01*
Y-101468D01*
X106280Y-102124D01*
X104968D01*
X104312Y-101468D01*
Y-99500D01*
Y-100812D02*
X103000Y-102124D01*
X106280Y-103436D02*
X106936Y-104092D01*
Y-105404D01*
X106280Y-106060D01*
X105624D01*
X104968Y-105404D01*
Y-104748D01*
Y-105404D01*
X104312Y-106060D01*
X103656D01*
X103000Y-105404D01*
Y-104092D01*
X103656Y-103436D01*
X106936Y-109995D02*
Y-107371D01*
X104968D01*
X105624Y-108683D01*
Y-109339D01*
X104968Y-109995D01*
X103656D01*
X103000Y-109339D01*
Y-108027D01*
X103656Y-107371D01*
X-42500Y-39500D02*
X-38564D01*
Y-41468D01*
X-39220Y-42124D01*
X-40532D01*
X-41188Y-41468D01*
Y-39500D01*
Y-40812D02*
X-42500Y-42124D01*
X-39220Y-43436D02*
X-38564Y-44092D01*
Y-45404D01*
X-39220Y-46060D01*
X-39876D01*
X-40532Y-45404D01*
Y-44748D01*
Y-45404D01*
X-41188Y-46060D01*
X-41844D01*
X-42500Y-45404D01*
Y-44092D01*
X-41844Y-43436D01*
X-42500Y-49339D02*
X-38564D01*
X-40532Y-47372D01*
Y-49995D01*
X179000Y-159000D02*
X182936D01*
Y-160968D01*
X182280Y-161624D01*
X180968D01*
X180312Y-160968D01*
Y-159000D01*
Y-160312D02*
X179000Y-161624D01*
X182280Y-162936D02*
X182936Y-163592D01*
Y-164904D01*
X182280Y-165560D01*
X181624D01*
X180968Y-164904D01*
Y-164248D01*
Y-164904D01*
X180312Y-165560D01*
X179656D01*
X179000Y-164904D01*
Y-163592D01*
X179656Y-162936D01*
X182280Y-166872D02*
X182936Y-167527D01*
Y-168839D01*
X182280Y-169495D01*
X181624D01*
X180968Y-168839D01*
Y-168183D01*
Y-168839D01*
X180312Y-169495D01*
X179656D01*
X179000Y-168839D01*
Y-167527D01*
X179656Y-166872D01*
X152500Y-154000D02*
Y-150064D01*
X154468D01*
X155124Y-150720D01*
Y-152032D01*
X154468Y-152688D01*
X152500D01*
X153812D02*
X155124Y-154000D01*
X156436Y-150720D02*
X157092Y-150064D01*
X158404D01*
X159060Y-150720D01*
Y-151376D01*
X158404Y-152032D01*
X157748D01*
X158404D01*
X159060Y-152688D01*
Y-153344D01*
X158404Y-154000D01*
X157092D01*
X156436Y-153344D01*
X162995Y-154000D02*
X160371D01*
X162995Y-151376D01*
Y-150720D01*
X162339Y-150064D01*
X161027D01*
X160371Y-150720D01*
X4000Y-365500D02*
Y-361564D01*
X5968D01*
X6624Y-362220D01*
Y-363532D01*
X5968Y-364188D01*
X4000D01*
X5312D02*
X6624Y-365500D01*
X7936Y-362220D02*
X8592Y-361564D01*
X9904D01*
X10560Y-362220D01*
Y-362876D01*
X9904Y-363532D01*
X9248D01*
X9904D01*
X10560Y-364188D01*
Y-364844D01*
X9904Y-365500D01*
X8592D01*
X7936Y-364844D01*
X11872Y-365500D02*
X13183D01*
X12527D01*
Y-361564D01*
X11872Y-362220D01*
X43000Y-295500D02*
X46936D01*
Y-297468D01*
X46280Y-298124D01*
X44968D01*
X44312Y-297468D01*
Y-295500D01*
Y-296812D02*
X43000Y-298124D01*
X46280Y-299436D02*
X46936Y-300092D01*
Y-301404D01*
X46280Y-302060D01*
X45624D01*
X44968Y-301404D01*
Y-300748D01*
Y-301404D01*
X44312Y-302060D01*
X43656D01*
X43000Y-301404D01*
Y-300092D01*
X43656Y-299436D01*
X46280Y-303372D02*
X46936Y-304027D01*
Y-305339D01*
X46280Y-305995D01*
X43656D01*
X43000Y-305339D01*
Y-304027D01*
X43656Y-303372D01*
X46280D01*
X-45500Y-311000D02*
X-41564D01*
Y-312968D01*
X-42220Y-313624D01*
X-43532D01*
X-44188Y-312968D01*
Y-311000D01*
Y-312312D02*
X-45500Y-313624D01*
Y-317560D02*
Y-314936D01*
X-42876Y-317560D01*
X-42220D01*
X-41564Y-316904D01*
Y-315592D01*
X-42220Y-314936D01*
X-44844Y-318871D02*
X-45500Y-319527D01*
Y-320839D01*
X-44844Y-321495D01*
X-42220D01*
X-41564Y-320839D01*
Y-319527D01*
X-42220Y-318871D01*
X-42876D01*
X-43532Y-319527D01*
Y-321495D01*
X-53500Y-38000D02*
X-49564D01*
Y-39968D01*
X-50220Y-40624D01*
X-51532D01*
X-52188Y-39968D01*
Y-38000D01*
Y-39312D02*
X-53500Y-40624D01*
Y-44560D02*
Y-41936D01*
X-50876Y-44560D01*
X-50220D01*
X-49564Y-43904D01*
Y-42592D01*
X-50220Y-41936D01*
Y-45871D02*
X-49564Y-46527D01*
Y-47839D01*
X-50220Y-48495D01*
X-50876D01*
X-51532Y-47839D01*
X-52188Y-48495D01*
X-52844D01*
X-53500Y-47839D01*
Y-46527D01*
X-52844Y-45871D01*
X-52188D01*
X-51532Y-46527D01*
X-50876Y-45871D01*
X-50220D01*
X-51532Y-46527D02*
Y-47839D01*
X25500Y-280500D02*
X29436D01*
Y-282468D01*
X28780Y-283124D01*
X27468D01*
X26812Y-282468D01*
Y-280500D01*
Y-281812D02*
X25500Y-283124D01*
Y-287060D02*
Y-284436D01*
X28124Y-287060D01*
X28780D01*
X29436Y-286404D01*
Y-285092D01*
X28780Y-284436D01*
X29436Y-288371D02*
Y-290995D01*
X28780D01*
X26156Y-288371D01*
X25500D01*
X260000Y-129000D02*
X263936D01*
Y-130968D01*
X263280Y-131624D01*
X261968D01*
X261312Y-130968D01*
Y-129000D01*
Y-130312D02*
X260000Y-131624D01*
Y-135560D02*
Y-132936D01*
X262624Y-135560D01*
X263280D01*
X263936Y-134904D01*
Y-133592D01*
X263280Y-132936D01*
X263936Y-139495D02*
X263280Y-138183D01*
X261968Y-136872D01*
X260656D01*
X260000Y-137527D01*
Y-138839D01*
X260656Y-139495D01*
X261312D01*
X261968Y-138839D01*
Y-136872D01*
X228500Y-42000D02*
X232436D01*
Y-43968D01*
X231780Y-44624D01*
X230468D01*
X229812Y-43968D01*
Y-42000D01*
Y-43312D02*
X228500Y-44624D01*
Y-48560D02*
Y-45936D01*
X231124Y-48560D01*
X231780D01*
X232436Y-47904D01*
Y-46592D01*
X231780Y-45936D01*
X232436Y-52495D02*
Y-49872D01*
X230468D01*
X231124Y-51183D01*
Y-51839D01*
X230468Y-52495D01*
X229156D01*
X228500Y-51839D01*
Y-50527D01*
X229156Y-49872D01*
X190500Y-27500D02*
X194436D01*
Y-29468D01*
X193780Y-30124D01*
X192468D01*
X191812Y-29468D01*
Y-27500D01*
Y-28812D02*
X190500Y-30124D01*
Y-34060D02*
Y-31436D01*
X193124Y-34060D01*
X193780D01*
X194436Y-33404D01*
Y-32092D01*
X193780Y-31436D01*
X190500Y-37339D02*
X194436D01*
X192468Y-35372D01*
Y-37995D01*
X238500Y-42000D02*
X242436D01*
Y-43968D01*
X241780Y-44624D01*
X240468D01*
X239812Y-43968D01*
Y-42000D01*
Y-43312D02*
X238500Y-44624D01*
Y-48560D02*
Y-45936D01*
X241124Y-48560D01*
X241780D01*
X242436Y-47904D01*
Y-46592D01*
X241780Y-45936D01*
Y-49872D02*
X242436Y-50527D01*
Y-51839D01*
X241780Y-52495D01*
X241124D01*
X240468Y-51839D01*
Y-51183D01*
Y-51839D01*
X239812Y-52495D01*
X239156D01*
X238500Y-51839D01*
Y-50527D01*
X239156Y-49872D01*
X-60500Y-109500D02*
X-56564D01*
Y-111468D01*
X-57220Y-112124D01*
X-58532D01*
X-59188Y-111468D01*
Y-109500D01*
Y-110812D02*
X-60500Y-112124D01*
Y-116060D02*
Y-113436D01*
X-57876Y-116060D01*
X-57220D01*
X-56564Y-115404D01*
Y-114092D01*
X-57220Y-113436D01*
X-60500Y-119995D02*
Y-117371D01*
X-57876Y-119995D01*
X-57220D01*
X-56564Y-119339D01*
Y-118027D01*
X-57220Y-117371D01*
X-22500Y-32500D02*
X-18564D01*
Y-34468D01*
X-19220Y-35124D01*
X-20532D01*
X-21188Y-34468D01*
Y-32500D01*
Y-33812D02*
X-22500Y-35124D01*
Y-39060D02*
Y-36436D01*
X-19876Y-39060D01*
X-19220D01*
X-18564Y-38404D01*
Y-37092D01*
X-19220Y-36436D01*
X-22500Y-40372D02*
Y-41683D01*
Y-41027D01*
X-18564D01*
X-19220Y-40372D01*
X205000Y-46000D02*
Y-42064D01*
X206968D01*
X207624Y-42720D01*
Y-44032D01*
X206968Y-44688D01*
X205000D01*
X206312D02*
X207624Y-46000D01*
X211560D02*
X208936D01*
X211560Y-43376D01*
Y-42720D01*
X210904Y-42064D01*
X209592D01*
X208936Y-42720D01*
X212872D02*
X213527Y-42064D01*
X214839D01*
X215495Y-42720D01*
Y-45344D01*
X214839Y-46000D01*
X213527D01*
X212872Y-45344D01*
Y-42720D01*
X248000Y-42000D02*
X251936D01*
Y-43968D01*
X251280Y-44624D01*
X249968D01*
X249312Y-43968D01*
Y-42000D01*
Y-43312D02*
X248000Y-44624D01*
Y-45936D02*
Y-47248D01*
Y-46592D01*
X251936D01*
X251280Y-45936D01*
X248656Y-49215D02*
X248000Y-49872D01*
Y-51183D01*
X248656Y-51839D01*
X251280D01*
X251936Y-51183D01*
Y-49872D01*
X251280Y-49215D01*
X250624D01*
X249968Y-49872D01*
Y-51839D01*
X-31500Y-32500D02*
X-27564D01*
Y-34468D01*
X-28220Y-35124D01*
X-29532D01*
X-30188Y-34468D01*
Y-32500D01*
Y-33812D02*
X-31500Y-35124D01*
Y-36436D02*
Y-37748D01*
Y-37092D01*
X-27564D01*
X-28220Y-36436D01*
Y-39715D02*
X-27564Y-40372D01*
Y-41683D01*
X-28220Y-42339D01*
X-28876D01*
X-29532Y-41683D01*
X-30188Y-42339D01*
X-30844D01*
X-31500Y-41683D01*
Y-40372D01*
X-30844Y-39715D01*
X-30188D01*
X-29532Y-40372D01*
X-28876Y-39715D01*
X-28220D01*
X-29532Y-40372D02*
Y-41683D01*
X218000Y-41500D02*
X221936D01*
Y-43468D01*
X221280Y-44124D01*
X219968D01*
X219312Y-43468D01*
Y-41500D01*
Y-42812D02*
X218000Y-44124D01*
Y-45436D02*
Y-46748D01*
Y-46092D01*
X221936D01*
X221280Y-45436D01*
X221936Y-48715D02*
Y-51339D01*
X221280D01*
X218656Y-48715D01*
X218000D01*
X258000Y-41000D02*
X261936D01*
Y-42968D01*
X261280Y-43624D01*
X259968D01*
X259312Y-42968D01*
Y-41000D01*
Y-42312D02*
X258000Y-43624D01*
Y-44936D02*
Y-46248D01*
Y-45592D01*
X261936D01*
X261280Y-44936D01*
X261936Y-50839D02*
X261280Y-49527D01*
X259968Y-48215D01*
X258656D01*
X258000Y-48871D01*
Y-50183D01*
X258656Y-50839D01*
X259312D01*
X259968Y-50183D01*
Y-48215D01*
X106500Y-266500D02*
Y-262564D01*
X108468D01*
X109124Y-263220D01*
Y-264532D01*
X108468Y-265188D01*
X106500D01*
X107812D02*
X109124Y-266500D01*
X110436D02*
X111748D01*
X111092D01*
Y-262564D01*
X110436Y-263220D01*
X116339Y-262564D02*
X113716D01*
Y-264532D01*
X115027Y-263876D01*
X115683D01*
X116339Y-264532D01*
Y-265844D01*
X115683Y-266500D01*
X114372D01*
X113716Y-265844D01*
X124000Y-302500D02*
Y-298564D01*
X125968D01*
X126624Y-299220D01*
Y-300532D01*
X125968Y-301188D01*
X124000D01*
X125312D02*
X126624Y-302500D01*
X127936D02*
X129248D01*
X128592D01*
Y-298564D01*
X127936Y-299220D01*
X133183Y-302500D02*
Y-298564D01*
X131216Y-300532D01*
X133839D01*
X104000Y-362000D02*
Y-358064D01*
X105968D01*
X106624Y-358720D01*
Y-360032D01*
X105968Y-360688D01*
X104000D01*
X105312D02*
X106624Y-362000D01*
X107936D02*
X109248D01*
X108592D01*
Y-358064D01*
X107936Y-358720D01*
X111215D02*
X111872Y-358064D01*
X113183D01*
X113839Y-358720D01*
Y-359376D01*
X113183Y-360032D01*
X112527D01*
X113183D01*
X113839Y-360688D01*
Y-361344D01*
X113183Y-362000D01*
X111872D01*
X111215Y-361344D01*
X145000Y-285000D02*
Y-281064D01*
X146968D01*
X147624Y-281720D01*
Y-283032D01*
X146968Y-283688D01*
X145000D01*
X146312D02*
X147624Y-285000D01*
X148936D02*
X150248D01*
X149592D01*
Y-281064D01*
X148936Y-281720D01*
X154839Y-285000D02*
X152216D01*
X154839Y-282376D01*
Y-281720D01*
X154183Y-281064D01*
X152872D01*
X152216Y-281720D01*
X124500Y-294000D02*
Y-290064D01*
X126468D01*
X127124Y-290720D01*
Y-292032D01*
X126468Y-292688D01*
X124500D01*
X125812D02*
X127124Y-294000D01*
X128436D02*
X129748D01*
X129092D01*
Y-290064D01*
X128436Y-290720D01*
X131716Y-294000D02*
X133027D01*
X132371D01*
Y-290064D01*
X131716Y-290720D01*
X144500Y-319000D02*
Y-315064D01*
X146468D01*
X147124Y-315720D01*
Y-317032D01*
X146468Y-317688D01*
X144500D01*
X145812D02*
X147124Y-319000D01*
X148436D02*
X149748D01*
X149092D01*
Y-315064D01*
X148436Y-315720D01*
X151716D02*
X152372Y-315064D01*
X153683D01*
X154339Y-315720D01*
Y-318344D01*
X153683Y-319000D01*
X152372D01*
X151716Y-318344D01*
Y-315720D01*
X123500Y-321500D02*
Y-317564D01*
X125468D01*
X126124Y-318220D01*
Y-319532D01*
X125468Y-320188D01*
X123500D01*
X124812D02*
X126124Y-321500D01*
X127436Y-320844D02*
X128092Y-321500D01*
X129404D01*
X130060Y-320844D01*
Y-318220D01*
X129404Y-317564D01*
X128092D01*
X127436Y-318220D01*
Y-318876D01*
X128092Y-319532D01*
X130060D01*
X144500Y-346000D02*
Y-342064D01*
X146468D01*
X147124Y-342720D01*
Y-344032D01*
X146468Y-344688D01*
X144500D01*
X145812D02*
X147124Y-346000D01*
X148436Y-342720D02*
X149092Y-342064D01*
X150404D01*
X151060Y-342720D01*
Y-343376D01*
X150404Y-344032D01*
X151060Y-344688D01*
Y-345344D01*
X150404Y-346000D01*
X149092D01*
X148436Y-345344D01*
Y-344688D01*
X149092Y-344032D01*
X148436Y-343376D01*
Y-342720D01*
X149092Y-344032D02*
X150404D01*
X124000Y-336000D02*
Y-332064D01*
X125968D01*
X126624Y-332720D01*
Y-334032D01*
X125968Y-334688D01*
X124000D01*
X125312D02*
X126624Y-336000D01*
X127936Y-332064D02*
X130560D01*
Y-332720D01*
X127936Y-335344D01*
Y-336000D01*
X144000Y-188000D02*
Y-184064D01*
X145968D01*
X146624Y-184720D01*
Y-186032D01*
X145968Y-186688D01*
X144000D01*
X145312D02*
X146624Y-188000D01*
X150560Y-184064D02*
X149248Y-184720D01*
X147936Y-186032D01*
Y-187344D01*
X148592Y-188000D01*
X149904D01*
X150560Y-187344D01*
Y-186688D01*
X149904Y-186032D01*
X147936D01*
X102000Y-196500D02*
Y-192564D01*
X103968D01*
X104624Y-193220D01*
Y-194532D01*
X103968Y-195188D01*
X102000D01*
X103312D02*
X104624Y-196500D01*
X108560Y-192564D02*
X105936D01*
Y-194532D01*
X107248Y-193876D01*
X107904D01*
X108560Y-194532D01*
Y-195844D01*
X107904Y-196500D01*
X106592D01*
X105936Y-195844D01*
X133000Y-170500D02*
Y-166564D01*
X134968D01*
X135624Y-167220D01*
Y-168532D01*
X134968Y-169188D01*
X133000D01*
X134312D02*
X135624Y-170500D01*
X138904D02*
Y-166564D01*
X136936Y-168532D01*
X139560D01*
X103000Y-171500D02*
Y-167564D01*
X104968D01*
X105624Y-168220D01*
Y-169532D01*
X104968Y-170188D01*
X103000D01*
X104312D02*
X105624Y-171500D01*
X106936Y-168220D02*
X107592Y-167564D01*
X108904D01*
X109560Y-168220D01*
Y-168876D01*
X108904Y-169532D01*
X108248D01*
X108904D01*
X109560Y-170188D01*
Y-170844D01*
X108904Y-171500D01*
X107592D01*
X106936Y-170844D01*
X110149Y-164841D02*
X106213D01*
Y-162873D01*
X106869Y-162217D01*
X108181D01*
X108837Y-162873D01*
Y-164841D01*
Y-163529D02*
X110149Y-162217D01*
Y-158282D02*
Y-160906D01*
X107525Y-158282D01*
X106869D01*
X106213Y-158938D01*
Y-160250D01*
X106869Y-160906D01*
X108000Y-199500D02*
X111936D01*
Y-201468D01*
X111280Y-202124D01*
X109968D01*
X109312Y-201468D01*
Y-199500D01*
Y-200812D02*
X108000Y-202124D01*
Y-203436D02*
Y-204748D01*
Y-204092D01*
X111936D01*
X111280Y-203436D01*
X-110000Y-172000D02*
X-106064D01*
Y-173968D01*
X-106720Y-174624D01*
X-108032D01*
X-108688Y-173968D01*
Y-172000D01*
X-110000Y-175936D02*
X-107376D01*
X-106064Y-177248D01*
X-107376Y-178560D01*
X-110000D01*
X-108032D01*
Y-175936D01*
X-110656Y-179871D02*
Y-182495D01*
X-110000Y-183807D02*
X-106064D01*
Y-185775D01*
X-106720Y-186431D01*
X-108032D01*
X-108688Y-185775D01*
Y-183807D01*
X-110000Y-188399D02*
Y-189711D01*
X-109344Y-190367D01*
X-108032D01*
X-107376Y-189711D01*
Y-188399D01*
X-108032Y-187743D01*
X-109344D01*
X-110000Y-188399D01*
X-107376Y-191679D02*
X-109344D01*
X-110000Y-192335D01*
X-109344Y-192991D01*
X-110000Y-193647D01*
X-109344Y-194302D01*
X-107376D01*
X-110000Y-197582D02*
Y-196270D01*
X-109344Y-195614D01*
X-108032D01*
X-107376Y-196270D01*
Y-197582D01*
X-108032Y-198238D01*
X-108688D01*
Y-195614D01*
X-107376Y-199550D02*
X-110000D01*
X-108688D01*
X-108032Y-200206D01*
X-107376Y-200862D01*
Y-201518D01*
X-85064Y-88624D02*
Y-86000D01*
X-87032D01*
Y-87312D01*
Y-86000D01*
X-89000D01*
X-85064Y-89936D02*
X-89000D01*
Y-91904D01*
X-88344Y-92560D01*
X-87688D01*
X-87032Y-91904D01*
Y-89936D01*
Y-91904D01*
X-86376Y-92560D01*
X-85720D01*
X-85064Y-91904D01*
Y-89936D01*
X-89000Y-93871D02*
Y-95183D01*
Y-94527D01*
X-85064D01*
X-85720Y-93871D01*
X181500Y8564D02*
Y12500D01*
X179532D01*
X178876Y11844D01*
Y9220D01*
X179532Y8564D01*
X181500D01*
X177564D02*
Y12500D01*
X175596D01*
X174940Y11844D01*
Y11188D01*
X175596Y10532D01*
X177564D01*
X175596D01*
X174940Y9876D01*
Y9220D01*
X175596Y8564D01*
X177564D01*
X171005Y9220D02*
X171661Y8564D01*
X172973D01*
X173628Y9220D01*
Y11844D01*
X172973Y12500D01*
X171661D01*
X171005Y11844D01*
Y10532D01*
X172317D01*
X169693Y12500D02*
X168381D01*
X169037D01*
Y8564D01*
X169693Y9220D01*
X-107000Y-159064D02*
Y-163000D01*
X-105032D01*
X-104376Y-162344D01*
Y-159720D01*
X-105032Y-159064D01*
X-107000D01*
X-103064Y-163000D02*
X-101752D01*
X-102408D01*
Y-159064D01*
X-103064Y-159720D01*
X225220Y-315376D02*
X224564Y-316032D01*
Y-317344D01*
X225220Y-318000D01*
X227844D01*
X228500Y-317344D01*
Y-316032D01*
X227844Y-315376D01*
X225220Y-314064D02*
X224564Y-313408D01*
Y-312096D01*
X225220Y-311440D01*
X225876D01*
X226532Y-312096D01*
Y-312752D01*
Y-312096D01*
X227188Y-311440D01*
X227844D01*
X228500Y-312096D01*
Y-313408D01*
X227844Y-314064D01*
X228500Y-308161D02*
X224564D01*
X226532Y-310128D01*
Y-307505D01*
X224124Y-232220D02*
X223468Y-231564D01*
X222156D01*
X221500Y-232220D01*
Y-234844D01*
X222156Y-235500D01*
X223468D01*
X224124Y-234844D01*
X225436Y-232220D02*
X226092Y-231564D01*
X227404D01*
X228060Y-232220D01*
Y-232876D01*
X227404Y-233532D01*
X226748D01*
X227404D01*
X228060Y-234188D01*
Y-234844D01*
X227404Y-235500D01*
X226092D01*
X225436Y-234844D01*
X229372Y-232220D02*
X230027Y-231564D01*
X231339D01*
X231995Y-232220D01*
Y-232876D01*
X231339Y-233532D01*
X230683D01*
X231339D01*
X231995Y-234188D01*
Y-234844D01*
X231339Y-235500D01*
X230027D01*
X229372Y-234844D01*
X235220Y-311876D02*
X234564Y-312532D01*
Y-313844D01*
X235220Y-314500D01*
X237844D01*
X238500Y-313844D01*
Y-312532D01*
X237844Y-311876D01*
X235220Y-310564D02*
X234564Y-309908D01*
Y-308596D01*
X235220Y-307940D01*
X235876D01*
X236532Y-308596D01*
Y-309252D01*
Y-308596D01*
X237188Y-307940D01*
X237844D01*
X238500Y-308596D01*
Y-309908D01*
X237844Y-310564D01*
X238500Y-304005D02*
Y-306628D01*
X235876Y-304005D01*
X235220D01*
X234564Y-304661D01*
Y-305973D01*
X235220Y-306628D01*
X181624Y-298720D02*
X180968Y-298064D01*
X179656D01*
X179000Y-298720D01*
Y-301344D01*
X179656Y-302000D01*
X180968D01*
X181624Y-301344D01*
X182936Y-298720D02*
X183592Y-298064D01*
X184904D01*
X185560Y-298720D01*
Y-299376D01*
X184904Y-300032D01*
X184248D01*
X184904D01*
X185560Y-300688D01*
Y-301344D01*
X184904Y-302000D01*
X183592D01*
X182936Y-301344D01*
X186872Y-302000D02*
X188183D01*
X187527D01*
Y-298064D01*
X186872Y-298720D01*
X163124Y-260220D02*
X162468Y-259564D01*
X161156D01*
X160500Y-260220D01*
Y-262844D01*
X161156Y-263500D01*
X162468D01*
X163124Y-262844D01*
X164436Y-260220D02*
X165092Y-259564D01*
X166404D01*
X167060Y-260220D01*
Y-260876D01*
X166404Y-261532D01*
X165748D01*
X166404D01*
X167060Y-262188D01*
Y-262844D01*
X166404Y-263500D01*
X165092D01*
X164436Y-262844D01*
X168371Y-260220D02*
X169027Y-259564D01*
X170339D01*
X170995Y-260220D01*
Y-262844D01*
X170339Y-263500D01*
X169027D01*
X168371Y-262844D01*
Y-260220D01*
X-75376Y-62720D02*
X-76032Y-62064D01*
X-77344D01*
X-78000Y-62720D01*
Y-65344D01*
X-77344Y-66000D01*
X-76032D01*
X-75376Y-65344D01*
X-71440Y-66000D02*
X-74064D01*
X-71440Y-63376D01*
Y-62720D01*
X-72096Y-62064D01*
X-73408D01*
X-74064Y-62720D01*
X-70129Y-65344D02*
X-69473Y-66000D01*
X-68161D01*
X-67505Y-65344D01*
Y-62720D01*
X-68161Y-62064D01*
X-69473D01*
X-70129Y-62720D01*
Y-63376D01*
X-69473Y-64032D01*
X-67505D01*
X-75376Y-70720D02*
X-76032Y-70064D01*
X-77344D01*
X-78000Y-70720D01*
Y-73344D01*
X-77344Y-74000D01*
X-76032D01*
X-75376Y-73344D01*
X-71440Y-74000D02*
X-74064D01*
X-71440Y-71376D01*
Y-70720D01*
X-72096Y-70064D01*
X-73408D01*
X-74064Y-70720D01*
X-70129D02*
X-69473Y-70064D01*
X-68161D01*
X-67505Y-70720D01*
Y-71376D01*
X-68161Y-72032D01*
X-67505Y-72688D01*
Y-73344D01*
X-68161Y-74000D01*
X-69473D01*
X-70129Y-73344D01*
Y-72688D01*
X-69473Y-72032D01*
X-70129Y-71376D01*
Y-70720D01*
X-69473Y-72032D02*
X-68161D01*
X165124Y-209220D02*
X164468Y-208564D01*
X163156D01*
X162500Y-209220D01*
Y-211844D01*
X163156Y-212500D01*
X164468D01*
X165124Y-211844D01*
X169060Y-212500D02*
X166436D01*
X169060Y-209876D01*
Y-209220D01*
X168404Y-208564D01*
X167092D01*
X166436Y-209220D01*
X170371Y-208564D02*
X172995D01*
Y-209220D01*
X170371Y-211844D01*
Y-212500D01*
X164624Y-198720D02*
X163968Y-198064D01*
X162656D01*
X162000Y-198720D01*
Y-201344D01*
X162656Y-202000D01*
X163968D01*
X164624Y-201344D01*
X168560Y-202000D02*
X165936D01*
X168560Y-199376D01*
Y-198720D01*
X167904Y-198064D01*
X166592D01*
X165936Y-198720D01*
X172495Y-198064D02*
X171183Y-198720D01*
X169871Y-200032D01*
Y-201344D01*
X170527Y-202000D01*
X171839D01*
X172495Y-201344D01*
Y-200688D01*
X171839Y-200032D01*
X169871D01*
X167536Y-118825D02*
X166609D01*
X165681Y-119753D01*
Y-120681D01*
X167536Y-122536D01*
X168464D01*
X169392Y-121608D01*
Y-120681D01*
X172638Y-118362D02*
X170783Y-120217D01*
Y-116506D01*
X170319Y-116042D01*
X169392Y-116042D01*
X168464Y-116970D01*
Y-117898D01*
X172638Y-112796D02*
X170783Y-114651D01*
X172175Y-116042D01*
X172638Y-114651D01*
X173102Y-114187D01*
X174030D01*
X174958Y-115115D01*
X174958Y-116042D01*
X174030Y-116970D01*
X173102D01*
X191036Y-98326D02*
X190109D01*
X189181Y-99253D01*
Y-100181D01*
X191036Y-102036D01*
X191964D01*
X192892Y-101109D01*
Y-100181D01*
X196138Y-97862D02*
X194283Y-99717D01*
Y-96006D01*
X193819Y-95543D01*
X192892Y-95543D01*
X191964Y-96470D01*
Y-97398D01*
X198458Y-95543D02*
X195675Y-92760D01*
Y-95543D01*
X197530Y-93687D01*
X55124Y-315220D02*
X54468Y-314564D01*
X53156D01*
X52500Y-315220D01*
Y-317844D01*
X53156Y-318500D01*
X54468D01*
X55124Y-317844D01*
X59060Y-318500D02*
X56436D01*
X59060Y-315876D01*
Y-315220D01*
X58404Y-314564D01*
X57092D01*
X56436Y-315220D01*
X60372D02*
X61027Y-314564D01*
X62339D01*
X62995Y-315220D01*
Y-315876D01*
X62339Y-316532D01*
X61683D01*
X62339D01*
X62995Y-317188D01*
Y-317844D01*
X62339Y-318500D01*
X61027D01*
X60372Y-317844D01*
X36624Y-358220D02*
X35968Y-357564D01*
X34656D01*
X34000Y-358220D01*
Y-360844D01*
X34656Y-361500D01*
X35968D01*
X36624Y-360844D01*
X40560Y-361500D02*
X37936D01*
X40560Y-358876D01*
Y-358220D01*
X39904Y-357564D01*
X38592D01*
X37936Y-358220D01*
X44495Y-361500D02*
X41872D01*
X44495Y-358876D01*
Y-358220D01*
X43839Y-357564D01*
X42527D01*
X41872Y-358220D01*
X-2376Y-285220D02*
X-3032Y-284564D01*
X-4344D01*
X-5000Y-285220D01*
Y-287844D01*
X-4344Y-288500D01*
X-3032D01*
X-2376Y-287844D01*
X1560Y-288500D02*
X-1064D01*
X1560Y-285876D01*
Y-285220D01*
X904Y-284564D01*
X-408D01*
X-1064Y-285220D01*
X2871Y-288500D02*
X4183D01*
X3527D01*
Y-284564D01*
X2871Y-285220D01*
X30780Y-121124D02*
X31436Y-120468D01*
Y-119156D01*
X30780Y-118500D01*
X28156D01*
X27500Y-119156D01*
Y-120468D01*
X28156Y-121124D01*
X27500Y-125060D02*
Y-122436D01*
X30124Y-125060D01*
X30780D01*
X31436Y-124404D01*
Y-123092D01*
X30780Y-122436D01*
Y-126372D02*
X31436Y-127027D01*
Y-128339D01*
X30780Y-128995D01*
X28156D01*
X27500Y-128339D01*
Y-127027D01*
X28156Y-126372D01*
X30780D01*
X26780Y-359624D02*
X27436Y-358968D01*
Y-357656D01*
X26780Y-357000D01*
X24156D01*
X23500Y-357656D01*
Y-358968D01*
X24156Y-359624D01*
X23500Y-360936D02*
Y-362248D01*
Y-361592D01*
X27436D01*
X26780Y-360936D01*
X24156Y-364215D02*
X23500Y-364872D01*
Y-366183D01*
X24156Y-366839D01*
X26780D01*
X27436Y-366183D01*
Y-364872D01*
X26780Y-364215D01*
X26124D01*
X25468Y-364872D01*
Y-366839D01*
X229124Y-117220D02*
X228468Y-116564D01*
X227156D01*
X226500Y-117220D01*
Y-119844D01*
X227156Y-120500D01*
X228468D01*
X229124Y-119844D01*
X230436Y-120500D02*
X231748D01*
X231092D01*
Y-116564D01*
X230436Y-117220D01*
X233716Y-116564D02*
X236339D01*
Y-117220D01*
X233716Y-119844D01*
Y-120500D01*
X43124Y-100720D02*
X42468Y-100064D01*
X41156D01*
X40500Y-100720D01*
Y-103344D01*
X41156Y-104000D01*
X42468D01*
X43124Y-103344D01*
X44436Y-104000D02*
X45748D01*
X45092D01*
Y-100064D01*
X44436Y-100720D01*
X50339Y-100064D02*
X49027Y-100720D01*
X47715Y-102032D01*
Y-103344D01*
X48371Y-104000D01*
X49683D01*
X50339Y-103344D01*
Y-102688D01*
X49683Y-102032D01*
X47715D01*
X212624Y-183720D02*
X211968Y-183064D01*
X210656D01*
X210000Y-183720D01*
Y-186344D01*
X210656Y-187000D01*
X211968D01*
X212624Y-186344D01*
X213936Y-187000D02*
X215248D01*
X214592D01*
Y-183064D01*
X213936Y-183720D01*
X219839Y-183064D02*
X217215D01*
Y-185032D01*
X218527Y-184376D01*
X219183D01*
X219839Y-185032D01*
Y-186344D01*
X219183Y-187000D01*
X217871D01*
X217215Y-186344D01*
X122780Y-122124D02*
X123436Y-121468D01*
Y-120156D01*
X122780Y-119500D01*
X120156D01*
X119500Y-120156D01*
Y-121468D01*
X120156Y-122124D01*
X119500Y-123436D02*
Y-124748D01*
Y-124092D01*
X123436D01*
X122780Y-123436D01*
X119500Y-128683D02*
X123436D01*
X121468Y-126716D01*
Y-129339D01*
X263280Y-163624D02*
X263936Y-162968D01*
Y-161656D01*
X263280Y-161000D01*
X260656D01*
X260000Y-161656D01*
Y-162968D01*
X260656Y-163624D01*
X260000Y-164936D02*
Y-166248D01*
Y-165592D01*
X263936D01*
X263280Y-164936D01*
Y-168216D02*
X263936Y-168871D01*
Y-170183D01*
X263280Y-170839D01*
X262624D01*
X261968Y-170183D01*
Y-169527D01*
Y-170183D01*
X261312Y-170839D01*
X260656D01*
X260000Y-170183D01*
Y-168871D01*
X260656Y-168216D01*
X209780Y-155624D02*
X210436Y-154968D01*
Y-153656D01*
X209780Y-153000D01*
X207156D01*
X206500Y-153656D01*
Y-154968D01*
X207156Y-155624D01*
X206500Y-156936D02*
Y-158248D01*
Y-157592D01*
X210436D01*
X209780Y-156936D01*
X206500Y-162839D02*
Y-160215D01*
X209124Y-162839D01*
X209780D01*
X210436Y-162183D01*
Y-160872D01*
X209780Y-160215D01*
X72036Y-133326D02*
X71109D01*
X70181Y-134253D01*
Y-135181D01*
X72036Y-137036D01*
X72964D01*
X73892Y-136109D01*
Y-135181D01*
X75283Y-134717D02*
X76211Y-133789D01*
X75747Y-134253D01*
X72964Y-131470D01*
Y-132398D01*
X77602D02*
X78530Y-131470D01*
X78066Y-131934D01*
X75283Y-129151D01*
Y-130079D01*
X86124Y-140220D02*
X85468Y-139564D01*
X84156D01*
X83500Y-140220D01*
Y-142844D01*
X84156Y-143500D01*
X85468D01*
X86124Y-142844D01*
X87436Y-143500D02*
X88748D01*
X88092D01*
Y-139564D01*
X87436Y-140220D01*
X90715D02*
X91372Y-139564D01*
X92683D01*
X93339Y-140220D01*
Y-142844D01*
X92683Y-143500D01*
X91372D01*
X90715Y-142844D01*
Y-140220D01*
X-17220Y-50124D02*
X-16564Y-49468D01*
Y-48156D01*
X-17220Y-47500D01*
X-19844D01*
X-20500Y-48156D01*
Y-49468D01*
X-19844Y-50124D01*
Y-51436D02*
X-20500Y-52092D01*
Y-53404D01*
X-19844Y-54060D01*
X-17220D01*
X-16564Y-53404D01*
Y-52092D01*
X-17220Y-51436D01*
X-17876D01*
X-18532Y-52092D01*
Y-54060D01*
X201624Y-59220D02*
X200968Y-58564D01*
X199656D01*
X199000Y-59220D01*
Y-61844D01*
X199656Y-62500D01*
X200968D01*
X201624Y-61844D01*
X202936Y-59220D02*
X203592Y-58564D01*
X204904D01*
X205560Y-59220D01*
Y-59876D01*
X204904Y-60532D01*
X205560Y-61188D01*
Y-61844D01*
X204904Y-62500D01*
X203592D01*
X202936Y-61844D01*
Y-61188D01*
X203592Y-60532D01*
X202936Y-59876D01*
Y-59220D01*
X203592Y-60532D02*
X204904D01*
X-29318Y-90470D02*
X-29974Y-89814D01*
X-31285D01*
X-31941Y-90470D01*
Y-93094D01*
X-31285Y-93750D01*
X-29974D01*
X-29318Y-93094D01*
X-28006Y-89814D02*
X-25382D01*
Y-90470D01*
X-28006Y-93094D01*
Y-93750D01*
X126124Y-273720D02*
X125468Y-273064D01*
X124156D01*
X123500Y-273720D01*
Y-276344D01*
X124156Y-277000D01*
X125468D01*
X126124Y-276344D01*
X130060Y-273064D02*
X128748Y-273720D01*
X127436Y-275032D01*
Y-276344D01*
X128092Y-277000D01*
X129404D01*
X130060Y-276344D01*
Y-275688D01*
X129404Y-275032D01*
X127436D01*
X125624Y-323720D02*
X124968Y-323064D01*
X123656D01*
X123000Y-323720D01*
Y-326344D01*
X123656Y-327000D01*
X124968D01*
X125624Y-326344D01*
X129560Y-323064D02*
X126936D01*
Y-325032D01*
X128248Y-324376D01*
X128904D01*
X129560Y-325032D01*
Y-326344D01*
X128904Y-327000D01*
X127592D01*
X126936Y-326344D01*
X127174Y-351036D02*
Y-350109D01*
X126247Y-349181D01*
X125319D01*
X123464Y-351036D01*
Y-351964D01*
X124391Y-352891D01*
X125319D01*
X127174Y-355675D02*
X129957Y-352891D01*
X127174D01*
X129030Y-354747D01*
X137780Y-198624D02*
X138436Y-197968D01*
Y-196656D01*
X137780Y-196000D01*
X135156D01*
X134500Y-196656D01*
Y-197968D01*
X135156Y-198624D01*
X137780Y-199936D02*
X138436Y-200592D01*
Y-201904D01*
X137780Y-202560D01*
X137124D01*
X136468Y-201904D01*
Y-201248D01*
Y-201904D01*
X135812Y-202560D01*
X135156D01*
X134500Y-201904D01*
Y-200592D01*
X135156Y-199936D01*
X138729Y-151365D02*
X139385Y-150709D01*
Y-149397D01*
X138729Y-148741D01*
X136105D01*
X135449Y-149397D01*
Y-150709D01*
X136105Y-151365D01*
X135449Y-155301D02*
Y-152677D01*
X138073Y-155301D01*
X138729D01*
X139385Y-154645D01*
Y-153333D01*
X138729Y-152677D01*
X144280Y-229624D02*
X144936Y-228968D01*
Y-227656D01*
X144280Y-227000D01*
X141656D01*
X141000Y-227656D01*
Y-228968D01*
X141656Y-229624D01*
X141000Y-230936D02*
Y-232248D01*
Y-231592D01*
X144936D01*
X144280Y-230936D01*
D14*
X216550Y-107800D02*
G03*
X216550Y-107800I-350J0D01*
G01*
D15*
X47299Y-336150D02*
Y-330850D01*
X34701Y-336150D02*
Y-330850D01*
D16*
X-2276Y-267801D02*
X-3276Y-268801D01*
Y-270800D01*
X-2276Y-271800D01*
X1723D01*
X2722Y-270800D01*
Y-268801D01*
X1723Y-267801D01*
X2722Y-265802D02*
X-1276D01*
X-3276Y-263803D01*
X-1276Y-261803D01*
X2722D01*
X-277D01*
Y-265802D01*
X2722Y-259804D02*
X-3276D01*
Y-256805D01*
X-2276Y-255805D01*
X-277D01*
X723Y-256805D01*
Y-259804D01*
X-3276Y-249807D02*
Y-253806D01*
X2722D01*
Y-249807D01*
X-277Y-253806D02*
Y-251806D01*
Y-247808D02*
Y-243809D01*
X-2276Y-241810D02*
X-3276Y-240810D01*
Y-238811D01*
X-2276Y-237811D01*
X-1276D01*
X-277Y-238811D01*
Y-239810D01*
Y-238811D01*
X723Y-237811D01*
X1723D01*
X2722Y-238811D01*
Y-240810D01*
X1723Y-241810D01*
X2722Y-229814D02*
X-1276D01*
X-3276Y-227814D01*
X-1276Y-225815D01*
X2722D01*
X-277D01*
Y-229814D01*
X-3276Y-223815D02*
X2722Y-219817D01*
X-3276D02*
X2722Y-223815D01*
X-3276Y-213819D02*
Y-217817D01*
X-277D01*
X-1276Y-215818D01*
Y-214818D01*
X-277Y-213819D01*
X1723D01*
X2722Y-214818D01*
Y-216818D01*
X1723Y-217817D01*
X-2276Y-211819D02*
X-3276Y-210820D01*
Y-208820D01*
X-2276Y-207821D01*
X1723D01*
X2722Y-208820D01*
Y-210820D01*
X1723Y-211819D01*
X-2276D01*
X2722Y-202822D02*
X-3276D01*
X-277Y-205821D01*
Y-201823D01*
X-2276Y-199823D02*
X-3276Y-198824D01*
Y-196824D01*
X-2276Y-195825D01*
X-1276D01*
X-277Y-196824D01*
Y-197824D01*
Y-196824D01*
X723Y-195825D01*
X1723D01*
X2722Y-196824D01*
Y-198824D01*
X1723Y-199823D01*
X12800Y-271800D02*
X6802D01*
Y-268801D01*
X7802Y-267801D01*
X9801D01*
X10801Y-268801D01*
Y-271800D01*
Y-269801D02*
X12800Y-267801D01*
X8801Y-264802D02*
Y-262803D01*
X9801Y-261803D01*
X12800D01*
Y-264802D01*
X11800Y-265802D01*
X10801Y-264802D01*
Y-261803D01*
X6802Y-255805D02*
X12800D01*
Y-258804D01*
X11800Y-259804D01*
X9801D01*
X8801Y-258804D01*
Y-255805D01*
X12800Y-253806D02*
Y-251806D01*
Y-252806D01*
X8801D01*
Y-253806D01*
X12800Y-247808D02*
Y-245808D01*
X11800Y-244809D01*
X9801D01*
X8801Y-245808D01*
Y-247808D01*
X9801Y-248807D01*
X11800D01*
X12800Y-247808D01*
X6802Y-236811D02*
X12800D01*
Y-233812D01*
X11800Y-232813D01*
X10801D01*
X9801Y-233812D01*
Y-236811D01*
Y-233812D01*
X8801Y-232813D01*
X7802D01*
X6802Y-233812D01*
Y-236811D01*
X12800Y-229814D02*
Y-227814D01*
X11800Y-226815D01*
X9801D01*
X8801Y-227814D01*
Y-229814D01*
X9801Y-230813D01*
X11800D01*
X12800Y-229814D01*
X8801Y-223815D02*
Y-221816D01*
X9801Y-220816D01*
X12800D01*
Y-223815D01*
X11800Y-224815D01*
X10801Y-223815D01*
Y-220816D01*
X8801Y-218817D02*
X12800D01*
X10801D01*
X9801Y-217817D01*
X8801Y-216818D01*
Y-215818D01*
X6802Y-208820D02*
X12800D01*
Y-211819D01*
X11800Y-212819D01*
X9801D01*
X8801Y-211819D01*
Y-208820D01*
D17*
X156668Y2000D02*
X160000D01*
X156668Y-1332D01*
Y-2165D01*
X157501Y-2998D01*
X159167D01*
X160000Y-2165D01*
X158000Y12000D02*
X156334D01*
X157167D01*
Y7002D01*
X158000Y7835D01*
X-6000D02*
X-6833Y7002D01*
X-8499D01*
X-9332Y7835D01*
Y8668D01*
X-8499Y9501D01*
X-7666D01*
X-8499D01*
X-9332Y10334D01*
Y11167D01*
X-8499Y12000D01*
X-6833D01*
X-6000Y11167D01*
X-10998Y12000D02*
X-12664D01*
X-11831D01*
Y7002D01*
X-10998Y7835D01*
X-6000Y-2165D02*
X-6833Y-2998D01*
X-8499D01*
X-9332Y-2165D01*
Y-1332D01*
X-8499Y-499D01*
X-7666D01*
X-8499D01*
X-9332Y334D01*
Y1167D01*
X-8499Y2000D01*
X-6833D01*
X-6000Y1167D01*
X-14331Y2000D02*
X-10998D01*
X-14331Y-1332D01*
Y-2165D01*
X-13498Y-2998D01*
X-11831D01*
X-10998Y-2165D01*
M02*
