M48
;Layer_Color=9474304
;FILE_FORMAT=2:5
INCH,LZ
;TYPE=PLATED
T1F00S00C0.01200
T2F00S00C0.02000
T3F00S00C0.02756
T4F00S00C0.02795
T5F00S00C0.03543
;TYPE=NON_PLATED
T6F00S00C0.05512
%
T01
X0221248Y-0264291
Y-0259961
Y-025563
X0225579
X0229909
Y-0259961
X0225579
Y-0264291
X0229909
T02
X01535Y-03425
Y-03335
X01485Y-0312
X007Y-0332
X00615Y-03545
X0066Y-036
X00545Y-03485
X0032Y-03395
X00005Y-0331
X-0003Y-03225
X-0018Y-0314
X-0029Y-03415
X-0057Y-034
X-0046Y-0326
X-0045Y-0358
X-00105Y-03605
X-00055Y-03545
X-0018Y-0294
X-00325Y-0305
X00185Y-02935
X0071Y-0274
X0077Y-02465
X0069Y-0235
X0061Y-02235
X0063Y-0188
X0065Y-0175
X-0052Y-01915
X-0021Y-02225
X01085Y-0232
X0107Y-0207
X01385Y-0206
X015Y-02055
X01655Y-0187
X02035Y-0189
X02095Y-0244
X0171Y-02275
X01645Y-02335
X01345Y-024
X0147Y-02675
X0157Y-0277
X0167Y-0297
X0203Y-0307
X0216Y-03045
X02275
X0144Y-01545
X009Y-01605
X0235209Y-0230209
X02455Y-0237
X02475Y-0304
X0255Y-01535
X02625Y-0153
X0245Y-0118
X0207Y-01465
X0173Y-01385
X01675Y-01425
X01595Y-013
X017Y-01105
X0124Y-0113
X0114Y-01055
X01185Y-00975
X0134Y-0067
X0091Y-00775
X01015Y-01425
X0109Y-01375
X0137716Y-0146783
X0214Y-00635
X00465Y-0062
X00055Y-0053
X-00025Y-0057
X-0009Y-0027
X-00385Y-00355
X-00475Y-00405
X-00505Y-00945
X-00525Y-0129
X-00365Y-01325
X-00065Y-0124
X00145Y-01095
X-00695Y0003
T03
X0192Y-0132
X0198793Y-0125207
X0205585Y-0118415
T04
X0237126Y-03525
X0245
X0245Y-0344626
X0237126
X0229252
X0229252Y-03525
X0221378
X0213504
X020563
X0197756
X0189882
X0182008
X0182008Y-0344626
X0189882
X0197756
X020563
X0213504
X0221378
X0032205Y-0266819
Y-0258945
Y-0251071
Y-0243197
Y-0235323
Y-0227449
Y-0219575
Y-0211701
Y-0203827
X0024331Y-0203827
Y-0211701
Y-0219575
Y-0227449
Y-0235323
Y-0243197
Y-0251071
Y-0258945
Y-0266819
T05
X0091299Y-03525
Y-03425
Y-03325
Y-03225
Y-03125
X-0098701
Y-03225
Y-03325
Y-03425
Y-03525
Y-03025
Y-02825
Y-02725
Y-02625
Y-02525
Y-02425
Y-02325
Y-02225
Y-02125
X0091299Y-02165
Y-02265
Y-02365
Y-02465
Y-02565
Y-02665
Y-02825
Y-02925
Y-03025
Y-02065
Y-01965
Y-01865
Y-01765
X0265Y-00975
Y-00875
Y-00775
Y-00675
Y-00575
X015Y-0
X014
X013
X012Y0
X011Y-0
X01
X009Y0
X008Y-0
X007
X006
X005
X004Y0
X003
X002Y-0
X001
X0Y0
Y001
X001
X002
X003
X004
X005
X006
X007
X008
X009
X01
X011
X012
X013
X014
X015
T06
X-0077Y-0021
X-0098654
M30
