G04*
G04 #@! TF.GenerationSoftware,Altium Limited,Altium Designer,19.1.6 (110)*
G04*
G04 Layer_Physical_Order=1*
G04 Layer_Color=255*
%FSLAX25Y25*%
%MOIN*%
G70*
G01*
G75*
%ADD15C,0.01000*%
%ADD17C,0.00800*%
%ADD18O,0.07874X0.01575*%
%ADD19R,0.07480X0.05906*%
%ADD20R,0.05906X0.07480*%
G04:AMPARAMS|DCode=21|XSize=59.06mil|YSize=74.8mil|CornerRadius=0mil|HoleSize=0mil|Usage=FLASHONLY|Rotation=45.000|XOffset=0mil|YOffset=0mil|HoleType=Round|Shape=Rectangle|*
%AMROTATEDRECTD21*
4,1,4,0.00557,-0.04733,-0.04733,0.00557,-0.00557,0.04733,0.04733,-0.00557,0.00557,-0.04733,0.0*
%
%ADD21ROTATEDRECTD21*%

G04:AMPARAMS|DCode=22|XSize=17.72mil|YSize=49.21mil|CornerRadius=1.95mil|HoleSize=0mil|Usage=FLASHONLY|Rotation=0.000|XOffset=0mil|YOffset=0mil|HoleType=Round|Shape=RoundedRectangle|*
%AMROUNDEDRECTD22*
21,1,0.01772,0.04532,0,0,0.0*
21,1,0.01382,0.04921,0,0,0.0*
1,1,0.00390,0.00691,-0.02266*
1,1,0.00390,-0.00691,-0.02266*
1,1,0.00390,-0.00691,0.02266*
1,1,0.00390,0.00691,0.02266*
%
%ADD22ROUNDEDRECTD22*%
%ADD23R,0.05906X0.06890*%
G04:AMPARAMS|DCode=24|XSize=25.59mil|YSize=47.24mil|CornerRadius=1.92mil|HoleSize=0mil|Usage=FLASHONLY|Rotation=180.000|XOffset=0mil|YOffset=0mil|HoleType=Round|Shape=RoundedRectangle|*
%AMROUNDEDRECTD24*
21,1,0.02559,0.04341,0,0,180.0*
21,1,0.02175,0.04724,0,0,180.0*
1,1,0.00384,-0.01088,0.02170*
1,1,0.00384,0.01088,0.02170*
1,1,0.00384,0.01088,-0.02170*
1,1,0.00384,-0.01088,-0.02170*
%
%ADD24ROUNDEDRECTD24*%
G04:AMPARAMS|DCode=25|XSize=25.59mil|YSize=82.68mil|CornerRadius=1.92mil|HoleSize=0mil|Usage=FLASHONLY|Rotation=90.000|XOffset=0mil|YOffset=0mil|HoleType=Round|Shape=RoundedRectangle|*
%AMROUNDEDRECTD25*
21,1,0.02559,0.07884,0,0,90.0*
21,1,0.02175,0.08268,0,0,90.0*
1,1,0.00384,0.03942,0.01088*
1,1,0.00384,0.03942,-0.01088*
1,1,0.00384,-0.03942,-0.01088*
1,1,0.00384,-0.03942,0.01088*
%
%ADD25ROUNDEDRECTD25*%
%ADD26R,0.07795X0.02087*%
%ADD27O,0.09449X0.01772*%
%ADD28O,0.07480X0.02362*%
%ADD29O,0.07874X0.01378*%
%ADD30R,0.04724X0.07087*%
%ADD31O,0.03150X0.00787*%
%ADD32O,0.00787X0.03150*%
%ADD33R,0.12205X0.12205*%
%ADD34R,0.07992X0.14961*%
%ADD35R,0.04724X0.06299*%
%ADD36R,0.15000X0.11000*%
%ADD37R,0.02756X0.11811*%
%ADD38R,0.13386X0.23779*%
%ADD70C,0.04000*%
%ADD71C,0.05000*%
%ADD72C,0.02500*%
%ADD73C,0.02800*%
%ADD74C,0.05906*%
%ADD75R,0.05906X0.05906*%
%ADD76R,0.03543X0.03543*%
%ADD77C,0.03543*%
%ADD78R,0.03543X0.03543*%
%ADD79P,0.06681X4X90.0*%
%ADD80C,0.04724*%
%ADD81R,0.05906X0.05906*%
%ADD82C,0.02362*%
%ADD83C,0.04000*%
%ADD84C,0.02400*%
G36*
X268981Y-53047D02*
X260547D01*
Y-61953D01*
X268981D01*
Y-64552D01*
X268480Y-64721D01*
X268176Y-64324D01*
X267246Y-63611D01*
X266162Y-63162D01*
X265000Y-63009D01*
X263838Y-63162D01*
X262754Y-63611D01*
X261824Y-64324D01*
X261110Y-65254D01*
X260662Y-66338D01*
X260509Y-67500D01*
X260662Y-68662D01*
X261110Y-69746D01*
X261824Y-70676D01*
X262754Y-71390D01*
X263838Y-71838D01*
X265000Y-71991D01*
X266162Y-71838D01*
X267246Y-71390D01*
X268176Y-70676D01*
X268480Y-70279D01*
X268981Y-70448D01*
Y-75474D01*
X268480Y-75573D01*
X268453Y-75507D01*
X267819Y-74681D01*
X266993Y-74047D01*
X266032Y-73649D01*
X265500Y-73579D01*
Y-77500D01*
Y-81421D01*
X266032Y-81351D01*
X266993Y-80953D01*
X267819Y-80319D01*
X268453Y-79493D01*
X268480Y-79426D01*
X268981Y-79526D01*
Y-84552D01*
X268480Y-84721D01*
X268176Y-84324D01*
X267246Y-83610D01*
X266162Y-83162D01*
X265000Y-83009D01*
X263838Y-83162D01*
X262754Y-83610D01*
X261824Y-84324D01*
X261110Y-85254D01*
X260662Y-86338D01*
X260509Y-87500D01*
X260662Y-88662D01*
X261110Y-89746D01*
X261824Y-90676D01*
X262754Y-91390D01*
X263838Y-91838D01*
X265000Y-91991D01*
X266162Y-91838D01*
X267246Y-91390D01*
X268176Y-90676D01*
X268480Y-90279D01*
X268981Y-90448D01*
Y-94552D01*
X268480Y-94721D01*
X268176Y-94324D01*
X267246Y-93611D01*
X266162Y-93162D01*
X265000Y-93009D01*
X263838Y-93162D01*
X262754Y-93611D01*
X261824Y-94324D01*
X261110Y-95254D01*
X260662Y-96338D01*
X260509Y-97500D01*
X260662Y-98662D01*
X261110Y-99746D01*
X261824Y-100676D01*
X262754Y-101390D01*
X263838Y-101838D01*
X265000Y-101991D01*
X266162Y-101838D01*
X267246Y-101390D01*
X268176Y-100676D01*
X268480Y-100279D01*
X268981Y-100448D01*
Y-376481D01*
X146313D01*
X146152Y-376007D01*
X146353Y-375853D01*
X173545Y-348660D01*
X182008D01*
X183052Y-348523D01*
X184025Y-348120D01*
X184861Y-347479D01*
X185502Y-346643D01*
X185905Y-345670D01*
X186042Y-344626D01*
X185905Y-343582D01*
X185502Y-342609D01*
X184861Y-341773D01*
X184025Y-341132D01*
X183052Y-340729D01*
X182008Y-340592D01*
X171874D01*
X171874Y-340592D01*
X170830Y-340729D01*
X169857Y-341132D01*
X169021Y-341773D01*
X141829Y-368966D01*
X137126D01*
X136918Y-368465D01*
X165345Y-340039D01*
X190155D01*
X191210Y-341094D01*
X190927Y-341517D01*
X190736Y-341439D01*
X189882Y-341326D01*
X189028Y-341439D01*
X188232Y-341768D01*
X187548Y-342293D01*
X187024Y-342976D01*
X186695Y-343772D01*
X186582Y-344626D01*
X186695Y-345480D01*
X187024Y-346276D01*
X187548Y-346959D01*
X188232Y-347484D01*
X189028Y-347813D01*
X189882Y-347926D01*
X190736Y-347813D01*
X191461Y-347513D01*
X191961Y-347708D01*
Y-349418D01*
X191461Y-349613D01*
X190736Y-349313D01*
X189882Y-349200D01*
X189028Y-349313D01*
X188232Y-349642D01*
X187548Y-350167D01*
X187024Y-350850D01*
X186694Y-351646D01*
X186582Y-352500D01*
X186694Y-353354D01*
X186865Y-353766D01*
X186441Y-354050D01*
X185259Y-352868D01*
X185308Y-352500D01*
X185195Y-351646D01*
X184866Y-350850D01*
X184341Y-350167D01*
X183658Y-349642D01*
X182862Y-349313D01*
X182008Y-349200D01*
X181154Y-349313D01*
X180358Y-349642D01*
X179674Y-350167D01*
X179150Y-350850D01*
X178820Y-351646D01*
X178708Y-352500D01*
X178820Y-353354D01*
X179150Y-354150D01*
X179674Y-354833D01*
X180358Y-355358D01*
X181154Y-355687D01*
X182008Y-355800D01*
X182376Y-355751D01*
X186066Y-359442D01*
X186727Y-359884D01*
X187508Y-360039D01*
X191000D01*
X191780Y-359884D01*
X192442Y-359442D01*
X195442Y-356442D01*
X195884Y-355780D01*
X196449Y-355500D01*
X196902Y-355687D01*
X197756Y-355800D01*
X198610Y-355687D01*
X199406Y-355358D01*
X200089Y-354833D01*
X200614Y-354150D01*
X200943Y-353354D01*
X201056Y-352500D01*
X200943Y-351646D01*
X200773Y-351234D01*
X201196Y-350950D01*
X202378Y-352132D01*
X202330Y-352500D01*
X202443Y-353354D01*
X202772Y-354150D01*
X203296Y-354833D01*
X203980Y-355358D01*
X204776Y-355687D01*
X205630Y-355800D01*
X206484Y-355687D01*
X207280Y-355358D01*
X207963Y-354833D01*
X208488Y-354150D01*
X208817Y-353354D01*
X208930Y-352500D01*
X208817Y-351646D01*
X208488Y-350850D01*
X207963Y-350167D01*
X207280Y-349642D01*
X206484Y-349313D01*
X205630Y-349200D01*
X205262Y-349249D01*
X204359Y-348346D01*
X204375Y-348188D01*
X204542Y-348032D01*
X204912Y-347831D01*
X205630Y-347926D01*
X206484Y-347813D01*
X207280Y-347484D01*
X207963Y-346959D01*
X208488Y-346276D01*
X208817Y-345480D01*
X208930Y-344626D01*
X208817Y-343772D01*
X208488Y-342976D01*
X207963Y-342293D01*
X207280Y-341768D01*
X206484Y-341439D01*
X205630Y-341326D01*
X204776Y-341439D01*
X204455Y-341571D01*
X204039Y-341294D01*
Y-340000D01*
X203884Y-339220D01*
X203442Y-338558D01*
X196942Y-332058D01*
X196280Y-331616D01*
X195500Y-331461D01*
X156347D01*
X155996Y-331004D01*
X155265Y-330443D01*
X154414Y-330090D01*
X153500Y-329970D01*
X152586Y-330090D01*
X151735Y-330443D01*
X151004Y-331004D01*
X150653Y-331461D01*
X145000D01*
X144220Y-331616D01*
X143558Y-332058D01*
X138727Y-336889D01*
X138479Y-337260D01*
X134039D01*
Y-327345D01*
X139158Y-322225D01*
X139601Y-321564D01*
X139756Y-320783D01*
Y-317740D01*
X142169D01*
Y-314539D01*
X146060D01*
X146735Y-315057D01*
X147586Y-315410D01*
X148500Y-315530D01*
X149414Y-315410D01*
X150265Y-315057D01*
X150940Y-314539D01*
X241155D01*
X256461Y-329845D01*
Y-359655D01*
X249155Y-366961D01*
X238723D01*
X227702Y-355941D01*
X227986Y-355517D01*
X228398Y-355687D01*
X229252Y-355800D01*
X230106Y-355687D01*
X230902Y-355358D01*
X231585Y-354833D01*
X232110Y-354150D01*
X232439Y-353354D01*
X232552Y-352500D01*
X232439Y-351646D01*
X232110Y-350850D01*
X231585Y-350167D01*
X230902Y-349642D01*
X230106Y-349313D01*
X229252Y-349200D01*
X228398Y-349313D01*
X227602Y-349642D01*
X226919Y-350167D01*
X226394Y-350850D01*
X226064Y-351646D01*
X225952Y-352500D01*
X226064Y-353354D01*
X226235Y-353766D01*
X225812Y-354050D01*
X224629Y-352868D01*
X224678Y-352500D01*
X224565Y-351646D01*
X224236Y-350850D01*
X223711Y-350167D01*
X223028Y-349642D01*
X222232Y-349313D01*
X221378Y-349200D01*
X220524Y-349313D01*
X219728Y-349642D01*
X219045Y-350167D01*
X218520Y-350850D01*
X218191Y-351646D01*
X218078Y-352500D01*
X218191Y-353354D01*
X218520Y-354150D01*
X219045Y-354833D01*
X219728Y-355358D01*
X220524Y-355687D01*
X221378Y-355800D01*
X221746Y-355751D01*
X236436Y-370442D01*
X237098Y-370884D01*
X237878Y-371039D01*
X250000D01*
X250780Y-370884D01*
X251442Y-370442D01*
X259942Y-361942D01*
X259942Y-361942D01*
X260384Y-361280D01*
X260539Y-360500D01*
X260539Y-360500D01*
Y-329000D01*
X260384Y-328220D01*
X259942Y-327558D01*
X243821Y-311437D01*
X244028Y-310937D01*
X259500D01*
X260241Y-310790D01*
X260870Y-310370D01*
X266370Y-304870D01*
X266790Y-304241D01*
X266937Y-303500D01*
Y-237000D01*
Y-231000D01*
X266790Y-230259D01*
X266370Y-229630D01*
X248370Y-211630D01*
X247741Y-211210D01*
X247000Y-211063D01*
X231802D01*
X221937Y-201198D01*
Y-191160D01*
X222130Y-190740D01*
X222138D01*
X222630Y-190760D01*
X222630Y-191240D01*
Y-195000D01*
X230535D01*
Y-191240D01*
X230535Y-190760D01*
X231027Y-190740D01*
X231035D01*
Y-180260D01*
X230953D01*
Y-170760D01*
X228539D01*
Y-164000D01*
X228384Y-163220D01*
X227942Y-162558D01*
X226692Y-161308D01*
X226030Y-160866D01*
X225260Y-160713D01*
X225352Y-160250D01*
X225174Y-159358D01*
X224936Y-159000D01*
X225174Y-158642D01*
X225352Y-157750D01*
X225174Y-156858D01*
X224936Y-156500D01*
X225174Y-156142D01*
X225352Y-155250D01*
X225174Y-154358D01*
X224936Y-154000D01*
X225174Y-153642D01*
X225352Y-152750D01*
X225174Y-151857D01*
X224936Y-151500D01*
X225174Y-151143D01*
X225352Y-150250D01*
X225174Y-149357D01*
X224936Y-149000D01*
X225174Y-148643D01*
X225352Y-147750D01*
X225174Y-146858D01*
X224936Y-146500D01*
X225174Y-146142D01*
X225352Y-145250D01*
X225174Y-144358D01*
X224936Y-144000D01*
X225174Y-143642D01*
X225352Y-142750D01*
X225174Y-141858D01*
X224936Y-141500D01*
X225174Y-141142D01*
X225352Y-140250D01*
X225174Y-139357D01*
X224936Y-139000D01*
X225174Y-138643D01*
X225352Y-137750D01*
X225174Y-136857D01*
X224669Y-136101D01*
X223912Y-135595D01*
X223020Y-135418D01*
X216721D01*
X215828Y-135595D01*
X215655Y-135711D01*
X215595D01*
X207625Y-127741D01*
Y-121837D01*
X211047Y-118415D01*
X205585Y-112953D01*
X204296Y-114242D01*
X199233Y-109178D01*
X201354Y-107057D01*
X193943Y-99646D01*
X187646Y-105943D01*
X195057Y-113354D01*
X196349Y-112062D01*
X201412Y-117126D01*
X200123Y-118415D01*
X203546Y-121837D01*
Y-128585D01*
X203701Y-129366D01*
X204143Y-130027D01*
X211865Y-137749D01*
X211674Y-138211D01*
X201095D01*
X195778Y-132894D01*
X195896Y-132000D01*
X195763Y-130992D01*
X195374Y-130052D01*
X194755Y-129245D01*
X193948Y-128626D01*
X193008Y-128237D01*
X192000Y-128104D01*
X191106Y-128222D01*
X185397Y-122513D01*
X186854Y-121057D01*
X179443Y-113646D01*
X173146Y-119943D01*
X180557Y-127354D01*
X182513Y-125397D01*
X188222Y-131106D01*
X188104Y-132000D01*
X188237Y-133008D01*
X188626Y-133948D01*
X189245Y-134755D01*
X190052Y-135374D01*
X190992Y-135763D01*
X192000Y-135896D01*
X192894Y-135778D01*
X198616Y-141500D01*
X196155Y-143961D01*
X181345D01*
X176455Y-139071D01*
X176530Y-138500D01*
X176410Y-137586D01*
X176057Y-136735D01*
X175496Y-136004D01*
X174765Y-135443D01*
X173914Y-135090D01*
X173184Y-134994D01*
X172794Y-134699D01*
X172698Y-134505D01*
X172769Y-134435D01*
X174925Y-132279D01*
X171927Y-129280D01*
X169485Y-131722D01*
X172219Y-134456D01*
X172233Y-134470D01*
D01*
X172319Y-134555D01*
X172258Y-134743D01*
X172258D01*
Y-134743D01*
X172258Y-134743D01*
X171973Y-135137D01*
X171235Y-135443D01*
X170504Y-136004D01*
X169943Y-136735D01*
X169590Y-137586D01*
X169470Y-138500D01*
X169541Y-139038D01*
X169501Y-139097D01*
X169079Y-139366D01*
X168414Y-139090D01*
X167500Y-138970D01*
X166586Y-139090D01*
X165735Y-139443D01*
X165004Y-140004D01*
X164443Y-140735D01*
X164090Y-141586D01*
X163970Y-142500D01*
X164090Y-143414D01*
X164443Y-144265D01*
X165004Y-144996D01*
X165646Y-145489D01*
Y-146760D01*
X163130D01*
Y-157240D01*
X172035D01*
Y-146760D01*
X169520D01*
Y-145362D01*
X169996Y-144996D01*
X170557Y-144265D01*
X170910Y-143414D01*
X171030Y-142500D01*
X170959Y-141962D01*
X171000Y-141903D01*
X171421Y-141634D01*
X172086Y-141910D01*
X173000Y-142030D01*
X173571Y-141955D01*
X177914Y-146298D01*
X177723Y-146760D01*
X174547D01*
Y-157240D01*
X183453D01*
Y-154039D01*
X185260D01*
Y-156453D01*
X195740D01*
Y-156453D01*
X195760D01*
Y-156453D01*
X206240D01*
Y-154789D01*
X209674D01*
X209865Y-155251D01*
X206152Y-158965D01*
X195760D01*
Y-158965D01*
X195740Y-158965D01*
Y-158965D01*
X185260D01*
Y-167870D01*
X195740D01*
Y-167870D01*
X195760Y-167870D01*
Y-167870D01*
X206240D01*
Y-164268D01*
X206435Y-164230D01*
X207096Y-163788D01*
X213595Y-157289D01*
X214086D01*
X214403Y-157676D01*
X214388Y-157750D01*
X214566Y-158642D01*
X214805Y-159000D01*
X214566Y-159358D01*
X214388Y-160250D01*
X214566Y-161143D01*
X214805Y-161500D01*
X214566Y-161857D01*
X214388Y-162750D01*
X214566Y-163643D01*
X215071Y-164399D01*
X215118Y-164430D01*
X215037Y-164553D01*
X214998Y-164750D01*
X215596D01*
X215828Y-164905D01*
X216721Y-165082D01*
X219870D01*
Y-165250D01*
X220370D01*
Y-167072D01*
X223020D01*
X223717Y-166934D01*
X223961Y-166771D01*
X224461Y-167038D01*
Y-170760D01*
X222047D01*
Y-181240D01*
X222130D01*
Y-183563D01*
X221500D01*
X220759Y-183710D01*
X220130Y-184130D01*
X218630Y-185630D01*
X218210Y-186259D01*
X218063Y-187000D01*
Y-187670D01*
X217601Y-187861D01*
X198870Y-169130D01*
X198241Y-168710D01*
X197500Y-168563D01*
X168500D01*
X167759Y-168710D01*
X167130Y-169130D01*
X151698Y-184563D01*
X142188D01*
X142177Y-184063D01*
X145370Y-180870D01*
X145790Y-180241D01*
X145937Y-179500D01*
Y-157425D01*
X146496Y-156996D01*
X147057Y-156265D01*
X147410Y-155414D01*
X147530Y-154500D01*
X147410Y-153586D01*
X147057Y-152735D01*
X146496Y-152004D01*
X145937Y-151575D01*
Y-146302D01*
X158801Y-133438D01*
X159500Y-133530D01*
X160414Y-133410D01*
X161265Y-133057D01*
X161996Y-132496D01*
X162557Y-131765D01*
X162910Y-130914D01*
X163030Y-130000D01*
X162938Y-129301D01*
X198870Y-93370D01*
X199290Y-92741D01*
X199437Y-92000D01*
Y-62500D01*
X199290Y-61759D01*
X198870Y-61130D01*
X193870Y-56130D01*
X193241Y-55710D01*
X192500Y-55563D01*
X190504D01*
X190256Y-55193D01*
Y-54965D01*
X190645Y-54539D01*
X196339D01*
Y-57740D01*
X199232D01*
X199270Y-57935D01*
X199712Y-58596D01*
X206058Y-64942D01*
X206720Y-65384D01*
X207500Y-65539D01*
X207500Y-65539D01*
X211153D01*
X211504Y-65996D01*
X212235Y-66557D01*
X213086Y-66910D01*
X214000Y-67030D01*
X214914Y-66910D01*
X215765Y-66557D01*
X216496Y-65996D01*
X217057Y-65265D01*
X217410Y-64414D01*
X217530Y-63500D01*
X217410Y-62586D01*
X217057Y-61735D01*
X216496Y-61004D01*
X215765Y-60443D01*
X214914Y-60090D01*
X214000Y-59970D01*
X213086Y-60090D01*
X212235Y-60443D01*
X211504Y-61004D01*
X211153Y-61461D01*
X208345D01*
X205063Y-58179D01*
X205244Y-57740D01*
X205244D01*
Y-47260D01*
X196339D01*
Y-50461D01*
X190436D01*
X190256Y-50193D01*
X189697Y-49819D01*
X189036Y-49687D01*
X181153D01*
X180492Y-49819D01*
X179933Y-50193D01*
X179559Y-50752D01*
X179539Y-50851D01*
X179039Y-50802D01*
Y-7845D01*
X189845Y2961D01*
X195547D01*
Y-4945D01*
X204453D01*
Y4662D01*
X205547D01*
Y-4945D01*
X214453D01*
Y4945D01*
X211991D01*
X211884Y5481D01*
X211697Y5762D01*
X211964Y6262D01*
X216155D01*
X217010Y5407D01*
X216819Y4945D01*
X215547D01*
Y-4945D01*
X224453D01*
Y4945D01*
X222039D01*
Y5301D01*
X221884Y6081D01*
X221442Y6743D01*
X220785Y7400D01*
X220976Y7862D01*
X227155D01*
X227961Y7056D01*
Y4945D01*
X225547D01*
Y-4945D01*
X234453D01*
Y4945D01*
X232039D01*
Y7901D01*
X231884Y8681D01*
X231697Y8962D01*
X231964Y9462D01*
X235155D01*
X237961Y6656D01*
Y4945D01*
X235547D01*
Y-4945D01*
X244453D01*
Y4945D01*
X242039D01*
Y7501D01*
X241884Y8281D01*
X241442Y8943D01*
X239785Y10600D01*
X239976Y11062D01*
X245055D01*
X247961Y8155D01*
Y4945D01*
X245547D01*
Y-4945D01*
X254453D01*
Y4945D01*
X252039D01*
Y9000D01*
X251884Y9780D01*
X251442Y10442D01*
X249684Y12200D01*
X249875Y12662D01*
X254155D01*
X257961Y8856D01*
Y4945D01*
X255547D01*
Y-4945D01*
X264453D01*
Y4945D01*
X262039D01*
Y9701D01*
X261884Y10481D01*
X261442Y11143D01*
X257865Y14719D01*
X258057Y15181D01*
X268981D01*
Y-53047D01*
D02*
G37*
G36*
X182047Y14719D02*
X165558Y-1770D01*
X165116Y-2431D01*
X164961Y-3212D01*
Y-68155D01*
X162655Y-70461D01*
X152444D01*
X152099Y-70022D01*
X152167Y-69658D01*
X152441Y-69248D01*
X152573Y-68588D01*
Y-66412D01*
X152441Y-65752D01*
X152067Y-65193D01*
X151779Y-65000D01*
X151716Y-64518D01*
X151742Y-64394D01*
X151970Y-64053D01*
X152063Y-63588D01*
Y-63000D01*
X146906D01*
X141748D01*
Y-63588D01*
X141841Y-64053D01*
X142069Y-64394D01*
X142095Y-64518D01*
X142032Y-65000D01*
X141938Y-65063D01*
X136925D01*
X136496Y-64504D01*
X135765Y-63943D01*
X134914Y-63590D01*
X134000Y-63470D01*
X133086Y-63590D01*
X132235Y-63943D01*
X131504Y-64504D01*
X130943Y-65235D01*
X130590Y-66086D01*
X130470Y-67000D01*
X130590Y-67914D01*
X130943Y-68765D01*
X131504Y-69496D01*
X132109Y-69961D01*
X131956Y-70461D01*
X122345D01*
X82039Y-30155D01*
Y-3975D01*
X82246Y-3889D01*
X83176Y-3176D01*
X83890Y-2246D01*
X84338Y-1162D01*
X84491Y-0D01*
X84338Y1162D01*
X83890Y2246D01*
X83176Y3176D01*
X82246Y3889D01*
X81162Y4338D01*
X80000Y4491D01*
X78838Y4338D01*
X77754Y3889D01*
X76824Y3176D01*
X76111Y2246D01*
X75662Y1162D01*
X75509Y-0D01*
X75662Y-1162D01*
X76111Y-2246D01*
X76824Y-3176D01*
X77754Y-3889D01*
X77961Y-3975D01*
Y-31000D01*
X78116Y-31780D01*
X78558Y-32442D01*
X120058Y-73942D01*
X120720Y-74384D01*
X121500Y-74539D01*
X141565D01*
X141744Y-74807D01*
Y-75035D01*
X141355Y-75461D01*
X112345D01*
X72039Y-35155D01*
Y-3975D01*
X72246Y-3889D01*
X73176Y-3176D01*
X73889Y-2246D01*
X74338Y-1162D01*
X74491Y-0D01*
X74338Y1162D01*
X73889Y2246D01*
X73176Y3176D01*
X72246Y3889D01*
X71162Y4338D01*
X70000Y4491D01*
X68838Y4338D01*
X67754Y3889D01*
X66824Y3176D01*
X66110Y2246D01*
X65662Y1162D01*
X65509Y-0D01*
X65662Y-1162D01*
X66110Y-2246D01*
X66824Y-3176D01*
X67754Y-3889D01*
X67961Y-3975D01*
Y-36000D01*
X68116Y-36780D01*
X68558Y-37442D01*
X110058Y-78942D01*
X110720Y-79384D01*
X111500Y-79539D01*
X141565D01*
X141744Y-79807D01*
Y-80035D01*
X141355Y-80461D01*
X105345D01*
X62039Y-37155D01*
Y-3975D01*
X62246Y-3889D01*
X63176Y-3176D01*
X63889Y-2246D01*
X64338Y-1162D01*
X64491Y-0D01*
X64338Y1162D01*
X63889Y2246D01*
X63176Y3176D01*
X62246Y3889D01*
X61162Y4338D01*
X60000Y4491D01*
X58838Y4338D01*
X57754Y3889D01*
X56824Y3176D01*
X56111Y2246D01*
X55662Y1162D01*
X55509Y-0D01*
X55662Y-1162D01*
X56111Y-2246D01*
X56824Y-3176D01*
X57754Y-3889D01*
X57961Y-3975D01*
Y-38000D01*
X58116Y-38780D01*
X58558Y-39442D01*
X93468Y-74352D01*
X93138Y-74729D01*
X92765Y-74443D01*
X91914Y-74090D01*
X91000Y-73970D01*
X90086Y-74090D01*
X89235Y-74443D01*
X88504Y-75004D01*
X87943Y-75735D01*
X87590Y-76586D01*
X87470Y-77500D01*
X87590Y-78414D01*
X87943Y-79265D01*
X88504Y-79996D01*
X89235Y-80557D01*
X90086Y-80910D01*
X91000Y-81030D01*
X91914Y-80910D01*
X92765Y-80557D01*
X93496Y-79996D01*
X94057Y-79265D01*
X94410Y-78414D01*
X94530Y-77500D01*
X94410Y-76586D01*
X94057Y-75735D01*
X93771Y-75362D01*
X94148Y-75032D01*
X103058Y-83942D01*
X103720Y-84384D01*
X104500Y-84539D01*
X141565D01*
X141744Y-84807D01*
X142032Y-85000D01*
X142095Y-85482D01*
X142069Y-85606D01*
X141841Y-85947D01*
X141748Y-86412D01*
Y-87000D01*
X146906D01*
X152063D01*
Y-86412D01*
X151970Y-85947D01*
X151742Y-85606D01*
X151716Y-85482D01*
X151779Y-85000D01*
X152067Y-84807D01*
X152246Y-84539D01*
X160500D01*
X161280Y-84384D01*
X161942Y-83942D01*
X169299Y-76585D01*
X169761Y-76776D01*
Y-79800D01*
X169916Y-80580D01*
X170358Y-81242D01*
X178058Y-88942D01*
X178058Y-88942D01*
X178720Y-89384D01*
X179500Y-89539D01*
X179753D01*
X179933Y-89807D01*
X180492Y-90181D01*
X181153Y-90313D01*
X183055D01*
Y-90961D01*
X91845D01*
X7039Y-6155D01*
Y-3906D01*
X7488Y-3685D01*
X7754Y-3889D01*
X8838Y-4338D01*
X10000Y-4491D01*
X11162Y-4338D01*
X12246Y-3889D01*
X13176Y-3176D01*
X13890Y-2246D01*
X14338Y-1162D01*
X14491Y-0D01*
X14338Y1162D01*
X13890Y2246D01*
X13176Y3176D01*
X12246Y3889D01*
X11162Y4338D01*
X10000Y4491D01*
X8838Y4338D01*
X7801Y3909D01*
X7704Y3916D01*
X7267Y4146D01*
X7239Y4356D01*
X8631Y5747D01*
X8838Y5662D01*
X10000Y5509D01*
X11162Y5662D01*
X12246Y6111D01*
X13176Y6824D01*
X13890Y7754D01*
X14338Y8838D01*
X14491Y10000D01*
X14338Y11162D01*
X13890Y12246D01*
X13176Y13176D01*
X12246Y13890D01*
X11162Y14338D01*
X10000Y14491D01*
X8838Y14338D01*
X7754Y13890D01*
X6824Y13176D01*
X6111Y12246D01*
X5662Y11162D01*
X5509Y10000D01*
X5662Y8838D01*
X5747Y8631D01*
X3558Y6442D01*
X3116Y5780D01*
X2961Y5000D01*
Y3341D01*
X2461Y3094D01*
X1993Y3453D01*
X1032Y3851D01*
X500Y3921D01*
Y-0D01*
X0D01*
D01*
X500D01*
Y-3921D01*
X1032Y-3851D01*
X1993Y-3453D01*
X2461Y-3094D01*
X2961Y-3341D01*
Y-7000D01*
X3116Y-7780D01*
X3558Y-8442D01*
X89558Y-94442D01*
X90220Y-94884D01*
X91000Y-95039D01*
X91000Y-95039D01*
X115411D01*
X115632Y-95488D01*
X115443Y-95735D01*
X115090Y-96586D01*
X114970Y-97500D01*
X115090Y-98414D01*
X115443Y-99265D01*
X116004Y-99996D01*
X116735Y-100557D01*
X117586Y-100910D01*
X118500Y-101030D01*
X119414Y-100910D01*
X120265Y-100557D01*
X120996Y-99996D01*
X121557Y-99265D01*
X121910Y-98414D01*
X122030Y-97500D01*
X121910Y-96586D01*
X121557Y-95735D01*
X121368Y-95488D01*
X121589Y-95039D01*
X182068D01*
X182259Y-95501D01*
X170699Y-107062D01*
X170000Y-106970D01*
X169086Y-107090D01*
X168235Y-107443D01*
X167504Y-108004D01*
X166943Y-108735D01*
X166590Y-109586D01*
X166470Y-110500D01*
X166562Y-111199D01*
X136347Y-141414D01*
X135927Y-142042D01*
X135779Y-142783D01*
Y-143858D01*
X135220Y-144287D01*
X134659Y-145018D01*
X134307Y-145870D01*
X134186Y-146783D01*
X134307Y-147697D01*
X134659Y-148549D01*
X135220Y-149280D01*
X135779Y-149709D01*
Y-171260D01*
X133264D01*
Y-175196D01*
X132663Y-175598D01*
X131252Y-177008D01*
X130752Y-176836D01*
Y-171260D01*
X119756D01*
Y-166953D01*
X122539D01*
Y-164539D01*
X123059D01*
Y-166953D01*
X133539D01*
Y-158047D01*
X123059D01*
Y-160461D01*
X122539D01*
Y-158047D01*
X112059D01*
Y-166953D01*
X115677D01*
Y-171260D01*
X113264D01*
Y-181260D01*
X113264D01*
Y-191740D01*
X115677D01*
Y-193047D01*
X112059D01*
Y-201953D01*
X122539D01*
Y-199539D01*
X123059D01*
Y-201953D01*
X133539D01*
Y-195699D01*
X134039Y-195346D01*
X134500Y-195437D01*
X151000D01*
X151741Y-195290D01*
X152370Y-194870D01*
X161829Y-185411D01*
X162252Y-185694D01*
X162090Y-186086D01*
X161970Y-187000D01*
X162090Y-187914D01*
X162443Y-188765D01*
X163004Y-189496D01*
X163735Y-190057D01*
X164586Y-190410D01*
X165500Y-190530D01*
X166414Y-190410D01*
X167265Y-190057D01*
X167996Y-189496D01*
X168557Y-188765D01*
X168910Y-187914D01*
X169030Y-187000D01*
X168955Y-186429D01*
X172345Y-183039D01*
X173630D01*
Y-186240D01*
X174130D01*
Y-189500D01*
X182035D01*
Y-186240D01*
X182535D01*
Y-175937D01*
X182535Y-175760D01*
X182902Y-175437D01*
X184681D01*
X185047Y-175760D01*
Y-186240D01*
Y-195240D01*
Y-204740D01*
X185047D01*
Y-204760D01*
X185047D01*
Y-215240D01*
Y-225240D01*
Y-235240D01*
X193953D01*
Y-232846D01*
X194415Y-232654D01*
X198063Y-236302D01*
Y-249000D01*
X198210Y-249741D01*
X198630Y-250370D01*
X206806Y-258546D01*
X206615Y-259008D01*
X193953D01*
Y-256740D01*
Y-246740D01*
Y-236260D01*
X185047D01*
Y-246740D01*
Y-256740D01*
Y-266740D01*
X185047D01*
Y-266760D01*
X185047D01*
Y-277240D01*
Y-287240D01*
Y-297240D01*
X193953D01*
Y-287240D01*
Y-277240D01*
Y-273937D01*
X203000D01*
X203741Y-273790D01*
X204370Y-273370D01*
X211843Y-265897D01*
X212470Y-265962D01*
X212574Y-266111D01*
X212427Y-266850D01*
X212574Y-267589D01*
X212993Y-268216D01*
X213619Y-268634D01*
X214358Y-268781D01*
X216280D01*
X216723Y-268816D01*
X216758Y-269260D01*
Y-271181D01*
X216905Y-271920D01*
X217324Y-272546D01*
X217950Y-272965D01*
X218689Y-273112D01*
X219428Y-272965D01*
X219673Y-272801D01*
X219919Y-272965D01*
X220657Y-273112D01*
X220689Y-273138D01*
Y-274572D01*
X217630Y-277630D01*
X217210Y-278259D01*
X217063Y-279000D01*
Y-280047D01*
X204760D01*
Y-288953D01*
X259740D01*
Y-280047D01*
X238437D01*
Y-279500D01*
X238290Y-278759D01*
X237870Y-278130D01*
X234870Y-275130D01*
X234241Y-274710D01*
X233500Y-274563D01*
X228802D01*
X227695Y-273455D01*
X227941Y-272994D01*
X228532Y-273112D01*
X229270Y-272965D01*
X229516Y-272801D01*
X229761Y-272965D01*
X230500Y-273112D01*
X231239Y-272965D01*
X231484Y-272801D01*
X231730Y-272965D01*
X232469Y-273112D01*
X233207Y-272965D01*
X233834Y-272546D01*
X234252Y-271920D01*
X234399Y-271181D01*
Y-269260D01*
X234434Y-268816D01*
X234878Y-268781D01*
X236799D01*
X237538Y-268634D01*
X238164Y-268216D01*
X238583Y-267589D01*
X238730Y-266850D01*
X238583Y-266111D01*
X238419Y-265866D01*
X238583Y-265621D01*
X238730Y-264882D01*
X238583Y-264143D01*
X238419Y-263898D01*
X238583Y-263652D01*
X238730Y-262913D01*
X238583Y-262175D01*
X238419Y-261929D01*
X238583Y-261684D01*
X238730Y-260945D01*
X238583Y-260206D01*
X238419Y-259961D01*
X238583Y-259715D01*
X238730Y-258976D01*
X238583Y-258238D01*
X238419Y-257992D01*
X238583Y-257747D01*
X238730Y-257008D01*
X238583Y-256269D01*
X238419Y-256024D01*
X238583Y-255778D01*
X238730Y-255039D01*
X238756Y-255008D01*
X240429D01*
X241171Y-254861D01*
X241799Y-254441D01*
X242870Y-253370D01*
X243290Y-252741D01*
X243437Y-252000D01*
Y-243000D01*
X243290Y-242259D01*
X242870Y-241630D01*
X240870Y-239630D01*
X240241Y-239210D01*
X239661Y-239095D01*
Y-235760D01*
X237146D01*
Y-233134D01*
X237705Y-232705D01*
X238266Y-231974D01*
X238619Y-231122D01*
X238739Y-230209D01*
X238619Y-229295D01*
X238266Y-228444D01*
X237705Y-227712D01*
X236974Y-227151D01*
X236122Y-226799D01*
X235209Y-226678D01*
X234295Y-226799D01*
X233444Y-227151D01*
X232937Y-227540D01*
X232437Y-227293D01*
Y-220000D01*
X232290Y-219259D01*
X231870Y-218630D01*
X219437Y-206198D01*
Y-204830D01*
X219899Y-204639D01*
X229630Y-214370D01*
X230259Y-214790D01*
X231000Y-214937D01*
X246198D01*
X263063Y-231802D01*
Y-235063D01*
X248425D01*
X247996Y-234504D01*
X247265Y-233943D01*
X246414Y-233590D01*
X245500Y-233470D01*
X244586Y-233590D01*
X243735Y-233943D01*
X243004Y-234504D01*
X242443Y-235235D01*
X242090Y-236086D01*
X241970Y-237000D01*
X242090Y-237914D01*
X242443Y-238765D01*
X243004Y-239496D01*
X243735Y-240057D01*
X244586Y-240410D01*
X245500Y-240530D01*
X246414Y-240410D01*
X247265Y-240057D01*
X247996Y-239496D01*
X248425Y-238937D01*
X263063D01*
Y-302698D01*
X258698Y-307063D01*
X250079D01*
X249909Y-306563D01*
X249996Y-306496D01*
X250557Y-305765D01*
X250910Y-304914D01*
X251030Y-304000D01*
X250910Y-303086D01*
X250557Y-302235D01*
X249996Y-301504D01*
X249265Y-300943D01*
X249090Y-300870D01*
X249189Y-300370D01*
X250740D01*
Y-299870D01*
X254000D01*
Y-295917D01*
Y-291965D01*
X250740D01*
Y-291465D01*
X213760D01*
Y-291965D01*
X210500D01*
Y-295917D01*
Y-299870D01*
X213760D01*
Y-300370D01*
X216117D01*
X216363Y-300870D01*
X216260Y-301004D01*
X216000Y-300970D01*
X215086Y-301090D01*
X214235Y-301443D01*
X213504Y-302004D01*
X212943Y-302735D01*
X212590Y-303586D01*
X212470Y-304500D01*
X212590Y-305414D01*
X212943Y-306265D01*
X213504Y-306996D01*
X214235Y-307557D01*
X215086Y-307910D01*
X216000Y-308030D01*
X216914Y-307910D01*
X217765Y-307557D01*
X218496Y-306996D01*
X219057Y-306265D01*
X219410Y-305414D01*
X219530Y-304500D01*
X219455Y-303929D01*
X220442Y-302942D01*
X220884Y-302280D01*
X221039Y-301500D01*
Y-300370D01*
X225563D01*
Y-301575D01*
X225004Y-302004D01*
X224443Y-302735D01*
X224090Y-303586D01*
X223970Y-304500D01*
X224090Y-305414D01*
X224443Y-306265D01*
X225004Y-306996D01*
X225735Y-307557D01*
X226586Y-307910D01*
X227500Y-308030D01*
X228414Y-307910D01*
X229265Y-307557D01*
X229996Y-306996D01*
X230557Y-306265D01*
X230910Y-305414D01*
X231030Y-304500D01*
X230910Y-303586D01*
X230557Y-302735D01*
X229996Y-302004D01*
X229437Y-301575D01*
Y-300370D01*
X234563D01*
Y-303000D01*
X234710Y-303741D01*
X235130Y-304370D01*
X240721Y-309961D01*
X240514Y-310461D01*
X205044D01*
X204891Y-309961D01*
X205496Y-309496D01*
X206057Y-308765D01*
X206410Y-307914D01*
X206530Y-307000D01*
X206410Y-306086D01*
X206057Y-305235D01*
X205496Y-304504D01*
X204765Y-303943D01*
X203914Y-303590D01*
X203000Y-303470D01*
X202301Y-303562D01*
X201870Y-303130D01*
X201241Y-302710D01*
X200500Y-302563D01*
X187302D01*
X182373Y-297633D01*
X182535Y-297240D01*
X182535D01*
Y-286760D01*
X182527D01*
X182035Y-286740D01*
X182035Y-286260D01*
Y-282500D01*
X174130D01*
Y-286260D01*
X174130Y-286740D01*
X173638Y-286760D01*
X173630D01*
Y-297240D01*
X176700D01*
X177102Y-297841D01*
X185130Y-305870D01*
X185759Y-306290D01*
X186500Y-306437D01*
X199165D01*
X199494Y-306813D01*
X199470Y-307000D01*
X199590Y-307914D01*
X199943Y-308765D01*
X200504Y-309496D01*
X201109Y-309961D01*
X200956Y-310461D01*
X151651D01*
X151557Y-310235D01*
X150996Y-309504D01*
X150265Y-308943D01*
X149414Y-308590D01*
X148500Y-308470D01*
X147586Y-308590D01*
X146735Y-308943D01*
X146004Y-309504D01*
X145443Y-310235D01*
X145349Y-310461D01*
X142169D01*
Y-307260D01*
X133264D01*
Y-317740D01*
X135677D01*
Y-319939D01*
X130558Y-325058D01*
X130116Y-325720D01*
X129961Y-326500D01*
Y-337260D01*
X122169D01*
Y-327260D01*
X122169D01*
Y-317740D01*
X130752D01*
Y-307260D01*
X122169D01*
Y-297740D01*
Y-287740D01*
X130752D01*
Y-277260D01*
X122169D01*
Y-267260D01*
X113264D01*
Y-277740D01*
Y-287740D01*
Y-297740D01*
Y-307740D01*
Y-317260D01*
X113264D01*
Y-327740D01*
X113264D01*
Y-337740D01*
Y-347740D01*
Y-357740D01*
X122169D01*
Y-347740D01*
X129961D01*
Y-354655D01*
X124655Y-359961D01*
X88345D01*
X66539Y-338155D01*
Y-334044D01*
X67039Y-333891D01*
X67504Y-334496D01*
X68235Y-335057D01*
X69086Y-335410D01*
X70000Y-335530D01*
X70914Y-335410D01*
X71765Y-335057D01*
X72496Y-334496D01*
X72847Y-334039D01*
X87117D01*
X87410Y-334746D01*
X88124Y-335676D01*
X89054Y-336389D01*
X90137Y-336838D01*
X91299Y-336991D01*
X92462Y-336838D01*
X93545Y-336389D01*
X94475Y-335676D01*
X95189Y-334746D01*
X95637Y-333662D01*
X95790Y-332500D01*
X95637Y-331338D01*
X95189Y-330254D01*
X94475Y-329324D01*
X93545Y-328610D01*
X92462Y-328162D01*
X91299Y-328009D01*
X90137Y-328162D01*
X89054Y-328610D01*
X88124Y-329324D01*
X87635Y-329961D01*
X72847D01*
X72496Y-329504D01*
X71765Y-328943D01*
X70914Y-328590D01*
X70000Y-328470D01*
X69086Y-328590D01*
X68235Y-328943D01*
X67504Y-329504D01*
X67039Y-330109D01*
X66539Y-329956D01*
Y-252500D01*
X66447Y-252038D01*
X66908Y-251792D01*
X73058Y-257942D01*
X73720Y-258384D01*
X74500Y-258539D01*
X87324D01*
X87410Y-258746D01*
X88124Y-259676D01*
X89054Y-260389D01*
X90137Y-260838D01*
X91299Y-260991D01*
X92462Y-260838D01*
X93545Y-260389D01*
X94475Y-259676D01*
X95189Y-258746D01*
X95637Y-257662D01*
X95790Y-256500D01*
X95637Y-255338D01*
X95189Y-254254D01*
X94475Y-253324D01*
X93545Y-252610D01*
X92462Y-252162D01*
X91299Y-252009D01*
X90137Y-252162D01*
X89054Y-252610D01*
X88124Y-253324D01*
X87410Y-254254D01*
X87324Y-254461D01*
X86242D01*
X86193Y-253961D01*
X86580Y-253884D01*
X87241Y-253442D01*
X89930Y-250753D01*
X90137Y-250838D01*
X91299Y-250991D01*
X92462Y-250838D01*
X93545Y-250390D01*
X94475Y-249676D01*
X95189Y-248746D01*
X95637Y-247662D01*
X95790Y-246500D01*
X95637Y-245338D01*
X95189Y-244254D01*
X94984Y-243988D01*
X95205Y-243539D01*
X101000D01*
X101780Y-243384D01*
X102442Y-242942D01*
X104175Y-241209D01*
X115742D01*
Y-241435D01*
X115874Y-242096D01*
X116249Y-242657D01*
X116809Y-243032D01*
X117471Y-243163D01*
X118681D01*
Y-247220D01*
X118836Y-248001D01*
X119279Y-248662D01*
X135677Y-265061D01*
Y-277260D01*
X133264D01*
Y-287740D01*
X142169D01*
Y-284506D01*
X142780Y-284384D01*
X143442Y-283942D01*
X148442Y-278942D01*
X148884Y-278280D01*
X149039Y-277500D01*
Y-270347D01*
X149496Y-269996D01*
X150057Y-269265D01*
X150063Y-269252D01*
X150563Y-269351D01*
Y-289000D01*
X150710Y-289741D01*
X151130Y-290370D01*
X159130Y-298370D01*
X159759Y-298790D01*
X160500Y-298937D01*
X164075D01*
X164504Y-299496D01*
X165235Y-300057D01*
X166086Y-300410D01*
X167000Y-300530D01*
X167914Y-300410D01*
X168765Y-300057D01*
X169496Y-299496D01*
X170057Y-298765D01*
X170410Y-297914D01*
X170530Y-297000D01*
X170410Y-296086D01*
X170057Y-295235D01*
X169496Y-294504D01*
X168765Y-293943D01*
X167914Y-293590D01*
X167000Y-293470D01*
X166086Y-293590D01*
X165235Y-293943D01*
X164504Y-294504D01*
X164075Y-295063D01*
X161302D01*
X154437Y-288198D01*
Y-280075D01*
X154937Y-279829D01*
X155235Y-280057D01*
X156086Y-280410D01*
X157000Y-280530D01*
X157914Y-280410D01*
X158765Y-280057D01*
X159496Y-279496D01*
X160057Y-278765D01*
X160410Y-277914D01*
X160530Y-277000D01*
X160455Y-276429D01*
X162845Y-274039D01*
X173630D01*
Y-277240D01*
X173638D01*
X174130Y-277260D01*
X174130Y-277740D01*
Y-281500D01*
X182035D01*
Y-277740D01*
X182035Y-277260D01*
X182527Y-277240D01*
X182535D01*
Y-266760D01*
X182536D01*
Y-266740D01*
X182535D01*
Y-256260D01*
X182527D01*
X182035Y-256240D01*
X182035Y-255760D01*
Y-252000D01*
X174130D01*
Y-255760D01*
X174130Y-256240D01*
X173638Y-256260D01*
X173630D01*
Y-259563D01*
X159500D01*
X158759Y-259710D01*
X158130Y-260130D01*
X151130Y-267130D01*
X151010Y-267311D01*
X150489Y-267189D01*
X150410Y-266586D01*
X150057Y-265735D01*
X149496Y-265004D01*
X148765Y-264443D01*
X147914Y-264090D01*
X147000Y-263970D01*
X146086Y-264090D01*
X145235Y-264443D01*
X144504Y-265004D01*
X143943Y-265735D01*
X143590Y-266586D01*
X143470Y-267500D01*
X143590Y-268414D01*
X143943Y-269265D01*
X144504Y-269996D01*
X144961Y-270347D01*
Y-276655D01*
X142631Y-278985D01*
X142169Y-278794D01*
Y-277260D01*
X139756D01*
Y-264216D01*
X139601Y-263436D01*
X139158Y-262775D01*
X123792Y-247408D01*
X124038Y-246947D01*
X124500Y-247039D01*
X131000D01*
X131780Y-246884D01*
X132442Y-246442D01*
X135368Y-243516D01*
X135448Y-243396D01*
X136265Y-243057D01*
X136996Y-242496D01*
X137557Y-241765D01*
X137910Y-240914D01*
X138030Y-240000D01*
X137910Y-239086D01*
X137557Y-238235D01*
X137117Y-237661D01*
X137327Y-237161D01*
X140240D01*
Y-234748D01*
X142791D01*
X143572Y-234593D01*
X144233Y-234151D01*
X147442Y-230942D01*
X147884Y-230280D01*
X148039Y-229500D01*
Y-213500D01*
X147884Y-212720D01*
X147442Y-212058D01*
X141955Y-206571D01*
X142030Y-206000D01*
X141910Y-205086D01*
X141557Y-204235D01*
X140996Y-203504D01*
X140265Y-202943D01*
X139414Y-202590D01*
X138500Y-202470D01*
X137586Y-202590D01*
X136735Y-202943D01*
X136004Y-203504D01*
X135443Y-204235D01*
X135090Y-205086D01*
X134970Y-206000D01*
X135090Y-206914D01*
X135443Y-207765D01*
X136004Y-208496D01*
X136735Y-209057D01*
X137586Y-209410D01*
X138500Y-209530D01*
X139071Y-209455D01*
X143961Y-214345D01*
Y-228655D01*
X141947Y-230669D01*
X140240D01*
Y-228256D01*
X129760D01*
Y-230669D01*
X127291D01*
X126511Y-230825D01*
X125849Y-231267D01*
X124397Y-232719D01*
X123955Y-233381D01*
X123799Y-234161D01*
Y-235175D01*
X122760D01*
Y-226824D01*
X123970D01*
X124559Y-226708D01*
X125148Y-226824D01*
X126530D01*
X127191Y-226693D01*
X127752Y-226318D01*
X128126Y-225758D01*
X128258Y-225097D01*
Y-220565D01*
X128126Y-219904D01*
X127878Y-219532D01*
Y-217839D01*
X127723Y-217058D01*
X127280Y-216397D01*
X125442Y-214558D01*
X124780Y-214116D01*
X124000Y-213961D01*
X111000D01*
X111000Y-213961D01*
X110220Y-214116D01*
X109558Y-214558D01*
X99655Y-224461D01*
X95274D01*
X95189Y-224254D01*
X94475Y-223324D01*
X93545Y-222610D01*
X92462Y-222162D01*
X91299Y-222009D01*
X90137Y-222162D01*
X89054Y-222610D01*
X88124Y-223324D01*
X87410Y-224254D01*
X86961Y-225338D01*
X86808Y-226500D01*
X86961Y-227662D01*
X87292Y-228461D01*
X86972Y-228961D01*
X82500D01*
X81720Y-229116D01*
X81058Y-229558D01*
X77655Y-232961D01*
X71847D01*
X71496Y-232504D01*
X70765Y-231943D01*
X69914Y-231590D01*
X69000Y-231470D01*
X68086Y-231590D01*
X67235Y-231943D01*
X66504Y-232504D01*
X65943Y-233235D01*
X65590Y-234086D01*
X65470Y-235000D01*
X65590Y-235914D01*
X65943Y-236765D01*
X66504Y-237496D01*
X67235Y-238057D01*
X68086Y-238410D01*
X69000Y-238530D01*
X69914Y-238410D01*
X70765Y-238057D01*
X71496Y-237496D01*
X71847Y-237039D01*
X78500D01*
X79280Y-236884D01*
X79942Y-236442D01*
X83345Y-233039D01*
X87712D01*
X87959Y-233539D01*
X87410Y-234254D01*
X86961Y-235338D01*
X86808Y-236500D01*
X86961Y-237662D01*
X87410Y-238746D01*
X87614Y-239012D01*
X87393Y-239461D01*
X82000D01*
X81220Y-239616D01*
X80558Y-240058D01*
X77571Y-243045D01*
X77000Y-242970D01*
X76086Y-243090D01*
X75235Y-243443D01*
X74504Y-244004D01*
X73943Y-244735D01*
X73590Y-245586D01*
X73484Y-246393D01*
X73031Y-246647D01*
X63039Y-236655D01*
Y-226347D01*
X63496Y-225996D01*
X64057Y-225265D01*
X64410Y-224414D01*
X64530Y-223500D01*
X64410Y-222586D01*
X64057Y-221735D01*
X63496Y-221004D01*
X62765Y-220443D01*
X61914Y-220090D01*
X61000Y-219970D01*
X60086Y-220090D01*
X59235Y-220443D01*
X58504Y-221004D01*
X57943Y-221735D01*
X57590Y-222586D01*
X57470Y-223500D01*
X57590Y-224414D01*
X57943Y-225265D01*
X58504Y-225996D01*
X58961Y-226347D01*
Y-237370D01*
X58515Y-237631D01*
X42942Y-222058D01*
X42280Y-221616D01*
X41500Y-221461D01*
X35480D01*
X35172Y-220961D01*
X35392Y-220429D01*
X35505Y-219575D01*
X35392Y-218721D01*
X35063Y-217925D01*
X34538Y-217241D01*
X33855Y-216717D01*
X33059Y-216387D01*
X32205Y-216275D01*
X31837Y-216323D01*
X30655Y-215141D01*
X30938Y-214717D01*
X31351Y-214888D01*
X32205Y-215001D01*
X33059Y-214888D01*
X33855Y-214559D01*
X34538Y-214034D01*
X35063Y-213351D01*
X35392Y-212555D01*
X35505Y-211701D01*
X35392Y-210847D01*
X35063Y-210051D01*
X34538Y-209367D01*
X33855Y-208843D01*
X33059Y-208513D01*
X32205Y-208401D01*
X31351Y-208513D01*
X30555Y-208843D01*
X29871Y-209367D01*
X29347Y-210051D01*
X29017Y-210847D01*
X28905Y-211701D01*
X29017Y-212555D01*
X29322Y-213289D01*
X29296Y-213331D01*
X28910Y-213616D01*
X28130Y-213461D01*
X27684D01*
X27350Y-212961D01*
X27518Y-212555D01*
X27631Y-211701D01*
X27518Y-210847D01*
X27189Y-210051D01*
X26664Y-209367D01*
X25981Y-208843D01*
X25185Y-208513D01*
X24331Y-208401D01*
X23477Y-208513D01*
X22681Y-208843D01*
X21997Y-209367D01*
X21772Y-209662D01*
X16799D01*
X16019Y-209817D01*
X15357Y-210259D01*
X-34942Y-260558D01*
X-35384Y-261220D01*
X-35539Y-262000D01*
Y-286455D01*
X-97332Y-348247D01*
X-97538Y-348162D01*
X-98701Y-348009D01*
X-99863Y-348162D01*
X-100946Y-348610D01*
X-101876Y-349324D01*
X-102590Y-350254D01*
X-103039Y-351338D01*
X-103192Y-352500D01*
X-103039Y-353662D01*
X-102590Y-354746D01*
X-101876Y-355676D01*
X-100946Y-356389D01*
X-100774Y-356461D01*
X-100874Y-356961D01*
X-102155D01*
X-104461Y-354655D01*
Y-311144D01*
X-100270Y-306953D01*
X-94248D01*
Y-298047D01*
X-103154D01*
Y-304069D01*
X-107942Y-308857D01*
X-108384Y-309519D01*
X-108539Y-310299D01*
Y-355500D01*
X-108384Y-356280D01*
X-107942Y-356942D01*
X-104442Y-360442D01*
X-103780Y-360884D01*
X-103000Y-361039D01*
X-96000D01*
X-95220Y-360884D01*
X-94558Y-360442D01*
X-26058Y-291942D01*
X-25616Y-291280D01*
X-25461Y-290500D01*
Y-264345D01*
X20912Y-217971D01*
X21336Y-218255D01*
X21143Y-218721D01*
X21031Y-219575D01*
X21143Y-220429D01*
X21473Y-221225D01*
X21997Y-221908D01*
X22681Y-222433D01*
X23477Y-222762D01*
X24331Y-222875D01*
X25185Y-222762D01*
X25597Y-222591D01*
X25880Y-223015D01*
X24698Y-224197D01*
X24331Y-224149D01*
X23477Y-224261D01*
X22681Y-224591D01*
X21997Y-225115D01*
X21473Y-225799D01*
X21143Y-226595D01*
X21031Y-227449D01*
X21143Y-228303D01*
X21473Y-229099D01*
X21997Y-229782D01*
X22681Y-230307D01*
X23477Y-230636D01*
X24331Y-230749D01*
X25185Y-230636D01*
X25981Y-230307D01*
X26664Y-229782D01*
X27189Y-229099D01*
X27518Y-228303D01*
X27631Y-227449D01*
X27582Y-227081D01*
X28764Y-225899D01*
X29188Y-226182D01*
X29017Y-226595D01*
X28905Y-227449D01*
X29017Y-228303D01*
X29347Y-229099D01*
X29871Y-229782D01*
X30555Y-230307D01*
X31351Y-230636D01*
X32205Y-230749D01*
X33059Y-230636D01*
X33855Y-230307D01*
X34538Y-229782D01*
X34764Y-229488D01*
X38604D01*
X62461Y-253345D01*
Y-338370D01*
X61961Y-338577D01*
X60539Y-337155D01*
Y-262500D01*
X60384Y-261720D01*
X59942Y-261058D01*
X40639Y-241755D01*
X39977Y-241313D01*
X39197Y-241158D01*
X34764D01*
X34538Y-240863D01*
X33855Y-240339D01*
X33059Y-240009D01*
X32205Y-239897D01*
X31351Y-240009D01*
X30555Y-240339D01*
X29871Y-240863D01*
X29347Y-241547D01*
X29017Y-242343D01*
X28905Y-243197D01*
X29017Y-244051D01*
X29347Y-244847D01*
X29871Y-245530D01*
X30555Y-246055D01*
X31351Y-246384D01*
X32205Y-246497D01*
X33059Y-246384D01*
X33855Y-246055D01*
X34538Y-245530D01*
X34764Y-245236D01*
X38352D01*
X56461Y-263345D01*
Y-275370D01*
X55961Y-275577D01*
X41942Y-261558D01*
X41280Y-261116D01*
X40500Y-260961D01*
X35350D01*
X35118Y-260461D01*
X35392Y-259799D01*
X35505Y-258945D01*
X35392Y-258091D01*
X35063Y-257295D01*
X34538Y-256611D01*
X33855Y-256087D01*
X33059Y-255757D01*
X32205Y-255645D01*
X31351Y-255757D01*
X30555Y-256087D01*
X29871Y-256611D01*
X29347Y-257295D01*
X29017Y-258091D01*
X28905Y-258945D01*
X29017Y-259799D01*
X29188Y-260211D01*
X28764Y-260494D01*
X27582Y-259313D01*
X27631Y-258945D01*
X27518Y-258091D01*
X27189Y-257295D01*
X26664Y-256611D01*
X25981Y-256087D01*
X25185Y-255757D01*
X24331Y-255645D01*
X23477Y-255757D01*
X22681Y-256087D01*
X21997Y-256611D01*
X21473Y-257295D01*
X21143Y-258091D01*
X21031Y-258945D01*
X21143Y-259799D01*
X21473Y-260595D01*
X21997Y-261278D01*
X22681Y-261803D01*
X23477Y-262132D01*
X24331Y-262245D01*
X24698Y-262196D01*
X25880Y-263378D01*
X25597Y-263802D01*
X25185Y-263632D01*
X24331Y-263519D01*
X23477Y-263632D01*
X22681Y-263961D01*
X21997Y-264486D01*
X21473Y-265169D01*
X21143Y-265965D01*
X21031Y-266819D01*
X21143Y-267673D01*
X21473Y-268469D01*
X21997Y-269152D01*
X22681Y-269677D01*
X23477Y-270006D01*
X24331Y-270119D01*
X25185Y-270006D01*
X25981Y-269677D01*
X26664Y-269152D01*
X27189Y-268469D01*
X27518Y-267673D01*
X27631Y-266819D01*
X27518Y-265965D01*
X27210Y-265221D01*
X27235Y-265177D01*
X27606Y-264884D01*
X28386Y-265039D01*
X28386Y-265039D01*
X28859D01*
X29194Y-265539D01*
X29017Y-265965D01*
X28905Y-266819D01*
X29017Y-267673D01*
X29347Y-268469D01*
X29871Y-269152D01*
X30555Y-269677D01*
X31351Y-270006D01*
X32205Y-270119D01*
X33059Y-270006D01*
X33855Y-269677D01*
X34538Y-269152D01*
X35063Y-268469D01*
X35392Y-267673D01*
X35505Y-266819D01*
X35392Y-265965D01*
X35216Y-265539D01*
X35550Y-265039D01*
X39655D01*
X52961Y-278345D01*
Y-339000D01*
X53116Y-339780D01*
X53558Y-340442D01*
X81582Y-368465D01*
X81375Y-368966D01*
X60625D01*
X60418Y-368465D01*
X65429Y-363455D01*
X66000Y-363530D01*
X66914Y-363410D01*
X67765Y-363057D01*
X68496Y-362496D01*
X69057Y-361765D01*
X69410Y-360914D01*
X69530Y-360000D01*
X69410Y-359086D01*
X69057Y-358235D01*
X68496Y-357504D01*
X67765Y-356943D01*
X66914Y-356590D01*
X66000Y-356470D01*
X65086Y-356590D01*
X64869Y-356680D01*
X64554Y-356269D01*
X64557Y-356265D01*
X64910Y-355414D01*
X65030Y-354500D01*
X64910Y-353586D01*
X64557Y-352735D01*
X63996Y-352004D01*
X63265Y-351443D01*
X62414Y-351090D01*
X61500Y-350970D01*
X60586Y-351090D01*
X59735Y-351443D01*
X59004Y-352004D01*
X58443Y-352735D01*
X58090Y-353586D01*
X57970Y-354500D01*
X58045Y-355071D01*
X53155Y-359961D01*
X51932D01*
X51741Y-359499D01*
X55870Y-355370D01*
X56290Y-354741D01*
X56437Y-354000D01*
Y-351425D01*
X56996Y-350996D01*
X57557Y-350265D01*
X57910Y-349414D01*
X58030Y-348500D01*
X57910Y-347586D01*
X57557Y-346735D01*
X56996Y-346004D01*
X56265Y-345443D01*
X55414Y-345090D01*
X54500Y-344970D01*
X53586Y-345090D01*
X52735Y-345443D01*
X52004Y-346004D01*
X51443Y-346735D01*
X51090Y-347586D01*
X50970Y-348500D01*
X51090Y-349414D01*
X51443Y-350265D01*
X52004Y-350996D01*
X52563Y-351425D01*
Y-353198D01*
X50415Y-355346D01*
X49953Y-355154D01*
Y-346260D01*
X49587D01*
Y-336331D01*
X44716D01*
X40944Y-332558D01*
X40282Y-332116D01*
X39502Y-331961D01*
X29845D01*
X26487Y-328604D01*
X26679Y-328141D01*
X32413D01*
Y-330669D01*
X40138D01*
Y-321740D01*
X40453D01*
Y-312453D01*
X42240D01*
Y-303547D01*
X22760D01*
Y-312453D01*
X25961D01*
Y-314655D01*
X21671Y-318945D01*
X19361D01*
X19049Y-318737D01*
X18118Y-318552D01*
X10441D01*
X9510Y-318737D01*
X8721Y-319264D01*
X8194Y-320053D01*
X8008Y-320984D01*
X7650Y-321373D01*
X7271Y-321387D01*
X5039Y-319155D01*
Y-318845D01*
X6845Y-317039D01*
X18000D01*
X18780Y-316884D01*
X19442Y-316442D01*
X21442Y-314442D01*
X21884Y-313780D01*
X22039Y-313000D01*
Y-309500D01*
X21884Y-308720D01*
X21442Y-308058D01*
X19221Y-305838D01*
X18560Y-305396D01*
X17803Y-305245D01*
X17652Y-305197D01*
X17371Y-304854D01*
X17397Y-304720D01*
X17227Y-303866D01*
X16943Y-303441D01*
X17227Y-303015D01*
X17397Y-302161D01*
X17227Y-301307D01*
X16744Y-300583D01*
X16019Y-300099D01*
X15165Y-299930D01*
X13957D01*
Y-295417D01*
X13801Y-294637D01*
X13359Y-293975D01*
X12017Y-292634D01*
X11356Y-292192D01*
X11161Y-292153D01*
Y-288760D01*
X11570Y-288539D01*
X24155D01*
X25961Y-290345D01*
Y-292130D01*
X22760D01*
Y-294169D01*
X22329Y-294347D01*
X21962Y-294021D01*
X22030Y-293500D01*
X21910Y-292586D01*
X21557Y-291735D01*
X20996Y-291004D01*
X20265Y-290443D01*
X19414Y-290090D01*
X18500Y-289970D01*
X17586Y-290090D01*
X16735Y-290443D01*
X16004Y-291004D01*
X15443Y-291735D01*
X15090Y-292586D01*
X14970Y-293500D01*
X15090Y-294414D01*
X15443Y-295265D01*
X16004Y-295996D01*
X16735Y-296557D01*
X17586Y-296910D01*
X18500Y-297030D01*
X19071Y-296955D01*
X20141Y-298025D01*
X20802Y-298467D01*
X21583Y-298622D01*
X22760D01*
Y-301035D01*
X33240D01*
Y-300535D01*
X36500D01*
Y-296583D01*
Y-292630D01*
X33240D01*
Y-292130D01*
X30039D01*
Y-289500D01*
X29884Y-288720D01*
X29442Y-288058D01*
X26442Y-285058D01*
X25780Y-284616D01*
X25000Y-284461D01*
X8000D01*
X7220Y-284616D01*
X6558Y-285058D01*
X5267Y-286349D01*
X4825Y-287011D01*
X4670Y-287791D01*
Y-288760D01*
X2256D01*
Y-299240D01*
X9878D01*
Y-299930D01*
X8669D01*
X7815Y-300099D01*
X7781Y-300122D01*
X5086D01*
X4305Y-300277D01*
X3644Y-300719D01*
X3058Y-301305D01*
X2616Y-301967D01*
X2461Y-302747D01*
Y-304000D01*
X2616Y-304780D01*
X3058Y-305442D01*
X3779Y-306162D01*
X4440Y-306604D01*
X5221Y-306760D01*
X6147D01*
X6464Y-307146D01*
X6437Y-307279D01*
X6464Y-307413D01*
X6147Y-307799D01*
X3742D01*
X-778Y-303278D01*
X-1440Y-302836D01*
X-2221Y-302681D01*
X-5147D01*
X-5464Y-302295D01*
X-5437Y-302161D01*
X-5607Y-301307D01*
X-6091Y-300583D01*
X-6815Y-300099D01*
X-7669Y-299930D01*
X-14165D01*
X-15020Y-300099D01*
X-15054Y-300122D01*
X-21161D01*
X-21942Y-300277D01*
X-22603Y-300719D01*
X-27442Y-305558D01*
X-27884Y-306220D01*
X-28039Y-307000D01*
Y-320000D01*
X-27884Y-320780D01*
X-27442Y-321442D01*
X-25283Y-323601D01*
X-25474Y-324063D01*
X-29760D01*
Y-321547D01*
X-40240D01*
Y-323961D01*
X-43153D01*
X-43504Y-323504D01*
X-44235Y-322943D01*
X-45086Y-322590D01*
X-46000Y-322470D01*
X-46914Y-322590D01*
X-47765Y-322943D01*
X-48496Y-323504D01*
X-49057Y-324235D01*
X-49410Y-325086D01*
X-49530Y-326000D01*
X-49410Y-326914D01*
X-49057Y-327765D01*
X-48496Y-328496D01*
X-47765Y-329057D01*
X-46914Y-329410D01*
X-46000Y-329530D01*
X-45086Y-329410D01*
X-44235Y-329057D01*
X-43504Y-328496D01*
X-43153Y-328039D01*
X-40240D01*
Y-330453D01*
X-31082D01*
X-30815Y-330953D01*
X-30821Y-330961D01*
X-50000D01*
X-50780Y-331116D01*
X-51442Y-331558D01*
X-51442Y-331558D01*
X-56429Y-336545D01*
X-57000Y-336470D01*
X-57914Y-336590D01*
X-58765Y-336943D01*
X-59496Y-337504D01*
X-60057Y-338235D01*
X-60410Y-339086D01*
X-60530Y-340000D01*
X-60410Y-340914D01*
X-60057Y-341765D01*
X-59496Y-342496D01*
X-58765Y-343057D01*
X-57914Y-343410D01*
X-57000Y-343530D01*
X-56086Y-343410D01*
X-55235Y-343057D01*
X-54504Y-342496D01*
X-53943Y-341765D01*
X-53590Y-340914D01*
X-53470Y-340000D01*
X-53545Y-339429D01*
X-49155Y-335039D01*
X-42576D01*
X-42385Y-335501D01*
X-71845Y-364961D01*
X-102655D01*
X-109461Y-358155D01*
Y-303345D01*
X-101155Y-295039D01*
X-93845D01*
X-90539Y-298345D01*
Y-311455D01*
X-97332Y-318247D01*
X-97538Y-318162D01*
X-98701Y-318009D01*
X-99863Y-318162D01*
X-100946Y-318611D01*
X-101876Y-319324D01*
X-102590Y-320254D01*
X-103039Y-321338D01*
X-103192Y-322500D01*
X-103039Y-323662D01*
X-102590Y-324746D01*
X-101876Y-325676D01*
X-100946Y-326390D01*
X-99863Y-326838D01*
X-98701Y-326991D01*
X-97538Y-326838D01*
X-96455Y-326390D01*
X-95525Y-325676D01*
X-94811Y-324746D01*
X-94363Y-323662D01*
X-94210Y-322500D01*
X-94363Y-321338D01*
X-94448Y-321131D01*
X-87058Y-313741D01*
X-86616Y-313080D01*
X-86461Y-312299D01*
Y-297500D01*
X-86616Y-296720D01*
X-87058Y-296058D01*
X-91558Y-291558D01*
X-92220Y-291116D01*
X-93000Y-290961D01*
X-102000D01*
X-102780Y-291116D01*
X-103442Y-291558D01*
X-112942Y-301058D01*
X-113384Y-301720D01*
X-113539Y-302500D01*
Y-359000D01*
X-113384Y-359780D01*
X-112942Y-360442D01*
X-104942Y-368442D01*
X-104907Y-368465D01*
X-105058Y-368966D01*
X-108329D01*
X-114965Y-362329D01*
Y-206480D01*
X-112004D01*
Y-188520D01*
X-114965D01*
Y-187671D01*
X-92147Y-164853D01*
X-92147Y-164853D01*
X-91506Y-164017D01*
X-91103Y-163044D01*
X-90965Y-162000D01*
X-90965Y-162000D01*
Y-156098D01*
X-86000D01*
Y-153133D01*
X-15573D01*
X28170Y-196876D01*
Y-203827D01*
X28308Y-204871D01*
X28711Y-205844D01*
X28933Y-206134D01*
Y-207098D01*
X29898D01*
X30187Y-207321D01*
X31161Y-207724D01*
X32205Y-207861D01*
X33249Y-207724D01*
X34222Y-207321D01*
X34512Y-207098D01*
X35476D01*
Y-206134D01*
X35699Y-205844D01*
X36102Y-204871D01*
X36239Y-203827D01*
Y-195205D01*
X36239Y-195205D01*
X36102Y-194160D01*
X35699Y-193187D01*
X35058Y-192352D01*
X35058Y-192352D01*
X-11049Y-146246D01*
X-11884Y-145604D01*
X-12857Y-145201D01*
X-13902Y-145064D01*
X-13902Y-145064D01*
X-86000D01*
Y-142098D01*
X-104000D01*
Y-156098D01*
X-99035D01*
Y-160329D01*
X-121853Y-183147D01*
X-122181Y-183575D01*
X-122681Y-183405D01*
Y-136904D01*
X-122181Y-136493D01*
X-122000Y-136529D01*
X-80000D01*
X-79415Y-136413D01*
X-78919Y-136081D01*
X-78587Y-135585D01*
X-78471Y-135000D01*
Y-88000D01*
X-78587Y-87415D01*
X-78919Y-86919D01*
X-79415Y-86587D01*
X-80000Y-86471D01*
X-109385D01*
X-109428Y-86308D01*
X-109490Y-86026D01*
X-109345Y-85529D01*
X-98862D01*
Y-85650D01*
X-91138D01*
Y-85529D01*
X-90000D01*
X-89415Y-85413D01*
X-88919Y-85081D01*
X-88587Y-84585D01*
X-88471Y-84000D01*
Y-58533D01*
X-88481Y-58483D01*
X-88474Y-58433D01*
X-88538Y-58192D01*
X-88587Y-57947D01*
X-88615Y-57905D01*
X-88628Y-57856D01*
X-88780Y-57658D01*
X-88919Y-57451D01*
X-88961Y-57423D01*
X-88992Y-57383D01*
X-89259Y-57148D01*
X-89390Y-57073D01*
X-89503Y-56973D01*
X-89646Y-56925D01*
X-89776Y-56850D01*
X-89925Y-56830D01*
X-90068Y-56782D01*
X-90782Y-56688D01*
X-91025Y-56587D01*
X-91562Y-56480D01*
X-91567Y-56470D01*
X-91587Y-56371D01*
X-91698Y-56205D01*
X-91787Y-56025D01*
X-91833Y-55965D01*
X-91587Y-55465D01*
X-90768D01*
Y-48559D01*
Y-41654D01*
X-92269D01*
Y-41000D01*
X-92385Y-40415D01*
X-92716Y-39919D01*
X-93213Y-39587D01*
X-93798Y-39471D01*
X-122000D01*
X-122181Y-39507D01*
X-122681Y-39096D01*
Y-36173D01*
X-115571D01*
Y-23283D01*
Y-10394D01*
X-122681D01*
Y15181D01*
X-43304D01*
X-42953Y14827D01*
X-42953Y14681D01*
Y5427D01*
X-43065Y5395D01*
X-43158Y5423D01*
X-43547Y5778D01*
Y9382D01*
X-47500D01*
X-51453D01*
Y5539D01*
X-51453Y5437D01*
X-51699Y5039D01*
X-66653D01*
X-67004Y5496D01*
X-67735Y6057D01*
X-68586Y6410D01*
X-69500Y6530D01*
X-70414Y6410D01*
X-71265Y6057D01*
X-71996Y5496D01*
X-72557Y4765D01*
X-72910Y3914D01*
X-73030Y3000D01*
X-72910Y2086D01*
X-72557Y1235D01*
X-71996Y504D01*
X-71265Y-57D01*
X-70414Y-410D01*
X-69500Y-530D01*
X-68586Y-410D01*
X-67735Y-57D01*
X-67004Y504D01*
X-66653Y961D01*
X-40500D01*
X-39720Y1116D01*
X-39058Y1558D01*
X-37058Y3558D01*
X-36616Y4220D01*
X-36473Y4937D01*
X-34047D01*
Y14562D01*
X-33750Y14712D01*
X-33453Y14562D01*
Y4937D01*
X-30937D01*
Y2500D01*
X-30790Y1759D01*
X-30370Y1130D01*
X-29765Y525D01*
X-29956Y63D01*
X-33453D01*
Y-9827D01*
X-31039D01*
Y-11047D01*
X-36461D01*
Y-9827D01*
X-34047D01*
Y63D01*
X-42953D01*
Y63D01*
X-43047Y63D01*
Y63D01*
X-51953D01*
Y-9827D01*
X-49539D01*
Y-11047D01*
X-52740Y-11047D01*
X-52890Y-10609D01*
Y-10394D01*
X-60083D01*
Y-23283D01*
Y-36173D01*
X-52890D01*
Y-31808D01*
X-52740Y-31370D01*
X-52390Y-31370D01*
X-49539D01*
Y-37653D01*
X-49996Y-38004D01*
X-50557Y-38735D01*
X-50910Y-39586D01*
X-51030Y-40500D01*
X-50910Y-41414D01*
X-50557Y-42265D01*
X-49996Y-42996D01*
X-49265Y-43557D01*
X-48414Y-43910D01*
X-47500Y-44030D01*
X-46586Y-43910D01*
X-45735Y-43557D01*
X-45004Y-42996D01*
X-44443Y-42265D01*
X-44090Y-41414D01*
X-43970Y-40500D01*
X-44090Y-39586D01*
X-44443Y-38735D01*
X-45004Y-38004D01*
X-45461Y-37653D01*
Y-31370D01*
X-40539D01*
Y-32653D01*
X-40996Y-33004D01*
X-41557Y-33735D01*
X-41910Y-34586D01*
X-42030Y-35500D01*
X-41910Y-36414D01*
X-41557Y-37265D01*
X-40996Y-37996D01*
X-40265Y-38557D01*
X-39414Y-38910D01*
X-38500Y-39030D01*
X-37586Y-38910D01*
X-36735Y-38557D01*
X-36004Y-37996D01*
X-35443Y-37265D01*
X-35090Y-36414D01*
X-34970Y-35500D01*
X-35090Y-34586D01*
X-35443Y-33735D01*
X-36004Y-33004D01*
X-36461Y-32653D01*
Y-31370D01*
X-33260D01*
Y-30870D01*
X-29500D01*
Y-26917D01*
Y-22965D01*
X-33260D01*
Y-22465D01*
X-52390D01*
X-52740Y-22465D01*
X-52890Y-22027D01*
Y-20391D01*
X-52740Y-19953D01*
X-52390Y-19953D01*
X-14260D01*
Y-11047D01*
X-17461D01*
Y-9827D01*
X-15047D01*
Y-3846D01*
X-14585Y-3654D01*
X-3677Y-14562D01*
Y-31056D01*
X-4048Y-31303D01*
X-4422Y-31863D01*
X-4553Y-32523D01*
Y-36863D01*
X-4434Y-37461D01*
X-4498Y-37667D01*
X-4655Y-37961D01*
X-5947D01*
X-6235Y-37673D01*
X-6260Y-37547D01*
Y-30839D01*
X-7815D01*
X-7914Y-30339D01*
X-7235Y-30057D01*
X-6504Y-29496D01*
X-5943Y-28765D01*
X-5590Y-27914D01*
X-5470Y-27000D01*
X-5590Y-26086D01*
X-5943Y-25235D01*
X-6504Y-24504D01*
X-7235Y-23943D01*
X-8086Y-23590D01*
X-9000Y-23470D01*
X-9914Y-23590D01*
X-10765Y-23943D01*
X-11496Y-24504D01*
X-12057Y-25235D01*
X-12410Y-26086D01*
X-12530Y-27000D01*
X-12455Y-27571D01*
X-12942Y-28058D01*
X-13384Y-28720D01*
X-13539Y-29500D01*
Y-30839D01*
X-14760D01*
Y-27417D01*
X-19000D01*
Y-30870D01*
X-16740D01*
Y-39744D01*
X-9855D01*
X-9702Y-39973D01*
X-8233Y-41442D01*
X-7572Y-41884D01*
X-6791Y-42039D01*
X-3518D01*
X-3469Y-42539D01*
X-3488Y-42543D01*
X-4048Y-42917D01*
X-4422Y-43477D01*
X-4553Y-44137D01*
Y-48477D01*
X-4422Y-49137D01*
X-4048Y-49697D01*
X-3779Y-49876D01*
Y-53742D01*
X-4265Y-53943D01*
X-4996Y-54504D01*
X-5557Y-55235D01*
X-5910Y-56086D01*
X-6030Y-57000D01*
X-5910Y-57914D01*
X-5557Y-58765D01*
X-4996Y-59496D01*
X-4265Y-60057D01*
X-3414Y-60410D01*
X-2500Y-60530D01*
X-1586Y-60410D01*
X-735Y-60057D01*
X-4Y-59496D01*
X557Y-58765D01*
X910Y-57914D01*
X1030Y-57000D01*
X910Y-56086D01*
X557Y-55235D01*
X299Y-54898D01*
Y-49980D01*
X706Y-49652D01*
X912Y-49693D01*
X1500D01*
Y-46307D01*
Y-42922D01*
X912D01*
X610Y-42982D01*
X567Y-42917D01*
X8Y-42543D01*
X-12Y-42539D01*
X37Y-42039D01*
X500D01*
X1280Y-41884D01*
X1942Y-41442D01*
X3442Y-39942D01*
X3884Y-39280D01*
X4039Y-38500D01*
X4072Y-38473D01*
X4653Y-38588D01*
X6828D01*
X7488Y-38457D01*
X8048Y-38083D01*
X8422Y-37523D01*
X8553Y-36863D01*
Y-32523D01*
X8422Y-31863D01*
X8048Y-31303D01*
X7677Y-31056D01*
Y-15358D01*
X7530Y-14617D01*
X7110Y-13988D01*
X-15047Y8169D01*
Y14681D01*
X-15047Y14827D01*
X-14696Y15181D01*
X181856D01*
X182047Y14719D01*
D02*
G37*
G36*
X-93798Y-48559D02*
Y-54768D01*
X-93678Y-55681D01*
X-93325Y-56533D01*
X-93000Y-56956D01*
Y-58000D01*
X-91610D01*
X-91181Y-58178D01*
X-90268Y-58298D01*
X-90000Y-58533D01*
Y-84000D01*
X-122000D01*
Y-41000D01*
X-93798D01*
Y-48559D01*
D02*
G37*
G36*
X-80000Y-135000D02*
X-122000D01*
Y-88000D01*
X-80000D01*
Y-135000D01*
D02*
G37*
G36*
X204336Y-185075D02*
X204102Y-185549D01*
X203500Y-185470D01*
X202586Y-185590D01*
X201735Y-185943D01*
X201004Y-186504D01*
X200443Y-187235D01*
X200090Y-188086D01*
X199970Y-189000D01*
X200090Y-189914D01*
X200443Y-190765D01*
X201004Y-191496D01*
X201735Y-192057D01*
X202586Y-192410D01*
X203500Y-192530D01*
X204199Y-192438D01*
X207063Y-195302D01*
Y-236000D01*
X207210Y-236741D01*
X207630Y-237370D01*
X217712Y-247452D01*
X217684Y-247735D01*
X217376Y-248196D01*
X217268Y-248740D01*
Y-249421D01*
X218689D01*
Y-250421D01*
X217268D01*
Y-251102D01*
X217298Y-251255D01*
X216873Y-251680D01*
X216721Y-251650D01*
X216039D01*
Y-253071D01*
X215539D01*
Y-253108D01*
X214358D01*
X213619Y-253255D01*
X213147Y-253571D01*
X213019Y-253482D01*
X213045Y-253615D01*
X213057Y-253631D01*
X212993Y-253674D01*
X212574Y-254300D01*
X212427Y-255039D01*
X212402Y-255071D01*
X211810D01*
X205937Y-249198D01*
Y-209000D01*
X205790Y-208259D01*
X205370Y-207630D01*
X195870Y-198130D01*
X195241Y-197710D01*
X194500Y-197563D01*
X193953D01*
Y-195240D01*
Y-186240D01*
Y-175760D01*
X194319Y-175437D01*
X194698D01*
X204336Y-185075D01*
D02*
G37*
G36*
X116257Y-220539D02*
X116252Y-220565D01*
Y-222331D01*
X118161D01*
Y-222831D01*
X118301D01*
Y-225097D01*
X118433Y-225758D01*
X118661Y-226100D01*
Y-226315D01*
X118681D01*
Y-235175D01*
X117471D01*
X116809Y-235307D01*
X116249Y-235682D01*
X115874Y-236242D01*
X115742Y-236904D01*
Y-237130D01*
X103331D01*
X102550Y-237285D01*
X101889Y-237727D01*
X100155Y-239461D01*
X95205D01*
X94984Y-239012D01*
X95189Y-238746D01*
X95637Y-237662D01*
X95790Y-236500D01*
X95637Y-235338D01*
X95189Y-234254D01*
X94640Y-233539D01*
X94886Y-233039D01*
X101000D01*
X101780Y-232884D01*
X102442Y-232442D01*
X114845Y-220039D01*
X115847D01*
X116257Y-220539D01*
D02*
G37*
G36*
X213063Y-193802D02*
Y-208000D01*
X213210Y-208741D01*
X213630Y-209370D01*
X226594Y-222334D01*
Y-236260D01*
X224291D01*
Y-241000D01*
X223791D01*
Y-241500D01*
X219839D01*
Y-243446D01*
X219377Y-243637D01*
X210937Y-235198D01*
Y-194500D01*
X210790Y-193759D01*
X210370Y-193130D01*
X206938Y-189699D01*
X207030Y-189000D01*
X206951Y-188398D01*
X207424Y-188164D01*
X213063Y-193802D01*
D02*
G37*
G36*
X1456Y-311280D02*
X2117Y-311722D01*
X2898Y-311878D01*
X7781D01*
X7815Y-311900D01*
X8669Y-312070D01*
X15165D01*
X16019Y-311900D01*
X16744Y-311417D01*
X17193Y-310745D01*
X17281Y-310679D01*
X17765Y-310551D01*
X17961Y-310699D01*
Y-312155D01*
X17155Y-312961D01*
X6000D01*
X5220Y-313116D01*
X4558Y-313558D01*
X1558Y-316558D01*
X1116Y-317220D01*
X961Y-318000D01*
Y-320000D01*
X1116Y-320780D01*
X1558Y-321442D01*
X5101Y-324985D01*
X5763Y-325427D01*
X6543Y-325583D01*
X7718D01*
X8035Y-325969D01*
X8008Y-326102D01*
X8194Y-327033D01*
X8427Y-327382D01*
X8194Y-327730D01*
X8008Y-328661D01*
X8035Y-328795D01*
X7718Y-329181D01*
X3516D01*
X2996Y-328504D01*
X2265Y-327943D01*
X1414Y-327590D01*
X500Y-327470D01*
X-414Y-327590D01*
X-1265Y-327943D01*
X-1996Y-328504D01*
X-2557Y-329235D01*
X-2910Y-330086D01*
X-3030Y-331000D01*
X-2910Y-331914D01*
X-2557Y-332765D01*
X-1996Y-333496D01*
X-1265Y-334057D01*
X-414Y-334410D01*
X500Y-334530D01*
X1414Y-334410D01*
X2265Y-334057D01*
X2996Y-333496D01*
X3178Y-333260D01*
X7718D01*
X8035Y-333646D01*
X8008Y-333780D01*
X8035Y-333913D01*
X7718Y-334299D01*
X4870D01*
X4090Y-334455D01*
X3428Y-334897D01*
X-6699Y-345024D01*
X-7160Y-344778D01*
X-7008Y-344016D01*
X-7194Y-343085D01*
X-7427Y-342736D01*
X-7194Y-342388D01*
X-7008Y-341457D01*
X-7194Y-340526D01*
X-7427Y-340177D01*
X-7194Y-339828D01*
X-7008Y-338898D01*
X-7194Y-337967D01*
X-7427Y-337618D01*
X-7194Y-337269D01*
X-7008Y-336339D01*
X-7194Y-335408D01*
X-7721Y-334618D01*
X-7724Y-334604D01*
X-7665Y-334515D01*
X-7618Y-334279D01*
X-8228D01*
X-8510Y-334091D01*
X-9441Y-333906D01*
X-13280D01*
X-17118D01*
X-18049Y-334091D01*
X-18331Y-334279D01*
X-19315D01*
X-19332Y-334299D01*
X-27262D01*
X-27454Y-333838D01*
X-24317Y-330701D01*
X-19332D01*
X-19315Y-330720D01*
X-18331D01*
X-18049Y-330909D01*
X-17118Y-331094D01*
X-13280D01*
X-9441D01*
X-8510Y-330909D01*
X-8228Y-330720D01*
X-7618D01*
X-7665Y-330485D01*
X-7724Y-330396D01*
X-7721Y-330381D01*
X-7194Y-329592D01*
X-7008Y-328661D01*
X-7194Y-327730D01*
X-7427Y-327382D01*
X-7194Y-327033D01*
X-7008Y-326102D01*
X-7194Y-325171D01*
X-7427Y-324823D01*
X-7194Y-324474D01*
X-7008Y-323543D01*
X-7194Y-322612D01*
X-7427Y-322264D01*
X-7194Y-321915D01*
X-7008Y-320984D01*
X-7194Y-320053D01*
X-7721Y-319264D01*
X-8510Y-318737D01*
X-9441Y-318552D01*
X-17118D01*
X-18049Y-318737D01*
X-18361Y-318945D01*
X-20461D01*
Y-309845D01*
X-17376Y-306760D01*
X-16688D01*
X-16371Y-307146D01*
X-16397Y-307279D01*
X-16227Y-308134D01*
X-15743Y-308858D01*
X-15697Y-309091D01*
X-15756Y-309180D01*
X-15788Y-309339D01*
X-15024D01*
X-15020Y-309342D01*
X-14165Y-309512D01*
X-10917D01*
X-7669D01*
X-6815Y-309342D01*
X-6810Y-309339D01*
X-6047D01*
X-6078Y-309180D01*
X-6137Y-309091D01*
X-6091Y-308858D01*
X-5607Y-308134D01*
X-5437Y-307279D01*
X-5464Y-307146D01*
X-5147Y-306760D01*
X-3065D01*
X1456Y-311280D01*
D02*
G37*
G36*
X164106Y-336039D02*
X163720Y-336116D01*
X163058Y-336558D01*
X134155Y-365461D01*
X132576D01*
X132385Y-364999D01*
X139158Y-358225D01*
X139601Y-357564D01*
X139756Y-356784D01*
Y-347740D01*
X142169D01*
Y-339457D01*
X142209Y-339260D01*
X142209Y-339260D01*
Y-339175D01*
X145845Y-335539D01*
X150653D01*
X151004Y-335996D01*
X151735Y-336557D01*
X152586Y-336910D01*
X153500Y-337030D01*
X154414Y-336910D01*
X155265Y-336557D01*
X155996Y-335996D01*
X156347Y-335539D01*
X164057D01*
X164106Y-336039D01*
D02*
G37*
G36*
X38987Y-336369D02*
X38795Y-336831D01*
X36776D01*
Y-340874D01*
X39638D01*
Y-337673D01*
X40100Y-337482D01*
X41862Y-339245D01*
Y-346260D01*
X41047D01*
Y-356740D01*
X40681Y-357063D01*
X19802D01*
X19710Y-356970D01*
X19661Y-356938D01*
Y-349760D01*
X11491D01*
X11384Y-349220D01*
X10942Y-348558D01*
X9539Y-347155D01*
Y-346663D01*
X9926Y-346346D01*
X10441Y-346448D01*
X18118D01*
X19049Y-346263D01*
X19838Y-345736D01*
X20366Y-344947D01*
X20464Y-344453D01*
X30740D01*
Y-336039D01*
X38657D01*
X38987Y-336369D01*
D02*
G37*
G36*
X-31332Y-338878D02*
X-31496Y-339004D01*
X-32057Y-339735D01*
X-32410Y-340586D01*
X-32530Y-341500D01*
X-32410Y-342414D01*
X-32057Y-343265D01*
X-31496Y-343996D01*
X-30765Y-344557D01*
X-29914Y-344910D01*
X-29000Y-345030D01*
X-28086Y-344910D01*
X-27235Y-344557D01*
X-26504Y-343996D01*
X-26120Y-343496D01*
X-19841D01*
X-19524Y-343882D01*
X-19551Y-344016D01*
X-19365Y-344947D01*
X-18838Y-345736D01*
X-18049Y-346263D01*
X-17118Y-346448D01*
X-15217D01*
Y-357720D01*
X-15069Y-358462D01*
X-14649Y-359090D01*
X-13938Y-359801D01*
X-14030Y-360500D01*
X-13910Y-361414D01*
X-13557Y-362265D01*
X-12996Y-362996D01*
X-12265Y-363557D01*
X-11414Y-363910D01*
X-10500Y-364030D01*
X-9586Y-363910D01*
X-8735Y-363557D01*
X-8004Y-362996D01*
X-7443Y-362265D01*
X-7090Y-361414D01*
X-6970Y-360500D01*
X-7090Y-359586D01*
X-7443Y-358735D01*
X-8004Y-358004D01*
X-8735Y-357443D01*
X-9586Y-357090D01*
X-10500Y-356970D01*
X-10885Y-357020D01*
X-11342Y-356611D01*
Y-346448D01*
X-9441D01*
X-8510Y-346263D01*
X-7876Y-345840D01*
X-7422Y-346120D01*
X-7539Y-346709D01*
Y-351653D01*
X-7996Y-352004D01*
X-8557Y-352735D01*
X-8910Y-353586D01*
X-9030Y-354500D01*
X-8910Y-355414D01*
X-8557Y-356265D01*
X-7996Y-356996D01*
X-7265Y-357557D01*
X-6414Y-357910D01*
X-5500Y-358030D01*
X-4586Y-357910D01*
X-3735Y-357557D01*
X-3004Y-356996D01*
X-2443Y-356265D01*
X-2090Y-355414D01*
X-1970Y-354500D01*
X-2090Y-353586D01*
X-2443Y-352735D01*
X-3004Y-352004D01*
X-3461Y-351653D01*
Y-347553D01*
X1290Y-342802D01*
X1752Y-342994D01*
Y-349760D01*
X-661D01*
Y-360240D01*
X1841D01*
X1907Y-360572D01*
X2349Y-361233D01*
X9582Y-368465D01*
X9375Y-368966D01*
X-69442D01*
X-69593Y-368465D01*
X-69558Y-368442D01*
X-39494Y-338378D01*
X-31502D01*
X-31332Y-338878D01*
D02*
G37*
%LPC*%
G36*
X264453Y-9819D02*
X255547D01*
Y-19709D01*
X257961D01*
Y-20547D01*
X252039D01*
Y-19709D01*
X254453D01*
Y-9819D01*
X245547D01*
Y-19709D01*
X247961D01*
Y-20547D01*
X242039D01*
Y-19709D01*
X244453D01*
Y-9819D01*
X235547D01*
Y-19709D01*
X237961D01*
Y-20547D01*
X232039D01*
Y-19709D01*
X234453D01*
Y-9819D01*
X225547D01*
Y-19709D01*
X227961D01*
Y-20547D01*
X222039D01*
Y-19709D01*
X224453D01*
Y-9819D01*
X215547D01*
Y-19709D01*
X217961D01*
Y-20547D01*
X212039D01*
Y-19709D01*
X214453D01*
Y-9819D01*
X205547D01*
Y-19709D01*
X207961D01*
Y-20547D01*
X202039D01*
Y-19709D01*
X204453D01*
Y-9819D01*
X195547D01*
Y-19709D01*
X197961D01*
Y-20547D01*
X194760D01*
Y-29453D01*
X265240D01*
Y-20547D01*
X262039D01*
Y-19709D01*
X264453D01*
Y-9819D01*
D02*
G37*
G36*
X264740Y-32465D02*
X260500D01*
Y-35917D01*
X264740D01*
Y-32465D01*
D02*
G37*
G36*
X254740D02*
X250500D01*
Y-35917D01*
X254740D01*
Y-32465D01*
D02*
G37*
G36*
X244740D02*
X240500D01*
Y-35917D01*
X244740D01*
Y-32465D01*
D02*
G37*
G36*
X234740D02*
X230500D01*
Y-35917D01*
X234740D01*
Y-32465D01*
D02*
G37*
G36*
X224740D02*
X220500D01*
Y-35917D01*
X224740D01*
Y-32465D01*
D02*
G37*
G36*
X214740D02*
X210500D01*
Y-35917D01*
X214740D01*
Y-32465D01*
D02*
G37*
G36*
X204740D02*
X200500D01*
Y-35917D01*
X204740D01*
Y-32465D01*
D02*
G37*
G36*
X199500D02*
X195260D01*
Y-35917D01*
X199500D01*
Y-32465D01*
D02*
G37*
G36*
X259500D02*
X255260D01*
Y-35917D01*
X259500D01*
Y-32465D01*
D02*
G37*
G36*
X249500D02*
X245260D01*
Y-35917D01*
X249500D01*
Y-32465D01*
D02*
G37*
G36*
X239500D02*
X235260D01*
Y-35917D01*
X239500D01*
Y-32465D01*
D02*
G37*
G36*
X229500D02*
X225260D01*
Y-35917D01*
X229500D01*
Y-32465D01*
D02*
G37*
G36*
X219500D02*
X215260D01*
Y-35917D01*
X219500D01*
Y-32465D01*
D02*
G37*
G36*
X209500D02*
X205260D01*
Y-35917D01*
X209500D01*
Y-32465D01*
D02*
G37*
G36*
X264740Y-36917D02*
X260500D01*
Y-40370D01*
X264740D01*
Y-36917D01*
D02*
G37*
G36*
X259500D02*
X255260D01*
Y-40370D01*
X259500D01*
Y-36917D01*
D02*
G37*
G36*
X254740D02*
X250500D01*
Y-40370D01*
X254740D01*
Y-36917D01*
D02*
G37*
G36*
X249500D02*
X245260D01*
Y-40370D01*
X249500D01*
Y-36917D01*
D02*
G37*
G36*
X244740D02*
X240500D01*
Y-40370D01*
X244740D01*
Y-36917D01*
D02*
G37*
G36*
X239500D02*
X235260D01*
Y-40370D01*
X239500D01*
Y-36917D01*
D02*
G37*
G36*
X234740D02*
X230500D01*
Y-40370D01*
X234740D01*
Y-36917D01*
D02*
G37*
G36*
X229500D02*
X225260D01*
Y-40370D01*
X229500D01*
Y-36917D01*
D02*
G37*
G36*
X224740D02*
X220500D01*
Y-40370D01*
X224740D01*
Y-36917D01*
D02*
G37*
G36*
X219500D02*
X215260D01*
Y-40370D01*
X219500D01*
Y-36917D01*
D02*
G37*
G36*
X214740D02*
X210500D01*
Y-40370D01*
X214740D01*
Y-36917D01*
D02*
G37*
G36*
X209500D02*
X205260D01*
Y-40370D01*
X209500D01*
Y-36917D01*
D02*
G37*
G36*
X204740D02*
X200500D01*
Y-40370D01*
X204740D01*
Y-36917D01*
D02*
G37*
G36*
X199500D02*
X195260D01*
Y-40370D01*
X199500D01*
Y-36917D01*
D02*
G37*
G36*
X216161Y-47760D02*
X212709D01*
Y-52000D01*
X216161D01*
Y-47760D01*
D02*
G37*
G36*
X211709D02*
X208256D01*
Y-52000D01*
X211709D01*
Y-47760D01*
D02*
G37*
G36*
X216161Y-53000D02*
X212709D01*
Y-57240D01*
X216161D01*
Y-53000D01*
D02*
G37*
G36*
X211709D02*
X208256D01*
Y-57240D01*
X211709D01*
Y-53000D01*
D02*
G37*
G36*
X264500Y-73579D02*
X263968Y-73649D01*
X263007Y-74047D01*
X262181Y-74681D01*
X261547Y-75507D01*
X261149Y-76468D01*
X261079Y-77000D01*
X264500D01*
Y-73579D01*
D02*
G37*
G36*
Y-78000D02*
X261079D01*
X261149Y-78532D01*
X261547Y-79493D01*
X262181Y-80319D01*
X263007Y-80953D01*
X263968Y-81351D01*
X264500Y-81421D01*
Y-78000D01*
D02*
G37*
G36*
X202016Y-92280D02*
X199575Y-94721D01*
X202573Y-97720D01*
X205015Y-95278D01*
X202016Y-92280D01*
D02*
G37*
G36*
X198868Y-95429D02*
X196426Y-97870D01*
X199425Y-100868D01*
X201866Y-98427D01*
X198868Y-95429D01*
D02*
G37*
G36*
X205722Y-95985D02*
X203280Y-98427D01*
X206279Y-101425D01*
X208720Y-98984D01*
X205722Y-95985D01*
D02*
G37*
G36*
X202573Y-99134D02*
X200132Y-101575D01*
X203130Y-104574D01*
X205572Y-102132D01*
X202573Y-99134D01*
D02*
G37*
G36*
X245000Y-114470D02*
X244086Y-114590D01*
X243235Y-114943D01*
X242504Y-115504D01*
X241943Y-116235D01*
X241590Y-117086D01*
X241470Y-118000D01*
X241590Y-118914D01*
X241623Y-118993D01*
X239356Y-121260D01*
X233047D01*
Y-131740D01*
X239069D01*
X239091Y-131762D01*
Y-135418D01*
X237980D01*
X237088Y-135595D01*
X236915Y-135711D01*
X234750D01*
X233970Y-135866D01*
X233308Y-136308D01*
X230558Y-139058D01*
X230116Y-139720D01*
X229961Y-140500D01*
Y-150500D01*
X230116Y-151280D01*
X230558Y-151942D01*
X232808Y-154192D01*
X233470Y-154634D01*
X234250Y-154789D01*
X235346D01*
X235663Y-155176D01*
X235648Y-155250D01*
X235826Y-156142D01*
X236065Y-156500D01*
X235826Y-156858D01*
X235648Y-157750D01*
X235826Y-158642D01*
X236065Y-159000D01*
X235826Y-159358D01*
X235648Y-160250D01*
X235826Y-161143D01*
X236331Y-161899D01*
X236378Y-161931D01*
X236297Y-162053D01*
X236257Y-162250D01*
X236856D01*
X237088Y-162405D01*
X237980Y-162582D01*
X241130D01*
Y-162918D01*
X237980D01*
X237088Y-163095D01*
X236856Y-163250D01*
X236257D01*
X236297Y-163447D01*
X236378Y-163569D01*
X236331Y-163601D01*
X235826Y-164357D01*
X235648Y-165250D01*
X235826Y-166142D01*
X236331Y-166899D01*
X237088Y-167405D01*
X237980Y-167582D01*
X244280D01*
X245172Y-167405D01*
X245345Y-167289D01*
X246118D01*
X248760Y-169931D01*
Y-175953D01*
X259240D01*
Y-167047D01*
X251644D01*
X249208Y-164612D01*
X249204Y-164480D01*
X249616Y-164035D01*
X249727Y-164035D01*
X253500D01*
Y-160083D01*
X254000D01*
Y-159583D01*
X258740D01*
Y-156130D01*
X258024D01*
X257777Y-155630D01*
X258057Y-155265D01*
X258410Y-154414D01*
X258530Y-153500D01*
X258526Y-153469D01*
X258993Y-153186D01*
X258994Y-153187D01*
X259090Y-153914D01*
X259443Y-154765D01*
X260004Y-155496D01*
X260735Y-156057D01*
X261586Y-156410D01*
X262500Y-156530D01*
X263414Y-156410D01*
X264265Y-156057D01*
X264996Y-155496D01*
X265557Y-154765D01*
X265910Y-153914D01*
X266030Y-153000D01*
X265910Y-152086D01*
X265557Y-151235D01*
X264996Y-150504D01*
X264265Y-149943D01*
X263414Y-149590D01*
X262500Y-149470D01*
X261586Y-149590D01*
X261405Y-149665D01*
X260620Y-148880D01*
X259991Y-148460D01*
X259250Y-148313D01*
X246894D01*
X246577Y-147926D01*
X246612Y-147750D01*
X246434Y-146858D01*
X246195Y-146500D01*
X246434Y-146142D01*
X246612Y-145250D01*
X246434Y-144358D01*
X246195Y-144000D01*
X246434Y-143642D01*
X246612Y-142750D01*
X246597Y-142676D01*
X246914Y-142289D01*
X248760D01*
Y-144453D01*
X259240D01*
Y-135547D01*
X249785D01*
X249594Y-135085D01*
X251644Y-133035D01*
X259240D01*
Y-124130D01*
X248760D01*
Y-130152D01*
X243669Y-135242D01*
X243169Y-135035D01*
Y-130917D01*
X243014Y-130137D01*
X242572Y-129475D01*
X241953Y-128856D01*
Y-124431D01*
X244871Y-121513D01*
X245000Y-121530D01*
X245914Y-121410D01*
X246765Y-121057D01*
X247496Y-120496D01*
X248057Y-119765D01*
X248410Y-118914D01*
X248530Y-118000D01*
X248410Y-117086D01*
X248057Y-116235D01*
X247496Y-115504D01*
X246765Y-114943D01*
X245914Y-114590D01*
X245000Y-114470D01*
D02*
G37*
G36*
X198793Y-121816D02*
X197915Y-121932D01*
X197097Y-122270D01*
X196795Y-122502D01*
X198793Y-124500D01*
X200791Y-122502D01*
X200488Y-122270D01*
X199670Y-121932D01*
X198793Y-121816D01*
D02*
G37*
G36*
X230035Y-121760D02*
X226583D01*
Y-126000D01*
X230035D01*
Y-121760D01*
D02*
G37*
G36*
X225583D02*
X222130D01*
Y-126000D01*
X225583D01*
Y-121760D01*
D02*
G37*
G36*
X196088Y-123210D02*
X195856Y-123512D01*
X195517Y-124330D01*
X195402Y-125207D01*
X195517Y-126085D01*
X195856Y-126903D01*
X196088Y-127205D01*
X198086Y-125207D01*
X196088Y-123210D01*
D02*
G37*
G36*
X201498D02*
X199500Y-125207D01*
X201498Y-127205D01*
X201730Y-126903D01*
X202068Y-126085D01*
X202184Y-125207D01*
X202068Y-124330D01*
X201730Y-123512D01*
X201498Y-123210D01*
D02*
G37*
G36*
X171370Y-122426D02*
X168929Y-124868D01*
X171927Y-127866D01*
X174368Y-125425D01*
X171370Y-122426D01*
D02*
G37*
G36*
X198793Y-125914D02*
X196795Y-127912D01*
X197097Y-128144D01*
X197915Y-128483D01*
X198793Y-128598D01*
X199670Y-128483D01*
X200488Y-128144D01*
X200791Y-127912D01*
X198793Y-125914D01*
D02*
G37*
G36*
X168221Y-125575D02*
X165780Y-128016D01*
X168778Y-131015D01*
X171220Y-128573D01*
X168221Y-125575D01*
D02*
G37*
G36*
X230035Y-127000D02*
X226583D01*
Y-131240D01*
X230035D01*
Y-127000D01*
D02*
G37*
G36*
X225583D02*
X222130D01*
Y-131240D01*
X225583D01*
Y-127000D01*
D02*
G37*
G36*
X175075Y-126132D02*
X172634Y-128573D01*
X175632Y-131571D01*
X178074Y-129130D01*
X175075Y-126132D01*
D02*
G37*
G36*
X258740Y-160583D02*
X254500D01*
Y-164035D01*
X258740D01*
Y-160583D01*
D02*
G37*
G36*
X219370Y-165750D02*
X214998D01*
X215037Y-165947D01*
X215432Y-166539D01*
X216023Y-166934D01*
X216721Y-167072D01*
X219370D01*
Y-165750D01*
D02*
G37*
G36*
X230535Y-196000D02*
X227083D01*
Y-200240D01*
X230535D01*
Y-196000D01*
D02*
G37*
G36*
X226083D02*
X222630D01*
Y-200240D01*
X226083D01*
Y-196000D01*
D02*
G37*
G36*
X242370Y-170760D02*
X233465D01*
Y-181240D01*
X233547D01*
Y-190740D01*
Y-200740D01*
X242453D01*
Y-190740D01*
Y-180260D01*
X242370D01*
Y-170760D01*
D02*
G37*
G36*
X214004Y-341896D02*
Y-344126D01*
X216234D01*
X216204Y-343902D01*
X215925Y-343228D01*
X215481Y-342649D01*
X214902Y-342205D01*
X214228Y-341926D01*
X214004Y-341896D01*
D02*
G37*
G36*
X221878Y-341896D02*
Y-344126D01*
X224108D01*
X224078Y-343902D01*
X223799Y-343228D01*
X223355Y-342649D01*
X222776Y-342205D01*
X222101Y-341926D01*
X221878Y-341896D01*
D02*
G37*
G36*
X220878Y-341896D02*
X220654Y-341926D01*
X219980Y-342205D01*
X219401Y-342649D01*
X218957Y-343228D01*
X218678Y-343902D01*
X218648Y-344126D01*
X220878D01*
Y-341896D01*
D02*
G37*
G36*
X213004D02*
X212780Y-341926D01*
X212106Y-342205D01*
X211527Y-342649D01*
X211083Y-343228D01*
X210804Y-343902D01*
X210774Y-344126D01*
X213004D01*
Y-341896D01*
D02*
G37*
G36*
X245000Y-341326D02*
X244146Y-341439D01*
X243350Y-341768D01*
X242667Y-342293D01*
X242142Y-342976D01*
X241813Y-343772D01*
X241794Y-343909D01*
X240862Y-344841D01*
X240667Y-344745D01*
X240419Y-344577D01*
X240313Y-343772D01*
X239984Y-342976D01*
X239459Y-342293D01*
X238776Y-341768D01*
X237980Y-341439D01*
X237126Y-341326D01*
X236272Y-341439D01*
X235476Y-341768D01*
X234793Y-342293D01*
X234268Y-342976D01*
X233939Y-343772D01*
X233826Y-344626D01*
X233939Y-345480D01*
X234268Y-346276D01*
X234793Y-346959D01*
X235476Y-347484D01*
X236272Y-347813D01*
X237077Y-347919D01*
X237245Y-348167D01*
X237341Y-348362D01*
X236409Y-349294D01*
X236272Y-349313D01*
X235476Y-349642D01*
X234793Y-350167D01*
X234268Y-350850D01*
X233939Y-351646D01*
X233826Y-352500D01*
X233939Y-353354D01*
X234268Y-354150D01*
X234793Y-354833D01*
X235476Y-355358D01*
X236272Y-355687D01*
X237126Y-355800D01*
X237980Y-355687D01*
X238776Y-355358D01*
X239459Y-354833D01*
X239984Y-354150D01*
X240313Y-353354D01*
X240331Y-353217D01*
X241766Y-351782D01*
X242228Y-351974D01*
Y-352000D01*
X244500D01*
Y-349728D01*
X244474D01*
X244282Y-349266D01*
X245717Y-347831D01*
X245854Y-347813D01*
X246650Y-347484D01*
X247333Y-346959D01*
X247858Y-346276D01*
X248187Y-345480D01*
X248300Y-344626D01*
X248187Y-343772D01*
X247858Y-342976D01*
X247333Y-342293D01*
X246650Y-341768D01*
X245854Y-341439D01*
X245000Y-341326D01*
D02*
G37*
G36*
X220878Y-345126D02*
X218648D01*
X218678Y-345350D01*
X218957Y-346024D01*
X219401Y-346603D01*
X219980Y-347047D01*
X220654Y-347326D01*
X220878Y-347356D01*
Y-345126D01*
D02*
G37*
G36*
X213004D02*
X210774D01*
X210804Y-345350D01*
X211083Y-346024D01*
X211527Y-346603D01*
X212106Y-347047D01*
X212780Y-347326D01*
X213004Y-347356D01*
Y-345126D01*
D02*
G37*
G36*
X216234D02*
X214004D01*
Y-347356D01*
X214228Y-347326D01*
X214902Y-347047D01*
X215481Y-346603D01*
X215925Y-346024D01*
X216204Y-345350D01*
X216234Y-345126D01*
D02*
G37*
G36*
X224108D02*
X221878D01*
Y-347356D01*
X222101Y-347326D01*
X222776Y-347047D01*
X223355Y-346603D01*
X223799Y-346024D01*
X224078Y-345350D01*
X224108Y-345126D01*
D02*
G37*
G36*
X229252Y-341326D02*
X228398Y-341439D01*
X227602Y-341768D01*
X226919Y-342293D01*
X226394Y-342976D01*
X226064Y-343772D01*
X225952Y-344626D01*
X226064Y-345480D01*
X226394Y-346276D01*
X226919Y-346959D01*
X227602Y-347484D01*
X228398Y-347813D01*
X229252Y-347926D01*
X230106Y-347813D01*
X230902Y-347484D01*
X231585Y-346959D01*
X232110Y-346276D01*
X232439Y-345480D01*
X232552Y-344626D01*
X232439Y-343772D01*
X232110Y-342976D01*
X231585Y-342293D01*
X230902Y-341768D01*
X230106Y-341439D01*
X229252Y-341326D01*
D02*
G37*
G36*
X247772Y-349728D02*
X245500D01*
Y-352000D01*
X247772D01*
Y-349728D01*
D02*
G37*
G36*
Y-353000D02*
X245500D01*
Y-355272D01*
X247772D01*
Y-353000D01*
D02*
G37*
G36*
X244500D02*
X242228D01*
Y-355272D01*
X244500D01*
Y-353000D01*
D02*
G37*
G36*
X213504Y-349200D02*
X212650Y-349313D01*
X211854Y-349642D01*
X211171Y-350167D01*
X210646Y-350850D01*
X210316Y-351646D01*
X210204Y-352500D01*
X210316Y-353354D01*
X210646Y-354150D01*
X211171Y-354833D01*
X211854Y-355358D01*
X212650Y-355687D01*
X213504Y-355800D01*
X214358Y-355687D01*
X215154Y-355358D01*
X215837Y-354833D01*
X216362Y-354150D01*
X216691Y-353354D01*
X216804Y-352500D01*
X216691Y-351646D01*
X216362Y-350850D01*
X215837Y-350167D01*
X215154Y-349642D01*
X214358Y-349313D01*
X213504Y-349200D01*
D02*
G37*
G36*
X153953Y13953D02*
X150500D01*
Y10500D01*
X153953D01*
Y13953D01*
D02*
G37*
G36*
X100500Y13921D02*
Y10500D01*
X103921D01*
X103851Y11032D01*
X103453Y11993D01*
X102819Y12819D01*
X101993Y13453D01*
X101032Y13851D01*
X100500Y13921D01*
D02*
G37*
G36*
X50500D02*
Y10500D01*
X53921D01*
X53851Y11032D01*
X53453Y11993D01*
X52819Y12819D01*
X51993Y13453D01*
X51032Y13851D01*
X50500Y13921D01*
D02*
G37*
G36*
X500D02*
Y10500D01*
X3921D01*
X3851Y11032D01*
X3453Y11993D01*
X2819Y12819D01*
X1993Y13453D01*
X1032Y13851D01*
X500Y13921D01*
D02*
G37*
G36*
X49500D02*
X48968Y13851D01*
X48007Y13453D01*
X47181Y12819D01*
X46547Y11993D01*
X46149Y11032D01*
X46079Y10500D01*
X49500D01*
Y13921D01*
D02*
G37*
G36*
X-500D02*
X-1032Y13851D01*
X-1993Y13453D01*
X-2819Y12819D01*
X-3453Y11993D01*
X-3851Y11032D01*
X-3921Y10500D01*
X-500D01*
Y13921D01*
D02*
G37*
G36*
X99500D02*
X98968Y13851D01*
X98007Y13453D01*
X97181Y12819D01*
X96547Y11993D01*
X96149Y11032D01*
X96079Y10500D01*
X99500D01*
Y13921D01*
D02*
G37*
G36*
X149500Y13953D02*
X146047D01*
Y10500D01*
X149500D01*
Y13953D01*
D02*
G37*
G36*
X-43547Y14327D02*
X-47000D01*
Y10382D01*
X-43547D01*
Y14327D01*
D02*
G37*
G36*
X-48000D02*
X-51453D01*
Y10382D01*
X-48000D01*
Y14327D01*
D02*
G37*
G36*
X103921Y9500D02*
X100500D01*
Y6079D01*
X101032Y6149D01*
X101993Y6547D01*
X102819Y7181D01*
X103453Y8007D01*
X103851Y8968D01*
X103921Y9500D01*
D02*
G37*
G36*
X53921D02*
X50500D01*
Y6079D01*
X51032Y6149D01*
X51993Y6547D01*
X52819Y7181D01*
X53453Y8007D01*
X53851Y8968D01*
X53921Y9500D01*
D02*
G37*
G36*
X3921D02*
X500D01*
Y6079D01*
X1032Y6149D01*
X1993Y6547D01*
X2819Y7181D01*
X3453Y8007D01*
X3851Y8968D01*
X3921Y9500D01*
D02*
G37*
G36*
X99500D02*
X96079D01*
X96149Y8968D01*
X96547Y8007D01*
X97181Y7181D01*
X98007Y6547D01*
X98968Y6149D01*
X99500Y6079D01*
Y9500D01*
D02*
G37*
G36*
X49500D02*
X46079D01*
X46149Y8968D01*
X46547Y8007D01*
X47181Y7181D01*
X48007Y6547D01*
X48968Y6149D01*
X49500Y6079D01*
Y9500D01*
D02*
G37*
G36*
X-500D02*
X-3921D01*
X-3851Y8968D01*
X-3453Y8007D01*
X-2819Y7181D01*
X-1993Y6547D01*
X-1032Y6149D01*
X-500Y6079D01*
Y9500D01*
D02*
G37*
G36*
X153953D02*
X150500D01*
Y6047D01*
X153953D01*
Y9500D01*
D02*
G37*
G36*
X149500D02*
X146047D01*
Y6047D01*
X149500D01*
Y9500D01*
D02*
G37*
G36*
X140000Y14491D02*
X138838Y14338D01*
X137754Y13890D01*
X136824Y13176D01*
X136110Y12246D01*
X135662Y11162D01*
X135509Y10000D01*
X135662Y8838D01*
X136110Y7754D01*
X136824Y6824D01*
X137754Y6111D01*
X138838Y5662D01*
X140000Y5509D01*
X141162Y5662D01*
X142246Y6111D01*
X143176Y6824D01*
X143889Y7754D01*
X144338Y8838D01*
X144491Y10000D01*
X144338Y11162D01*
X143889Y12246D01*
X143176Y13176D01*
X142246Y13890D01*
X141162Y14338D01*
X140000Y14491D01*
D02*
G37*
G36*
X130000D02*
X128838Y14338D01*
X127754Y13890D01*
X126824Y13176D01*
X126110Y12246D01*
X125662Y11162D01*
X125509Y10000D01*
X125662Y8838D01*
X126110Y7754D01*
X126824Y6824D01*
X127754Y6111D01*
X128838Y5662D01*
X130000Y5509D01*
X131162Y5662D01*
X132246Y6111D01*
X133176Y6824D01*
X133889Y7754D01*
X134338Y8838D01*
X134491Y10000D01*
X134338Y11162D01*
X133889Y12246D01*
X133176Y13176D01*
X132246Y13890D01*
X131162Y14338D01*
X130000Y14491D01*
D02*
G37*
G36*
X120000D02*
X118838Y14338D01*
X117754Y13890D01*
X116824Y13176D01*
X116111Y12246D01*
X115662Y11162D01*
X115509Y10000D01*
X115662Y8838D01*
X116111Y7754D01*
X116824Y6824D01*
X117754Y6111D01*
X118838Y5662D01*
X120000Y5509D01*
X121162Y5662D01*
X122246Y6111D01*
X123176Y6824D01*
X123890Y7754D01*
X124338Y8838D01*
X124491Y10000D01*
X124338Y11162D01*
X123890Y12246D01*
X123176Y13176D01*
X122246Y13890D01*
X121162Y14338D01*
X120000Y14491D01*
D02*
G37*
G36*
X110000D02*
X108838Y14338D01*
X107754Y13890D01*
X106824Y13176D01*
X106111Y12246D01*
X105662Y11162D01*
X105509Y10000D01*
X105662Y8838D01*
X106111Y7754D01*
X106824Y6824D01*
X107754Y6111D01*
X108838Y5662D01*
X110000Y5509D01*
X111162Y5662D01*
X112246Y6111D01*
X113176Y6824D01*
X113890Y7754D01*
X114338Y8838D01*
X114491Y10000D01*
X114338Y11162D01*
X113890Y12246D01*
X113176Y13176D01*
X112246Y13890D01*
X111162Y14338D01*
X110000Y14491D01*
D02*
G37*
G36*
X90000D02*
X88838Y14338D01*
X87754Y13890D01*
X86824Y13176D01*
X86111Y12246D01*
X85662Y11162D01*
X85509Y10000D01*
X85662Y8838D01*
X86111Y7754D01*
X86824Y6824D01*
X87754Y6111D01*
X88838Y5662D01*
X90000Y5509D01*
X91162Y5662D01*
X92246Y6111D01*
X93176Y6824D01*
X93889Y7754D01*
X94338Y8838D01*
X94491Y10000D01*
X94338Y11162D01*
X93889Y12246D01*
X93176Y13176D01*
X92246Y13890D01*
X91162Y14338D01*
X90000Y14491D01*
D02*
G37*
G36*
X80000D02*
X78838Y14338D01*
X77754Y13890D01*
X76824Y13176D01*
X76111Y12246D01*
X75662Y11162D01*
X75509Y10000D01*
X75662Y8838D01*
X76111Y7754D01*
X76824Y6824D01*
X77754Y6111D01*
X78838Y5662D01*
X80000Y5509D01*
X81162Y5662D01*
X82246Y6111D01*
X83176Y6824D01*
X83890Y7754D01*
X84338Y8838D01*
X84491Y10000D01*
X84338Y11162D01*
X83890Y12246D01*
X83176Y13176D01*
X82246Y13890D01*
X81162Y14338D01*
X80000Y14491D01*
D02*
G37*
G36*
X70000D02*
X68838Y14338D01*
X67754Y13890D01*
X66824Y13176D01*
X66110Y12246D01*
X65662Y11162D01*
X65509Y10000D01*
X65662Y8838D01*
X66110Y7754D01*
X66824Y6824D01*
X67754Y6111D01*
X68838Y5662D01*
X70000Y5509D01*
X71162Y5662D01*
X72246Y6111D01*
X73176Y6824D01*
X73889Y7754D01*
X74338Y8838D01*
X74491Y10000D01*
X74338Y11162D01*
X73889Y12246D01*
X73176Y13176D01*
X72246Y13890D01*
X71162Y14338D01*
X70000Y14491D01*
D02*
G37*
G36*
X60000D02*
X58838Y14338D01*
X57754Y13890D01*
X56824Y13176D01*
X56111Y12246D01*
X55662Y11162D01*
X55509Y10000D01*
X55662Y8838D01*
X56111Y7754D01*
X56824Y6824D01*
X57754Y6111D01*
X58838Y5662D01*
X60000Y5509D01*
X61162Y5662D01*
X62246Y6111D01*
X63176Y6824D01*
X63889Y7754D01*
X64338Y8838D01*
X64491Y10000D01*
X64338Y11162D01*
X63889Y12246D01*
X63176Y13176D01*
X62246Y13890D01*
X61162Y14338D01*
X60000Y14491D01*
D02*
G37*
G36*
X40000D02*
X38838Y14338D01*
X37754Y13890D01*
X36824Y13176D01*
X36110Y12246D01*
X35662Y11162D01*
X35509Y10000D01*
X35662Y8838D01*
X36110Y7754D01*
X36824Y6824D01*
X37754Y6111D01*
X38838Y5662D01*
X40000Y5509D01*
X41162Y5662D01*
X42246Y6111D01*
X43176Y6824D01*
X43889Y7754D01*
X44338Y8838D01*
X44491Y10000D01*
X44338Y11162D01*
X43889Y12246D01*
X43176Y13176D01*
X42246Y13890D01*
X41162Y14338D01*
X40000Y14491D01*
D02*
G37*
G36*
X30000D02*
X28838Y14338D01*
X27754Y13890D01*
X26824Y13176D01*
X26111Y12246D01*
X25662Y11162D01*
X25509Y10000D01*
X25662Y8838D01*
X26111Y7754D01*
X26824Y6824D01*
X27754Y6111D01*
X28838Y5662D01*
X30000Y5509D01*
X31162Y5662D01*
X32246Y6111D01*
X33176Y6824D01*
X33889Y7754D01*
X34338Y8838D01*
X34491Y10000D01*
X34338Y11162D01*
X33889Y12246D01*
X33176Y13176D01*
X32246Y13890D01*
X31162Y14338D01*
X30000Y14491D01*
D02*
G37*
G36*
X20000D02*
X18838Y14338D01*
X17754Y13890D01*
X16824Y13176D01*
X16111Y12246D01*
X15662Y11162D01*
X15509Y10000D01*
X15662Y8838D01*
X16111Y7754D01*
X16824Y6824D01*
X17754Y6111D01*
X18838Y5662D01*
X20000Y5509D01*
X21162Y5662D01*
X22246Y6111D01*
X23176Y6824D01*
X23889Y7754D01*
X24338Y8838D01*
X24491Y10000D01*
X24338Y11162D01*
X23889Y12246D01*
X23176Y13176D01*
X22246Y13890D01*
X21162Y14338D01*
X20000Y14491D01*
D02*
G37*
G36*
X150500Y3921D02*
Y500D01*
X153921D01*
X153851Y1032D01*
X153453Y1993D01*
X152819Y2819D01*
X151993Y3453D01*
X151032Y3851D01*
X150500Y3921D01*
D02*
G37*
G36*
X100500D02*
Y500D01*
X103921D01*
X103851Y1032D01*
X103453Y1993D01*
X102819Y2819D01*
X101993Y3453D01*
X101032Y3851D01*
X100500Y3921D01*
D02*
G37*
G36*
X50500D02*
Y500D01*
X53921D01*
X53851Y1032D01*
X53453Y1993D01*
X52819Y2819D01*
X51993Y3453D01*
X51032Y3851D01*
X50500Y3921D01*
D02*
G37*
G36*
X49500D02*
X48968Y3851D01*
X48007Y3453D01*
X47181Y2819D01*
X46547Y1993D01*
X46149Y1032D01*
X46079Y500D01*
X49500D01*
Y3921D01*
D02*
G37*
G36*
X149500D02*
X148968Y3851D01*
X148007Y3453D01*
X147181Y2819D01*
X146547Y1993D01*
X146149Y1032D01*
X146079Y500D01*
X149500D01*
Y3921D01*
D02*
G37*
G36*
X99500D02*
X98968Y3851D01*
X98007Y3453D01*
X97181Y2819D01*
X96547Y1993D01*
X96149Y1032D01*
X96079Y500D01*
X99500D01*
Y3921D01*
D02*
G37*
G36*
X-500Y3921D02*
X-1032Y3851D01*
X-1993Y3453D01*
X-2819Y2819D01*
X-3453Y1993D01*
X-3851Y1032D01*
X-3921Y500D01*
X-500D01*
Y3921D01*
D02*
G37*
G36*
Y-500D02*
X-3921D01*
X-3851Y-1032D01*
X-3453Y-1993D01*
X-2819Y-2819D01*
X-1993Y-3453D01*
X-1032Y-3851D01*
X-500Y-3921D01*
Y-500D01*
D02*
G37*
G36*
X153921Y-500D02*
X150500D01*
Y-3921D01*
X151032Y-3851D01*
X151993Y-3453D01*
X152819Y-2819D01*
X153453Y-1993D01*
X153851Y-1032D01*
X153921Y-500D01*
D02*
G37*
G36*
X103921D02*
X100500D01*
Y-3921D01*
X101032Y-3851D01*
X101993Y-3453D01*
X102819Y-2819D01*
X103453Y-1993D01*
X103851Y-1032D01*
X103921Y-500D01*
D02*
G37*
G36*
X53921D02*
X50500D01*
Y-3921D01*
X51032Y-3851D01*
X51993Y-3453D01*
X52819Y-2819D01*
X53453Y-1993D01*
X53851Y-1032D01*
X53921Y-500D01*
D02*
G37*
G36*
X149500D02*
X146079D01*
X146149Y-1032D01*
X146547Y-1993D01*
X147181Y-2819D01*
X148007Y-3453D01*
X148968Y-3851D01*
X149500Y-3921D01*
Y-500D01*
D02*
G37*
G36*
X99500D02*
X96079D01*
X96149Y-1032D01*
X96547Y-1993D01*
X97181Y-2819D01*
X98007Y-3453D01*
X98968Y-3851D01*
X99500Y-3921D01*
Y-500D01*
D02*
G37*
G36*
X49500D02*
X46079D01*
X46149Y-1032D01*
X46547Y-1993D01*
X47181Y-2819D01*
X48007Y-3453D01*
X48968Y-3851D01*
X49500Y-3921D01*
Y-500D01*
D02*
G37*
G36*
X120000Y4491D02*
X118838Y4338D01*
X117754Y3889D01*
X116824Y3176D01*
X116111Y2246D01*
X115662Y1162D01*
X115509Y0D01*
X115662Y-1162D01*
X116111Y-2246D01*
X116824Y-3176D01*
X117754Y-3889D01*
X118838Y-4338D01*
X120000Y-4491D01*
X121162Y-4338D01*
X122246Y-3889D01*
X123176Y-3176D01*
X123890Y-2246D01*
X124338Y-1162D01*
X124491Y0D01*
X124338Y1162D01*
X123890Y2246D01*
X123176Y3176D01*
X122246Y3889D01*
X121162Y4338D01*
X120000Y4491D01*
D02*
G37*
G36*
X90000D02*
X88838Y4338D01*
X87754Y3889D01*
X86824Y3176D01*
X86111Y2246D01*
X85662Y1162D01*
X85509Y0D01*
X85662Y-1162D01*
X86111Y-2246D01*
X86824Y-3176D01*
X87754Y-3889D01*
X88838Y-4338D01*
X90000Y-4491D01*
X91162Y-4338D01*
X92246Y-3889D01*
X93176Y-3176D01*
X93889Y-2246D01*
X94338Y-1162D01*
X94491Y0D01*
X94338Y1162D01*
X93889Y2246D01*
X93176Y3176D01*
X92246Y3889D01*
X91162Y4338D01*
X90000Y4491D01*
D02*
G37*
G36*
X40000D02*
X38838Y4338D01*
X37754Y3889D01*
X36824Y3176D01*
X36110Y2246D01*
X35662Y1162D01*
X35509Y0D01*
X35662Y-1162D01*
X36110Y-2246D01*
X36824Y-3176D01*
X37754Y-3889D01*
X38838Y-4338D01*
X40000Y-4491D01*
X41162Y-4338D01*
X42246Y-3889D01*
X43176Y-3176D01*
X43889Y-2246D01*
X44338Y-1162D01*
X44491Y0D01*
X44338Y1162D01*
X43889Y2246D01*
X43176Y3176D01*
X42246Y3889D01*
X41162Y4338D01*
X40000Y4491D01*
D02*
G37*
G36*
X30000D02*
X28838Y4338D01*
X27754Y3889D01*
X26824Y3176D01*
X26111Y2246D01*
X25662Y1162D01*
X25509Y0D01*
X25662Y-1162D01*
X26111Y-2246D01*
X26824Y-3176D01*
X27754Y-3889D01*
X28838Y-4338D01*
X30000Y-4491D01*
X31162Y-4338D01*
X32246Y-3889D01*
X33176Y-3176D01*
X33889Y-2246D01*
X34338Y-1162D01*
X34491Y0D01*
X34338Y1162D01*
X33889Y2246D01*
X33176Y3176D01*
X32246Y3889D01*
X31162Y4338D01*
X30000Y4491D01*
D02*
G37*
G36*
X140000Y4491D02*
X138838Y4338D01*
X137754Y3889D01*
X136824Y3176D01*
X136110Y2246D01*
X135662Y1162D01*
X135509Y-0D01*
X135662Y-1162D01*
X136110Y-2246D01*
X136824Y-3176D01*
X137754Y-3889D01*
X138838Y-4338D01*
X140000Y-4491D01*
X141162Y-4338D01*
X142246Y-3889D01*
X143176Y-3176D01*
X143889Y-2246D01*
X144338Y-1162D01*
X144491Y-0D01*
X144338Y1162D01*
X143889Y2246D01*
X143176Y3176D01*
X142246Y3889D01*
X141162Y4338D01*
X140000Y4491D01*
D02*
G37*
G36*
X130000D02*
X128838Y4338D01*
X127754Y3889D01*
X126824Y3176D01*
X126110Y2246D01*
X125662Y1162D01*
X125509Y-0D01*
X125662Y-1162D01*
X126110Y-2246D01*
X126824Y-3176D01*
X127754Y-3889D01*
X128838Y-4338D01*
X130000Y-4491D01*
X131162Y-4338D01*
X132246Y-3889D01*
X133176Y-3176D01*
X133889Y-2246D01*
X134338Y-1162D01*
X134491Y-0D01*
X134338Y1162D01*
X133889Y2246D01*
X133176Y3176D01*
X132246Y3889D01*
X131162Y4338D01*
X130000Y4491D01*
D02*
G37*
G36*
X110000D02*
X108838Y4338D01*
X107754Y3889D01*
X106824Y3176D01*
X106111Y2246D01*
X105662Y1162D01*
X105509Y-0D01*
X105662Y-1162D01*
X106111Y-2246D01*
X106824Y-3176D01*
X107754Y-3889D01*
X108838Y-4338D01*
X110000Y-4491D01*
X111162Y-4338D01*
X112246Y-3889D01*
X113176Y-3176D01*
X113890Y-2246D01*
X114338Y-1162D01*
X114491Y-0D01*
X114338Y1162D01*
X113890Y2246D01*
X113176Y3176D01*
X112246Y3889D01*
X111162Y4338D01*
X110000Y4491D01*
D02*
G37*
G36*
X20000D02*
X18838Y4338D01*
X17754Y3889D01*
X16824Y3176D01*
X16111Y2246D01*
X15662Y1162D01*
X15509Y-0D01*
X15662Y-1162D01*
X16111Y-2246D01*
X16824Y-3176D01*
X17754Y-3889D01*
X18838Y-4338D01*
X20000Y-4491D01*
X21162Y-4338D01*
X22246Y-3889D01*
X23176Y-3176D01*
X23889Y-2246D01*
X24338Y-1162D01*
X24491Y-0D01*
X24338Y1162D01*
X23889Y2246D01*
X23176Y3176D01*
X22246Y3889D01*
X21162Y4338D01*
X20000Y4491D01*
D02*
G37*
G36*
X-107378Y-10394D02*
X-114571D01*
Y-22783D01*
X-107378D01*
Y-10394D01*
D02*
G37*
G36*
X-61083Y-10394D02*
X-68276D01*
Y-22783D01*
X-61083D01*
Y-10394D01*
D02*
G37*
G36*
X-77000Y-16707D02*
X-78111Y-16854D01*
X-79146Y-17282D01*
X-80035Y-17965D01*
X-80717Y-18854D01*
X-81146Y-19889D01*
X-81293Y-21000D01*
X-81146Y-22111D01*
X-80717Y-23146D01*
X-80035Y-24035D01*
X-79146Y-24717D01*
X-78111Y-25146D01*
X-77000Y-25293D01*
X-75889Y-25146D01*
X-74854Y-24717D01*
X-73965Y-24035D01*
X-73282Y-23146D01*
X-72854Y-22111D01*
X-72707Y-21000D01*
X-72854Y-19889D01*
X-73282Y-18854D01*
X-73965Y-17965D01*
X-74854Y-17282D01*
X-75889Y-16854D01*
X-77000Y-16707D01*
D02*
G37*
G36*
X-98654D02*
X-99765Y-16854D01*
X-100800Y-17282D01*
X-101689Y-17965D01*
X-102371Y-18854D01*
X-102800Y-19889D01*
X-102946Y-21000D01*
X-102800Y-22111D01*
X-102371Y-23146D01*
X-101689Y-24035D01*
X-100800Y-24717D01*
X-99765Y-25146D01*
X-98654Y-25293D01*
X-97543Y-25146D01*
X-96507Y-24717D01*
X-95618Y-24035D01*
X-94936Y-23146D01*
X-94507Y-22111D01*
X-94361Y-21000D01*
X-94507Y-19889D01*
X-94936Y-18854D01*
X-95618Y-17965D01*
X-96507Y-17282D01*
X-97543Y-16854D01*
X-98654Y-16707D01*
D02*
G37*
G36*
X-19000Y-22965D02*
Y-26417D01*
X-14760D01*
Y-22965D01*
X-19000D01*
D02*
G37*
G36*
X-24240Y-22964D02*
X-24740Y-22965D01*
X-28500D01*
Y-26917D01*
Y-30870D01*
X-24740D01*
X-24260Y-30870D01*
X-23760Y-30870D01*
X-20000D01*
Y-26917D01*
Y-22965D01*
X-23760D01*
X-24240Y-22964D01*
D02*
G37*
G36*
X-107378Y-23783D02*
X-114571D01*
Y-36173D01*
X-107378D01*
Y-23783D01*
D02*
G37*
G36*
X-61083Y-23783D02*
X-68276D01*
Y-36173D01*
X-61083D01*
Y-23783D01*
D02*
G37*
G36*
X6828Y-42412D02*
X4653D01*
X3992Y-42543D01*
X3433Y-42917D01*
X3390Y-42982D01*
X3088Y-42922D01*
X2500D01*
Y-46307D01*
Y-49693D01*
X2948D01*
X3100Y-49829D01*
X3125Y-50411D01*
X3004Y-50504D01*
X2443Y-51235D01*
X2090Y-52086D01*
X1970Y-53000D01*
X2090Y-53914D01*
X2443Y-54765D01*
X3004Y-55496D01*
X3735Y-56057D01*
X4586Y-56410D01*
X5500Y-56530D01*
X6414Y-56410D01*
X7265Y-56057D01*
X7996Y-55496D01*
X8557Y-54765D01*
X8910Y-53914D01*
X9030Y-53000D01*
X8910Y-52086D01*
X8557Y-51235D01*
X7996Y-50504D01*
X7790Y-50345D01*
X7798Y-49864D01*
X8048Y-49697D01*
X8422Y-49137D01*
X8553Y-48477D01*
Y-44137D01*
X8422Y-43477D01*
X8048Y-42917D01*
X7488Y-42543D01*
X6828Y-42412D01*
D02*
G37*
G36*
X-6760Y-42756D02*
X-11000D01*
Y-46209D01*
X-6760D01*
Y-42756D01*
D02*
G37*
G36*
X-12000D02*
X-16240D01*
Y-46209D01*
X-12000D01*
Y-42756D01*
D02*
G37*
G36*
X-6760Y-47209D02*
X-11000D01*
Y-50661D01*
X-6760D01*
Y-47209D01*
D02*
G37*
G36*
X-12000D02*
X-16240D01*
Y-50661D01*
X-12000D01*
Y-47209D01*
D02*
G37*
G36*
X150847Y-50197D02*
X147406D01*
Y-52000D01*
X152063D01*
Y-51412D01*
X151970Y-50947D01*
X151707Y-50553D01*
X151312Y-50290D01*
X150847Y-50197D01*
D02*
G37*
G36*
X146405D02*
X142964D01*
X142499Y-50290D01*
X142104Y-50553D01*
X141841Y-50947D01*
X141748Y-51412D01*
Y-52000D01*
X146405D01*
Y-50197D01*
D02*
G37*
G36*
X-77587Y-41154D02*
X-88264D01*
Y-41654D01*
X-89768D01*
Y-48559D01*
Y-55465D01*
X-88264D01*
Y-55965D01*
X-77587D01*
Y-41154D01*
D02*
G37*
G36*
X152063Y-53000D02*
X146906D01*
X141748D01*
Y-53588D01*
X141841Y-54053D01*
X142104Y-54447D01*
X142499Y-54710D01*
X142673Y-54745D01*
Y-55255D01*
X142499Y-55290D01*
X142104Y-55553D01*
X141841Y-55947D01*
X141748Y-56412D01*
Y-57000D01*
X146906D01*
X152063D01*
Y-56412D01*
X151970Y-55947D01*
X151707Y-55553D01*
X151312Y-55290D01*
X151138Y-55255D01*
Y-54745D01*
X151312Y-54710D01*
X151707Y-54447D01*
X151970Y-54053D01*
X152063Y-53588D01*
Y-53000D01*
D02*
G37*
G36*
Y-58000D02*
X146906D01*
X141748D01*
Y-58588D01*
X141841Y-59053D01*
X142104Y-59447D01*
X142499Y-59710D01*
X142673Y-59745D01*
Y-60255D01*
X142499Y-60290D01*
X142104Y-60553D01*
X141841Y-60947D01*
X141748Y-61412D01*
Y-62000D01*
X146906D01*
X152063D01*
Y-61412D01*
X151970Y-60947D01*
X151707Y-60553D01*
X151312Y-60290D01*
X151138Y-60255D01*
Y-59745D01*
X151312Y-59710D01*
X151707Y-59447D01*
X151970Y-59053D01*
X152063Y-58588D01*
Y-58000D01*
D02*
G37*
G36*
X-79630Y-58260D02*
X-83083D01*
Y-62500D01*
X-79630D01*
Y-58260D01*
D02*
G37*
G36*
X-84083D02*
X-87535D01*
Y-62500D01*
X-84083D01*
Y-58260D01*
D02*
G37*
G36*
X46500Y-58470D02*
X45586Y-58590D01*
X44735Y-58943D01*
X44004Y-59504D01*
X43443Y-60235D01*
X43090Y-61086D01*
X42970Y-62000D01*
X43090Y-62914D01*
X43443Y-63765D01*
X44004Y-64496D01*
X44735Y-65057D01*
X45586Y-65410D01*
X46500Y-65530D01*
X47414Y-65410D01*
X48265Y-65057D01*
X48996Y-64496D01*
X49557Y-63765D01*
X49910Y-62914D01*
X50030Y-62000D01*
X49910Y-61086D01*
X49557Y-60235D01*
X48996Y-59504D01*
X48265Y-58943D01*
X47414Y-58590D01*
X46500Y-58470D01*
D02*
G37*
G36*
X-79630Y-63500D02*
X-83583D01*
X-87535D01*
Y-67260D01*
X-87535D01*
Y-71500D01*
X-83583D01*
X-79630D01*
Y-67740D01*
X-79630D01*
Y-63500D01*
D02*
G37*
G36*
X-79630Y-72500D02*
X-83083D01*
Y-76740D01*
X-79630D01*
Y-72500D01*
D02*
G37*
G36*
X-84083D02*
X-87535D01*
Y-76740D01*
X-84083D01*
Y-72500D01*
D02*
G37*
G36*
X152063Y-88000D02*
X147406D01*
Y-89803D01*
X150847D01*
X151312Y-89710D01*
X151707Y-89447D01*
X151970Y-89053D01*
X152063Y-88588D01*
Y-88000D01*
D02*
G37*
G36*
X146405D02*
X141748D01*
Y-88588D01*
X141841Y-89053D01*
X142104Y-89447D01*
X142499Y-89710D01*
X142964Y-89803D01*
X146405D01*
Y-88000D01*
D02*
G37*
G36*
X-17130Y-95260D02*
X-20583D01*
Y-99500D01*
X-17130D01*
Y-95260D01*
D02*
G37*
G36*
X-21583D02*
X-25035D01*
Y-99500D01*
X-21583D01*
Y-95260D01*
D02*
G37*
G36*
X-17130Y-100500D02*
X-20583D01*
Y-104740D01*
X-17130D01*
Y-100500D01*
D02*
G37*
G36*
X-21583D02*
X-25035D01*
Y-104740D01*
X-21583D01*
Y-100500D01*
D02*
G37*
G36*
X71161Y-102000D02*
X67709D01*
Y-106240D01*
X71161D01*
Y-102000D01*
D02*
G37*
G36*
X66709D02*
X63256D01*
Y-106240D01*
X66709D01*
Y-102000D01*
D02*
G37*
G36*
X-11898Y-106957D02*
X-16295D01*
Y-108500D01*
X-11898D01*
Y-106957D01*
D02*
G37*
G36*
X-17295D02*
X-21693D01*
Y-108500D01*
X-17295D01*
Y-106957D01*
D02*
G37*
G36*
X73311Y-108276D02*
X71252D01*
Y-110000D01*
X75435D01*
X75366Y-109649D01*
X74884Y-108928D01*
X74162Y-108446D01*
X73311Y-108276D01*
D02*
G37*
G36*
X70252D02*
X68193D01*
X67342Y-108446D01*
X66620Y-108928D01*
X66138Y-109649D01*
X66069Y-110000D01*
X70252D01*
Y-108276D01*
D02*
G37*
G36*
X-11898Y-109500D02*
X-16295D01*
Y-111043D01*
X-11898D01*
Y-109500D01*
D02*
G37*
G36*
X-17295D02*
X-21693D01*
Y-111043D01*
X-17295D01*
Y-109500D01*
D02*
G37*
G36*
X71661Y-87260D02*
X62756D01*
Y-97740D01*
X63256D01*
Y-101000D01*
X67209D01*
X71161D01*
Y-97740D01*
X71661D01*
Y-94539D01*
X80155D01*
X86961Y-101345D01*
Y-110260D01*
X79047D01*
Y-113461D01*
X75058D01*
X74663Y-113158D01*
X74309Y-113012D01*
X74286Y-112938D01*
X74296Y-112465D01*
X74884Y-112073D01*
X75366Y-111351D01*
X75435Y-111000D01*
X70752D01*
X66069D01*
X66138Y-111351D01*
X66620Y-112073D01*
X67208Y-112465D01*
X67218Y-112938D01*
X67194Y-113012D01*
X66841Y-113158D01*
X66281Y-113588D01*
X65851Y-114148D01*
X65581Y-114800D01*
X65489Y-115500D01*
X65581Y-116200D01*
X65851Y-116852D01*
X66281Y-117412D01*
X66547Y-117616D01*
X66587Y-118157D01*
X66283Y-118461D01*
X62345D01*
X57991Y-114107D01*
X57330Y-113665D01*
X56642Y-113529D01*
X56350Y-113304D01*
X56316Y-113222D01*
Y-112778D01*
X56350Y-112696D01*
X56719Y-112412D01*
X57149Y-111852D01*
X57419Y-111200D01*
X57511Y-110500D01*
X57419Y-109800D01*
X57149Y-109148D01*
X56719Y-108588D01*
X56159Y-108158D01*
X55507Y-107888D01*
X54807Y-107796D01*
X54287D01*
Y-106740D01*
X60244D01*
Y-96260D01*
X60244D01*
Y-87260D01*
X51339D01*
Y-97740D01*
X51339D01*
Y-103351D01*
X50806Y-103884D01*
X50364Y-104546D01*
X50209Y-105326D01*
Y-107796D01*
X49689D01*
X48989Y-107888D01*
X48337Y-108158D01*
X47777Y-108588D01*
X47347Y-109148D01*
X47077Y-109800D01*
X46985Y-110500D01*
X47077Y-111200D01*
X47347Y-111852D01*
X47777Y-112412D01*
X48146Y-112696D01*
X48180Y-112778D01*
Y-113222D01*
X48146Y-113304D01*
X47777Y-113588D01*
X47347Y-114148D01*
X47077Y-114800D01*
X46985Y-115500D01*
X47077Y-116200D01*
X47347Y-116852D01*
X47777Y-117412D01*
X48043Y-117616D01*
X48083Y-118157D01*
X47826Y-118414D01*
X47298Y-118415D01*
X44733Y-115849D01*
X44072Y-115407D01*
X43291Y-115252D01*
X43240D01*
Y-112839D01*
X32760D01*
Y-115252D01*
X23136D01*
X17955Y-110071D01*
X18030Y-109500D01*
X17910Y-108586D01*
X17557Y-107735D01*
X16996Y-107004D01*
X16265Y-106443D01*
X15414Y-106090D01*
X14500Y-105970D01*
X13586Y-106090D01*
X12735Y-106443D01*
X12004Y-107004D01*
X11443Y-107735D01*
X11090Y-108586D01*
X10970Y-109500D01*
X11090Y-110414D01*
X11443Y-111265D01*
X12004Y-111996D01*
X12735Y-112557D01*
X13586Y-112910D01*
X14500Y-113030D01*
X15071Y-112955D01*
X20849Y-118733D01*
X21511Y-119175D01*
X22291Y-119331D01*
X32760D01*
Y-121744D01*
X43240D01*
Y-120777D01*
X43702Y-120586D01*
X45058Y-121942D01*
X45720Y-122384D01*
X46500Y-122539D01*
X47942D01*
X48337Y-122842D01*
X48691Y-122988D01*
X48714Y-123062D01*
X48704Y-123535D01*
X48116Y-123927D01*
X47634Y-124649D01*
X47565Y-125000D01*
X52248D01*
X56931D01*
X56862Y-124649D01*
X56380Y-123927D01*
X55792Y-123535D01*
X55782Y-123062D01*
X55806Y-122988D01*
X56159Y-122842D01*
X56719Y-122412D01*
X57149Y-121852D01*
X57419Y-121200D01*
X57511Y-120500D01*
X57451Y-120042D01*
X57925Y-119808D01*
X60058Y-121942D01*
X60720Y-122384D01*
X61500Y-122539D01*
X66446D01*
X66650Y-122696D01*
X66684Y-122778D01*
Y-123222D01*
X66650Y-123304D01*
X66281Y-123588D01*
X65851Y-124148D01*
X65581Y-124800D01*
X65489Y-125500D01*
X65581Y-126200D01*
X65851Y-126852D01*
X66281Y-127412D01*
X66841Y-127842D01*
X67493Y-128112D01*
X68193Y-128204D01*
X73311D01*
X74011Y-128112D01*
X74663Y-127842D01*
X75223Y-127412D01*
X75653Y-126852D01*
X75923Y-126200D01*
X76015Y-125500D01*
X75956Y-125047D01*
X76429Y-124813D01*
X77558Y-125942D01*
X78220Y-126384D01*
X79000Y-126539D01*
X79047D01*
Y-129740D01*
Y-138740D01*
X87953D01*
Y-129740D01*
Y-124990D01*
X88415Y-124799D01*
X89558Y-125942D01*
X90220Y-126384D01*
X90465Y-126433D01*
Y-129740D01*
Y-138740D01*
X99370D01*
Y-135437D01*
X104198D01*
X105562Y-136801D01*
X105470Y-137500D01*
X105590Y-138414D01*
X105943Y-139265D01*
X106504Y-139996D01*
X107235Y-140557D01*
X108086Y-140910D01*
X109000Y-141030D01*
X109914Y-140910D01*
X110765Y-140557D01*
X111496Y-139996D01*
X112057Y-139265D01*
X112410Y-138414D01*
X112530Y-137500D01*
X112410Y-136586D01*
X112057Y-135735D01*
X111496Y-135004D01*
X110765Y-134443D01*
X109914Y-134090D01*
X109000Y-133970D01*
X108301Y-134062D01*
X106370Y-132130D01*
X105741Y-131710D01*
X105000Y-131563D01*
X99370D01*
Y-130661D01*
X119240D01*
Y-121756D01*
X99370D01*
Y-119244D01*
X108760D01*
Y-119244D01*
X119240D01*
Y-110339D01*
X115937D01*
Y-108425D01*
X116496Y-107996D01*
X117057Y-107265D01*
X117410Y-106414D01*
X117530Y-105500D01*
X117410Y-104586D01*
X117057Y-103735D01*
X116496Y-103004D01*
X115765Y-102443D01*
X114914Y-102090D01*
X114000Y-101970D01*
X113086Y-102090D01*
X112235Y-102443D01*
X111504Y-103004D01*
X110943Y-103735D01*
X110590Y-104586D01*
X110470Y-105500D01*
X110590Y-106414D01*
X110943Y-107265D01*
X111504Y-107996D01*
X112063Y-108425D01*
Y-110339D01*
X109740D01*
Y-110339D01*
X99370D01*
Y-110260D01*
X91039D01*
Y-100500D01*
X90884Y-99720D01*
X90442Y-99058D01*
X82442Y-91058D01*
X81780Y-90616D01*
X81000Y-90461D01*
X71661D01*
Y-87260D01*
D02*
G37*
G36*
X-11898Y-111957D02*
X-16295D01*
Y-113500D01*
X-11898D01*
Y-111957D01*
D02*
G37*
G36*
X-17295D02*
X-21693D01*
Y-113500D01*
X-17295D01*
Y-111957D01*
D02*
G37*
G36*
X-50500Y-90970D02*
X-51414Y-91090D01*
X-52265Y-91443D01*
X-52996Y-92004D01*
X-53557Y-92735D01*
X-53910Y-93586D01*
X-54030Y-94500D01*
X-53910Y-95414D01*
X-53557Y-96265D01*
X-52996Y-96996D01*
X-52539Y-97347D01*
Y-101839D01*
X-55740D01*
Y-110744D01*
X-45260D01*
Y-108831D01*
X-44760Y-108624D01*
X-42942Y-110442D01*
X-42280Y-110884D01*
X-41602Y-111019D01*
Y-112183D01*
X-41741Y-112210D01*
X-42370Y-112630D01*
X-44798Y-115058D01*
X-45260Y-114867D01*
Y-113256D01*
X-55740D01*
Y-122161D01*
X-54539D01*
Y-126153D01*
X-54996Y-126504D01*
X-55557Y-127235D01*
X-55910Y-128086D01*
X-56030Y-129000D01*
X-55910Y-129914D01*
X-55557Y-130765D01*
X-54996Y-131496D01*
X-54265Y-132057D01*
X-53414Y-132410D01*
X-52500Y-132530D01*
X-51586Y-132410D01*
X-50735Y-132057D01*
X-50004Y-131496D01*
X-49443Y-130765D01*
X-49090Y-129914D01*
X-48970Y-129000D01*
X-49090Y-128086D01*
X-49443Y-127235D01*
X-50004Y-126504D01*
X-50461Y-126153D01*
Y-122161D01*
X-45260D01*
Y-119646D01*
X-44709D01*
X-43967Y-119498D01*
X-43339Y-119079D01*
X-41602Y-117342D01*
X-41102Y-117549D01*
Y-118500D01*
X-36205D01*
X-31307D01*
Y-117043D01*
X-31307Y-116957D01*
X-31098Y-116543D01*
X-30807D01*
Y-111543D01*
Y-106457D01*
X-31420D01*
X-31619Y-105957D01*
X-31270Y-105435D01*
X-31232Y-105240D01*
X-28047D01*
Y-94760D01*
X-36953D01*
Y-105240D01*
X-36953Y-105240D01*
X-37051Y-105700D01*
X-37426Y-106262D01*
X-37465Y-106457D01*
X-41159D01*
X-42767Y-104849D01*
X-43428Y-104407D01*
X-44209Y-104252D01*
X-45260D01*
Y-101839D01*
X-48461D01*
Y-97347D01*
X-48004Y-96996D01*
X-47443Y-96265D01*
X-47090Y-95414D01*
X-46970Y-94500D01*
X-47090Y-93586D01*
X-47443Y-92735D01*
X-48004Y-92004D01*
X-48735Y-91443D01*
X-49586Y-91090D01*
X-50500Y-90970D01*
D02*
G37*
G36*
X124000Y-109470D02*
X123086Y-109590D01*
X122235Y-109943D01*
X121504Y-110504D01*
X120943Y-111235D01*
X120590Y-112086D01*
X120470Y-113000D01*
X120590Y-113914D01*
X120943Y-114765D01*
X121504Y-115496D01*
X122235Y-116057D01*
X123086Y-116410D01*
X124000Y-116530D01*
X124914Y-116410D01*
X125765Y-116057D01*
X126496Y-115496D01*
X127057Y-114765D01*
X127410Y-113914D01*
X127530Y-113000D01*
X127410Y-112086D01*
X127057Y-111235D01*
X126496Y-110504D01*
X125765Y-109943D01*
X124914Y-109590D01*
X124000Y-109470D01*
D02*
G37*
G36*
X-11898Y-114500D02*
X-16795D01*
X-21693D01*
Y-115957D01*
X-21693Y-116043D01*
X-21902Y-116457D01*
X-22193D01*
Y-121543D01*
Y-126543D01*
X-11398D01*
Y-125937D01*
X-9425D01*
X-8996Y-126496D01*
X-8265Y-127057D01*
X-7414Y-127410D01*
X-6500Y-127530D01*
X-5586Y-127410D01*
X-4735Y-127057D01*
X-4004Y-126496D01*
X-3443Y-125765D01*
X-3090Y-124914D01*
X-2970Y-124000D01*
X-3090Y-123086D01*
X-3443Y-122235D01*
X-4004Y-121504D01*
X-4735Y-120943D01*
X-5586Y-120590D01*
X-6500Y-120470D01*
X-7414Y-120590D01*
X-8265Y-120943D01*
X-8996Y-121504D01*
X-9425Y-122063D01*
X-11398D01*
Y-116457D01*
X-11688D01*
X-11898Y-116043D01*
X-11898Y-115957D01*
Y-114500D01*
D02*
G37*
G36*
X56931Y-126000D02*
X52748D01*
Y-127724D01*
X54807D01*
X55658Y-127555D01*
X56380Y-127073D01*
X56862Y-126351D01*
X56931Y-126000D01*
D02*
G37*
G36*
X51748D02*
X47565D01*
X47634Y-126351D01*
X48116Y-127073D01*
X48838Y-127555D01*
X49689Y-127724D01*
X51748D01*
Y-126000D01*
D02*
G37*
G36*
X42740Y-124756D02*
X38500D01*
Y-128209D01*
X42740D01*
Y-124756D01*
D02*
G37*
G36*
X37500D02*
X33260D01*
Y-128209D01*
X37500D01*
Y-124756D01*
D02*
G37*
G36*
X42740Y-129209D02*
X38500D01*
Y-132661D01*
X42740D01*
Y-129209D01*
D02*
G37*
G36*
X37500D02*
X33260D01*
Y-132661D01*
X37500D01*
Y-129209D01*
D02*
G37*
G36*
X-31307Y-119500D02*
X-36205D01*
X-41102D01*
Y-120957D01*
X-41102Y-121043D01*
X-41311Y-121457D01*
X-41602D01*
Y-126543D01*
X-38437D01*
Y-129575D01*
X-38996Y-130004D01*
X-39557Y-130735D01*
X-39910Y-131586D01*
X-40030Y-132500D01*
X-39910Y-133414D01*
X-39557Y-134265D01*
X-38996Y-134996D01*
X-38265Y-135557D01*
X-37414Y-135910D01*
X-36500Y-136030D01*
X-35586Y-135910D01*
X-34735Y-135557D01*
X-34004Y-134996D01*
X-33443Y-134265D01*
X-33090Y-133414D01*
X-32970Y-132500D01*
X-33090Y-131586D01*
X-33443Y-130735D01*
X-34004Y-130004D01*
X-34563Y-129575D01*
Y-126543D01*
X-30807D01*
Y-121457D01*
X-31098D01*
X-31307Y-121043D01*
X-31307Y-120957D01*
Y-119500D01*
D02*
G37*
G36*
X101500Y-138970D02*
X100586Y-139090D01*
X99735Y-139443D01*
X99004Y-140004D01*
X98443Y-140735D01*
X98090Y-141586D01*
X97970Y-142500D01*
X98090Y-143414D01*
X98443Y-144265D01*
X99004Y-144996D01*
X99735Y-145557D01*
X100586Y-145910D01*
X101500Y-146030D01*
X102414Y-145910D01*
X103265Y-145557D01*
X103996Y-144996D01*
X104557Y-144265D01*
X104910Y-143414D01*
X105030Y-142500D01*
X104910Y-141586D01*
X104557Y-140735D01*
X103996Y-140004D01*
X103265Y-139443D01*
X102414Y-139090D01*
X101500Y-138970D01*
D02*
G37*
G36*
X133039Y-147130D02*
X128799D01*
Y-150583D01*
X133039D01*
Y-147130D01*
D02*
G37*
G36*
X127799D02*
X123559D01*
Y-150583D01*
X127799D01*
Y-147130D01*
D02*
G37*
G36*
X133039Y-151583D02*
X128799D01*
Y-155035D01*
X133039D01*
Y-151583D01*
D02*
G37*
G36*
X127799D02*
X123559D01*
Y-155035D01*
X127799D01*
Y-151583D01*
D02*
G37*
G36*
X122539Y-146630D02*
X112059D01*
Y-149044D01*
X99417D01*
X98637Y-149199D01*
X97975Y-149641D01*
X90571Y-157045D01*
X90000Y-156970D01*
X89086Y-157090D01*
X88235Y-157443D01*
X87504Y-158004D01*
X86943Y-158735D01*
X86590Y-159586D01*
X86470Y-160500D01*
X86590Y-161414D01*
X86943Y-162265D01*
X87504Y-162996D01*
X88235Y-163557D01*
X89086Y-163910D01*
X90000Y-164030D01*
X90914Y-163910D01*
X91765Y-163557D01*
X92496Y-162996D01*
X93057Y-162265D01*
X93410Y-161414D01*
X93530Y-160500D01*
X93455Y-159929D01*
X100262Y-153122D01*
X112059D01*
Y-155535D01*
X122539D01*
Y-146630D01*
D02*
G37*
G36*
X110752Y-171260D02*
X101847D01*
Y-174461D01*
X95752D01*
Y-172047D01*
X86847D01*
Y-180953D01*
X95752D01*
Y-178539D01*
X101847D01*
Y-181740D01*
Y-184461D01*
X95274D01*
X95189Y-184254D01*
X94475Y-183324D01*
X93545Y-182610D01*
X92462Y-182162D01*
X91299Y-182009D01*
X90137Y-182162D01*
X89054Y-182610D01*
X88124Y-183324D01*
X87410Y-184254D01*
X86961Y-185338D01*
X86808Y-186500D01*
X86961Y-187662D01*
X87410Y-188746D01*
X88124Y-189676D01*
X89054Y-190390D01*
X90137Y-190838D01*
X91299Y-190991D01*
X92462Y-190838D01*
X93545Y-190390D01*
X94475Y-189676D01*
X95189Y-188746D01*
X95274Y-188539D01*
X101847D01*
Y-191740D01*
X110752D01*
Y-181740D01*
Y-171260D01*
D02*
G37*
G36*
X65000Y-171470D02*
X64086Y-171590D01*
X63235Y-171943D01*
X62504Y-172504D01*
X61943Y-173235D01*
X61590Y-174086D01*
X61470Y-175000D01*
X61590Y-175914D01*
X61943Y-176765D01*
X62504Y-177496D01*
X63235Y-178057D01*
X64086Y-178410D01*
X65000Y-178530D01*
X65914Y-178410D01*
X66765Y-178057D01*
X67496Y-177496D01*
X68057Y-176765D01*
X68410Y-175914D01*
X68530Y-175000D01*
X68410Y-174086D01*
X68057Y-173235D01*
X67496Y-172504D01*
X66765Y-171943D01*
X65914Y-171590D01*
X65000Y-171470D01*
D02*
G37*
G36*
X63000Y-184470D02*
X62086Y-184590D01*
X61235Y-184943D01*
X60504Y-185504D01*
X59943Y-186235D01*
X59590Y-187086D01*
X59470Y-188000D01*
X59590Y-188914D01*
X59943Y-189765D01*
X60504Y-190496D01*
X61235Y-191057D01*
X62086Y-191410D01*
X63000Y-191530D01*
X63914Y-191410D01*
X64765Y-191057D01*
X65496Y-190496D01*
X66057Y-189765D01*
X66410Y-188914D01*
X66530Y-188000D01*
X66410Y-187086D01*
X66057Y-186235D01*
X65496Y-185504D01*
X64765Y-184943D01*
X63914Y-184590D01*
X63000Y-184470D01*
D02*
G37*
G36*
X91299Y-192009D02*
X90137Y-192162D01*
X89054Y-192611D01*
X88124Y-193324D01*
X87410Y-194254D01*
X86961Y-195338D01*
X86808Y-196500D01*
X86961Y-197662D01*
X87410Y-198746D01*
X88124Y-199676D01*
X89054Y-200390D01*
X90137Y-200838D01*
X91299Y-200991D01*
X92462Y-200838D01*
X93545Y-200390D01*
X94475Y-199676D01*
X95189Y-198746D01*
X95637Y-197662D01*
X95790Y-196500D01*
X95637Y-195338D01*
X95189Y-194254D01*
X94475Y-193324D01*
X93545Y-192611D01*
X92462Y-192162D01*
X91299Y-192009D01*
D02*
G37*
G36*
X91799Y-202579D02*
Y-206000D01*
X95220D01*
X95150Y-205468D01*
X94752Y-204507D01*
X94118Y-203681D01*
X93293Y-203047D01*
X92331Y-202649D01*
X91799Y-202579D01*
D02*
G37*
G36*
X90799D02*
X90267Y-202649D01*
X89306Y-203047D01*
X88480Y-203681D01*
X87846Y-204507D01*
X87448Y-205468D01*
X87378Y-206000D01*
X90799D01*
Y-202579D01*
D02*
G37*
G36*
X24331Y-200527D02*
X23477Y-200639D01*
X22681Y-200969D01*
X21997Y-201493D01*
X21772Y-201788D01*
X8173D01*
X7393Y-201943D01*
X6731Y-202385D01*
X-40442Y-249558D01*
X-40884Y-250220D01*
X-41039Y-251000D01*
Y-271955D01*
X-97332Y-328247D01*
X-97538Y-328162D01*
X-98701Y-328009D01*
X-99863Y-328162D01*
X-100946Y-328610D01*
X-101876Y-329324D01*
X-102590Y-330254D01*
X-103039Y-331338D01*
X-103192Y-332500D01*
X-103039Y-333662D01*
X-102590Y-334746D01*
X-101876Y-335676D01*
X-100946Y-336389D01*
X-99863Y-336838D01*
X-98701Y-336991D01*
X-97538Y-336838D01*
X-96455Y-336389D01*
X-95525Y-335676D01*
X-94811Y-334746D01*
X-94363Y-333662D01*
X-94210Y-332500D01*
X-94363Y-331338D01*
X-94448Y-331131D01*
X-37558Y-274241D01*
X-37116Y-273580D01*
X-36961Y-272799D01*
Y-251845D01*
X9018Y-205866D01*
X21772D01*
X21997Y-206160D01*
X22681Y-206684D01*
X23477Y-207014D01*
X24331Y-207127D01*
X25185Y-207014D01*
X25981Y-206684D01*
X26664Y-206160D01*
X27189Y-205477D01*
X27518Y-204681D01*
X27631Y-203827D01*
X27518Y-202973D01*
X27189Y-202177D01*
X26664Y-201493D01*
X25981Y-200969D01*
X25185Y-200639D01*
X24331Y-200527D01*
D02*
G37*
G36*
X133039Y-204965D02*
X128799D01*
Y-208417D01*
X133039D01*
Y-204965D01*
D02*
G37*
G36*
X127799D02*
X123559D01*
Y-208417D01*
X127799D01*
Y-204965D01*
D02*
G37*
G36*
X95220Y-207000D02*
X91799D01*
Y-210421D01*
X92331Y-210351D01*
X93293Y-209953D01*
X94118Y-209319D01*
X94752Y-208493D01*
X95150Y-207532D01*
X95220Y-207000D01*
D02*
G37*
G36*
X90799D02*
X87378D01*
X87448Y-207532D01*
X87846Y-208493D01*
X88480Y-209319D01*
X89306Y-209953D01*
X90267Y-210351D01*
X90799Y-210421D01*
Y-207000D01*
D02*
G37*
G36*
X133039Y-209417D02*
X128799D01*
Y-212870D01*
X133039D01*
Y-209417D01*
D02*
G37*
G36*
X127799D02*
X123559D01*
Y-212870D01*
X127799D01*
Y-209417D01*
D02*
G37*
G36*
X107000Y-203470D02*
X106086Y-203590D01*
X105235Y-203943D01*
X104504Y-204504D01*
X103943Y-205235D01*
X103590Y-206086D01*
X103470Y-207000D01*
X103590Y-207914D01*
X103943Y-208765D01*
X104504Y-209496D01*
X105235Y-210057D01*
X106086Y-210410D01*
X107000Y-210530D01*
X107611Y-210450D01*
X108137Y-210801D01*
X108917Y-210957D01*
X112059D01*
Y-213370D01*
X122539D01*
Y-204465D01*
X112059D01*
Y-206878D01*
X110514D01*
X110410Y-206086D01*
X110057Y-205235D01*
X109496Y-204504D01*
X108765Y-203943D01*
X107914Y-203590D01*
X107000Y-203470D01*
D02*
G37*
G36*
X-94248Y-208047D02*
X-103154D01*
Y-216953D01*
X-94248D01*
Y-208047D01*
D02*
G37*
G36*
X182035Y-190500D02*
X174130D01*
Y-194260D01*
X173630D01*
Y-195973D01*
X173593Y-196160D01*
Y-197659D01*
X155904D01*
X155163Y-197806D01*
X154534Y-198226D01*
X150699Y-202062D01*
X150000Y-201970D01*
X149086Y-202090D01*
X148235Y-202443D01*
X147504Y-203004D01*
X146943Y-203735D01*
X146590Y-204586D01*
X146470Y-205500D01*
X146590Y-206414D01*
X146943Y-207265D01*
X147504Y-207996D01*
X148235Y-208557D01*
X149086Y-208910D01*
X150000Y-209030D01*
X150914Y-208910D01*
X151765Y-208557D01*
X152496Y-207996D01*
X153057Y-207265D01*
X153410Y-206414D01*
X153530Y-205500D01*
X153438Y-204801D01*
X156706Y-201533D01*
X173630D01*
Y-204260D01*
X173630Y-204740D01*
X173630Y-205240D01*
Y-210063D01*
X165500D01*
X164759Y-210210D01*
X164130Y-210630D01*
X162130Y-212630D01*
X161710Y-213259D01*
X161563Y-214000D01*
X161710Y-214741D01*
X162130Y-215370D01*
X162563Y-215802D01*
Y-230575D01*
X162004Y-231004D01*
X161443Y-231735D01*
X161090Y-232586D01*
X160970Y-233500D01*
X161090Y-234414D01*
X161443Y-235265D01*
X162004Y-235996D01*
X162735Y-236557D01*
X163586Y-236910D01*
X164500Y-237030D01*
X165414Y-236910D01*
X166265Y-236557D01*
X166996Y-235996D01*
X167557Y-235265D01*
X167910Y-234414D01*
X168030Y-233500D01*
X167910Y-232586D01*
X167557Y-231735D01*
X166996Y-231004D01*
X166437Y-230575D01*
Y-215000D01*
X166325Y-214437D01*
X166583Y-214015D01*
X166676Y-213937D01*
X173630D01*
Y-215240D01*
X173638D01*
X174130Y-215260D01*
Y-219500D01*
X182035D01*
Y-215260D01*
X182527Y-215240D01*
X182535D01*
Y-205240D01*
X182535Y-204760D01*
X182535Y-204260D01*
Y-194260D01*
X182035D01*
Y-190500D01*
D02*
G37*
G36*
X139740Y-217339D02*
X135500D01*
Y-220791D01*
X139740D01*
Y-217339D01*
D02*
G37*
G36*
X134500D02*
X130260D01*
Y-220791D01*
X134500D01*
Y-217339D01*
D02*
G37*
G36*
X91299Y-212009D02*
X90137Y-212162D01*
X89054Y-212611D01*
X88124Y-213324D01*
X87410Y-214254D01*
X86961Y-215338D01*
X86808Y-216500D01*
X86961Y-217662D01*
X87410Y-218746D01*
X88124Y-219676D01*
X89054Y-220390D01*
X90137Y-220838D01*
X91299Y-220991D01*
X92462Y-220838D01*
X93545Y-220390D01*
X94475Y-219676D01*
X95189Y-218746D01*
X95637Y-217662D01*
X95790Y-216500D01*
X95637Y-215338D01*
X95189Y-214254D01*
X94475Y-213324D01*
X93545Y-212611D01*
X92462Y-212162D01*
X91299Y-212009D01*
D02*
G37*
G36*
X182035Y-220500D02*
X174130D01*
Y-224260D01*
X174130Y-224740D01*
X174122Y-224741D01*
X173630Y-224760D01*
X173630D01*
X173142Y-224732D01*
X172765Y-224443D01*
X171914Y-224090D01*
X171000Y-223970D01*
X170086Y-224090D01*
X169235Y-224443D01*
X168504Y-225004D01*
X167943Y-225735D01*
X167590Y-226586D01*
X167470Y-227500D01*
X167590Y-228414D01*
X167943Y-229265D01*
X168504Y-229996D01*
X169235Y-230557D01*
X170086Y-230910D01*
X171000Y-231030D01*
X171571Y-230955D01*
X172058Y-231442D01*
X172720Y-231884D01*
X173500Y-232039D01*
X173630D01*
Y-235240D01*
X176043D01*
Y-236260D01*
X173630D01*
Y-246740D01*
X173638D01*
X174130Y-246760D01*
X174130Y-247240D01*
Y-251000D01*
X182035D01*
Y-247240D01*
X182035Y-246760D01*
X182527Y-246740D01*
X182535D01*
Y-236260D01*
X180122D01*
Y-235240D01*
X182535D01*
Y-224760D01*
X182527D01*
X182035Y-224740D01*
X182035Y-224260D01*
Y-220500D01*
D02*
G37*
G36*
X139740Y-221791D02*
X135500D01*
Y-225244D01*
X139740D01*
Y-221791D01*
D02*
G37*
G36*
X134500D02*
X130260D01*
Y-225244D01*
X134500D01*
Y-221791D01*
D02*
G37*
G36*
X-52000Y-187970D02*
X-52914Y-188090D01*
X-53765Y-188443D01*
X-54496Y-189004D01*
X-55057Y-189735D01*
X-55410Y-190586D01*
X-55530Y-191500D01*
X-55410Y-192414D01*
X-55057Y-193265D01*
X-54496Y-193996D01*
X-53765Y-194557D01*
X-52914Y-194910D01*
X-52000Y-195030D01*
X-51429Y-194955D01*
X-24455Y-221929D01*
X-24530Y-222500D01*
X-24410Y-223414D01*
X-24057Y-224265D01*
X-23496Y-224996D01*
X-22765Y-225557D01*
X-21914Y-225910D01*
X-21000Y-226030D01*
X-20086Y-225910D01*
X-19235Y-225557D01*
X-18504Y-224996D01*
X-17943Y-224265D01*
X-17590Y-223414D01*
X-17470Y-222500D01*
X-17590Y-221586D01*
X-17943Y-220735D01*
X-18504Y-220004D01*
X-19235Y-219443D01*
X-20086Y-219090D01*
X-21000Y-218970D01*
X-21571Y-219045D01*
X-48545Y-192071D01*
X-48470Y-191500D01*
X-48590Y-190586D01*
X-48943Y-189735D01*
X-49504Y-189004D01*
X-50235Y-188443D01*
X-51086Y-188090D01*
X-52000Y-187970D01*
D02*
G37*
G36*
X-98701Y-218009D02*
X-99863Y-218162D01*
X-100946Y-218611D01*
X-101876Y-219324D01*
X-102590Y-220254D01*
X-103039Y-221338D01*
X-103192Y-222500D01*
X-103039Y-223662D01*
X-102590Y-224746D01*
X-101876Y-225676D01*
X-100946Y-226390D01*
X-99863Y-226838D01*
X-98701Y-226991D01*
X-97538Y-226838D01*
X-96455Y-226390D01*
X-95525Y-225676D01*
X-94811Y-224746D01*
X-94363Y-223662D01*
X-94210Y-222500D01*
X-94363Y-221338D01*
X-94811Y-220254D01*
X-95525Y-219324D01*
X-96455Y-218611D01*
X-97538Y-218162D01*
X-98701Y-218009D01*
D02*
G37*
G36*
X24831Y-232593D02*
Y-234823D01*
X27060D01*
X27031Y-234599D01*
X26752Y-233925D01*
X26307Y-233346D01*
X25728Y-232902D01*
X25054Y-232623D01*
X24831Y-232593D01*
D02*
G37*
G36*
X23831D02*
X23607Y-232623D01*
X22933Y-232902D01*
X22354Y-233346D01*
X21910Y-233925D01*
X21630Y-234599D01*
X21601Y-234823D01*
X23831D01*
Y-232593D01*
D02*
G37*
G36*
X-98701Y-228009D02*
X-99863Y-228162D01*
X-100946Y-228611D01*
X-101876Y-229324D01*
X-102590Y-230254D01*
X-103039Y-231338D01*
X-103192Y-232500D01*
X-103039Y-233662D01*
X-102590Y-234746D01*
X-101876Y-235676D01*
X-100946Y-236389D01*
X-99863Y-236838D01*
X-98701Y-236991D01*
X-97538Y-236838D01*
X-96455Y-236389D01*
X-95525Y-235676D01*
X-94811Y-234746D01*
X-94363Y-233662D01*
X-94210Y-232500D01*
X-94363Y-231338D01*
X-94811Y-230254D01*
X-95525Y-229324D01*
X-96455Y-228611D01*
X-97538Y-228162D01*
X-98701Y-228009D01*
D02*
G37*
G36*
X27060Y-235823D02*
X24831D01*
Y-238053D01*
X25054Y-238023D01*
X25728Y-237744D01*
X26307Y-237300D01*
X26752Y-236721D01*
X27031Y-236046D01*
X27060Y-235823D01*
D02*
G37*
G36*
X23831D02*
X21601D01*
X21630Y-236046D01*
X21910Y-236721D01*
X22354Y-237300D01*
X22933Y-237744D01*
X23607Y-238023D01*
X23831Y-238053D01*
Y-235823D01*
D02*
G37*
G36*
X32205Y-232023D02*
X31351Y-232135D01*
X30555Y-232465D01*
X29871Y-232990D01*
X29347Y-233673D01*
X29017Y-234469D01*
X28905Y-235323D01*
X29017Y-236177D01*
X29347Y-236973D01*
X29871Y-237656D01*
X30555Y-238181D01*
X31351Y-238510D01*
X32205Y-238623D01*
X33059Y-238510D01*
X33855Y-238181D01*
X34538Y-237656D01*
X35063Y-236973D01*
X35392Y-236177D01*
X35505Y-235323D01*
X35392Y-234469D01*
X35063Y-233673D01*
X34538Y-232990D01*
X33855Y-232465D01*
X33059Y-232135D01*
X32205Y-232023D01*
D02*
G37*
G36*
X24831Y-240467D02*
Y-242697D01*
X27060D01*
X27031Y-242473D01*
X26752Y-241799D01*
X26307Y-241220D01*
X25728Y-240776D01*
X25054Y-240496D01*
X24831Y-240467D01*
D02*
G37*
G36*
X23831D02*
X23607Y-240496D01*
X22933Y-240776D01*
X22354Y-241220D01*
X21910Y-241799D01*
X21630Y-242473D01*
X21601Y-242697D01*
X23831D01*
Y-240467D01*
D02*
G37*
G36*
Y-243697D02*
X21601D01*
X21630Y-243920D01*
X21910Y-244595D01*
X22354Y-245174D01*
X22933Y-245618D01*
X23607Y-245897D01*
X23831Y-245927D01*
Y-243697D01*
D02*
G37*
G36*
X27060D02*
X24831D01*
Y-245927D01*
X25054Y-245897D01*
X25728Y-245618D01*
X26307Y-245174D01*
X26752Y-244595D01*
X27031Y-243920D01*
X27060Y-243697D01*
D02*
G37*
G36*
X-98701Y-238009D02*
X-99863Y-238162D01*
X-100946Y-238611D01*
X-101876Y-239324D01*
X-102590Y-240254D01*
X-103039Y-241338D01*
X-103192Y-242500D01*
X-103039Y-243662D01*
X-102590Y-244746D01*
X-101876Y-245676D01*
X-100946Y-246390D01*
X-99863Y-246838D01*
X-98701Y-246991D01*
X-97538Y-246838D01*
X-96455Y-246390D01*
X-95525Y-245676D01*
X-94811Y-244746D01*
X-94363Y-243662D01*
X-94210Y-242500D01*
X-94363Y-241338D01*
X-94811Y-240254D01*
X-95525Y-239324D01*
X-96455Y-238611D01*
X-97538Y-238162D01*
X-98701Y-238009D01*
D02*
G37*
G36*
X32205Y-247771D02*
X31351Y-247883D01*
X30555Y-248213D01*
X29871Y-248738D01*
X29347Y-249421D01*
X29017Y-250217D01*
X28905Y-251071D01*
X29017Y-251925D01*
X29347Y-252721D01*
X29871Y-253404D01*
X30555Y-253929D01*
X31351Y-254258D01*
X32205Y-254371D01*
X33059Y-254258D01*
X33855Y-253929D01*
X34538Y-253404D01*
X35063Y-252721D01*
X35392Y-251925D01*
X35505Y-251071D01*
X35392Y-250217D01*
X35063Y-249421D01*
X34538Y-248738D01*
X33855Y-248213D01*
X33059Y-247883D01*
X32205Y-247771D01*
D02*
G37*
G36*
X24331Y-247771D02*
X23477Y-247883D01*
X22681Y-248213D01*
X21997Y-248738D01*
X21473Y-249421D01*
X21143Y-250217D01*
X21031Y-251071D01*
X21143Y-251925D01*
X21473Y-252721D01*
X21997Y-253404D01*
X22681Y-253929D01*
X23477Y-254258D01*
X24331Y-254371D01*
X25185Y-254258D01*
X25981Y-253929D01*
X26664Y-253404D01*
X27189Y-252721D01*
X27518Y-251925D01*
X27631Y-251071D01*
X27518Y-250217D01*
X27189Y-249421D01*
X26664Y-248738D01*
X25981Y-248213D01*
X25185Y-247883D01*
X24331Y-247771D01*
D02*
G37*
G36*
X-98701Y-248009D02*
X-99863Y-248162D01*
X-100946Y-248611D01*
X-101876Y-249324D01*
X-102590Y-250254D01*
X-103039Y-251338D01*
X-103192Y-252500D01*
X-103039Y-253662D01*
X-102590Y-254746D01*
X-101876Y-255676D01*
X-100946Y-256389D01*
X-99863Y-256838D01*
X-98701Y-256991D01*
X-97538Y-256838D01*
X-96455Y-256389D01*
X-95525Y-255676D01*
X-94811Y-254746D01*
X-94363Y-253662D01*
X-94210Y-252500D01*
X-94363Y-251338D01*
X-94811Y-250254D01*
X-95525Y-249324D01*
X-96455Y-248611D01*
X-97538Y-248162D01*
X-98701Y-248009D01*
D02*
G37*
G36*
X-98201Y-258579D02*
Y-262000D01*
X-94780D01*
X-94850Y-261468D01*
X-95248Y-260507D01*
X-95882Y-259681D01*
X-96707Y-259047D01*
X-97669Y-258649D01*
X-98201Y-258579D01*
D02*
G37*
G36*
X-99201D02*
X-99733Y-258649D01*
X-100694Y-259047D01*
X-101520Y-259681D01*
X-102154Y-260507D01*
X-102552Y-261468D01*
X-102622Y-262000D01*
X-99201D01*
Y-258579D01*
D02*
G37*
G36*
Y-263000D02*
X-102622D01*
X-102552Y-263532D01*
X-102154Y-264493D01*
X-101520Y-265319D01*
X-100694Y-265953D01*
X-99733Y-266351D01*
X-99201Y-266421D01*
Y-263000D01*
D02*
G37*
G36*
X-94780D02*
X-98201D01*
Y-266421D01*
X-97669Y-266351D01*
X-96707Y-265953D01*
X-95882Y-265319D01*
X-95248Y-264493D01*
X-94850Y-263532D01*
X-94780Y-263000D01*
D02*
G37*
G36*
X91299Y-262009D02*
X90137Y-262162D01*
X89054Y-262611D01*
X88124Y-263324D01*
X87410Y-264254D01*
X87324Y-264461D01*
X78500D01*
X77720Y-264616D01*
X77058Y-265058D01*
X71571Y-270545D01*
X71000Y-270470D01*
X70086Y-270590D01*
X69235Y-270943D01*
X68504Y-271504D01*
X67943Y-272235D01*
X67590Y-273086D01*
X67470Y-274000D01*
X67590Y-274914D01*
X67943Y-275765D01*
X68504Y-276496D01*
X69235Y-277057D01*
X70086Y-277410D01*
X71000Y-277530D01*
X71914Y-277410D01*
X72765Y-277057D01*
X73496Y-276496D01*
X74057Y-275765D01*
X74410Y-274914D01*
X74530Y-274000D01*
X74455Y-273429D01*
X79345Y-268539D01*
X87324D01*
X87410Y-268746D01*
X88124Y-269676D01*
X89054Y-270390D01*
X90137Y-270838D01*
X91299Y-270991D01*
X92462Y-270838D01*
X93545Y-270390D01*
X94475Y-269676D01*
X95189Y-268746D01*
X95637Y-267662D01*
X95790Y-266500D01*
X95637Y-265338D01*
X95189Y-264254D01*
X94475Y-263324D01*
X93545Y-262611D01*
X92462Y-262162D01*
X91299Y-262009D01*
D02*
G37*
G36*
X-98201Y-268579D02*
Y-272000D01*
X-94780D01*
X-94850Y-271468D01*
X-95248Y-270507D01*
X-95882Y-269681D01*
X-96707Y-269047D01*
X-97669Y-268649D01*
X-98201Y-268579D01*
D02*
G37*
G36*
X110252Y-267760D02*
X106799D01*
Y-272000D01*
X110252D01*
Y-267760D01*
D02*
G37*
G36*
X105799D02*
X102347D01*
Y-272000D01*
X105799D01*
Y-267760D01*
D02*
G37*
G36*
X-99201Y-268579D02*
X-99733Y-268649D01*
X-100694Y-269047D01*
X-101520Y-269681D01*
X-102154Y-270507D01*
X-102552Y-271468D01*
X-102622Y-272000D01*
X-99201D01*
Y-268579D01*
D02*
G37*
G36*
Y-273000D02*
X-102622D01*
X-102552Y-273532D01*
X-102154Y-274493D01*
X-101520Y-275319D01*
X-100694Y-275953D01*
X-99733Y-276351D01*
X-99201Y-276421D01*
Y-273000D01*
D02*
G37*
G36*
X-94780D02*
X-98201D01*
Y-276421D01*
X-97669Y-276351D01*
X-96707Y-275953D01*
X-95882Y-275319D01*
X-95248Y-274493D01*
X-94850Y-273532D01*
X-94780Y-273000D01*
D02*
G37*
G36*
X110252D02*
X106799D01*
Y-277240D01*
X110252D01*
Y-273000D01*
D02*
G37*
G36*
X105799D02*
X102347D01*
Y-277240D01*
X105799D01*
Y-273000D01*
D02*
G37*
G36*
X110252Y-277760D02*
X106799D01*
Y-282000D01*
X110252D01*
Y-277760D01*
D02*
G37*
G36*
X105799D02*
X102347D01*
Y-282000D01*
X105799D01*
Y-277760D01*
D02*
G37*
G36*
X95752Y-278047D02*
X86847D01*
Y-286953D01*
X95752D01*
Y-278047D01*
D02*
G37*
G36*
X-98701Y-278009D02*
X-99863Y-278162D01*
X-100946Y-278610D01*
X-101876Y-279324D01*
X-102590Y-280254D01*
X-103039Y-281338D01*
X-103192Y-282500D01*
X-103039Y-283662D01*
X-102590Y-284746D01*
X-101876Y-285676D01*
X-100946Y-286389D01*
X-99863Y-286838D01*
X-98701Y-286991D01*
X-97538Y-286838D01*
X-96455Y-286389D01*
X-95525Y-285676D01*
X-94811Y-284746D01*
X-94363Y-283662D01*
X-94210Y-282500D01*
X-94363Y-281338D01*
X-94811Y-280254D01*
X-95525Y-279324D01*
X-96455Y-278610D01*
X-97538Y-278162D01*
X-98701Y-278009D01*
D02*
G37*
G36*
X110252Y-283000D02*
X102347D01*
Y-286760D01*
X102346Y-287240D01*
X101855Y-287260D01*
X101847D01*
Y-290461D01*
X101299D01*
X101299Y-290461D01*
X100519Y-290616D01*
X99857Y-291058D01*
X99857Y-291058D01*
X92668Y-298247D01*
X92462Y-298162D01*
X91299Y-298009D01*
X90137Y-298162D01*
X89054Y-298610D01*
X88124Y-299324D01*
X87410Y-300254D01*
X86961Y-301338D01*
X86808Y-302500D01*
X86961Y-303662D01*
X87410Y-304746D01*
X88124Y-305676D01*
X89054Y-306389D01*
X90137Y-306838D01*
X91299Y-306991D01*
X92462Y-306838D01*
X93545Y-306389D01*
X94475Y-305676D01*
X95189Y-304746D01*
X95637Y-303662D01*
X95790Y-302500D01*
X95637Y-301338D01*
X95552Y-301131D01*
X101384Y-295299D01*
X101847Y-295490D01*
Y-297740D01*
X101855D01*
X102346Y-297760D01*
X102347Y-298240D01*
Y-302000D01*
X110252D01*
Y-298240D01*
X110252Y-297760D01*
X110744Y-297740D01*
X110752D01*
Y-287260D01*
X110744D01*
X110252Y-287240D01*
X110252Y-286760D01*
Y-283000D01*
D02*
G37*
G36*
X-756Y-289260D02*
X-4209D01*
Y-293500D01*
X-756D01*
Y-289260D01*
D02*
G37*
G36*
X-5209D02*
X-8661D01*
Y-293500D01*
X-5209D01*
Y-289260D01*
D02*
G37*
G36*
X259240Y-291965D02*
X255000D01*
Y-295417D01*
X259240D01*
Y-291965D01*
D02*
G37*
G36*
X209500D02*
X205260D01*
Y-295417D01*
X209500D01*
Y-291965D01*
D02*
G37*
G36*
X41740Y-292630D02*
X37500D01*
Y-296083D01*
X41740D01*
Y-292630D01*
D02*
G37*
G36*
X91299Y-288009D02*
X90137Y-288162D01*
X89054Y-288611D01*
X88124Y-289324D01*
X87410Y-290254D01*
X86961Y-291338D01*
X86808Y-292500D01*
X86961Y-293662D01*
X87410Y-294746D01*
X88124Y-295676D01*
X89054Y-296390D01*
X90137Y-296838D01*
X91299Y-296991D01*
X92462Y-296838D01*
X93545Y-296390D01*
X94475Y-295676D01*
X95189Y-294746D01*
X95637Y-293662D01*
X95790Y-292500D01*
X95637Y-291338D01*
X95189Y-290254D01*
X94475Y-289324D01*
X93545Y-288611D01*
X92462Y-288162D01*
X91299Y-288009D01*
D02*
G37*
G36*
X-756Y-294500D02*
X-4209D01*
Y-298740D01*
X-756D01*
Y-294500D01*
D02*
G37*
G36*
X-5209D02*
X-8661D01*
Y-298740D01*
X-5209D01*
Y-294500D01*
D02*
G37*
G36*
X259240Y-296417D02*
X255000D01*
Y-299870D01*
X259240D01*
Y-296417D01*
D02*
G37*
G36*
X209500D02*
X205260D01*
Y-299870D01*
X209500D01*
Y-296417D01*
D02*
G37*
G36*
X41740Y-297083D02*
X37500D01*
Y-300535D01*
X41740D01*
Y-297083D01*
D02*
G37*
G36*
X-32500Y-301470D02*
X-33414Y-301590D01*
X-34265Y-301943D01*
X-34996Y-302504D01*
X-35557Y-303235D01*
X-35910Y-304086D01*
X-36030Y-305000D01*
X-35955Y-305571D01*
X-36442Y-306058D01*
X-36884Y-306720D01*
X-37039Y-307500D01*
Y-310130D01*
X-40240D01*
Y-319035D01*
X-29760D01*
Y-310130D01*
X-32961D01*
Y-308849D01*
X-32585Y-308519D01*
X-32500Y-308530D01*
X-31586Y-308410D01*
X-30735Y-308057D01*
X-30004Y-307496D01*
X-29443Y-306765D01*
X-29090Y-305914D01*
X-28970Y-305000D01*
X-29090Y-304086D01*
X-29443Y-303235D01*
X-30004Y-302504D01*
X-30735Y-301943D01*
X-31586Y-301590D01*
X-32500Y-301470D01*
D02*
G37*
G36*
X110252Y-303000D02*
X102347D01*
Y-306760D01*
X102346Y-307240D01*
X101855Y-307260D01*
X101847D01*
Y-310461D01*
X95274D01*
X95189Y-310254D01*
X94475Y-309324D01*
X93545Y-308611D01*
X92462Y-308162D01*
X91299Y-308009D01*
X90137Y-308162D01*
X89054Y-308611D01*
X88124Y-309324D01*
X87410Y-310254D01*
X86961Y-311338D01*
X86808Y-312500D01*
X86961Y-313662D01*
X87410Y-314746D01*
X88124Y-315676D01*
X89054Y-316389D01*
X90137Y-316838D01*
X91299Y-316991D01*
X92462Y-316838D01*
X93545Y-316389D01*
X94475Y-315676D01*
X95189Y-314746D01*
X95274Y-314539D01*
X101847D01*
Y-317740D01*
X101855D01*
X102346Y-317760D01*
X102347Y-318240D01*
Y-322000D01*
X110252D01*
Y-318240D01*
X110252Y-317760D01*
X110744Y-317740D01*
X110752D01*
Y-307260D01*
X110744D01*
X110252Y-307240D01*
X110252Y-306760D01*
Y-303000D01*
D02*
G37*
G36*
X51370Y-311760D02*
X47917D01*
Y-316000D01*
X51370D01*
Y-311760D01*
D02*
G37*
G36*
X46917D02*
X43465D01*
Y-316000D01*
X46917D01*
Y-311760D01*
D02*
G37*
G36*
X-98701Y-308009D02*
X-99863Y-308162D01*
X-100946Y-308611D01*
X-101876Y-309324D01*
X-102590Y-310254D01*
X-103039Y-311338D01*
X-103192Y-312500D01*
X-103039Y-313662D01*
X-102590Y-314746D01*
X-101876Y-315676D01*
X-100946Y-316389D01*
X-99863Y-316838D01*
X-98701Y-316991D01*
X-97538Y-316838D01*
X-96455Y-316389D01*
X-95525Y-315676D01*
X-94811Y-314746D01*
X-94363Y-313662D01*
X-94210Y-312500D01*
X-94363Y-311338D01*
X-94811Y-310254D01*
X-95525Y-309324D01*
X-96455Y-308611D01*
X-97538Y-308162D01*
X-98701Y-308009D01*
D02*
G37*
G36*
X51370Y-317000D02*
X47417D01*
X43465D01*
Y-321083D01*
X42362D01*
Y-325126D01*
X45724D01*
X49087D01*
Y-321240D01*
X51370D01*
Y-317000D01*
D02*
G37*
G36*
X49087Y-326126D02*
X46224D01*
Y-330169D01*
X49087D01*
Y-326126D01*
D02*
G37*
G36*
X45224D02*
X42362D01*
Y-330169D01*
X45224D01*
Y-326126D01*
D02*
G37*
G36*
X91299Y-318009D02*
X90137Y-318162D01*
X89054Y-318611D01*
X88124Y-319324D01*
X87410Y-320254D01*
X86961Y-321338D01*
X86808Y-322500D01*
X86961Y-323662D01*
X87410Y-324746D01*
X88124Y-325676D01*
X89054Y-326390D01*
X90137Y-326838D01*
X91299Y-326991D01*
X92462Y-326838D01*
X92668Y-326753D01*
X99857Y-333942D01*
X99857Y-333942D01*
X100519Y-334384D01*
X101299Y-334539D01*
X101299Y-334539D01*
X101847D01*
Y-337740D01*
X101855D01*
X102346Y-337760D01*
X102347Y-338240D01*
Y-342000D01*
X110252D01*
Y-338240D01*
X110252Y-337760D01*
X110744Y-337740D01*
X110752D01*
Y-327260D01*
X110744D01*
X110252Y-327240D01*
X110252Y-326760D01*
Y-323000D01*
X102347D01*
Y-326760D01*
X102346Y-327240D01*
X101855Y-327260D01*
X101847D01*
Y-329510D01*
X101384Y-329701D01*
X95552Y-323869D01*
X95637Y-323662D01*
X95790Y-322500D01*
X95637Y-321338D01*
X95189Y-320254D01*
X94475Y-319324D01*
X93545Y-318611D01*
X92462Y-318162D01*
X91299Y-318009D01*
D02*
G37*
G36*
Y-338009D02*
X90137Y-338162D01*
X89054Y-338611D01*
X88124Y-339324D01*
X87410Y-340254D01*
X86961Y-341338D01*
X86808Y-342500D01*
X86961Y-343662D01*
X87410Y-344746D01*
X88124Y-345676D01*
X89054Y-346390D01*
X90137Y-346838D01*
X91299Y-346991D01*
X92462Y-346838D01*
X93545Y-346390D01*
X94475Y-345676D01*
X95189Y-344746D01*
X95637Y-343662D01*
X95790Y-342500D01*
X95637Y-341338D01*
X95189Y-340254D01*
X94475Y-339324D01*
X93545Y-338611D01*
X92462Y-338162D01*
X91299Y-338009D01*
D02*
G37*
G36*
X-98701D02*
X-99863Y-338162D01*
X-100946Y-338611D01*
X-101876Y-339324D01*
X-102590Y-340254D01*
X-103039Y-341338D01*
X-103192Y-342500D01*
X-103039Y-343662D01*
X-102590Y-344746D01*
X-101876Y-345676D01*
X-100946Y-346390D01*
X-99863Y-346838D01*
X-98701Y-346991D01*
X-97538Y-346838D01*
X-96455Y-346390D01*
X-95525Y-345676D01*
X-94811Y-344746D01*
X-94363Y-343662D01*
X-94210Y-342500D01*
X-94363Y-341338D01*
X-94811Y-340254D01*
X-95525Y-339324D01*
X-96455Y-338611D01*
X-97538Y-338162D01*
X-98701Y-338009D01*
D02*
G37*
G36*
X110252Y-343000D02*
X106799D01*
Y-347240D01*
X110252D01*
Y-343000D01*
D02*
G37*
G36*
X105799D02*
X102347D01*
Y-347240D01*
X105799D01*
Y-343000D01*
D02*
G37*
G36*
X110252Y-347760D02*
X106799D01*
Y-352000D01*
X110252D01*
Y-347760D01*
D02*
G37*
G36*
X105799D02*
X102347D01*
Y-352000D01*
X105799D01*
Y-347760D01*
D02*
G37*
G36*
X91299Y-348009D02*
X90137Y-348162D01*
X89054Y-348610D01*
X88124Y-349324D01*
X87410Y-350254D01*
X86961Y-351338D01*
X86808Y-352500D01*
X86961Y-353662D01*
X87410Y-354746D01*
X88124Y-355676D01*
X89054Y-356389D01*
X90137Y-356838D01*
X91299Y-356991D01*
X92462Y-356838D01*
X93545Y-356389D01*
X94475Y-355676D01*
X95189Y-354746D01*
X95637Y-353662D01*
X95790Y-352500D01*
X95637Y-351338D01*
X95189Y-350254D01*
X94475Y-349324D01*
X93545Y-348610D01*
X92462Y-348162D01*
X91299Y-348009D01*
D02*
G37*
G36*
X110252Y-353000D02*
X106799D01*
Y-357240D01*
X110252D01*
Y-353000D01*
D02*
G37*
G36*
X105799D02*
X102347D01*
Y-357240D01*
X105799D01*
Y-353000D01*
D02*
G37*
G36*
X215039Y-251650D02*
X214358D01*
X213814Y-251758D01*
X213353Y-252066D01*
X213045Y-252527D01*
X213037Y-252571D01*
X215039D01*
Y-251650D01*
D02*
G37*
G36*
X117661Y-223331D02*
X116252D01*
Y-225097D01*
X116345Y-225563D01*
X116609Y-225958D01*
X117004Y-226222D01*
X117471Y-226315D01*
X117661D01*
Y-223331D01*
D02*
G37*
G36*
X223291Y-236260D02*
X219839D01*
Y-240500D01*
X223291D01*
Y-236260D01*
D02*
G37*
G36*
X-6047Y-310339D02*
X-10417D01*
Y-311561D01*
X-7669D01*
X-7010Y-311430D01*
X-6452Y-311056D01*
X-6078Y-310498D01*
X-6047Y-310339D01*
D02*
G37*
G36*
X-11417D02*
X-15788D01*
X-15756Y-310498D01*
X-15383Y-311056D01*
X-14824Y-311430D01*
X-14165Y-311561D01*
X-11417D01*
Y-310339D01*
D02*
G37*
G36*
X-7618Y-331720D02*
X-13280D01*
X-18941D01*
X-18894Y-331956D01*
X-18531Y-332500D01*
X-18894Y-333044D01*
X-18941Y-333279D01*
X-13280D01*
X-7618D01*
X-7665Y-333044D01*
X-8028Y-332500D01*
X-7665Y-331956D01*
X-7618Y-331720D01*
D02*
G37*
G36*
X35776Y-336831D02*
X32913D01*
Y-340874D01*
X35776D01*
Y-336831D01*
D02*
G37*
G36*
X39638Y-341874D02*
X36776D01*
Y-345917D01*
X39638D01*
Y-341874D01*
D02*
G37*
G36*
X35776D02*
X32913D01*
Y-345917D01*
X35776D01*
Y-341874D01*
D02*
G37*
G36*
X25000Y-347465D02*
X20760D01*
Y-350917D01*
X25000D01*
Y-347465D01*
D02*
G37*
G36*
X38035Y-346760D02*
X34583D01*
Y-351000D01*
X38035D01*
Y-346760D01*
D02*
G37*
G36*
X25000Y-351917D02*
X20760D01*
Y-355370D01*
X25000D01*
Y-351917D01*
D02*
G37*
G36*
X38035Y-352000D02*
X34583D01*
Y-356240D01*
X38035D01*
Y-352000D01*
D02*
G37*
G36*
X33583Y-346760D02*
X30130D01*
Y-347465D01*
X26000D01*
Y-351417D01*
Y-355370D01*
X30130D01*
Y-356240D01*
X33583D01*
Y-351500D01*
Y-346760D01*
D02*
G37*
%LPD*%
D15*
X32000Y-340000D02*
X32999Y-340999D01*
X32000Y-340000D02*
Y-339500D01*
X32999Y-340999D02*
X35901D01*
X36276Y-341374D01*
X-3000Y-327000D02*
Y-322500D01*
X-7220Y-331221D02*
X-3000Y-327000D01*
X-13280Y-331221D02*
X-7220D01*
X-23336Y-332336D02*
X-22220Y-331221D01*
X-23336Y-333164D02*
Y-332336D01*
X-22220Y-331221D02*
X-13280D01*
X-23336Y-333164D02*
X-22720Y-333780D01*
X-13280D01*
X-18000Y-294000D02*
X-4709D01*
X-18000Y-314000D02*
Y-312000D01*
X-15839Y-309839D01*
X-10917D01*
X108500Y-232000D02*
X113000D01*
X118161Y-226839D01*
Y-222831D01*
X138500Y-206000D02*
X146000Y-213500D01*
Y-229500D02*
Y-213500D01*
X142791Y-232709D02*
X146000Y-229500D01*
X135000Y-232709D02*
X142791D01*
X127291D02*
X135000D01*
X125839Y-234161D02*
X127291Y-232709D01*
X125839Y-239169D02*
Y-234161D01*
X90000Y-160500D02*
X99417Y-151083D01*
X117299D01*
X107000Y-207000D02*
X108917Y-208917D01*
X117299D01*
X14500Y-109500D02*
X22291Y-117291D01*
X38000D01*
X-50500Y-106291D02*
Y-94500D01*
X207500Y-63500D02*
X214000D01*
X201154Y-57154D02*
X207500Y-63500D01*
X201154Y-57154D02*
Y-52863D01*
X200791Y-52500D02*
X201154Y-52863D01*
X185094Y-52500D02*
X200791D01*
X157000Y-277000D02*
X162000Y-272000D01*
X178083D01*
X171000Y-227500D02*
X173500Y-230000D01*
X178083D01*
Y-241500D02*
Y-230000D01*
X165500Y-187000D02*
X171500Y-181000D01*
X178083D01*
X245000Y-118500D02*
Y-118000D01*
X240240Y-123260D02*
X245000Y-118500D01*
X239953Y-123260D02*
X240240D01*
X237500Y-125713D02*
X239953Y-123260D01*
X237500Y-126500D02*
Y-125713D01*
X232000Y-140500D02*
X234750Y-137750D01*
X241130D01*
X232000Y-150500D02*
Y-140500D01*
Y-150500D02*
X234250Y-152750D01*
X241130D01*
X216000Y-304500D02*
X219000Y-301500D01*
Y-295917D01*
X245500Y-302000D02*
X247500Y-304000D01*
X245500Y-302000D02*
Y-295917D01*
X500Y-331000D02*
X721Y-331221D01*
X14279D01*
X-35000Y-307500D02*
X-32500Y-305000D01*
X-35000Y-314583D02*
Y-307500D01*
X18500Y-293500D02*
X21583Y-296583D01*
X28000D01*
Y-289500D01*
X25000Y-286500D02*
X28000Y-289500D01*
X8000Y-286500D02*
X25000D01*
X6709Y-287791D02*
X8000Y-286500D01*
X6709Y-294000D02*
Y-287791D01*
X-11500Y-29500D02*
X-9000Y-27000D01*
X-11500Y-35291D02*
Y-29500D01*
X-6791Y-40000D02*
X500D01*
X-8260Y-38532D02*
X-6791Y-40000D01*
X-8260Y-38532D02*
Y-37744D01*
X-10713Y-35291D02*
X-8260Y-37744D01*
X-11500Y-35291D02*
X-10713D01*
X500Y-40000D02*
X2000Y-38500D01*
Y-34693D01*
X-69500Y3000D02*
X-40500D01*
X-38500Y5000D01*
Y9882D01*
X5500Y-53000D02*
X5740Y-52760D01*
Y-46307D01*
X-1740Y-54914D02*
Y-46307D01*
X-1926Y-55100D02*
X-1740Y-54914D01*
X-1926Y-56426D02*
Y-55100D01*
X-2500Y-57000D02*
X-1926Y-56426D01*
X148500Y-312500D02*
X242000D01*
X137716D02*
X148500D01*
Y-312000D01*
X153500Y-333500D02*
X195500D01*
X145000D02*
X153500D01*
X147000Y-277500D02*
Y-267500D01*
X142000Y-282500D02*
X147000Y-277500D01*
X137716Y-282500D02*
X142000D01*
X173000Y-138500D02*
X180500Y-146000D01*
X197000D01*
X200500Y-142500D01*
X209000D01*
X214250Y-147750D01*
X219870D01*
X-57000Y-340000D02*
X-50000Y-333000D01*
X-29500D01*
X-25161Y-328661D01*
X-13280D01*
X58500Y-367500D02*
X66000Y-360000D01*
X11500Y-367500D02*
X58500D01*
X3791Y-359791D02*
X11500Y-367500D01*
X3791Y-359791D02*
Y-355000D01*
X9500Y-359000D02*
X12500Y-362000D01*
X54000D01*
X9500Y-359000D02*
Y-350000D01*
X185094Y-91905D02*
Y-87500D01*
X184000Y-93000D02*
X185094Y-91905D01*
X91000Y-93000D02*
X184000D01*
X-46000Y-326000D02*
X-35000D01*
X-38500Y-35500D02*
Y-26917D01*
X-47500Y-40500D02*
Y-26917D01*
X-19500Y-15500D02*
Y-4882D01*
X-29000Y-15500D02*
Y-4882D01*
X-38500Y-15500D02*
Y-4882D01*
X-47500Y-15500D02*
Y-4882D01*
X210750Y-150250D02*
X219870D01*
X207000Y-146500D02*
X210750Y-150250D01*
X-5500Y-354500D02*
Y-346709D01*
X182008Y-352500D02*
X187508Y-358000D01*
X191000D01*
X194000Y-355000D01*
Y-341000D01*
X191000Y-338000D02*
X194000Y-341000D01*
X164500Y-338000D02*
X191000D01*
X135000Y-367500D02*
X164500Y-338000D01*
X83500Y-367500D02*
X135000D01*
X55000Y-339000D02*
X83500Y-367500D01*
X55000Y-339000D02*
Y-277500D01*
X40500Y-263000D02*
X55000Y-277500D01*
X28386Y-263000D02*
X40500D01*
X24331Y-258945D02*
X28386Y-263000D01*
X85000Y-364500D02*
X130000D01*
X58500Y-338000D02*
X85000Y-364500D01*
X58500Y-338000D02*
Y-262500D01*
X130000Y-364500D02*
X137716Y-356784D01*
X125500Y-362000D02*
X132000Y-355500D01*
X87500Y-362000D02*
X125500D01*
X64500Y-339000D02*
X87500Y-362000D01*
X-52500Y-119709D02*
X-50500Y-117709D01*
X-52500Y-129000D02*
Y-119709D01*
X-52000Y-191500D02*
X-21000Y-222500D01*
X-35543Y-107043D02*
X-33154Y-104654D01*
Y-100654D01*
X-32500Y-100000D01*
X-35543Y-108457D02*
Y-107043D01*
X-36086Y-109000D02*
X-35543Y-108457D01*
X-36205Y-109000D02*
X-36086D01*
X-50500Y-106291D02*
X-44209D01*
X-41500Y-109000D01*
X-36205D01*
X25500Y-340000D02*
Y-334339D01*
X22382Y-331221D02*
X25500Y-334339D01*
X10576Y-294076D02*
X11917Y-295417D01*
X6784Y-294076D02*
X10576D01*
X6709Y-294000D02*
X6784Y-294076D01*
X11917Y-302161D02*
Y-295417D01*
Y-307279D02*
X17779D01*
X20000Y-309500D01*
Y-313000D02*
Y-309500D01*
X18000Y-315000D02*
X20000Y-313000D01*
X6000Y-315000D02*
X18000D01*
X3000Y-318000D02*
X6000Y-315000D01*
X3000Y-320000D02*
Y-318000D01*
X2898Y-309839D02*
X11917D01*
X-2221Y-304720D02*
X2898Y-309839D01*
X78500Y-266500D02*
X91299D01*
X71000Y-274000D02*
X78500Y-266500D01*
X-29000Y-341500D02*
X-28957Y-341457D01*
X-13280D01*
X-35000Y-326000D02*
X-34898Y-326102D01*
X-13280D01*
X-5500Y-346709D02*
X4870Y-336339D01*
X14279D01*
X-27500Y-290500D02*
Y-263500D01*
X-96000Y-359000D02*
X-27500Y-290500D01*
X-103000Y-359000D02*
X-96000D01*
X-106500Y-355500D02*
X-103000Y-359000D01*
X-71000Y-367000D02*
X-40339Y-336339D01*
X-13280D01*
X-103500Y-367000D02*
X-71000D01*
X-111500Y-359000D02*
X-103500Y-367000D01*
X-111500Y-359000D02*
Y-302500D01*
X-102000Y-293000D01*
X-106500Y-355500D02*
Y-310299D01*
X-98701Y-302500D01*
X-102000Y-293000D02*
X-93000D01*
X-88500Y-297500D01*
Y-312299D02*
Y-297500D01*
X-98701Y-322500D02*
X-88500Y-312299D01*
X70000Y-332000D02*
X90799D01*
X91299Y-332500D01*
X54000Y-362000D02*
X61500Y-354500D01*
X7500Y-348000D02*
X9500Y-350000D01*
X7500Y-348000D02*
Y-342042D01*
X8086Y-341457D01*
X14279D01*
X3791Y-355000D02*
Y-342209D01*
X7102Y-338898D01*
X14279D01*
X-27500Y-263500D02*
X20500Y-215500D01*
X-33500Y-262000D02*
X16799Y-211701D01*
X-33500Y-287299D02*
Y-262000D01*
X-98701Y-352500D02*
X-33500Y-287299D01*
X-39000Y-251000D02*
X8173Y-203827D01*
X-39000Y-272799D02*
Y-251000D01*
X-98701Y-332500D02*
X-39000Y-272799D01*
X21000Y-331221D02*
X22382D01*
X14279D02*
X21000D01*
Y-333194D02*
Y-331221D01*
X20414Y-333780D02*
X21000Y-333194D01*
X14279Y-333780D02*
X20414D01*
X45500Y-351500D02*
X45724Y-351276D01*
Y-341374D01*
X36000Y-316500D02*
X36276Y-316776D01*
Y-325626D02*
Y-316776D01*
X39502Y-334000D02*
X45724Y-340223D01*
X29000Y-334000D02*
X39502D01*
X45724Y-341374D02*
Y-340223D01*
X23661Y-328661D02*
X29000Y-334000D01*
X14279Y-328661D02*
X23661D01*
X35799Y-326102D02*
X36276Y-325626D01*
X14279Y-326102D02*
X35799D01*
X28000Y-308000D02*
X37000D01*
X28000Y-315500D02*
Y-308000D01*
X22516Y-320984D02*
X28000Y-315500D01*
X14279Y-320984D02*
X22516D01*
X5086Y-302161D02*
X11917D01*
X4500Y-302747D02*
X5086Y-302161D01*
X4500Y-304000D02*
Y-302747D01*
Y-304000D02*
X5221Y-304720D01*
X11917D01*
X-10917D02*
X-2221D01*
X-18221D02*
X-10917D01*
X-22500Y-309000D02*
X-18221Y-304720D01*
X-22500Y-319957D02*
Y-309000D01*
Y-319957D02*
X-21472Y-320984D01*
X-13280D01*
X-21161Y-302161D02*
X-10917D01*
X-26000Y-307000D02*
X-21161Y-302161D01*
X-26000Y-320000D02*
Y-307000D01*
Y-320000D02*
X-22457Y-323543D01*
X-13280D01*
X3000Y-320000D02*
X6543Y-323543D01*
X14279D01*
X5000Y-7000D02*
X91000Y-93000D01*
X5000Y-7000D02*
Y5000D01*
X241130Y-137750D02*
Y-130917D01*
Y-137750D02*
X244045D01*
X253213Y-128583D01*
X254000D01*
X237500Y-127287D02*
Y-126500D01*
Y-127287D02*
X241130Y-130917D01*
X253750Y-140250D02*
X254000Y-140000D01*
X241130Y-140250D02*
X253750D01*
X246963Y-165250D02*
X253213Y-171500D01*
X241130Y-165250D02*
X246963D01*
X253213Y-171500D02*
X254000D01*
X237917Y-185417D02*
X238000Y-185500D01*
Y-195500D02*
Y-185500D01*
X237917Y-185417D02*
Y-176000D01*
X226500D02*
Y-164000D01*
X225250Y-162750D02*
X226500Y-164000D01*
X219870Y-162750D02*
X225250D01*
X194500Y-107329D02*
Y-106500D01*
Y-107329D02*
X205585Y-118415D01*
X180000Y-120500D02*
X180500D01*
X192000Y-132000D01*
X205585Y-128585D02*
Y-118415D01*
Y-128585D02*
X214750Y-137750D01*
X219870D01*
X192000Y-132000D02*
X200250Y-140250D01*
X219870D01*
X200000Y-152000D02*
X200750Y-152750D01*
X200000Y-152000D02*
X201000D01*
X190500D02*
X200000D01*
X200750Y-152750D02*
X219870D01*
X205654Y-162346D02*
X212750Y-155250D01*
X202072Y-162346D02*
X205654D01*
X201000Y-163417D02*
X202072Y-162346D01*
X212750Y-155250D02*
X219870D01*
X201000Y-163417D02*
X201000Y-163417D01*
X190500Y-163417D02*
X201000D01*
X179000Y-152000D02*
X190500D01*
X89000Y-122500D02*
X91000Y-124500D01*
X94917D01*
X89000Y-122500D02*
Y-100500D01*
X81000Y-92500D02*
X89000Y-100500D01*
X67209Y-92500D02*
X81000D01*
X104500Y-126209D02*
X114000D01*
X102791Y-124500D02*
X104500Y-126209D01*
X94917Y-124500D02*
X102791D01*
X103791Y-115500D02*
X104500Y-114791D01*
X94917Y-115500D02*
X103791D01*
X70752D02*
X83500D01*
Y-133500D02*
Y-124500D01*
X79000D02*
X83500D01*
X75051Y-120551D02*
X79000Y-124500D01*
X70803Y-120551D02*
X75051D01*
X70752Y-120500D02*
X70803Y-120551D01*
X61500Y-120500D02*
X70752D01*
X56549Y-115549D02*
X61500Y-120500D01*
X52297Y-115549D02*
X56549D01*
X52248Y-115500D02*
X52297Y-115549D01*
X55791Y-92500D02*
X55791Y-92500D01*
Y-101500D02*
Y-92500D01*
Y-102287D02*
Y-101500D01*
X53339Y-104740D02*
X55791Y-102287D01*
X52834Y-104740D02*
X53339D01*
X52248Y-105326D02*
X52834Y-104740D01*
X52248Y-110500D02*
Y-105326D01*
X53714Y-110500D02*
X54343Y-109871D01*
X52248Y-110500D02*
X53714D01*
X38000Y-117291D02*
X43291D01*
X46500Y-120500D01*
X52248D01*
X140169Y-338331D02*
X145000Y-333500D01*
X140169Y-339260D02*
Y-338331D01*
X137716Y-341713D02*
X140169Y-339260D01*
X137716Y-342500D02*
Y-341713D01*
X195500Y-333500D02*
X202000Y-340000D01*
Y-348870D02*
Y-340000D01*
Y-348870D02*
X205630Y-352500D01*
X75500Y-252000D02*
X85799D01*
X91299Y-246500D01*
X61000Y-237500D02*
X75500Y-252000D01*
X61000Y-237500D02*
Y-223500D01*
X24331Y-227449D02*
X28280Y-223500D01*
X41500D01*
X74500Y-256500D01*
X91299D01*
X20500Y-215500D02*
X28130D01*
X32205Y-219575D01*
X8173Y-203827D02*
X24331D01*
X16799Y-211701D02*
X24331D01*
X39449Y-227449D02*
X64500Y-252500D01*
X32205Y-227449D02*
X39449D01*
X64500Y-339000D02*
Y-252500D01*
X132000Y-355500D02*
Y-326500D01*
X137716Y-320783D01*
Y-312500D01*
Y-356784D02*
Y-342500D01*
X32205Y-243197D02*
X39197D01*
X58500Y-262500D01*
X69000Y-235000D02*
X78500D01*
X82500Y-231000D01*
X221378Y-352500D02*
X237878Y-369000D01*
X250000D01*
X258500Y-360500D01*
Y-329000D01*
X242000Y-312500D02*
X258500Y-329000D01*
X117717Y-342500D02*
X126299D01*
X117717Y-352500D02*
Y-342500D01*
Y-332500D01*
Y-312500D02*
X126299D01*
X117717Y-322500D02*
X117717Y-322500D01*
Y-312500D01*
Y-302500D01*
Y-282500D02*
X126299D01*
X117717D02*
Y-272500D01*
Y-292500D02*
Y-282500D01*
X101299Y-292500D02*
X106299D01*
X91299Y-302500D02*
X101299Y-292500D01*
X91299Y-312500D02*
X106299D01*
X101299Y-332500D02*
X106299D01*
X91299Y-322500D02*
X101299Y-332500D01*
X117299Y-162500D02*
X128299D01*
X117299D02*
X117717Y-162917D01*
Y-176500D02*
Y-162917D01*
X117299Y-197500D02*
X128299D01*
X117299D02*
X117717Y-197083D01*
Y-186500D01*
X126299D01*
X117717Y-176500D02*
X126299D01*
X91299Y-186500D02*
X106299D01*
X91299Y-176500D02*
X106299D01*
X123280Y-243779D02*
Y-239169D01*
Y-243779D02*
X124500Y-245000D01*
X131000D01*
X133926Y-242074D01*
Y-240574D01*
X134500Y-240000D01*
X77000Y-246500D02*
X82000Y-241500D01*
X101000D01*
X103331Y-239169D01*
X118161D01*
X137716Y-282500D02*
Y-264216D01*
X120721Y-247220D02*
X137716Y-264216D01*
X120721Y-247220D02*
Y-239169D01*
Y-222831D01*
X82500Y-231000D02*
X101000D01*
X114000Y-218000D01*
X122000D01*
X123280Y-219280D01*
Y-222831D02*
Y-219280D01*
X125839Y-222831D02*
Y-217839D01*
X124000Y-216000D02*
X125839Y-217839D01*
X111000Y-216000D02*
X124000D01*
X100500Y-226500D02*
X111000Y-216000D01*
X91299Y-226500D02*
X100500D01*
X80000Y-31000D02*
X121500Y-72500D01*
X80000Y-31000D02*
Y-0D01*
X121500Y-72500D02*
X146906D01*
X70000Y-36000D02*
X111500Y-77500D01*
X70000Y-36000D02*
Y-0D01*
X111500Y-77500D02*
X146906D01*
X60000Y-38000D02*
X104500Y-82500D01*
X60000Y-38000D02*
Y-0D01*
X104500Y-82500D02*
X146906D01*
X184913Y14701D02*
X255000D01*
X167000Y-3212D02*
X184913Y14701D01*
X167000Y-69000D02*
Y-3212D01*
X163500Y-72500D02*
X167000Y-69000D01*
X146906Y-72500D02*
X163500D01*
X185575Y13101D02*
X245899D01*
X168600Y-3875D02*
X185575Y13101D01*
X168600Y-72137D02*
Y-3875D01*
X163237Y-77500D02*
X168600Y-72137D01*
X146906Y-77500D02*
X163237D01*
X186238Y11501D02*
X236000D01*
X170200Y-4537D02*
X186238Y11501D01*
X170200Y-72800D02*
Y-4537D01*
X160500Y-82500D02*
X170200Y-72800D01*
X146906Y-82500D02*
X160500D01*
X186901Y9901D02*
X228000D01*
X171800Y-5200D02*
X186901Y9901D01*
X171800Y-79800D02*
Y-5200D01*
Y-79800D02*
X179500Y-87500D01*
X185094D01*
X187775Y8301D02*
X217000D01*
X173400Y-6075D02*
X187775Y8301D01*
X173400Y-75400D02*
Y-6075D01*
Y-75400D02*
X180086Y-82086D01*
X184681D01*
X185094Y-82500D01*
X188438Y6701D02*
X208000D01*
X175000Y-6737D02*
X188438Y6701D01*
X175000Y-72000D02*
Y-6737D01*
Y-72000D02*
X180086Y-77086D01*
X184681D01*
X185094Y-77500D01*
X177000Y-7000D02*
X189000Y5000D01*
X177000Y-70000D02*
Y-7000D01*
Y-70000D02*
X179500Y-72500D01*
X185094D01*
X260000Y-25000D02*
Y-14764D01*
X250000Y-25000D02*
Y-14764D01*
X240000Y-25000D02*
Y-14764D01*
X200000Y-25000D02*
Y-14764D01*
X210000Y-25000D02*
Y-14764D01*
X220000Y-25000D02*
Y-14764D01*
X230000Y-25000D02*
Y-14764D01*
X189000Y5000D02*
X199000D01*
X199641Y4359D01*
Y359D02*
Y4359D01*
Y359D02*
X200000Y0D01*
X208000Y6701D02*
X210000Y4701D01*
Y0D02*
Y4701D01*
X217000Y8301D02*
X220000Y5301D01*
Y0D02*
Y5301D01*
X228000Y9901D02*
X230000Y7901D01*
Y0D02*
Y7901D01*
X236000Y11501D02*
X240000Y7501D01*
Y0D02*
Y7501D01*
X245899Y13101D02*
X250000Y9000D01*
Y0D02*
Y9000D01*
X255000Y14701D02*
X260000Y9701D01*
Y0D02*
Y9701D01*
X5000Y5000D02*
X10000Y10000D01*
D17*
X186500Y-304500D02*
X200500D01*
X178472Y-296472D02*
X186500Y-304500D01*
X217618Y-253071D02*
X218154Y-252535D01*
Y-252535D02*
Y-252535D01*
X209618Y-244000D02*
X218154Y-252535D01*
X209500Y-244000D02*
X209618D01*
X224594Y-242590D02*
Y-241803D01*
Y-249921D02*
Y-242590D01*
X224193Y-241402D02*
X224594Y-241803D01*
X223791Y-241000D02*
X224193Y-241402D01*
X224594Y-242590D02*
X226563Y-244559D01*
X224193Y-242189D02*
X224594Y-242590D01*
X226563Y-258976D02*
Y-249921D01*
X224193Y-242189D02*
Y-241402D01*
X226563Y-249921D02*
Y-244559D01*
X222626Y-257008D02*
Y-249921D01*
Y-242165D02*
X223791Y-241000D01*
X222626Y-249921D02*
Y-242165D01*
X224594Y-258976D02*
Y-249921D01*
X225579Y-259961D02*
X226563Y-258976D01*
X224594D02*
X225579Y-259961D01*
X222626Y-257008D02*
X224594Y-258976D01*
X218154Y-252535D02*
X218689Y-252000D01*
X218154Y-252535D02*
X221248Y-255630D01*
X218689Y-252000D02*
Y-249921D01*
X215539Y-253071D02*
X217618D01*
X160500Y-297000D02*
X167000D01*
X152500Y-289000D02*
X160500Y-297000D01*
X152500Y-289000D02*
Y-268500D01*
X159500Y-261500D01*
X178083D01*
X235209Y-241000D02*
Y-230209D01*
Y-241787D02*
Y-241000D01*
X232469Y-244528D02*
X235209Y-241787D01*
X232469Y-249921D02*
Y-244528D01*
X235209Y-241000D02*
X239500D01*
X241500Y-243000D01*
Y-252000D02*
Y-243000D01*
X240429Y-253071D02*
X241500Y-252000D01*
X235618Y-253071D02*
X240429D01*
X159500Y-130000D02*
X197500Y-92000D01*
X144000Y-145500D02*
X159500Y-130000D01*
X170000Y-110500D02*
X192000Y-88500D01*
X137716Y-142783D02*
X170000Y-110500D01*
X192000Y-88500D02*
Y-64500D01*
X137716Y-146783D02*
Y-142783D01*
X262000Y-153000D02*
X262500D01*
X259250Y-150250D02*
X262000Y-153000D01*
X241130Y-155250D02*
X248250D01*
X250000Y-153500D01*
X255000D01*
X-13280Y-357720D02*
X-10500Y-360500D01*
X-13280Y-357720D02*
Y-344016D01*
X241130Y-150250D02*
X259250D01*
X54500Y-354000D02*
Y-348500D01*
X49500Y-359000D02*
X54500Y-354000D01*
X19000Y-359000D02*
X49500D01*
X18340Y-358340D02*
X19000Y-359000D01*
X17761Y-358340D02*
X18340D01*
X15209Y-355787D02*
X17761Y-358340D01*
X15209Y-355787D02*
Y-355000D01*
X167583Y-152000D02*
Y-142583D01*
X167500Y-142500D02*
X167583Y-142583D01*
X105000Y-133500D02*
X109000Y-137500D01*
X94917Y-133500D02*
X105000D01*
X175530Y-199596D02*
Y-196160D01*
X155904Y-199596D02*
X175530D01*
X150000Y-205500D02*
X155904Y-199596D01*
X114000Y-114791D02*
Y-105500D01*
X227500Y-304500D02*
Y-295917D01*
X265000Y-237000D02*
Y-231000D01*
Y-303500D02*
Y-237000D01*
X245500D02*
X265000D01*
X247000Y-213000D02*
X265000Y-231000D01*
X134000Y-67000D02*
X146405D01*
X146906Y-67500D01*
X203500Y-189000D02*
X209000Y-194500D01*
Y-236000D02*
Y-194500D01*
Y-236000D02*
X220657Y-247657D01*
Y-249921D02*
Y-247657D01*
X163500Y-214000D02*
X164500Y-215000D01*
Y-233500D02*
Y-215000D01*
X200500Y-304500D02*
X203000Y-307000D01*
X175530Y-213340D02*
Y-212000D01*
X165500D02*
X175530D01*
X163500Y-214000D02*
X165500Y-212000D01*
X178083Y-199500D02*
Y-198713D01*
X175530Y-196160D02*
X178083Y-198713D01*
Y-210787D02*
Y-210000D01*
X175530Y-213340D02*
X178083Y-210787D01*
X178472Y-296472D02*
Y-292389D01*
X178083Y-292000D02*
X178472Y-292389D01*
X-36500Y-124295D02*
X-36205Y-124000D01*
X-36500Y-132500D02*
Y-124295D01*
X144000Y-154500D02*
Y-145500D01*
Y-179500D02*
Y-154500D01*
X-16795Y-124000D02*
X-6500D01*
X-50500Y-117709D02*
X-44709D01*
X-41000Y-114000D01*
X-36205D01*
X5740Y-34693D02*
Y-15358D01*
X-19500Y9882D02*
X5740Y-15358D01*
X-1740Y-34693D02*
Y-13760D01*
X-15500Y0D02*
X-1740Y-13760D01*
X-26500Y0D02*
X-15500D01*
X-29000Y2500D02*
X-26500Y0D01*
X-29000Y2500D02*
Y9882D01*
X140340Y-183160D02*
X144000Y-179500D01*
X192500Y-57500D02*
X197500Y-62500D01*
X185094Y-57500D02*
X192500D01*
X197500Y-92000D02*
Y-62500D01*
X140269Y-183160D02*
X140340D01*
X137716Y-185713D02*
X140269Y-183160D01*
X137716Y-186500D02*
Y-185713D01*
Y-176500D02*
Y-146783D01*
X190000Y-62500D02*
X192000Y-64500D01*
X185094Y-62500D02*
X190000D01*
X204000Y-250000D02*
Y-209000D01*
X194500Y-199500D02*
X204000Y-209000D01*
X189500Y-199500D02*
X194500D01*
X189500Y-292000D02*
Y-282000D01*
Y-272000D01*
Y-261500D02*
Y-251500D01*
Y-241500D01*
Y-230000D02*
Y-220000D01*
Y-210000D01*
Y-190000D02*
Y-181000D01*
Y-199500D02*
Y-190000D01*
X204000Y-250000D02*
X211008Y-257008D01*
X215539D01*
X189500Y-230000D02*
X194500D01*
X200000Y-235500D01*
Y-249000D02*
Y-235500D01*
Y-249000D02*
X209976Y-258976D01*
X215539D01*
X189500Y-261500D02*
X190055Y-260945D01*
X215539D01*
X189500Y-272000D02*
X203000D01*
X212087Y-262913D01*
X215539D01*
X210000Y-284500D02*
X219000D01*
X227500D01*
X219000D02*
Y-279000D01*
X222626Y-275374D01*
Y-270000D01*
X245500Y-284500D02*
X254500D01*
X236500D02*
X245500D01*
X236500D02*
Y-279500D01*
X233500Y-276500D02*
X236500Y-279500D01*
X228000Y-276500D02*
X233500D01*
X224594Y-273095D02*
X228000Y-276500D01*
X224594Y-273095D02*
Y-270000D01*
X171000Y-173500D02*
X195500D01*
X151000Y-193500D02*
X171000Y-173500D01*
X134500Y-193500D02*
X151000D01*
X168500Y-170500D02*
X197500D01*
X152500Y-186500D02*
X168500Y-170500D01*
X137716Y-186500D02*
X152500D01*
X195500Y-173500D02*
X215000Y-193000D01*
X197500Y-170500D02*
X217500Y-190500D01*
X215000Y-208000D02*
X228532Y-221532D01*
Y-249921D02*
Y-221532D01*
X215000Y-208000D02*
Y-193000D01*
X132500Y-191500D02*
X134500Y-193500D01*
X132500Y-191500D02*
Y-178500D01*
X134032Y-176968D01*
X137249D01*
X137716Y-176500D01*
X220000Y-187000D02*
X221500Y-185500D01*
X226583D01*
X220000Y-202000D02*
Y-187000D01*
Y-202000D02*
X231000Y-213000D01*
X247000D01*
X259500Y-309000D02*
X265000Y-303500D01*
X242500Y-309000D02*
X259500D01*
X236500Y-303000D02*
X242500Y-309000D01*
X236500Y-303000D02*
Y-295917D01*
X217500Y-207000D02*
Y-190500D01*
Y-207000D02*
X230500Y-220000D01*
Y-249921D02*
Y-220000D01*
D18*
X241130Y-165250D02*
D03*
Y-162750D02*
D03*
Y-160250D02*
D03*
Y-157750D02*
D03*
Y-155250D02*
D03*
Y-152750D02*
D03*
Y-150250D02*
D03*
Y-147750D02*
D03*
Y-145250D02*
D03*
Y-142750D02*
D03*
Y-140250D02*
D03*
Y-137750D02*
D03*
X219870Y-165250D02*
D03*
Y-162750D02*
D03*
Y-160250D02*
D03*
Y-157750D02*
D03*
Y-155250D02*
D03*
Y-152750D02*
D03*
Y-150250D02*
D03*
Y-147750D02*
D03*
Y-145250D02*
D03*
Y-142750D02*
D03*
Y-140250D02*
D03*
Y-137750D02*
D03*
D19*
X227500Y-295917D02*
D03*
Y-284500D02*
D03*
X236500Y-295917D02*
D03*
Y-284500D02*
D03*
X38000Y-117291D02*
D03*
Y-128709D02*
D03*
X25500Y-340000D02*
D03*
Y-351417D02*
D03*
X114000Y-114791D02*
D03*
Y-126209D02*
D03*
X254000Y-160083D02*
D03*
Y-171500D02*
D03*
X201000Y-163417D02*
D03*
Y-152000D02*
D03*
X-11500Y-46709D02*
D03*
Y-35291D02*
D03*
X135000Y-221291D02*
D03*
Y-232709D02*
D03*
X117299Y-151083D02*
D03*
Y-162500D02*
D03*
Y-208917D02*
D03*
Y-197500D02*
D03*
X128299D02*
D03*
Y-208917D02*
D03*
Y-162500D02*
D03*
Y-151083D02*
D03*
X220000Y-36417D02*
D03*
Y-25000D02*
D03*
X260000Y-36417D02*
D03*
Y-25000D02*
D03*
X210000Y-36417D02*
D03*
Y-25000D02*
D03*
X250000Y-36417D02*
D03*
Y-25000D02*
D03*
X-29000Y-26917D02*
D03*
Y-15500D02*
D03*
X-19500Y-26917D02*
D03*
Y-15500D02*
D03*
X200000Y-36417D02*
D03*
Y-25000D02*
D03*
X240000Y-36417D02*
D03*
Y-25000D02*
D03*
X-50500Y-117709D02*
D03*
Y-106291D02*
D03*
X230000Y-36417D02*
D03*
Y-25000D02*
D03*
X254000Y-128583D02*
D03*
Y-140000D02*
D03*
X28000Y-308000D02*
D03*
Y-296583D02*
D03*
X-47500Y-15500D02*
D03*
Y-26917D02*
D03*
X-35000Y-326000D02*
D03*
Y-314583D02*
D03*
X190500Y-163417D02*
D03*
Y-152000D02*
D03*
X37000Y-296583D02*
D03*
Y-308000D02*
D03*
X-38500Y-26917D02*
D03*
Y-15500D02*
D03*
X104500Y-114791D02*
D03*
X104500Y-126209D02*
D03*
X219000Y-295917D02*
D03*
Y-284500D02*
D03*
X245500Y-295917D02*
D03*
Y-284500D02*
D03*
X210000D02*
D03*
Y-295917D02*
D03*
X254500Y-284500D02*
D03*
Y-295917D02*
D03*
D20*
X223791Y-241000D02*
D03*
X235209D02*
D03*
X178083Y-292000D02*
D03*
X189500D02*
D03*
X178083Y-261500D02*
D03*
X189500D02*
D03*
X178083Y-210000D02*
D03*
X189500D02*
D03*
X178083Y-199500D02*
D03*
X189500D02*
D03*
X36000Y-316500D02*
D03*
X47417D02*
D03*
X45500Y-351500D02*
D03*
X34083D02*
D03*
X6709Y-294000D02*
D03*
X-4709D02*
D03*
X226083Y-126500D02*
D03*
X237500D02*
D03*
X55791Y-101500D02*
D03*
X67209D02*
D03*
X226583Y-185500D02*
D03*
X238000D02*
D03*
X83500Y-133500D02*
D03*
X94917D02*
D03*
X212209Y-52500D02*
D03*
X200791D02*
D03*
X-21083Y-100000D02*
D03*
X-32500D02*
D03*
X137716Y-176500D02*
D03*
X126299D02*
D03*
X117717D02*
D03*
X106299D02*
D03*
X137716Y-186500D02*
D03*
X126299D02*
D03*
X117717D02*
D03*
X106299D02*
D03*
X137716Y-342500D02*
D03*
X126299D02*
D03*
X117717Y-332500D02*
D03*
X106299D02*
D03*
X137716Y-312500D02*
D03*
X126299D02*
D03*
X117717D02*
D03*
X106299D02*
D03*
X137716Y-282500D02*
D03*
X126299D02*
D03*
X117717Y-292500D02*
D03*
X106299D02*
D03*
X117717Y-272500D02*
D03*
X106299D02*
D03*
X117717Y-302500D02*
D03*
X106299D02*
D03*
X117717Y-352500D02*
D03*
X106299D02*
D03*
X117717Y-282500D02*
D03*
X106299D02*
D03*
X117717Y-322500D02*
D03*
X106299D02*
D03*
X117717Y-342500D02*
D03*
X106299D02*
D03*
X167583Y-152000D02*
D03*
X179000D02*
D03*
X15209Y-355000D02*
D03*
X3791D02*
D03*
X94917Y-124500D02*
D03*
X83500D02*
D03*
X226500Y-176000D02*
D03*
X237917D02*
D03*
X94917Y-115500D02*
D03*
X83500D02*
D03*
X67209Y-92500D02*
D03*
X55791D02*
D03*
X238000Y-195500D02*
D03*
X226583D02*
D03*
X178083Y-272000D02*
D03*
X189500D02*
D03*
X178083Y-241500D02*
D03*
X189500Y-241500D02*
D03*
X178083Y-230000D02*
D03*
X189500D02*
D03*
X178083Y-181000D02*
D03*
X189500D02*
D03*
X-95000Y-63000D02*
D03*
X-83583Y-63000D02*
D03*
X-95000Y-72000D02*
D03*
X-83583D02*
D03*
X189500Y-282000D02*
D03*
X178083D02*
D03*
X189500Y-251500D02*
D03*
X178083Y-251500D02*
D03*
X189500Y-220000D02*
D03*
X178083D02*
D03*
X189500Y-190000D02*
D03*
X178083D02*
D03*
D21*
X180000Y-120500D02*
D03*
X171927Y-128573D02*
D03*
X194500Y-106500D02*
D03*
X202573Y-98427D02*
D03*
D22*
X125839Y-222831D02*
D03*
X123280D02*
D03*
X120721D02*
D03*
X118161D02*
D03*
X125839Y-239169D02*
D03*
X123280D02*
D03*
X120721D02*
D03*
X118161D02*
D03*
D23*
X220000Y0D02*
D03*
Y-14764D02*
D03*
X260000Y0D02*
D03*
Y-14764D02*
D03*
X210000Y0D02*
D03*
Y-14764D02*
D03*
X250000Y0D02*
D03*
Y-14764D02*
D03*
X-29000Y9882D02*
D03*
Y-4882D02*
D03*
X-19500Y9882D02*
D03*
Y-4882D02*
D03*
X200000Y0D02*
D03*
Y-14764D02*
D03*
X240000Y0D02*
D03*
Y-14764D02*
D03*
X230000Y0D02*
D03*
Y-14764D02*
D03*
X-38500Y9882D02*
D03*
Y-4882D02*
D03*
X-47500Y-4882D02*
D03*
Y9882D02*
D03*
D24*
X-1740Y-46307D02*
D03*
X2000D02*
D03*
X5740D02*
D03*
Y-34693D02*
D03*
X2000Y-34693D02*
D03*
X-1740Y-34693D02*
D03*
D25*
X146906Y-52500D02*
D03*
Y-57500D02*
D03*
Y-62500D02*
D03*
Y-67500D02*
D03*
Y-72500D02*
D03*
Y-77500D02*
D03*
Y-82500D02*
D03*
Y-87500D02*
D03*
X185094Y-52500D02*
D03*
Y-57500D02*
D03*
Y-62500D02*
D03*
Y-67500D02*
D03*
Y-72500D02*
D03*
Y-77500D02*
D03*
Y-82500D02*
D03*
Y-87500D02*
D03*
D26*
X-36205Y-109000D02*
D03*
Y-114000D02*
D03*
Y-119000D02*
D03*
Y-124000D02*
D03*
X-16795Y-109000D02*
D03*
Y-114000D02*
D03*
Y-119000D02*
D03*
Y-124000D02*
D03*
D27*
X14279Y-344016D02*
D03*
Y-341457D02*
D03*
Y-338898D02*
D03*
Y-336339D02*
D03*
Y-333780D02*
D03*
Y-331221D02*
D03*
Y-328661D02*
D03*
Y-326102D02*
D03*
Y-323543D02*
D03*
Y-320984D02*
D03*
X-13280Y-344016D02*
D03*
Y-341457D02*
D03*
Y-338898D02*
D03*
Y-336339D02*
D03*
Y-333780D02*
D03*
Y-331221D02*
D03*
Y-328661D02*
D03*
Y-326102D02*
D03*
Y-323543D02*
D03*
Y-320984D02*
D03*
D28*
X52248Y-110500D02*
D03*
Y-115500D02*
D03*
Y-120500D02*
D03*
Y-125500D02*
D03*
X70752Y-110500D02*
D03*
Y-115500D02*
D03*
Y-120500D02*
D03*
Y-125500D02*
D03*
D29*
X11917Y-309839D02*
D03*
Y-307279D02*
D03*
Y-304720D02*
D03*
Y-302161D02*
D03*
X-10917Y-309839D02*
D03*
Y-307279D02*
D03*
Y-304720D02*
D03*
Y-302161D02*
D03*
D30*
X45724Y-341374D02*
D03*
Y-325626D02*
D03*
X36276D02*
D03*
Y-341374D02*
D03*
D31*
X215539Y-253071D02*
D03*
Y-255039D02*
D03*
Y-257008D02*
D03*
Y-258976D02*
D03*
Y-260945D02*
D03*
Y-262913D02*
D03*
Y-264882D02*
D03*
Y-266850D02*
D03*
X235618D02*
D03*
Y-264882D02*
D03*
Y-262913D02*
D03*
Y-260945D02*
D03*
Y-258976D02*
D03*
Y-257008D02*
D03*
Y-255039D02*
D03*
Y-253071D02*
D03*
D32*
X218689Y-270000D02*
D03*
X220657D02*
D03*
X222626D02*
D03*
X224594D02*
D03*
X226563D02*
D03*
X228532D02*
D03*
X230500D02*
D03*
X232469D02*
D03*
Y-249921D02*
D03*
X230500D02*
D03*
X228532D02*
D03*
X226563D02*
D03*
X224594D02*
D03*
X222626D02*
D03*
X220657D02*
D03*
X218689D02*
D03*
D33*
X225579Y-259961D02*
D03*
D34*
X-115000Y-95000D02*
D03*
X-117500Y-197500D02*
D03*
X-115000Y-69000D02*
D03*
D35*
X-95000Y-81000D02*
D03*
Y-95173D02*
D03*
D36*
Y-121000D02*
D03*
Y-149098D02*
D03*
D37*
X-95189Y-48559D02*
D03*
X-90268Y-48559D02*
D03*
X-85386D02*
D03*
X-80465D02*
D03*
D38*
X-60583Y-23283D02*
D03*
X-115071Y-23283D02*
D03*
D70*
X-90268Y-54768D02*
Y-48559D01*
Y-28268D01*
D71*
X-119000Y-186000D02*
X-95000Y-162000D01*
Y-149098D01*
X-119000Y-364000D02*
Y-186000D01*
Y-364000D02*
X-110000Y-373000D01*
X143500D01*
X171874Y-344626D01*
X182008D01*
X-95000Y-149098D02*
X-13902D01*
X32205Y-195205D01*
Y-203827D02*
Y-195205D01*
D72*
X245000Y-344626D02*
X245000D01*
X237126Y-352500D02*
X245000Y-344626D01*
D73*
X-95189Y-62811D02*
X-95000Y-63000D01*
D74*
X91299Y-196500D02*
D03*
Y-266500D02*
D03*
Y-256500D02*
D03*
Y-246500D02*
D03*
Y-236500D02*
D03*
Y-226500D02*
D03*
Y-216500D02*
D03*
Y-206500D02*
D03*
Y-186500D02*
D03*
Y-292500D02*
D03*
Y-302500D02*
D03*
Y-312500D02*
D03*
Y-322500D02*
D03*
Y-332500D02*
D03*
Y-342500D02*
D03*
Y-352500D02*
D03*
X-98701Y-222500D02*
D03*
Y-232500D02*
D03*
Y-242500D02*
D03*
Y-252500D02*
D03*
Y-262500D02*
D03*
Y-272500D02*
D03*
Y-282500D02*
D03*
Y-312500D02*
D03*
Y-322500D02*
D03*
Y-332500D02*
D03*
Y-342500D02*
D03*
Y-352500D02*
D03*
X265000Y-97500D02*
D03*
Y-87500D02*
D03*
Y-77500D02*
D03*
Y-67500D02*
D03*
X150000Y-0D02*
D03*
X140000Y10000D02*
D03*
Y-0D02*
D03*
X130000Y10000D02*
D03*
Y-0D02*
D03*
X120000Y10000D02*
D03*
Y0D02*
D03*
X110000Y10000D02*
D03*
Y-0D02*
D03*
X100000Y10000D02*
D03*
Y-0D02*
D03*
X90000Y10000D02*
D03*
Y0D02*
D03*
X80000Y10000D02*
D03*
X80000Y-0D02*
D03*
X70000Y10000D02*
D03*
Y-0D02*
D03*
X60000Y10000D02*
D03*
Y-0D02*
D03*
X50000Y10000D02*
D03*
Y-0D02*
D03*
X40000Y10000D02*
D03*
X40000Y0D02*
D03*
X30000Y10000D02*
D03*
X30000Y0D02*
D03*
X20000Y10000D02*
D03*
Y-0D02*
D03*
X10000Y10000D02*
D03*
Y-0D02*
D03*
X0Y10000D02*
D03*
Y0D02*
D03*
D75*
X91299Y-176500D02*
D03*
Y-282500D02*
D03*
X-98701Y-212500D02*
D03*
Y-302500D02*
D03*
X265000Y-57500D02*
D03*
D76*
X245000Y-352500D02*
D03*
D77*
X237126D02*
D03*
X229252D02*
D03*
X221378D02*
D03*
X213504D02*
D03*
X205630D02*
D03*
X197756D02*
D03*
X189882D02*
D03*
X182008D02*
D03*
X245000Y-344626D02*
D03*
X237126D02*
D03*
X229252D02*
D03*
X221378D02*
D03*
X213504D02*
D03*
X205630D02*
D03*
X197756D02*
D03*
X189882D02*
D03*
X182008D02*
D03*
X32205Y-211701D02*
D03*
Y-219575D02*
D03*
Y-227449D02*
D03*
Y-235323D02*
D03*
Y-243197D02*
D03*
Y-251071D02*
D03*
Y-258945D02*
D03*
Y-266819D02*
D03*
X24331Y-203827D02*
D03*
Y-211701D02*
D03*
Y-219575D02*
D03*
Y-227449D02*
D03*
Y-235323D02*
D03*
Y-243197D02*
D03*
Y-251071D02*
D03*
Y-258945D02*
D03*
Y-266819D02*
D03*
D78*
X32205Y-203827D02*
D03*
D79*
X205585Y-118415D02*
D03*
D80*
X198793Y-125207D02*
D03*
X192000Y-132000D02*
D03*
D81*
X150000Y10000D02*
D03*
D82*
X-98654Y-21000D02*
D03*
X-77000D02*
D03*
D83*
X153500Y-342500D02*
D03*
X-45000Y-358000D02*
D03*
X209500Y-244000D02*
D03*
X32000Y-339500D02*
D03*
X-3000Y-322500D02*
D03*
X-18000Y-294000D02*
D03*
Y-314000D02*
D03*
X108500Y-232000D02*
D03*
X138500Y-206000D02*
D03*
X90000Y-160500D02*
D03*
X107000Y-207000D02*
D03*
X14500Y-109500D02*
D03*
X-50500Y-94500D02*
D03*
X214000Y-63500D02*
D03*
X157000Y-277000D02*
D03*
X171000Y-227500D02*
D03*
X165500Y-187000D02*
D03*
X245000Y-118000D02*
D03*
X235209Y-230209D02*
D03*
X216000Y-304500D02*
D03*
X247500Y-304000D02*
D03*
X500Y-331000D02*
D03*
X-32500Y-305000D02*
D03*
X18500Y-293500D02*
D03*
X-9000Y-27000D02*
D03*
X-69500Y3000D02*
D03*
X65000Y-175000D02*
D03*
X63000Y-188000D02*
D03*
X5500Y-53000D02*
D03*
X-2500Y-57000D02*
D03*
X118500Y-97500D02*
D03*
X124000Y-113000D02*
D03*
X148500Y-312000D02*
D03*
X91000Y-77500D02*
D03*
X101500Y-142500D02*
D03*
X153500Y-333500D02*
D03*
X147000Y-267500D02*
D03*
X46500Y-62000D02*
D03*
X173000Y-138500D02*
D03*
X-57000Y-340000D02*
D03*
X66000Y-360000D02*
D03*
X159500Y-130000D02*
D03*
X170000Y-110500D02*
D03*
X-46000Y-326000D02*
D03*
X-38500Y-35500D02*
D03*
X-47500Y-40500D02*
D03*
X207000Y-146500D02*
D03*
X262500Y-153000D02*
D03*
X-5500Y-354500D02*
D03*
X255000Y-153500D02*
D03*
X-10500Y-360500D02*
D03*
X54500Y-348500D02*
D03*
X167500Y-142500D02*
D03*
X109000Y-137500D02*
D03*
X150000Y-205500D02*
D03*
X114000Y-105500D02*
D03*
X227500Y-304500D02*
D03*
X245500Y-237000D02*
D03*
X134000Y-67000D02*
D03*
X203500Y-189000D02*
D03*
X164500Y-233500D02*
D03*
X167000Y-297000D02*
D03*
X203000Y-307000D02*
D03*
X-36500Y-132500D02*
D03*
X137716Y-146783D02*
D03*
X-6500Y-124000D02*
D03*
X144000Y-154500D02*
D03*
X-52500Y-129000D02*
D03*
X-52000Y-191500D02*
D03*
X-21000Y-222500D02*
D03*
X71000Y-274000D02*
D03*
X-29000Y-341500D02*
D03*
X70000Y-332000D02*
D03*
X61500Y-354500D02*
D03*
X61000Y-223500D02*
D03*
X69000Y-235000D02*
D03*
X134500Y-240000D02*
D03*
X77000Y-246500D02*
D03*
D84*
X221248Y-255630D02*
D03*
X225579D02*
D03*
X229909D02*
D03*
X221248Y-259961D02*
D03*
X225579D02*
D03*
X229909D02*
D03*
X221248Y-264291D02*
D03*
X225579D02*
D03*
X229909D02*
D03*
M02*
